<svg width="1438" height="105" viewBox="0 0 1438 105" fill="none" xmlns="http://www.w3.org/2000/svg">
<g clip-path="url(#clip0_4274_23325)">
<rect width="1440" height="105" transform="translate(-2)" fill="#1E61DC"/>
<g opacity="0.3">
<rect x="404.848" y="-50.9385" width="20" height="500" transform="rotate(-45 404.848 -50.9385)" fill="white"/>
<rect x="617.312" y="104.958" width="20" height="500" transform="rotate(-45 617.312 104.958)" fill="white"/>
<rect x="249.285" y="-263.068" width="20" height="500" transform="rotate(-45 249.285 -263.068)" fill="white"/>
<rect x="461.416" y="-107.506" width="20" height="500" transform="rotate(-45 461.416 -107.506)" fill="white"/>
<rect x="673.883" y="48.3887" width="20" height="500" transform="rotate(-45 673.883 48.3887)" fill="white"/>
<rect x="305.854" y="-319.637" width="20" height="500" transform="rotate(-45 305.854 -319.637)" fill="white"/>
<rect x="517.984" y="-164.076" width="20" height="500" transform="rotate(-45 517.984 -164.076)" fill="white"/>
<rect x="730.451" y="-8.18164" width="20" height="500" transform="rotate(-45 730.451 -8.18164)" fill="white"/>
<rect x="574.555" y="-220.645" width="20" height="500" transform="rotate(-45 574.555 -220.645)" fill="white"/>
<rect x="787.018" y="-64.751" width="20" height="500" transform="rotate(-45 787.018 -64.751)" fill="white"/>
<rect x="999.148" y="90.8145" width="20" height="500" transform="rotate(-45 999.148 90.8145)" fill="white"/>
<rect x="1168.53" y="-78.5615" width="20" height="500" transform="rotate(-45 1168.53 -78.5615)" fill="white"/>
<rect x="631.123" y="-277.212" width="20" height="500" transform="rotate(-45 631.123 -277.212)" fill="white"/>
<rect x="843.588" y="-121.316" width="20" height="500" transform="rotate(-45 843.588 -121.316)" fill="white"/>
<rect x="1012.96" y="-290.693" width="20" height="500" transform="rotate(-45 1012.96 -290.693)" fill="white"/>
<rect x="1055.72" y="34.2461" width="20" height="500" transform="rotate(-45 1055.72 34.2461)" fill="white"/>
<rect x="1225.09" y="-135.129" width="20" height="500" transform="rotate(-45 1225.09 -135.129)" fill="white"/>
<rect x="687.691" y="-333.78" width="20" height="500" transform="rotate(-45 687.691 -333.78)" fill="white"/>
<rect x="900.158" y="-177.886" width="20" height="500" transform="rotate(-45 900.158 -177.886)" fill="white"/>
<rect x="1069.53" y="-347.261" width="20" height="500" transform="rotate(-45 1069.53 -347.261)" fill="white"/>
<rect x="1112.29" y="-22.3242" width="20" height="500" transform="rotate(-45 1112.29 -22.3242)" fill="white"/>
<rect x="1281.66" y="-191.699" width="20" height="500" transform="rotate(-45 1281.66 -191.699)" fill="white"/>
<rect x="956.723" y="-234.455" width="20" height="500" transform="rotate(-45 956.723 -234.455)" fill="white"/>
<rect x="1380.66" y="77.002" width="20" height="500" transform="rotate(-45 1380.66 77.002)" fill="white"/>
<rect x="1437.23" y="20.4336" width="20" height="500" transform="rotate(-45 1437.23 20.4336)" fill="white"/>
</g>
</g>
<defs>
<clipPath id="clip0_4274_23325">
<rect width="1440" height="105" fill="white" transform="translate(-2)"/>
</clipPath>
</defs>
</svg>
