<svg width="183" height="35" viewBox="0 0 183 35" fill="none" xmlns="http://www.w3.org/2000/svg">
  <path
    d="M0 29.5459V14.2342C0 12.638 0.572148 11.28 1.71644 10.1601C2.86074 9.02732 4.23909 8.46094 5.85151 8.46094V23.7533C5.85151 25.3495 5.27936 26.714 4.13506 27.8467C2.99077 28.9795 1.61242 29.5459 0 29.5459Z"
    fill="black" />
  <path
    d="M26.0947 14.2451C26.7197 14.8115 27.3105 15.6367 27.8672 16.7207C28.4238 17.8047 28.7021 19.2207 28.7021 20.9688V28C27.4912 28 26.4561 27.5703 25.5967 26.7109C24.7471 25.8516 24.3223 24.8164 24.3223 23.6055V20.9688C24.3223 19.416 23.9023 18.2344 23.0625 17.4238C22.3203 16.75 21.4316 16.4131 20.3965 16.4131C19.8496 16.4131 19.2002 16.5938 18.4482 16.9551C17.7061 17.3066 17.3057 17.9707 17.2471 18.9473V28C16.0264 28 14.9912 27.5801 14.1416 26.7402C13.3018 25.9004 12.8623 24.8555 12.8232 23.6055L12.75 16.3398C12.75 15.1387 13.1748 14.1133 14.0244 13.2637C14.8838 12.4043 15.9189 11.9746 17.1299 11.9746V12.6777C18.1162 12.248 19.2051 12.0332 20.3965 12.0332C22.5645 12.0332 24.4639 12.7705 26.0947 14.2451ZM43.292 23.0635C43.8584 23.5029 44.1514 24.0547 44.1709 24.7188C44.2002 25.3828 43.9512 25.959 43.4238 26.4473C42.0957 27.4824 40.6797 28 39.1758 28C37.4277 28 35.8945 27.3896 34.5762 26.1689C34.0684 25.7197 33.5947 25.0654 33.1553 24.2061C32.7158 23.3467 32.4961 22.2383 32.4961 20.8809V18.0391C31.8418 18.0195 31.2949 17.7949 30.8555 17.3652C30.4258 16.9258 30.2012 16.3789 30.1816 15.7246V14.3623H32.4961V14.1572C32.4961 12.9463 32.9209 11.9111 33.7705 11.0518C34.6299 10.1924 35.665 9.7627 36.876 9.7627V14.377C37.5986 14.3965 38.1992 14.6455 38.6777 15.124C39.1562 15.5928 39.4053 16.1885 39.4248 16.9111V18.0391H36.876V20.8809C36.876 21.8086 37.125 22.5215 37.623 23.0195C38.0527 23.4199 38.5703 23.6201 39.1758 23.6201C39.2734 23.6201 39.4639 23.5957 39.7471 23.5469C40.0303 23.4883 40.3086 23.3467 40.582 23.1221C40.9727 22.79 41.417 22.624 41.915 22.624C42.4131 22.6143 42.8721 22.7607 43.292 23.0635ZM52.3594 11.9453C53.5215 11.9453 54.6445 12.2578 55.7285 12.8828C56.8125 13.5078 57.6377 14.4258 58.2041 15.6367L54.3809 18.4346C54.3809 17.7705 54.2344 17.292 53.9414 16.999C53.6582 16.7061 53.3506 16.5254 53.0186 16.457C52.6963 16.3789 52.4766 16.3398 52.3594 16.3398C51.7637 16.3398 51.2461 16.54 50.8066 16.9404C50.3184 17.4287 50.0742 18.1416 50.0742 19.0791V28C48.8633 28 47.8281 27.5703 46.9688 26.7109C46.1094 25.8516 45.6797 24.8164 45.6797 23.6055V16.3398C45.6797 15.1289 46.1045 14.0986 46.9541 13.249C47.8135 12.3994 48.8486 11.9746 50.0596 11.9746V12.3555C50.792 12.082 51.5586 11.9453 52.3594 11.9453ZM70.5234 11.9746C71.7344 11.9746 72.7695 12.4043 73.6289 13.2637C74.4883 14.1133 74.918 15.1436 74.918 16.3545V23.6055C74.918 24.8164 74.4883 25.8516 73.6289 26.7109C72.7695 27.5703 71.7344 28 70.5234 28V27.3848V26.96C69.3027 27.7021 67.9941 28.0732 66.5977 28.0732C65.9336 28.0732 65.2695 27.9805 64.6055 27.7949C62.5449 27.1895 60.9971 25.9248 59.9619 24.001C58.9951 22.0967 58.7949 20.0898 59.3613 17.9805C60.0254 15.8027 61.2607 14.1865 63.0674 13.1318C64.874 12.0674 66.832 11.7988 68.9414 12.3262C69.5078 12.4824 70.0352 12.7021 70.5234 12.9854V11.9746ZM69.9521 20.9541C70.2158 19.958 70.1377 19.0449 69.7178 18.2148C69.3076 17.3848 68.6533 16.8281 67.7549 16.5449C67.4814 16.4766 67.208 16.4424 66.9346 16.4424C66.1924 16.4424 65.5088 16.6914 64.8838 17.1895C64.2686 17.6777 63.834 18.3369 63.5801 19.167C63.3164 20.1533 63.4092 21.0859 63.8584 21.9648C64.2979 22.7852 64.9424 23.3223 65.792 23.5762C66.7002 23.8008 67.5449 23.6689 68.3262 23.1807C69.1074 22.6826 69.6494 21.9404 69.9521 20.9541ZM90.709 11.9746C91.5293 11.9746 92.1543 12.3066 92.584 12.9707C93.0137 13.6348 93.0723 14.3574 92.7598 15.1387L88.0137 25.7588C87.2031 27.2529 86.0508 28 84.5566 28C83.0625 28 81.9102 27.2529 81.0996 25.7588L76.3535 15.1387C76.041 14.3574 76.0996 13.6348 76.5293 12.9707C76.9688 12.3066 77.5938 11.9746 78.4043 11.9746C79.3125 11.9746 80.001 12.4336 80.4697 13.3516L84.5566 23.0781L88.6436 13.3516C89.1221 12.4336 89.8105 11.9746 90.709 11.9746ZM108.36 18.2002C108.36 18.21 108.36 18.2246 108.36 18.2441C108.526 19.1426 108.331 19.9189 107.774 20.5732C107.228 21.2275 106.5 21.5693 105.592 21.5986C104.508 21.5986 103.375 21.5986 102.193 21.5986C101.021 21.5889 100.016 21.584 99.1758 21.584C98.3457 21.5742 97.9111 21.5693 97.8721 21.5693C97.9893 21.8525 98.1455 22.1211 98.3408 22.375C98.9268 23.0977 99.6592 23.5029 100.538 23.5908C101.212 23.6494 101.847 23.498 102.442 23.1367C102.794 22.9121 103.175 22.7949 103.585 22.7852H103.805C104.898 22.873 105.582 23.3809 105.855 24.3086C106.129 25.2363 105.836 26.042 104.977 26.7256C104.176 27.2725 103.243 27.6533 102.179 27.8682C101.515 27.9951 100.836 28.0293 100.143 27.9707C98.0137 27.7461 96.2656 26.7842 94.8984 25.085C93.5898 23.3857 93.0234 21.4521 93.1992 19.2842C93.4141 17.1064 94.3125 15.2998 95.8945 13.8643C97.5449 12.4287 99.4395 11.7939 101.578 11.96C102.135 12.0088 102.682 12.1211 103.219 12.2969C103.99 12.5508 104.698 12.9219 105.343 13.4102C106.925 14.6406 107.931 16.2373 108.36 18.2002ZM97.8867 18.4199L103.893 18.4346C103.375 17.2139 102.472 16.5156 101.183 16.3398C100.909 16.3105 100.636 16.3203 100.362 16.3691C99.7959 16.4766 99.2783 16.7354 98.8096 17.1455C98.4092 17.4971 98.1016 17.9219 97.8867 18.4199ZM116.754 11.9453C117.916 11.9453 119.039 12.2578 120.123 12.8828C121.207 13.5078 122.032 14.4258 122.599 15.6367L118.775 18.4346C118.775 17.7705 118.629 17.292 118.336 16.999C118.053 16.7061 117.745 16.5254 117.413 16.457C117.091 16.3789 116.871 16.3398 116.754 16.3398C116.158 16.3398 115.641 16.54 115.201 16.9404C114.713 17.4287 114.469 18.1416 114.469 19.0791V28C113.258 28 112.223 27.5703 111.363 26.7109C110.504 25.8516 110.074 24.8164 110.074 23.6055V16.3398C110.074 15.1289 110.499 14.0986 111.349 13.249C112.208 12.3994 113.243 11.9746 114.454 11.9746V12.3555C115.187 12.082 115.953 11.9453 116.754 11.9453ZM125.118 22.4043C125.919 22.2578 126.593 22.4775 127.14 23.0635C127.296 23.249 127.486 23.3955 127.711 23.5029C127.984 23.6299 128.287 23.6885 128.619 23.6787C128.961 23.6592 129.249 23.5811 129.483 23.4443C129.591 23.3857 129.669 23.3271 129.718 23.2686C129.776 23.21 129.815 23.1562 129.835 23.1074C129.835 23.1074 129.835 23.1025 129.835 23.0928C129.854 23.0439 129.869 22.9805 129.879 22.9023C129.879 22.8926 129.879 22.8828 129.879 22.873C129.879 22.8535 129.879 22.8389 129.879 22.8291C129.879 22.8193 129.879 22.8145 129.879 22.8145C129.879 22.8047 129.879 22.7998 129.879 22.7998C129.879 22.7998 129.879 22.8047 129.879 22.8145C129.879 22.834 129.884 22.8486 129.894 22.8584C129.903 22.8877 129.913 22.9072 129.923 22.917C129.933 22.9268 129.933 22.9316 129.923 22.9316C129.923 22.9316 129.918 22.9219 129.908 22.9023C129.85 22.8535 129.728 22.7754 129.542 22.668C129.161 22.4824 128.658 22.2871 128.033 22.082C127.936 22.043 127.828 22.0039 127.711 21.9648C127.203 21.7988 126.642 21.584 126.026 21.3203C125.655 21.1641 125.26 20.9492 124.84 20.6758C124.41 20.4023 123.995 20.002 123.595 19.4746C123.194 18.918 122.94 18.3027 122.833 17.6289C122.745 17.0723 122.76 16.4912 122.877 15.8857C123.014 15.2705 123.258 14.709 123.609 14.2012C123.961 13.7031 124.356 13.2979 124.796 12.9854C125.685 12.3701 126.607 12.0039 127.564 11.8867C128.512 11.7402 129.464 11.7988 130.421 12.0625C130.899 12.1992 131.368 12.3994 131.827 12.6631C132.286 12.9268 132.701 13.2637 133.072 13.6738L133.102 13.6885C133.609 14.3037 133.751 14.9531 133.526 15.6367C133.302 16.3105 132.804 16.7451 132.032 16.9404L131.153 17.1016C130.606 17.1895 130.104 17.0625 129.645 16.7207C129.4 16.5254 129.098 16.3838 128.736 16.2959C128.375 16.1982 127.999 16.2324 127.608 16.3984C127.481 16.4473 127.374 16.5205 127.286 16.6182C127.188 16.7256 127.149 16.8428 127.169 16.9697C127.169 16.9697 127.164 16.9648 127.154 16.9551C127.154 16.9453 127.149 16.9355 127.14 16.9258C127.755 17.3164 128.419 17.6143 129.132 17.8193C129.2 17.8389 129.269 17.8584 129.337 17.8779C130.108 18.1221 130.855 18.4248 131.578 18.7861C131.979 18.9814 132.398 19.2646 132.838 19.6357C133.297 20.0264 133.673 20.5586 133.966 21.2324C134.103 21.5742 134.19 21.9111 134.229 22.2432C134.229 22.2627 134.229 22.2822 134.229 22.3018C134.239 22.3701 134.249 22.4336 134.259 22.4922V22.6973C134.259 22.7266 134.259 22.7559 134.259 22.7852C134.259 22.8926 134.259 23 134.259 23.1074C134.229 23.6836 134.103 24.25 133.878 24.8066C133.36 25.9297 132.613 26.75 131.637 27.2676C130.709 27.7754 129.757 28.0391 128.78 28.0586C127.794 28.0977 126.832 27.9121 125.895 27.502C124.947 27.0625 124.161 26.4229 123.536 25.583C123.536 25.5732 123.531 25.5635 123.521 25.5537C123.121 24.9287 123.053 24.2988 123.316 23.6641C123.59 23.0293 124.088 22.6289 124.811 22.4629L125.118 22.4043ZM150.87 18.2002C150.87 18.21 150.87 18.2246 150.87 18.2441C151.036 19.1426 150.841 19.9189 150.284 20.5732C149.737 21.2275 149.01 21.5693 148.102 21.5986C147.018 21.5986 145.885 21.5986 144.703 21.5986C143.531 21.5889 142.525 21.584 141.686 21.584C140.855 21.5742 140.421 21.5693 140.382 21.5693C140.499 21.8525 140.655 22.1211 140.851 22.375C141.437 23.0977 142.169 23.5029 143.048 23.5908C143.722 23.6494 144.356 23.498 144.952 23.1367C145.304 22.9121 145.685 22.7949 146.095 22.7852H146.314C147.408 22.873 148.092 23.3809 148.365 24.3086C148.639 25.2363 148.346 26.042 147.486 26.7256C146.686 27.2725 145.753 27.6533 144.688 27.8682C144.024 27.9951 143.346 28.0293 142.652 27.9707C140.523 27.7461 138.775 26.7842 137.408 25.085C136.1 23.3857 135.533 21.4521 135.709 19.2842C135.924 17.1064 136.822 15.2998 138.404 13.8643C140.055 12.4287 141.949 11.7939 144.088 11.96C144.645 12.0088 145.191 12.1211 145.729 12.2969C146.5 12.5508 147.208 12.9219 147.853 13.4102C149.435 14.6406 150.44 16.2373 150.87 18.2002ZM140.396 18.4199L146.402 18.4346C145.885 17.2139 144.981 16.5156 143.692 16.3398C143.419 16.3105 143.146 16.3203 142.872 16.3691C142.306 16.4766 141.788 16.7354 141.319 17.1455C140.919 17.4971 140.611 17.9219 140.396 18.4199Z"
    fill="black" />
</svg>