<svg width="679" height="842" viewBox="0 0 679 842" fill="none" xmlns="http://www.w3.org/2000/svg">
<g clip-path="url(#clip0_4190_20459)">
<g opacity="0.4">
<path opacity="0.02" d="M346.305 806.892C472.584 805.675 574.547 768.322 574.044 723.463C573.542 678.604 470.765 643.225 344.485 644.443C218.206 645.66 116.243 683.013 116.746 727.872C117.248 772.731 220.025 808.11 346.305 806.892Z" fill="#0F0A26"/>
<path opacity="0.039" d="M346.289 806.096C471.316 804.891 572.268 767.904 571.771 723.484C571.274 679.063 469.516 644.03 344.489 645.234C219.461 646.439 118.509 683.426 119.007 727.847C119.504 772.267 221.262 807.301 346.289 806.096Z" fill="#0F0A26"/>
<path opacity="0.059" d="M346.286 805.305C470.086 804.111 570.046 767.489 569.553 723.506C569.061 679.524 468.302 644.836 344.502 646.03C220.702 647.224 120.742 683.846 121.235 727.829C121.727 771.811 222.486 806.499 346.286 805.305Z" fill="#0F0A26"/>
<path opacity="0.078" d="M346.276 804.511C468.848 803.329 567.816 767.071 567.329 723.527C566.841 679.983 467.082 645.641 344.51 646.823C221.938 648.005 122.97 684.263 123.457 727.807C123.945 771.351 223.704 805.693 346.276 804.511Z" fill="#0F0A26"/>
<path opacity="0.098" d="M346.268 803.718C467.588 802.548 565.546 766.656 565.063 723.55C564.581 680.444 465.84 646.448 344.52 647.617C223.2 648.787 125.242 684.68 125.725 727.786C126.207 770.892 224.948 804.888 346.268 803.718Z" fill="#0F0A26"/>
<path opacity="0.118" d="M346.254 802.922C466.346 801.765 563.312 766.238 562.835 723.57C562.357 680.903 464.617 647.252 344.525 648.409C224.434 649.567 127.467 685.094 127.945 727.761C128.422 770.429 226.163 804.08 346.254 802.922Z" fill="#0F0A26"/>
<path opacity="0.137" d="M346.25 802.13C465.114 800.984 561.089 765.821 560.616 723.592C560.143 681.363 463.401 648.058 344.538 649.204C225.674 650.35 129.699 685.513 130.172 727.742C130.645 769.972 227.386 803.276 346.25 802.13Z" fill="#0F0A26"/>
<path opacity="0.157" d="M346.241 801.337C463.853 800.203 558.818 765.406 558.35 723.615C557.882 681.824 462.159 648.864 344.547 649.998C226.934 651.132 131.97 685.93 132.438 727.721C132.906 769.512 228.629 802.471 346.241 801.337Z" fill="#0F0A26"/>
<path opacity="0.176" d="M346.232 800.543C462.616 799.421 556.589 764.988 556.126 723.635C555.663 682.283 460.94 649.669 344.555 650.791C228.171 651.914 134.199 686.346 134.662 727.699C135.125 769.052 229.848 801.665 346.232 800.543Z" fill="#0F0A26"/>
<path opacity="0.196" d="M346.221 799.751C461.377 798.64 554.358 764.573 553.9 723.658C553.442 682.744 459.718 650.476 344.562 651.586C229.406 652.697 136.425 686.764 136.883 727.679C137.341 768.594 231.065 800.861 346.221 799.751Z" fill="#0F0A26"/>
<path opacity="0.216" d="M346.21 798.954C460.114 797.856 552.084 764.154 551.631 723.678C551.178 683.202 458.473 651.279 344.569 652.377C230.666 653.474 138.695 687.177 139.148 727.653C139.601 768.129 232.306 800.051 346.21 798.954Z" fill="#0F0A26"/>
<path opacity="0.235" d="M346.206 798.163C458.882 797.076 549.861 763.738 549.412 723.7C548.964 683.663 457.258 652.086 344.582 653.172C231.906 654.259 140.927 687.597 141.375 727.635C141.824 767.673 233.529 799.249 346.206 798.163Z" fill="#0F0A26"/>
<path opacity="0.255" d="M346.197 797.368C457.645 796.294 547.632 763.321 547.188 723.721C546.745 684.122 456.039 652.891 344.591 653.965C233.143 655.04 143.155 688.013 143.599 727.613C144.042 767.212 234.748 798.443 346.197 797.368Z" fill="#0F0A26"/>
<path opacity="0.275" d="M346.189 796.576C456.385 795.513 545.362 762.905 544.923 723.744C544.485 684.582 454.797 653.697 344.601 654.76C234.404 655.822 145.428 688.43 145.866 727.592C146.305 766.753 235.992 797.638 346.189 796.576Z" fill="#0F0A26"/>
<path opacity="0.294" d="M346.179 795.781C455.147 794.731 543.132 762.488 542.698 723.765C542.265 685.042 453.577 654.502 344.608 655.553C235.64 656.603 147.655 688.846 148.089 727.569C148.522 766.293 237.21 796.832 346.179 795.781Z" fill="#0F0A26"/>
<path opacity="0.314" d="M346.171 794.988C453.911 793.949 540.904 762.071 540.476 723.786C540.047 685.502 452.359 655.308 344.618 656.347C236.878 657.385 149.885 689.264 150.313 727.548C150.742 765.833 238.43 796.027 346.171 794.988Z" fill="#0F0A26"/>
<path opacity="0.333" d="M346.16 794.195C452.649 793.168 538.631 761.655 538.207 723.809C537.784 685.962 451.114 656.114 344.625 657.141C238.137 658.168 152.154 689.681 152.578 727.527C153.002 765.374 239.671 795.222 346.16 794.195Z" fill="#0F0A26"/>
<path opacity="0.353" d="M346.151 793.402C451.412 792.387 536.403 761.239 535.984 723.831C535.565 686.422 449.895 656.92 344.634 657.935C239.373 658.95 154.383 690.098 154.801 727.506C155.22 764.914 240.89 794.417 346.151 793.402Z" fill="#0F0A26"/>
<path opacity="0.372" d="M346.144 792.608C450.176 791.604 534.176 760.821 533.762 723.851C533.348 686.882 448.677 657.725 344.645 658.728C240.612 659.731 156.613 690.514 157.027 727.484C157.441 764.454 242.112 793.611 346.144 792.608Z" fill="#0F0A26"/>
<path opacity="0.392" d="M346.134 791.815C448.915 790.824 531.904 760.406 531.495 723.874C531.086 687.342 447.434 658.531 344.653 659.522C241.872 660.513 158.883 690.931 159.292 727.463C159.702 763.994 243.353 792.806 346.134 791.815Z" fill="#0F0A26"/>
<path opacity="0.412" d="M346.126 791.021C447.679 790.042 529.676 759.989 529.272 723.896C528.868 687.802 446.215 659.337 344.663 660.316C243.11 661.295 161.113 691.348 161.517 727.442C161.921 763.535 244.574 792.001 346.126 791.021Z" fill="#0F0A26"/>
<path opacity="0.431" d="M346.116 790.227C446.441 789.26 527.447 759.571 527.047 723.916C526.648 688.261 444.995 660.142 344.67 661.109C244.346 662.076 163.34 691.764 163.74 727.42C164.139 763.075 245.792 791.194 346.116 790.227Z" fill="#0F0A26"/>
<path opacity="0.451" d="M346.107 789.394C445.18 788.439 525.175 759.133 524.78 723.938C524.386 688.744 443.752 660.987 344.679 661.942C245.606 662.897 165.611 692.203 166.006 727.398C166.4 762.593 247.034 790.349 346.107 789.394Z" fill="#0F0A26"/>
<path opacity="0.471" d="M346.099 788.6C443.944 787.656 522.947 758.716 522.558 723.959C522.169 689.203 442.534 661.792 344.689 662.735C246.844 663.679 167.841 692.619 168.23 727.376C168.619 762.132 248.254 789.543 346.099 788.6Z" fill="#0F0A26"/>
<path opacity="0.49" d="M346.085 787.804C442.702 786.873 520.713 758.298 520.329 723.98C519.945 689.662 441.311 662.596 344.694 663.527C248.078 664.458 170.066 693.033 170.45 727.351C170.834 761.669 249.469 788.735 346.085 787.804Z" fill="#0F0A26"/>
<path opacity="0.51" d="M346.079 787.013C441.444 786.094 518.445 757.883 518.066 724.004C517.686 690.124 440.07 663.404 344.705 664.323C249.34 665.243 172.339 693.453 172.718 727.333C173.098 761.213 250.714 787.933 346.079 787.013Z" fill="#0F0A26"/>
<path opacity="0.529" d="M346.072 786.219C440.209 785.312 516.218 757.466 515.844 724.024C515.469 690.583 438.853 664.209 344.716 665.116C250.579 666.024 174.569 693.87 174.944 727.311C175.318 760.753 251.935 787.127 346.072 786.219Z" fill="#0F0A26"/>
<path opacity="0.549" d="M346.062 785.426C438.971 784.53 513.989 757.049 513.619 724.046C513.25 691.043 437.632 665.014 344.724 665.91C251.815 666.806 176.797 694.287 177.166 727.29C177.536 760.293 253.153 786.322 346.062 785.426Z" fill="#0F0A26"/>
<path opacity="0.569" d="M346.05 784.63C437.707 783.746 511.714 756.631 511.349 724.066C510.985 691.501 436.387 665.818 344.73 666.702C253.073 667.585 179.066 694.7 179.43 727.265C179.795 759.83 254.393 785.513 346.05 784.63Z" fill="#0F0A26"/>
<path opacity="0.588" d="M346.044 783.839C436.473 782.967 509.489 756.216 509.129 724.089C508.769 691.963 435.17 666.625 344.741 667.497C254.312 668.369 181.297 695.12 181.656 727.247C182.016 759.374 255.615 784.711 346.044 783.839Z" fill="#0F0A26"/>
<path opacity="0.608" d="M346.034 783.045C435.235 782.185 507.259 755.8 506.904 724.111C506.55 692.423 433.95 667.431 344.749 668.291C255.548 669.151 183.524 695.537 183.879 727.226C184.234 758.914 256.833 783.906 346.034 783.045Z" fill="#0F0A26"/>
<path opacity="0.627" d="M346.026 782.252C433.976 781.404 504.989 755.383 504.639 724.133C504.289 692.883 432.708 668.237 344.759 669.085C256.81 669.933 185.796 695.953 186.146 727.204C186.496 758.454 258.077 783.1 346.026 782.252Z" fill="#0F0A26"/>
<path opacity="0.647" d="M346.017 781.458C432.739 780.622 502.76 754.966 502.415 724.154C502.07 693.343 431.489 669.042 344.768 669.879C258.047 670.715 188.025 696.371 188.37 727.183C188.715 757.994 259.296 782.294 346.017 781.458Z" fill="#0F0A26"/>
<path opacity="0.667" d="M346.005 780.662C431.498 779.838 500.528 754.547 500.188 724.174C499.848 693.8 430.267 669.846 344.774 670.669C259.281 671.493 190.251 696.784 190.591 727.157C190.931 757.531 260.512 781.485 346.005 780.662Z" fill="#0F0A26"/>
<path opacity="0.686" d="M346 779.871C430.241 779.059 498.261 754.133 497.925 724.198C497.59 694.262 429.027 670.654 344.786 671.466C260.544 672.278 192.525 697.204 192.86 727.139C193.195 757.075 261.758 780.683 346 779.871Z" fill="#0F0A26"/>
<path opacity="0.706" d="M345.991 779.078C429.004 778.277 496.032 753.717 495.702 724.22C495.371 694.723 427.808 671.459 344.794 672.26C261.781 673.06 194.753 697.621 195.083 727.118C195.414 756.615 262.977 779.878 345.991 779.078Z" fill="#0F0A26"/>
<path opacity="0.726" d="M345.981 778.285C427.766 777.496 493.802 753.3 493.477 724.241C493.152 695.183 426.588 672.265 344.802 673.054C263.017 673.842 196.981 698.038 197.306 727.097C197.631 756.156 264.195 779.073 345.981 778.285Z" fill="#0F0A26"/>
<path opacity="0.745" d="M345.973 777.491C426.507 776.714 491.532 752.883 491.212 724.263C490.891 695.642 425.346 673.07 344.812 673.847C264.279 674.623 199.253 698.454 199.573 727.075C199.894 755.695 265.439 778.267 345.973 777.491Z" fill="#0F0A26"/>
<path opacity="0.765" d="M345.963 776.697C425.269 775.933 489.303 752.467 488.987 724.285C488.671 696.102 424.126 673.876 344.82 674.641C265.515 675.406 201.48 698.872 201.796 727.054C202.112 755.236 266.657 777.462 345.963 776.697Z" fill="#0F0A26"/>
<path opacity="0.784" d="M345.953 775.904C424.03 775.151 487.073 752.05 486.762 724.306C486.452 696.563 422.905 674.682 344.828 675.435C266.75 676.188 203.708 699.289 204.019 727.033C204.329 754.776 267.875 776.657 345.953 775.904Z" fill="#0F0A26"/>
<path opacity="0.804" d="M345.942 775.106C422.768 774.365 484.799 751.63 484.494 724.324C484.188 697.019 421.661 675.484 344.835 676.224C268.01 676.964 205.978 699.7 206.284 727.005C206.589 754.311 269.117 775.846 345.942 775.106Z" fill="#0F0A26"/>
<path opacity="0.824" d="M345.975 774.35C421.576 773.62 482.619 751.248 482.318 724.379C482.016 697.511 420.485 676.321 344.884 677.051C269.283 677.78 208.24 700.153 208.541 727.022C208.843 753.89 270.374 775.08 345.975 774.35Z" fill="#0F0A26"/>
<path opacity="0.843" d="M345.966 773.557C420.339 772.839 480.39 750.831 480.094 724.401C479.797 697.971 419.266 677.127 344.893 677.845C270.52 678.563 210.469 700.57 210.765 727.001C211.061 753.431 271.593 774.275 345.966 773.557Z" fill="#0F0A26"/>
<path opacity="0.863" d="M345.957 772.763C419.078 772.057 478.119 750.414 477.827 724.423C477.536 698.431 418.023 677.932 344.902 678.638C271.78 679.344 212.74 700.987 213.032 726.979C213.323 752.97 272.836 773.469 345.957 772.763Z" fill="#0F0A26"/>
<path opacity="0.882" d="M345.948 771.971C417.841 771.277 475.89 749.999 475.603 724.445C475.317 698.892 416.804 678.739 344.91 679.433C273.017 680.127 214.969 701.405 215.255 726.958C215.542 752.512 274.055 772.665 345.948 771.971Z" fill="#0F0A26"/>
<path opacity="0.902" d="M345.939 771.176C416.604 770.494 473.661 749.581 473.379 724.466C473.098 699.351 415.584 679.544 344.919 680.226C274.254 680.908 217.197 701.821 217.479 726.936C217.76 752.051 275.274 771.858 345.939 771.176Z" fill="#0F0A26"/>
<path opacity="0.922" d="M345.932 770.384C415.345 769.714 471.391 749.167 471.115 724.49C470.838 699.813 414.343 680.351 344.93 681.021C275.517 681.691 219.47 702.239 219.747 726.916C220.024 751.593 276.519 771.054 345.932 770.384Z" fill="#0F0A26"/>
<path opacity="0.941" d="M345.921 769.55C414.106 768.892 469.161 748.726 468.889 724.51C468.618 700.293 413.123 681.195 344.938 681.853C276.752 682.511 221.698 702.676 221.969 726.893C222.241 751.11 277.736 770.208 345.921 769.55Z" fill="#0F0A26"/>
<path opacity="0.961" d="M345.911 768.756C412.868 768.11 466.931 748.31 466.664 724.531C466.398 700.753 411.902 682.001 344.945 682.647C277.988 683.293 223.925 703.094 224.192 726.872C224.458 750.65 278.954 769.403 345.911 768.756Z" fill="#0F0A26"/>
<path opacity="0.98" d="M345.901 767.962C411.606 767.328 464.659 747.893 464.397 724.553C464.135 701.213 410.659 682.806 344.953 683.44C279.248 684.075 226.196 703.51 226.457 726.85C226.719 750.19 280.196 768.597 345.901 767.962Z" fill="#0F0A26"/>
<path d="M345.894 767.169C410.371 766.547 462.432 747.477 462.175 724.575C461.918 701.673 409.441 683.612 344.964 684.234C280.487 684.857 228.426 703.927 228.683 726.829C228.939 749.73 281.417 767.792 345.894 767.169Z" fill="#0F0A26"/>
</g>
<path d="M345.421 762.018C516.448 762.018 655.093 687.912 655.093 596.497C655.093 505.082 516.448 430.976 345.421 430.976C174.394 430.976 35.749 505.082 35.749 596.497C35.749 687.912 174.394 762.018 345.421 762.018Z" fill="url(#paint0_linear_4190_20459)"/>
<path d="M345.421 760.708C516.448 760.708 655.093 686.602 655.093 595.187C655.093 503.772 516.448 429.666 345.421 429.666C174.394 429.666 35.749 503.772 35.749 595.187C35.749 686.602 174.394 760.708 345.421 760.708Z" fill="url(#paint1_linear_4190_20459)"/>
<path d="M345.421 733.127C516.448 733.127 655.093 659.021 655.093 567.606C655.093 476.191 516.448 402.085 345.421 402.085C174.394 402.085 35.749 476.191 35.749 567.606C35.749 659.021 174.394 733.127 345.421 733.127Z" fill="url(#paint2_linear_4190_20459)"/>
<g opacity="0.4">
<path opacity="0.02" d="M539.65 646.705C541.643 608.572 456.281 573.745 348.99 568.917C241.698 564.088 153.106 591.087 151.113 629.22C149.12 667.354 234.481 702.181 341.772 707.009C449.064 711.838 537.656 684.839 539.65 646.705Z" fill="#0F0A26"/>
<path opacity="0.039" d="M537.772 646.621C539.745 608.86 455.21 574.372 348.956 569.591C242.702 564.809 154.967 591.544 152.993 629.305C151.02 667.066 235.555 701.554 341.809 706.336C448.062 711.117 535.798 684.382 537.772 646.621Z" fill="#0F0A26"/>
<path opacity="0.059" d="M535.852 646.534C537.805 609.167 454.113 575.037 348.921 570.303C243.729 565.569 156.871 592.024 154.918 629.391C152.965 666.758 236.657 700.887 341.849 705.621C447.041 710.355 533.899 683.901 535.852 646.534Z" fill="#0F0A26"/>
<path opacity="0.078" d="M533.971 646.45C535.904 609.455 453.038 575.665 348.884 570.977C244.73 566.29 158.729 592.481 156.796 629.476C154.862 666.471 237.728 700.261 341.882 704.948C446.036 709.635 532.037 683.444 533.971 646.45Z" fill="#0F0A26"/>
<path opacity="0.098" d="M532.048 646.363C533.962 609.741 451.941 576.291 348.849 571.652C245.756 567.012 160.632 592.94 158.718 629.563C156.804 666.185 238.825 699.635 341.917 704.274C445.01 708.914 530.134 682.986 532.048 646.363Z" fill="#0F0A26"/>
<path opacity="0.118" d="M530.169 646.279C532.064 610.029 450.868 576.919 348.814 572.326C246.76 567.733 162.492 593.397 160.598 629.648C158.703 665.898 239.898 699.008 341.953 703.601C444.007 708.194 528.274 682.53 530.169 646.279Z" fill="#0F0A26"/>
<path opacity="0.137" d="M528.246 646.192C530.122 610.314 449.771 577.544 348.778 572.999C247.786 568.454 164.395 593.855 162.519 629.734C160.644 665.612 240.995 698.382 341.988 702.927C442.98 707.471 526.371 682.071 528.246 646.192Z" fill="#0F0A26"/>
<path opacity="0.157" d="M526.325 646.106C528.181 610.6 448.675 578.171 348.744 573.673C248.813 569.176 166.298 594.314 164.442 629.82C162.586 665.327 242.092 697.756 342.023 702.253C441.955 706.75 524.469 681.612 526.325 646.106Z" fill="#0F0A26"/>
<path opacity="0.176" d="M524.445 646.022C526.281 610.888 447.601 578.798 348.708 574.347C249.815 569.897 168.157 594.771 166.321 629.905C164.485 665.04 243.165 697.129 342.058 701.58C440.951 706.03 522.609 681.156 524.445 646.022Z" fill="#0F0A26"/>
<path opacity="0.196" d="M522.523 645.935C524.34 611.173 446.505 579.423 348.673 575.021C250.842 570.618 170.061 595.229 168.244 629.991C166.427 664.753 244.262 696.503 342.094 700.905C439.925 705.308 520.706 680.697 522.523 645.935Z" fill="#0F0A26"/>
<path opacity="0.216" d="M520.643 645.851C522.441 611.461 445.431 580.051 348.637 575.695C251.844 571.339 171.92 595.686 170.123 630.076C168.325 664.466 245.335 695.876 342.128 700.232C438.922 704.588 518.846 680.24 520.643 645.851Z" fill="#0F0A26"/>
<path opacity="0.235" d="M518.724 645.763C520.501 611.746 444.337 580.676 348.605 576.368C252.873 572.06 173.825 596.144 172.047 630.162C170.269 664.18 246.434 695.249 342.166 699.557C437.898 703.866 516.946 679.781 518.724 645.763Z" fill="#0F0A26"/>
<path opacity="0.255" d="M516.844 645.679C518.602 612.034 443.263 581.304 348.569 577.042C253.875 572.781 175.685 596.601 173.926 630.247C172.168 663.893 247.507 694.623 342.201 698.884C436.895 703.145 515.085 679.325 516.844 645.679Z" fill="#0F0A26"/>
<path opacity="0.275" d="M514.92 645.593C516.659 612.32 442.165 581.93 348.532 577.717C254.9 573.503 177.586 597.061 175.847 630.334C174.108 663.608 248.602 693.997 342.235 698.211C435.867 702.424 513.181 678.867 514.92 645.593Z" fill="#0F0A26"/>
<path opacity="0.294" d="M513.034 645.499C514.754 612.598 441.085 582.548 348.49 578.382C255.896 574.216 179.44 597.511 177.72 630.412C176.001 663.313 249.67 693.363 342.264 697.529C434.859 701.695 511.315 678.4 513.034 645.499Z" fill="#0F0A26"/>
<path opacity="0.314" d="M511.113 645.413C512.813 612.884 439.989 583.175 348.456 579.057C256.923 574.938 181.343 597.97 179.643 630.499C177.943 663.028 250.767 692.737 342.3 696.855C433.833 700.974 509.413 677.942 511.113 645.413Z" fill="#0F0A26"/>
<path opacity="0.333" d="M509.231 645.329C510.911 613.172 438.913 583.802 348.418 579.731C257.923 575.659 183.2 598.427 181.52 630.584C179.84 662.741 251.838 692.11 342.333 696.182C432.828 700.254 507.55 677.486 509.231 645.329Z" fill="#0F0A26"/>
<path opacity="0.353" d="M507.311 645.242C508.972 613.457 437.818 584.428 348.385 580.404C258.952 576.38 185.106 598.885 183.445 630.67C181.784 662.455 252.937 691.484 342.371 695.508C431.804 699.531 505.65 677.027 507.311 645.242Z" fill="#0F0A26"/>
<path opacity="0.372" d="M505.431 645.157C507.073 613.745 436.745 585.055 348.349 581.078C259.954 577.101 186.965 599.342 185.324 630.755C183.682 662.168 254.01 690.857 342.405 694.834C430.8 698.811 503.79 676.57 505.431 645.157Z" fill="#0F0A26"/>
<path opacity="0.392" d="M503.509 645.07C505.131 614.03 435.648 585.681 348.315 581.751C260.981 577.822 188.869 599.8 187.247 630.841C185.624 661.881 255.107 690.23 342.441 694.16C429.775 698.089 501.887 676.111 503.509 645.07Z" fill="#0F0A26"/>
<path opacity="0.412" d="M501.629 644.986C503.232 614.318 434.575 586.308 348.279 582.426C261.983 578.543 190.728 600.257 189.125 630.926C187.523 661.594 256.18 689.604 342.476 693.486C428.771 697.369 500.027 675.655 501.629 644.986Z" fill="#0F0A26"/>
<path opacity="0.431" d="M499.708 644.9C501.291 614.604 433.478 586.935 348.244 583.1C263.01 579.265 192.631 600.716 191.048 631.013C189.465 661.309 257.277 688.978 342.511 692.813C427.745 696.648 498.125 675.197 499.708 644.9Z" fill="#0F0A26"/>
<path opacity="0.451" d="M497.828 644.815C499.391 614.891 432.405 587.561 348.209 583.773C264.013 579.985 194.491 601.172 192.927 631.097C191.363 661.021 258.35 688.35 342.546 692.139C426.742 695.927 496.264 674.739 497.828 644.815Z" fill="#0F0A26"/>
<path opacity="0.471" d="M495.905 644.729C497.449 615.177 431.308 588.188 348.173 584.447C265.039 580.707 196.393 601.631 194.849 631.184C193.305 660.736 259.447 687.725 342.581 691.465C425.715 695.206 494.361 674.281 495.905 644.729Z" fill="#0F0A26"/>
<path opacity="0.49" d="M494.027 644.643C495.551 615.485 430.233 588.854 348.137 585.16C266.041 581.466 198.253 602.109 196.73 631.267C195.206 660.425 260.523 687.057 342.619 690.751C424.716 694.444 492.503 673.802 494.027 644.643Z" fill="#0F0A26"/>
<path opacity="0.51" d="M492.105 644.557C493.61 615.771 429.137 589.48 348.102 585.834C267.068 582.188 200.157 602.568 198.652 631.354C197.148 660.14 261.62 686.431 342.655 690.077C423.69 693.723 490.601 673.343 492.105 644.557Z" fill="#0F0A26"/>
<path opacity="0.529" d="M490.225 644.473C491.71 616.059 428.063 590.108 348.067 586.508C268.07 582.909 202.016 603.025 200.531 631.439C199.046 659.853 262.693 685.805 342.69 689.404C422.687 693.003 488.741 672.887 490.225 644.473Z" fill="#0F0A26"/>
<path opacity="0.549" d="M488.303 644.386C489.768 616.344 426.966 590.733 348.031 587.182C269.096 583.63 203.918 603.483 202.453 631.525C200.988 659.567 263.789 685.178 342.725 688.729C421.66 692.281 486.837 672.428 488.303 644.386Z" fill="#0F0A26"/>
<path opacity="0.569" d="M486.425 644.302C487.87 616.632 425.894 591.361 347.997 587.856C270.1 584.351 205.78 603.94 204.334 631.61C202.888 659.279 264.864 684.551 342.761 688.056C420.658 691.561 484.979 671.971 486.425 644.302Z" fill="#0F0A26"/>
<path opacity="0.588" d="M484.501 644.215C485.928 616.918 424.796 591.986 347.961 588.529C271.125 585.072 207.681 604.398 206.255 631.696C204.828 658.993 265.959 683.925 342.795 687.382C419.631 690.839 483.075 671.512 484.501 644.215Z" fill="#0F0A26"/>
<path opacity="0.608" d="M482.623 644.131C484.03 617.205 423.724 592.614 347.927 589.203C272.129 585.793 209.542 604.855 208.135 631.781C206.728 658.706 267.034 683.298 342.832 686.708C418.629 690.119 481.216 671.056 482.623 644.131Z" fill="#0F0A26"/>
<path opacity="0.627" d="M480.699 644.045C482.087 617.491 422.626 593.24 347.89 589.877C273.154 586.515 211.444 605.314 210.056 631.868C208.669 658.421 268.129 682.672 342.865 686.035C417.602 689.397 479.312 670.598 480.699 644.045Z" fill="#0F0A26"/>
<path opacity="0.647" d="M478.819 643.96C480.187 617.779 421.552 593.867 347.854 590.551C274.156 587.235 213.303 605.771 211.935 631.952C210.567 658.133 269.202 682.045 342.9 685.36C416.598 688.676 477.451 670.141 478.819 643.96Z" fill="#0F0A26"/>
<path opacity="0.667" d="M476.898 643.873C478.246 618.065 420.456 594.493 347.82 591.225C275.183 587.957 215.207 606.23 213.858 632.038C212.509 657.847 270.3 681.419 342.936 684.687C415.572 687.955 475.549 669.682 476.898 643.873Z" fill="#0F0A26"/>
<path opacity="0.686" d="M474.978 643.787C476.307 618.351 419.362 595.12 347.787 591.899C276.212 588.679 217.112 606.689 215.783 632.125C214.453 657.562 271.399 680.793 342.974 684.014C414.549 687.234 473.649 669.224 474.978 643.787Z" fill="#0F0A26"/>
<path opacity="0.706" d="M473.098 643.703C474.408 618.639 418.288 595.747 347.751 592.573C277.214 589.4 218.971 607.146 217.662 632.21C216.352 657.275 272.471 680.167 343.008 683.34C413.545 686.514 471.788 668.768 473.098 643.703Z" fill="#0F0A26"/>
<path opacity="0.726" d="M471.175 643.616C472.465 618.924 417.19 596.372 347.715 593.247C278.24 590.121 220.873 607.604 219.582 632.296C218.292 656.989 273.567 679.54 343.042 682.666C412.517 685.792 469.884 668.309 471.175 643.616Z" fill="#0F0A26"/>
<path opacity="0.745" d="M469.296 643.532C470.567 619.212 416.118 597 347.681 593.921C279.244 590.842 222.734 608.061 221.463 632.381C220.192 656.701 274.641 678.913 343.079 681.992C411.516 685.072 468.026 667.852 469.296 643.532Z" fill="#0F0A26"/>
<path opacity="0.765" d="M467.373 643.446C468.624 619.498 415.02 597.626 347.644 594.595C280.269 591.564 224.635 608.52 223.384 632.468C222.133 656.416 275.737 678.288 343.113 681.319C410.488 684.35 466.121 667.394 467.373 643.446Z" fill="#0F0A26"/>
<path opacity="0.784" d="M465.495 643.361C466.727 619.785 413.948 598.253 347.61 595.268C281.273 592.283 226.497 608.976 225.265 632.552C224.033 656.128 276.811 677.66 343.149 680.645C409.487 683.629 464.263 666.937 465.495 643.361Z" fill="#0F0A26"/>
<path opacity="0.804" d="M463.571 643.275C464.784 620.071 412.85 598.879 347.574 595.942C282.298 593.005 228.398 609.435 227.186 632.639C225.973 655.843 277.907 677.034 343.183 679.971C408.459 682.908 462.359 666.479 463.571 643.275Z" fill="#0F0A26"/>
<path opacity="0.824" d="M461.691 643.189C462.884 620.358 411.776 599.506 347.538 596.616C283.3 593.725 230.258 609.891 229.065 632.723C227.871 655.555 278.98 676.407 343.218 679.297C407.456 682.187 460.498 666.021 461.691 643.189Z" fill="#0F0A26"/>
<path opacity="0.843" d="M459.772 643.103C460.945 620.644 410.682 600.132 347.505 597.29C284.329 594.447 232.163 610.35 230.989 632.81C229.816 655.269 280.079 675.781 343.255 678.623C406.432 681.466 458.598 665.563 459.772 643.103Z" fill="#0F0A26"/>
<path opacity="0.863" d="M457.892 643.019C459.046 620.932 409.608 600.76 347.47 597.964C285.331 595.168 234.022 610.807 232.868 632.895C231.714 654.982 281.152 675.154 343.29 677.95C405.429 680.746 456.737 665.107 457.892 643.019Z" fill="#0F0A26"/>
<path opacity="0.882" d="M455.97 642.933C457.105 621.218 408.512 601.386 347.435 598.638C286.358 595.89 235.926 611.266 234.791 632.982C233.656 654.697 282.249 674.529 343.326 677.277C404.403 680.025 454.835 664.649 455.97 642.933Z" fill="#0F0A26"/>
<path opacity="0.902" d="M454.092 642.849C455.206 621.527 407.438 602.053 347.399 599.352C287.36 596.65 237.786 611.745 236.672 633.066C235.557 654.388 283.325 673.862 343.364 676.563C403.403 679.264 452.978 664.17 454.092 642.849Z" fill="#0F0A26"/>
<path opacity="0.922" d="M452.168 642.762C453.263 621.812 406.34 602.679 347.362 600.025C288.385 597.371 239.687 612.203 238.592 633.152C237.498 654.101 284.421 673.235 343.398 675.889C402.376 678.542 451.074 663.711 452.168 642.762Z" fill="#0F0A26"/>
<path opacity="0.941" d="M450.288 642.677C451.363 622.1 405.266 603.306 347.327 600.699C289.387 598.092 241.547 612.66 240.471 633.237C239.396 653.814 285.493 672.608 343.433 675.215C401.372 677.822 449.213 663.254 450.288 642.677Z" fill="#0F0A26"/>
<path opacity="0.961" d="M448.367 642.59C449.422 622.385 404.17 603.932 347.292 601.372C290.414 598.813 243.45 613.118 242.394 633.323C241.338 653.528 286.591 671.982 343.469 674.541C400.346 677.1 447.311 662.795 448.367 642.59Z" fill="#0F0A26"/>
<path opacity="0.98" d="M446.487 642.507C447.524 622.674 403.097 604.56 347.257 602.048C291.417 599.535 245.31 613.576 244.274 633.409C243.238 653.242 287.664 671.356 343.504 673.868C399.344 676.381 445.451 662.34 446.487 642.507Z" fill="#0F0A26"/>
<path d="M444.565 642.42C445.582 622.959 402 605.186 347.222 602.721C292.443 600.256 247.213 614.034 246.196 633.495C245.179 652.955 288.761 670.729 343.539 673.194C398.317 675.659 443.548 661.881 444.565 642.42Z" fill="#0F0A26"/>
</g>
<mask id="mask0_4190_20459" style="mask-type:luminance" maskUnits="userSpaceOnUse" x="260" y="381" width="13" height="90">
<path d="M272.633 409.983L269.81 470.938C266.731 461.374 263.694 451.81 260.615 442.246L263.438 381.292C266.517 390.856 269.553 400.42 272.633 409.983Z" fill="white"/>
</mask>
<g mask="url(#mask0_4190_20459)">
<path d="M272.633 409.983L269.81 470.938C266.731 461.374 263.694 451.81 260.615 442.246L263.438 381.292C266.517 390.856 269.553 400.42 272.633 409.983Z" fill="url(#paint3_linear_4190_20459)"/>
</g>
<path d="M496.985 413.872L494.163 474.826L468.246 499.153L471.069 438.159L496.985 413.872Z" fill="url(#paint4_linear_4190_20459)"/>
<path d="M188.17 469.23L185.347 530.224L147.114 513.637L149.937 452.643L188.17 469.23Z" fill="url(#paint5_linear_4190_20459)"/>
<mask id="mask1_4190_20459" style="mask-type:luminance" maskUnits="userSpaceOnUse" x="556" y="501" width="5" height="70">
<path d="M560.109 501.018L557.287 561.972C557.158 564.869 556.773 567.726 556.132 570.544L558.954 509.589C559.553 506.772 559.938 503.914 560.109 501.018Z" fill="white"/>
</mask>
<g mask="url(#mask1_4190_20459)">
<path d="M560.109 501.018L557.287 561.972C557.244 563.043 557.159 564.115 557.03 565.147L559.853 504.192C559.938 503.161 560.024 502.089 560.109 501.018Z" fill="#5E6072"/>
<path d="M559.853 504.231L557.03 565.186C556.816 566.972 556.517 568.797 556.132 570.543L558.954 509.589C559.339 507.803 559.639 506.017 559.853 504.231Z" fill="#616477"/>
</g>
<path d="M253.389 563.083C253.431 562.408 253.474 561.734 253.56 561.059C253.56 560.9 253.603 560.741 253.603 560.583C253.688 559.987 253.774 559.352 253.859 558.757C253.902 558.519 253.945 558.281 253.987 558.043C254.073 557.487 254.201 556.932 254.33 556.376C254.372 556.178 254.415 555.94 254.501 555.741C254.586 555.424 254.672 555.106 254.757 554.749C254.843 554.432 254.928 554.114 255.014 553.836C255.099 553.519 255.228 553.201 255.356 552.844C255.441 552.567 255.57 552.289 255.655 551.971C255.997 551.019 256.425 550.066 256.853 549.114C256.938 548.916 257.024 548.757 257.109 548.558C257.537 547.685 257.965 546.852 258.435 545.979C258.521 545.86 258.606 545.701 258.692 545.582C259.077 544.947 259.462 544.312 259.846 543.677C259.975 543.479 260.146 543.241 260.274 543.042C260.702 542.407 261.129 541.812 261.6 541.177C261.685 541.058 261.771 540.939 261.856 540.82C262.37 540.146 262.926 539.431 263.524 538.757C263.695 538.558 263.866 538.36 264.037 538.201C264.465 537.725 264.893 537.249 265.32 536.772C265.534 536.534 265.748 536.296 265.962 536.098C266.39 535.661 266.817 535.225 267.245 534.828C267.587 534.51 267.886 534.193 268.229 533.875C268.956 533.201 269.683 532.526 270.452 531.891C270.752 531.613 271.094 531.375 271.393 531.098C271.949 530.661 272.505 530.185 273.104 529.748C273.446 529.51 273.745 529.232 274.088 528.994C274.729 528.518 275.371 528.042 276.055 527.605C276.312 527.407 276.611 527.209 276.867 527.01C277.808 526.375 278.792 525.74 279.776 525.145C279.818 525.105 279.861 525.105 279.904 525.066C280.845 524.47 281.828 523.915 282.855 523.359C283.282 523.121 283.71 522.923 284.138 522.685C284.779 522.327 285.464 521.97 286.105 521.653C286.618 521.415 287.131 521.137 287.645 520.899C288.243 520.621 288.885 520.304 289.526 520.026C290.125 519.748 290.767 519.47 291.408 519.232C291.964 518.994 292.563 518.756 293.161 518.518C294.017 518.161 294.915 517.843 295.813 517.486C296.241 517.327 296.668 517.169 297.096 517.01C298.507 516.494 299.919 516.018 301.33 515.581C301.586 515.502 301.843 515.422 302.142 515.343C303.468 514.946 304.794 514.549 306.162 514.192C306.59 514.073 307.061 513.954 307.488 513.835C309.37 513.359 311.252 512.922 313.176 512.526C313.518 512.446 313.86 512.406 314.203 512.327C315.272 512.129 316.341 511.891 317.453 511.732C317.966 511.653 318.522 511.573 319.078 511.494C319.976 511.335 320.917 511.216 321.815 511.097C322.243 511.057 322.628 510.978 323.055 510.938C324.424 510.779 325.75 510.621 327.118 510.462C327.631 510.422 328.144 510.343 328.7 510.303C330.154 510.184 331.609 510.065 333.105 509.986C333.405 509.986 333.704 509.946 334.003 509.946C335.757 509.867 337.51 509.827 339.264 509.787C339.734 509.787 340.205 509.787 340.675 509.787C342.044 509.787 343.369 509.787 344.738 509.827C345.337 509.827 345.935 509.867 346.534 509.867C347.176 509.906 347.774 509.906 348.416 509.946C349.186 509.986 349.998 510.025 350.768 510.065C351.409 510.105 352.008 510.145 352.65 510.184C353.291 510.224 353.933 510.303 354.574 510.343C355.943 510.462 357.311 510.621 358.68 510.779C359.107 510.819 359.535 510.859 359.963 510.938C361.46 511.137 362.914 511.335 364.368 511.613C364.496 511.613 364.581 511.653 364.71 511.653C366.207 511.891 367.703 512.168 369.2 512.486C369.799 512.605 370.398 512.764 371.039 512.883C371.852 513.081 372.707 513.24 373.52 513.438C374.418 513.637 375.316 513.875 376.171 514.113C376.642 514.232 377.155 514.351 377.625 514.47C378.994 514.827 380.32 515.224 381.645 515.661C381.731 515.7 381.816 515.7 381.859 515.74C383.099 516.137 384.297 516.534 385.537 516.93C385.922 517.089 386.35 517.208 386.735 517.367C387.59 517.684 388.488 518.002 389.343 518.319C389.814 518.478 390.241 518.677 390.712 518.875C391.738 519.272 392.765 519.708 393.791 520.145C395.502 520.899 397.127 521.653 398.709 522.447C398.795 522.486 398.88 522.526 398.923 522.566C400.291 523.24 401.617 523.954 402.9 524.669C403.2 524.828 403.499 525.026 403.798 525.185C405.124 525.939 406.407 526.693 407.647 527.486C407.818 527.605 407.989 527.724 408.161 527.843C409.23 528.518 410.256 529.232 411.24 529.947C411.582 530.185 411.881 530.423 412.181 530.621C413.292 531.455 414.362 532.248 415.388 533.121C415.431 533.161 415.474 533.201 415.516 533.241C416.586 534.114 417.612 535.026 418.596 535.979C418.938 536.296 419.28 536.653 419.622 536.971C420.263 537.606 420.862 538.201 421.461 538.836C421.889 539.272 422.273 539.749 422.701 540.185C423.172 540.741 423.642 541.296 424.112 541.812C424.626 542.447 425.139 543.082 425.609 543.757C426.037 544.312 426.465 544.868 426.849 545.463C427.063 545.741 427.234 546.019 427.405 546.296C427.961 547.13 428.475 547.963 428.988 548.836C429.073 548.995 429.202 549.193 429.287 549.352C429.843 550.384 430.399 551.376 430.87 552.408C430.998 552.686 431.083 552.963 431.212 553.201C431.554 553.995 431.896 554.789 432.195 555.582C432.324 555.9 432.409 556.217 432.537 556.535C432.837 557.487 433.136 558.4 433.393 559.352C433.435 559.472 433.478 559.591 433.478 559.71C433.735 560.781 433.949 561.813 434.12 562.884C434.163 563.162 434.205 563.48 434.248 563.757C434.376 564.551 434.462 565.384 434.505 566.178C434.547 566.496 434.547 566.813 434.547 567.13C434.59 568.202 434.59 569.273 434.547 570.345L437.37 509.391C437.413 508.319 437.413 507.248 437.37 506.176C437.37 505.859 437.327 505.541 437.327 505.224C437.285 504.43 437.199 503.597 437.071 502.803C437.028 502.486 436.985 502.208 436.942 501.89C436.771 500.819 436.557 499.747 436.301 498.716C436.258 498.597 436.215 498.477 436.215 498.358C435.959 497.406 435.702 496.493 435.36 495.541C435.232 495.223 435.146 494.906 435.018 494.588C434.719 493.795 434.376 493.001 434.034 492.207C433.906 491.93 433.82 491.652 433.692 491.414C433.222 490.422 432.751 489.469 432.238 488.517C432.195 488.477 432.153 488.398 432.153 488.358C432.067 488.199 431.939 488.001 431.853 487.842C431.34 487.009 430.827 486.136 430.271 485.302C430.1 485.025 429.886 484.747 429.715 484.469C429.544 484.231 429.373 483.993 429.202 483.755C428.988 483.437 428.688 483.12 428.432 482.802C427.961 482.167 427.448 481.493 426.935 480.858C426.764 480.659 426.593 480.421 426.422 480.223C426.122 479.905 425.823 479.548 425.524 479.231C425.096 478.755 424.711 478.318 424.283 477.882C424.112 477.683 423.941 477.485 423.728 477.286C423.3 476.85 422.872 476.453 422.445 476.016C422.102 475.699 421.76 475.342 421.418 475.024C421.29 474.905 421.204 474.786 421.076 474.667C420.221 473.873 419.323 473.08 418.382 472.326C418.382 472.326 418.382 472.326 418.339 472.286C418.296 472.246 418.253 472.207 418.211 472.207C417.398 471.532 416.543 470.858 415.687 470.223C415.474 470.064 415.217 469.865 414.96 469.707C414.661 469.469 414.319 469.231 414.02 469.032C413.635 468.754 413.293 468.516 412.95 468.238C412.309 467.802 411.625 467.365 410.94 466.889C410.769 466.77 410.598 466.651 410.427 466.532C410.342 466.492 410.299 466.453 410.213 466.413C409.272 465.818 408.332 465.262 407.348 464.667C407.091 464.508 406.835 464.389 406.578 464.23C406.279 464.072 405.979 463.873 405.68 463.714C405.252 463.476 404.868 463.238 404.44 463.04C403.542 462.564 402.644 462.087 401.703 461.651C401.617 461.611 401.532 461.572 401.489 461.532C401.446 461.532 401.446 461.492 401.403 461.492C400.377 460.976 399.308 460.5 398.281 459.984C397.725 459.746 397.17 459.468 396.571 459.23C396.058 458.992 395.502 458.794 394.988 458.556C394.518 458.357 394.005 458.159 393.492 457.96C393.021 457.762 392.594 457.603 392.123 457.405C391.952 457.325 391.738 457.246 391.567 457.206C390.883 456.968 390.199 456.73 389.514 456.452C389.087 456.294 388.702 456.135 388.274 456.016C388.189 455.976 388.103 455.936 388.018 455.936C386.906 455.54 385.751 455.182 384.596 454.825C384.511 454.786 384.425 454.786 384.382 454.746C383.099 454.349 381.816 453.952 380.491 453.595C380.448 453.595 380.405 453.555 380.362 453.555C379.849 453.436 379.379 453.317 378.865 453.159C378.053 452.96 377.283 452.722 376.471 452.524C376.385 452.524 376.342 452.484 376.257 452.484C375.444 452.286 374.589 452.127 373.776 451.928C373.22 451.809 372.664 451.69 372.108 451.571C372.066 451.571 372.023 451.571 371.937 451.532C370.44 451.214 368.944 450.936 367.447 450.698C367.447 450.698 367.447 450.698 367.404 450.698C367.319 450.698 367.19 450.658 367.105 450.658C365.651 450.42 364.154 450.182 362.7 449.984C362.571 449.984 362.443 449.944 362.315 449.944C362.016 449.904 361.716 449.865 361.374 449.825C360.005 449.666 358.637 449.508 357.268 449.389C356.969 449.349 356.712 449.309 356.413 449.309C356.028 449.27 355.686 449.27 355.301 449.23C354.66 449.19 354.061 449.151 353.419 449.111C352.65 449.071 351.837 449.031 351.067 448.992C350.469 448.952 349.827 448.912 349.228 448.912C348.929 448.912 348.63 448.873 348.33 448.873C348.031 448.873 347.731 448.873 347.432 448.873C346.064 448.833 344.738 448.833 343.369 448.833C342.899 448.833 342.428 448.833 341.958 448.833C340.205 448.873 338.451 448.912 336.698 448.992C336.398 448.992 336.099 449.031 335.842 449.031C334.346 449.111 332.892 449.23 331.437 449.349C330.924 449.389 330.411 449.428 329.855 449.508C328.487 449.627 327.118 449.785 325.792 449.984C325.493 450.024 325.194 450.063 324.937 450.063C324.809 450.063 324.68 450.103 324.595 450.103C323.654 450.222 322.756 450.381 321.858 450.539C321.302 450.619 320.789 450.698 320.233 450.778C319.163 450.976 318.052 451.174 316.982 451.373C316.64 451.452 316.341 451.492 315.999 451.571H315.956C314.032 451.968 312.15 452.405 310.268 452.881C310.054 452.92 309.798 453 309.584 453.039C309.37 453.079 309.156 453.159 308.942 453.238C307.574 453.595 306.248 453.992 304.922 454.389C304.708 454.468 304.495 454.508 304.281 454.587C304.238 454.587 304.152 454.627 304.11 454.627C302.656 455.063 301.244 455.54 299.876 456.055C299.833 456.095 299.748 456.095 299.705 456.135C299.32 456.254 298.978 456.413 298.636 456.571C297.737 456.889 296.839 457.246 295.984 457.603C295.856 457.643 295.727 457.683 295.599 457.762C295.129 457.96 294.701 458.159 294.273 458.357C293.632 458.635 293.033 458.873 292.392 459.151C292.263 459.23 292.092 459.27 291.964 459.349C291.494 459.587 291.023 459.825 290.553 460.024C290.04 460.262 289.526 460.5 289.013 460.778C288.885 460.818 288.757 460.897 288.671 460.937C288.115 461.214 287.602 461.532 287.046 461.81C286.618 462.048 286.191 462.246 285.763 462.484C285.677 462.524 285.592 462.564 285.549 462.603C284.651 463.119 283.753 463.635 282.855 464.191C282.812 464.23 282.769 464.23 282.726 464.27C281.786 464.826 280.887 465.421 280.032 466.016C279.947 466.056 279.904 466.135 279.818 466.175C279.562 466.373 279.262 466.572 279.006 466.73C278.493 467.088 277.979 467.405 277.509 467.762C277.338 467.881 277.21 468 277.039 468.119C276.696 468.357 276.397 468.596 276.055 468.873C275.713 469.111 275.413 469.35 275.071 469.627C274.815 469.826 274.601 470.024 274.344 470.223C274.045 470.5 273.703 470.738 273.403 471.016C273.19 471.175 272.976 471.373 272.805 471.532C272.249 472.008 271.693 472.485 271.18 473C271.008 473.159 270.795 473.358 270.624 473.516C270.495 473.675 270.324 473.794 270.196 473.953C269.768 474.389 269.341 474.826 268.913 475.223C268.785 475.342 268.656 475.461 268.528 475.58C268.442 475.699 268.357 475.778 268.229 475.897C267.801 476.374 267.373 476.85 266.946 477.326C266.817 477.485 266.689 477.604 266.561 477.763C266.518 477.802 266.475 477.882 266.432 477.921C265.876 478.596 265.321 479.271 264.765 479.985C264.765 480.024 264.722 480.025 264.722 480.064C264.636 480.144 264.593 480.263 264.551 480.342C264.08 480.977 263.653 481.572 263.225 482.207C263.139 482.326 263.097 482.406 263.011 482.525C262.926 482.644 262.883 482.763 262.797 482.882C262.37 483.517 261.985 484.152 261.6 484.787C261.557 484.906 261.472 484.985 261.429 485.104C261.429 485.144 261.386 485.183 261.386 485.183C260.916 486.017 260.445 486.89 260.06 487.763C260.017 487.842 259.975 487.961 259.932 488.041C259.889 488.12 259.846 488.239 259.804 488.318C259.376 489.271 258.948 490.223 258.606 491.176C258.606 491.215 258.563 491.255 258.563 491.295C258.478 491.533 258.392 491.771 258.307 492.009C258.179 492.326 258.093 492.684 257.965 493.001C257.879 493.319 257.794 493.596 257.708 493.914C257.623 494.231 257.537 494.588 257.451 494.906C257.451 494.985 257.409 495.065 257.409 495.104C257.366 495.263 257.366 495.382 257.323 495.541C257.195 496.096 257.067 496.652 256.981 497.247C256.938 497.485 256.896 497.723 256.853 497.962C256.767 498.557 256.682 499.152 256.596 499.787C256.596 499.906 256.553 500.025 256.553 500.144C256.553 500.184 256.553 500.224 256.553 500.263C256.468 500.938 256.425 501.613 256.382 502.287L253.389 563.083Z" fill="url(#paint6_linear_4190_20459)"/>
<mask id="mask2_4190_20459" style="mask-type:luminance" maskUnits="userSpaceOnUse" x="510" y="509" width="49" height="67">
<path d="M558.911 509.589L556.089 570.543C541.078 572.21 525.981 573.916 510.885 575.623L513.707 514.668C528.804 512.962 543.9 511.256 558.911 509.589Z" fill="white"/>
</mask>
<g mask="url(#mask2_4190_20459)">
<path d="M558.911 509.589L556.089 570.543C541.078 572.21 525.981 573.916 510.885 575.623L513.707 514.668C528.804 512.962 543.9 511.256 558.911 509.589Z" fill="url(#paint7_linear_4190_20459)"/>
</g>
<path d="M512.809 521.534C512.553 522.923 512.253 524.272 511.911 525.621C511.783 526.177 511.612 526.693 511.484 527.248C511.312 527.844 511.141 528.439 510.97 529.034C510.799 529.59 510.585 530.145 510.414 530.741C510.201 531.336 510.029 531.931 509.816 532.526C509.559 533.241 509.26 533.955 509.003 534.669C508.875 535.026 508.746 535.384 508.575 535.701C508.148 536.772 507.677 537.844 507.164 538.915C507.036 539.193 506.865 539.471 506.736 539.788C506.309 540.622 505.924 541.495 505.453 542.328L502.631 603.283C503.23 602.171 503.786 601.021 504.342 599.87C504.855 598.798 505.325 597.727 505.753 596.655C505.881 596.298 506.009 595.941 506.18 595.624C506.394 595.068 506.651 594.512 506.865 593.917C506.908 593.758 506.95 593.6 507.036 593.481C507.25 592.885 507.464 592.29 507.635 591.695C507.806 591.139 508.019 590.584 508.191 589.989C508.362 589.393 508.533 588.798 508.704 588.203C508.832 587.766 508.96 587.33 509.089 586.933C509.131 586.814 509.131 586.695 509.174 586.576C509.516 585.226 509.816 583.837 510.072 582.488C510.115 582.29 510.115 582.131 510.158 581.933C510.372 580.742 510.543 579.552 510.671 578.361C510.671 578.202 510.714 578.004 510.756 577.845C510.842 577.091 510.928 576.337 510.97 575.583L513.793 514.629C513.707 515.542 513.622 516.454 513.494 517.407C513.365 518.597 513.194 519.788 512.98 520.978C512.852 521.177 512.852 521.375 512.809 521.534Z" fill="url(#paint8_linear_4190_20459)"/>
<mask id="mask3_4190_20459" style="mask-type:luminance" maskUnits="userSpaceOnUse" x="149" y="549" width="49" height="68">
<path d="M197.621 549.948L194.798 610.903C179.574 612.609 164.349 614.315 149.081 616.022L151.904 555.067C167.128 553.361 182.396 551.655 197.621 549.948Z" fill="white"/>
</mask>
<g mask="url(#mask3_4190_20459)">
<path d="M197.621 549.948L194.798 610.903C179.574 612.609 164.349 614.315 149.081 616.022L151.904 555.067C167.128 553.361 182.396 551.655 197.621 549.948Z" fill="url(#paint9_linear_4190_20459)"/>
</g>
<path d="M146.002 612.648C146.087 612.767 146.216 612.886 146.301 613.005C147.199 614.037 148.097 615.069 149.038 616.061L151.861 555.107C150.92 554.115 149.979 553.083 149.124 552.051C148.91 551.813 148.696 551.575 148.482 551.297C147.328 549.908 146.258 548.519 145.232 547.13C145.018 546.852 144.847 546.575 144.633 546.297C144.163 545.622 143.692 544.908 143.222 544.194C142.965 543.836 142.752 543.44 142.538 543.082C142.153 542.447 141.768 541.773 141.383 541.138C141.169 540.781 140.955 540.384 140.742 540.027C140.271 539.193 139.843 538.32 139.416 537.487C139.287 537.249 139.159 536.971 139.031 536.733C138.518 535.622 138.004 534.511 137.577 533.4C137.491 533.122 137.363 532.884 137.277 532.606C136.935 531.733 136.636 530.86 136.337 529.987C136.208 529.63 136.08 529.272 135.994 528.915C135.738 528.082 135.481 527.249 135.267 526.415C135.182 526.098 135.096 525.78 135.011 525.463C134.754 524.312 134.498 523.201 134.284 522.05C134.241 521.852 134.241 521.693 134.198 521.494C134.027 520.542 133.899 519.55 133.813 518.598C133.771 518.24 133.728 517.883 133.728 517.526C133.642 516.693 133.6 515.859 133.557 515.066C133.557 514.709 133.514 514.391 133.514 514.034C133.471 512.883 133.471 511.772 133.557 510.621L130.734 571.575C130.691 572.726 130.691 573.837 130.691 574.988C130.691 575.345 130.734 575.663 130.734 576.02C130.777 576.853 130.82 577.687 130.905 578.48C130.948 578.838 130.948 579.195 130.991 579.552C131.119 580.504 131.247 581.496 131.376 582.449C131.418 582.608 131.418 582.806 131.461 582.965C131.675 584.116 131.932 585.227 132.188 586.377C132.274 586.695 132.359 587.012 132.445 587.33C132.659 588.163 132.915 588.997 133.172 589.83C133.3 590.187 133.386 590.544 133.514 590.941C133.813 591.814 134.113 592.687 134.455 593.56C134.54 593.838 134.626 594.076 134.754 594.354C135.225 595.465 135.695 596.576 136.208 597.687C136.337 597.965 136.465 598.203 136.593 598.441C137.021 599.314 137.448 600.148 137.919 600.981C138.004 601.14 138.09 601.299 138.176 601.497C138.304 601.695 138.432 601.894 138.518 602.092C138.903 602.727 139.287 603.402 139.672 604.037C139.886 604.394 140.143 604.791 140.357 605.148C140.827 605.862 141.297 606.537 141.768 607.251C141.939 607.489 142.067 607.727 142.238 607.965C142.281 608.005 142.324 608.045 142.324 608.085C143.35 609.513 144.419 610.902 145.574 612.251C145.831 612.37 145.916 612.529 146.002 612.648Z" fill="url(#paint10_linear_4190_20459)"/>
<path d="M217.166 632.49C218.022 633.125 218.877 633.76 219.732 634.395L222.555 573.44C221.529 572.686 220.545 571.972 219.561 571.218C218.065 570.067 216.568 568.916 215.156 567.726C214.943 567.567 214.772 567.409 214.558 567.21C213.232 566.099 211.906 564.948 210.666 563.797C210.324 563.48 209.982 563.202 209.64 562.885C208.143 561.496 206.731 560.107 205.32 558.718C204.764 558.162 204.208 557.567 203.695 557.011C203.353 556.654 203.011 556.297 202.711 555.98C202.027 555.226 201.343 554.472 200.701 553.718C200.53 553.479 200.316 553.281 200.103 553.043C199.247 552.051 198.392 551.019 197.579 549.987L194.757 610.942C195.569 611.934 196.382 612.926 197.195 613.918C197.195 613.958 197.237 613.958 197.237 613.997C197.408 614.196 197.622 614.434 197.793 614.632C198.478 615.386 199.119 616.18 199.803 616.934C200.145 617.291 200.445 617.648 200.787 617.966C201.257 618.442 201.685 618.958 202.198 619.434C202.284 619.513 202.369 619.593 202.455 619.672C203.823 621.101 205.277 622.49 206.774 623.839C206.903 623.958 207.031 624.117 207.159 624.236C207.373 624.434 207.587 624.593 207.758 624.752C208.998 625.902 210.324 627.014 211.65 628.125C211.821 628.244 211.949 628.403 212.077 628.522C212.12 628.561 212.163 628.601 212.248 628.641C213.66 629.831 215.156 630.982 216.653 632.133C216.867 632.292 216.995 632.411 217.166 632.49Z" fill="url(#paint11_linear_4190_20459)"/>
<path d="M496.474 603.084L493.651 664.078L455.461 647.49L458.326 586.536L496.474 603.084Z" fill="url(#paint12_linear_4190_20459)"/>
<path d="M520.123 588.838C519.567 589.275 518.968 589.751 518.369 590.187C517.813 590.624 517.215 591.06 516.659 591.497C516.06 591.933 515.461 592.33 514.82 592.767C514.221 593.203 513.622 593.6 513.024 593.997C512.382 594.394 511.741 594.83 511.099 595.227C510.458 595.624 509.859 596.021 509.217 596.418C508.533 596.814 507.892 597.211 507.207 597.608C506.566 597.965 505.924 598.362 505.283 598.719C504.556 599.116 503.829 599.513 503.102 599.87C502.46 600.227 501.819 600.545 501.135 600.902C500.365 601.299 499.552 601.696 498.74 602.053C497.97 602.41 497.243 602.767 496.473 603.124L493.65 664.079C493.864 663.959 494.078 663.88 494.292 663.761C494.848 663.523 495.361 663.245 495.874 663.007C496.687 662.61 497.499 662.253 498.269 661.856C498.397 661.777 498.526 661.737 498.654 661.658C499.167 661.38 499.68 661.102 500.236 660.824C500.963 660.428 501.69 660.07 502.418 659.674C502.546 659.594 502.717 659.515 502.845 659.436C503.358 659.158 503.872 658.84 504.385 658.562C505.069 658.166 505.753 657.769 506.395 657.372C506.523 657.293 506.694 657.213 506.822 657.134C507.336 656.816 507.806 656.499 508.277 656.181C508.918 655.785 509.56 655.388 510.201 654.951C510.329 654.872 510.5 654.793 510.629 654.673C511.099 654.356 511.57 654.039 512.04 653.681C512.639 653.245 513.28 652.848 513.879 652.411C514.007 652.332 514.136 652.213 514.307 652.134C514.777 651.816 515.162 651.459 515.632 651.142C516.231 650.705 516.83 650.269 517.386 649.792C517.514 649.673 517.642 649.594 517.771 649.475C518.198 649.157 518.583 648.8 519.011 648.443C519.567 647.967 520.166 647.491 520.679 647.054C520.807 646.935 520.935 646.856 521.064 646.737C521.876 646.022 522.646 645.348 523.416 644.633C523.672 644.395 523.929 644.118 524.228 643.879C524.571 643.562 524.87 643.205 525.212 642.887C525.725 642.371 526.281 641.856 526.752 641.3C526.88 641.141 527.051 641.022 527.179 640.863C527.479 640.546 527.735 640.229 528.035 639.911C528.548 639.355 529.018 638.8 529.531 638.244C529.66 638.086 529.831 637.927 529.959 637.728C530.216 637.451 530.43 637.133 530.686 636.816C531.157 636.22 531.627 635.665 532.097 635.07C532.269 634.871 532.44 634.673 532.568 634.474C532.782 634.197 532.953 633.919 533.124 633.681C533.594 633.046 534.022 632.45 534.45 631.816C534.621 631.577 534.792 631.339 534.963 631.062C535.091 630.823 535.219 630.625 535.39 630.387C535.818 629.712 536.246 628.998 536.673 628.323C536.845 628.046 537.058 627.728 537.229 627.45C537.315 627.292 537.4 627.133 537.486 626.974C537.956 626.141 538.384 625.268 538.812 624.434C538.94 624.157 539.111 623.879 539.239 623.601C539.282 623.522 539.282 623.442 539.325 623.403C539.881 622.252 540.394 621.061 540.822 619.91L543.644 558.956C543.217 560.147 542.704 561.297 542.148 562.448C541.977 562.805 541.805 563.123 541.634 563.48C541.207 564.313 540.779 565.186 540.309 566.02C540.052 566.456 539.795 566.933 539.539 567.369C539.111 568.044 538.726 568.758 538.256 569.433C537.956 569.909 537.657 570.385 537.315 570.822C536.887 571.456 536.46 572.091 535.989 572.687C535.647 573.163 535.305 573.639 534.92 574.115C534.45 574.711 533.979 575.306 533.509 575.861C533.124 576.338 532.739 576.814 532.354 577.25C531.884 577.806 531.37 578.361 530.857 578.917C530.43 579.393 530.002 579.83 529.574 580.306C529.061 580.822 528.548 581.338 528.035 581.854C527.436 582.449 526.88 583.044 526.238 583.6C525.34 584.433 524.442 585.227 523.501 586.06C522.945 586.536 522.389 587.013 521.834 587.449C521.235 587.965 520.679 588.401 520.123 588.838Z" fill="url(#paint13_linear_4190_20459)"/>
<path d="M447.291 591.972C445.666 592.726 443.998 593.441 442.33 594.115C441.903 594.274 441.475 594.473 441.047 594.631C438.909 595.504 436.728 596.338 434.547 597.131C434.119 597.29 433.649 597.449 433.221 597.608C430.741 598.481 428.217 599.354 425.694 600.147C424.155 600.624 422.572 601.1 421.033 601.576L418.21 662.53C419.707 662.094 421.246 661.657 422.743 661.181C422.786 661.181 422.829 661.141 422.914 661.141C425.48 660.348 427.961 659.475 430.441 658.602C430.698 658.522 430.954 658.443 431.211 658.324C431.425 658.244 431.596 658.165 431.767 658.086C433.948 657.292 436.129 656.459 438.267 655.586C438.396 655.546 438.524 655.467 438.652 655.427C438.952 655.308 439.208 655.189 439.508 655.03C441.176 654.316 442.843 653.601 444.469 652.887C444.768 652.768 445.067 652.649 445.367 652.49C445.538 652.411 445.709 652.332 445.88 652.252C447.719 651.379 449.558 650.506 451.354 649.633C451.397 649.593 451.44 649.593 451.482 649.554C452.808 648.879 454.134 648.165 455.46 647.45L458.282 586.496C456.914 587.25 455.545 587.964 454.177 588.639C452.38 589.552 450.541 590.425 448.702 591.258C448.275 591.536 447.804 591.734 447.291 591.972Z" fill="#A9AECF"/>
<path d="M324.935 609.553C324.037 609.473 323.097 609.354 322.198 609.235C321.3 609.116 320.402 609.037 319.504 608.918C318.82 608.838 318.093 608.719 317.409 608.64C314.672 608.283 311.935 607.886 309.197 607.41C308.77 607.33 308.342 607.251 307.914 607.172C305.648 606.775 303.381 606.338 301.115 605.902C300.687 605.822 300.216 605.743 299.789 605.624C297.822 605.227 295.812 604.791 293.887 604.314L291.064 665.269C293.032 665.745 294.999 666.142 296.966 666.578C297.137 666.618 297.266 666.658 297.437 666.697C297.736 666.737 298.035 666.816 298.292 666.856C300.559 667.293 302.825 667.729 305.092 668.126C305.391 668.166 305.691 668.245 305.99 668.285C306.118 668.324 306.247 668.324 306.375 668.364C309.112 668.801 311.849 669.237 314.586 669.594C314.843 669.634 315.099 669.674 315.356 669.713C315.783 669.753 316.254 669.832 316.682 669.872C317.58 669.991 318.478 670.11 319.376 670.19C320.274 670.309 321.215 670.388 322.113 670.507C323.011 670.586 323.909 670.705 324.807 670.785C325.278 670.825 325.748 670.864 326.176 670.904C326.475 670.944 326.774 670.944 327.074 670.983C329.511 671.182 331.906 671.38 334.344 671.499L337.167 610.545C334.729 610.426 332.334 610.227 329.896 610.029C329.127 609.95 328.357 609.91 327.587 609.831C326.732 609.751 325.834 609.632 324.935 609.553Z" fill="url(#paint14_linear_4190_20459)"/>
<path d="M293.803 604.354L290.98 665.349L265.106 689.595L267.929 628.641L293.803 604.354Z" fill="url(#paint15_linear_4190_20459)"/>
<path d="M226.532 678.404C226.874 678.563 227.259 678.722 227.601 678.881C227.986 679.039 228.414 679.198 228.798 679.357C229.611 679.674 230.381 679.992 231.193 680.309C231.578 680.468 231.963 680.627 232.348 680.746C232.733 680.905 233.118 681.024 233.545 681.182C234.401 681.5 235.256 681.817 236.111 682.095C236.539 682.254 236.924 682.413 237.309 682.532C237.694 682.651 238.079 682.77 238.421 682.889C239.319 683.206 240.217 683.484 241.115 683.762C241.543 683.921 242.013 684.04 242.441 684.198C242.783 684.317 243.125 684.397 243.467 684.476C244.408 684.754 245.392 685.032 246.333 685.309C246.803 685.429 247.316 685.587 247.787 685.746C248.086 685.825 248.343 685.905 248.642 685.984C249.668 686.262 250.695 686.54 251.721 686.778C252.234 686.897 252.79 687.056 253.304 687.175C253.517 687.214 253.731 687.254 253.945 687.333C255.1 687.611 256.297 687.849 257.452 688.127C257.965 688.246 258.521 688.365 259.034 688.484C259.163 688.524 259.291 688.524 259.419 688.564C261.215 688.921 262.969 689.238 264.765 689.556C264.851 689.556 264.936 689.595 265.022 689.595H265.064L267.887 628.641C267.801 628.641 267.673 628.601 267.588 628.601C265.791 628.284 264.038 627.966 262.242 627.609C261.6 627.49 260.916 627.331 260.275 627.173C259.12 626.935 257.922 626.657 256.768 626.379C255.998 626.22 255.271 626.022 254.544 625.823C253.517 625.585 252.491 625.308 251.465 625.03C250.695 624.831 249.925 624.593 249.155 624.395C248.214 624.117 247.231 623.839 246.29 623.561C245.52 623.323 244.75 623.085 243.938 622.847C243.04 622.569 242.142 622.252 241.243 621.974C240.474 621.696 239.704 621.458 238.891 621.18C238.036 620.863 237.181 620.585 236.325 620.268C235.556 619.99 234.786 619.672 234.016 619.395C233.203 619.077 232.391 618.76 231.621 618.442C230.851 618.125 230.081 617.807 229.312 617.49C228.542 617.172 227.772 616.815 227.002 616.498C226.232 616.18 225.505 615.823 224.736 615.466C224.009 615.109 223.282 614.791 222.554 614.434C221.827 614.077 221.1 613.72 220.373 613.363C219.646 613.006 218.962 612.648 218.278 612.291C217.551 611.894 216.867 611.537 216.14 611.14C215.455 610.783 214.771 610.386 214.13 609.99C213.445 609.593 212.761 609.196 212.077 608.799C211.435 608.402 210.751 608.005 210.109 607.609C209.468 607.212 208.784 606.775 208.142 606.378C207.501 605.981 206.902 605.545 206.26 605.148C205.619 604.712 205.02 604.315 204.422 603.878C203.823 603.442 203.181 603.005 202.583 602.569C201.984 602.132 201.428 601.696 200.872 601.259C200.273 600.783 199.674 600.307 199.076 599.831C198.263 599.156 197.408 598.481 196.638 597.807L193.815 658.761C194.329 659.198 194.842 659.634 195.398 660.071C195.697 660.309 195.996 660.507 196.253 660.745C196.852 661.221 197.451 661.698 198.049 662.174C198.349 662.412 198.605 662.61 198.905 662.848C199.204 663.047 199.503 663.285 199.803 663.483C200.401 663.92 201 664.356 201.642 664.793C201.941 665.031 202.24 665.229 202.583 665.468C202.882 665.666 203.224 665.864 203.523 666.103C204.165 666.539 204.764 666.936 205.405 667.333C205.747 667.531 206.047 667.769 206.389 667.968C206.731 668.166 207.03 668.365 207.372 668.563C208.014 668.96 208.655 669.357 209.34 669.753C209.682 669.952 209.981 670.15 210.323 670.349C210.665 670.547 211.008 670.746 211.392 670.944C212.077 671.341 212.718 671.698 213.402 672.095C213.745 672.293 214.087 672.492 214.429 672.65C214.814 672.849 215.156 673.047 215.541 673.246C216.225 673.603 216.952 673.96 217.636 674.317C217.978 674.476 218.321 674.674 218.663 674.833C219.048 675.031 219.433 675.19 219.817 675.389C220.544 675.746 221.272 676.103 221.999 676.42C222.341 676.579 222.683 676.738 223.068 676.936C223.453 677.095 223.88 677.293 224.265 677.452C224.992 677.73 225.762 678.087 226.532 678.404Z" fill="url(#paint16_linear_4190_20459)"/>
<mask id="mask4_4190_20459" style="mask-type:luminance" maskUnits="userSpaceOnUse" x="334" y="610" width="13" height="91">
<path d="M346.533 639.554L343.711 700.508C340.589 690.825 337.51 681.182 334.388 671.499L337.21 610.545C340.29 620.228 343.411 629.911 346.533 639.554Z" fill="white"/>
</mask>
<g mask="url(#mask4_4190_20459)">
<path d="M346.533 639.554L343.711 700.508C340.589 690.825 337.51 681.182 334.388 671.499L337.21 610.545C340.29 620.228 343.411 629.911 346.533 639.554Z" fill="url(#paint17_linear_4190_20459)"/>
</g>
<path d="M422.745 632.768C420.863 633.324 418.981 633.879 417.057 634.395C416.715 634.475 416.415 634.594 416.116 634.673C415.603 634.792 415.09 634.911 414.576 635.07C413.507 635.348 412.438 635.586 411.369 635.864C410.727 636.022 410.129 636.141 409.487 636.26C408.546 636.459 407.605 636.657 406.707 636.856C405.339 637.134 403.97 637.372 402.602 637.61C402.046 637.729 401.49 637.808 400.934 637.927C399.009 638.245 397.042 638.562 395.118 638.84C394.947 638.88 394.818 638.88 394.647 638.88C392.295 639.197 389.943 639.475 387.548 639.713C386.992 639.753 386.436 639.832 385.88 639.872C383.4 640.11 380.962 640.269 378.481 640.427C378.054 640.467 377.669 640.467 377.241 640.467C375.017 640.586 372.794 640.626 370.57 640.665C370.057 640.665 369.586 640.705 369.073 640.705C366.592 640.705 364.112 640.705 361.674 640.626C360.819 640.586 359.964 640.546 359.151 640.546C358.296 640.507 357.44 640.467 356.585 640.427C355.644 640.388 354.746 640.308 353.805 640.229C352.95 640.15 352.095 640.11 351.282 640.03C349.742 639.911 348.16 639.753 346.62 639.594L343.798 700.548C345.124 700.707 346.407 700.826 347.732 700.945C347.989 700.985 348.203 700.985 348.459 700.985C349.315 701.064 350.127 701.104 350.983 701.183C351.924 701.263 352.822 701.302 353.762 701.382C354.618 701.421 355.473 701.461 356.328 701.501C356.97 701.54 357.611 701.58 358.253 701.58C358.467 701.58 358.638 701.58 358.852 701.58C361.332 701.659 363.77 701.699 366.25 701.659C366.721 701.659 367.234 701.659 367.704 701.62C369.928 701.58 372.152 701.501 374.419 701.421C374.846 701.421 375.231 701.382 375.659 701.382C378.139 701.263 380.62 701.064 383.057 700.826C383.613 700.786 384.169 700.707 384.725 700.667C387.12 700.429 389.472 700.151 391.825 699.834C391.953 699.834 392.081 699.794 392.167 699.794C392.21 699.794 392.252 699.794 392.295 699.794C394.262 699.516 396.187 699.239 398.111 698.882C398.667 698.802 399.223 698.683 399.779 698.564C401.148 698.326 402.516 698.048 403.842 697.81C404.099 697.77 404.355 697.731 404.612 697.651C405.296 697.493 405.98 697.334 406.665 697.215C407.306 697.096 407.905 696.937 408.546 696.818C409.615 696.58 410.685 696.302 411.754 696.024C412.267 695.905 412.78 695.786 413.293 695.627C413.379 695.588 413.507 695.588 413.593 695.548C413.807 695.508 414.02 695.429 414.234 695.35C416.159 694.834 418.04 694.278 419.922 693.723C420.222 693.643 420.521 693.564 420.82 693.445C421.077 693.366 421.333 693.286 421.59 693.207C423.087 692.731 424.584 692.215 426.038 691.699C426.337 691.58 426.637 691.5 426.936 691.381C427.107 691.302 427.278 691.262 427.449 691.183L430.272 630.229C429.801 630.387 429.331 630.546 428.903 630.705C427.449 631.221 425.952 631.737 424.455 632.213C423.857 632.411 423.301 632.57 422.745 632.768Z" fill="url(#paint18_linear_4190_20459)"/>
<path d="M196.679 597.688L222.553 573.441C212.546 566.219 204.206 558.321 197.62 549.948C182.396 551.655 167.171 553.361 151.903 555.067C136.892 539.392 130.648 519.788 134.754 501.97L179.915 496.931C180.642 487.565 183.379 478.279 188.169 469.231L149.936 452.643C153.314 443.913 159.387 435.46 167.427 427.92C175.51 420.341 185.56 413.674 197.022 408.475L235.255 425.063C246.631 418.872 259.204 413.833 272.59 409.983C269.511 400.419 266.474 390.856 263.395 381.292C287.858 372.323 318.735 368.831 347.089 372.006L356.455 401.054C371.038 401.888 385.579 403.951 399.777 407.245L425.694 382.959C453.535 387.721 479.794 399.11 496.943 413.912L471.026 438.199C481.034 445.381 489.373 453.278 495.917 461.652C511.184 459.945 526.452 458.239 541.719 456.532C556.645 472.168 562.974 491.811 558.869 509.629C543.858 511.296 528.761 513.003 513.665 514.709C512.938 524.074 510.201 533.4 505.368 542.408L543.516 558.956C540.18 567.687 534.193 576.1 526.11 583.679C518.027 591.259 507.934 597.926 496.43 603.125L458.282 586.537C446.906 592.688 434.333 597.727 420.99 601.617L430.227 630.268C405.765 639.237 374.802 642.689 346.533 639.554C343.411 629.871 340.332 620.228 337.21 610.545C322.627 609.712 308.043 607.648 293.845 604.355L267.971 628.641C240.045 623.958 213.786 612.53 196.679 597.688ZM271.008 472.882C243.552 498.637 255.227 534.233 297.095 552.369C338.964 570.544 395.116 564.393 422.572 538.678C450.028 512.923 438.353 477.366 396.484 459.191C354.659 441.016 298.464 447.167 271.008 472.882Z" fill="url(#paint19_linear_4190_20459)"/>
<path d="M395.332 417.443C395.332 417.443 403.5 449.309 390.114 462.365C376.728 475.421 398.24 487.406 380.15 509.629C362.059 531.852 391.098 545.662 370.656 573.282C357.441 591.1 372.708 600.783 372.708 600.783C372.708 600.783 350.213 592.965 351.282 570.147C352.351 547.329 346.706 531.653 332.764 521.375C318.823 511.097 306.164 492.962 317.582 468.437C329.001 443.912 303.812 423.952 303.812 423.952L395.332 417.443Z" fill="url(#paint20_linear_4190_20459)"/>
<path d="M378.609 414.547C378.609 414.547 387.119 441.254 373.306 458.636C359.492 476.017 380.576 483.636 361.673 502.248C348.33 515.383 362.571 524.233 362.486 532.408C362.358 542.845 354.36 548.242 354.36 548.242C354.36 548.242 360.647 532.567 348.587 519.788C339.82 510.463 320.789 494.946 330.497 478.636C340.204 462.326 312.834 423.873 312.834 423.873L378.609 414.547Z" fill="#DD6A0B"/>
<path d="M282.213 323.988L237.565 362.283C217.208 379.744 211.435 407.483 223.367 430.698L251.336 485.184L255.998 486.771L265.064 435.222C268.785 421.65 276.739 409.388 287.944 399.983L296.455 392.8L286.875 325.576L282.213 323.988Z" fill="url(#paint21_linear_4190_20459)"/>
<path d="M286.875 325.575L242.226 363.87C221.87 381.331 216.096 409.07 228.028 432.285L255.997 486.771L269.725 436.809C273.446 423.237 281.401 410.975 292.605 401.57L301.116 394.387L286.875 325.575Z" fill="url(#paint22_linear_4190_20459)"/>
<path d="M409.957 327.48L452.125 368.117C471.37 386.649 475.347 414.666 462.004 437.206L430.656 490.065L425.909 491.414L420.093 439.468C417.227 425.698 410.043 413.039 399.479 403.038L391.396 395.419L405.167 328.83L409.957 327.48Z" fill="url(#paint23_linear_4190_20459)"/>
<path d="M405.209 328.79L447.377 369.426C466.622 387.959 470.599 415.975 457.256 438.516L425.908 491.375L415.345 440.738C412.479 426.968 405.295 414.309 394.731 404.308L386.648 396.689L405.209 328.79Z" fill="url(#paint24_linear_4190_20459)"/>
<path d="M417.399 337.123L274.217 333.234L289.784 409.07H289.869C290.981 423.872 313.99 436.174 342.6 436.968C371.211 437.762 394.947 426.69 396.999 411.967H397.085L417.399 337.123Z" fill="url(#paint25_linear_4190_20459)"/>
<path d="M418.895 329.98C418.21 351.013 385.066 367.204 344.823 366.093C304.58 364.981 272.462 347.044 273.146 326.012C273.831 304.979 306.975 288.788 347.218 289.9C387.461 291.011 419.536 308.948 418.895 329.98Z" fill="url(#paint26_linear_4190_20459)"/>
<path d="M421.932 324.821C421.248 346.489 386.778 363.116 344.953 362.005C303.127 360.854 269.769 342.401 270.454 320.734C261.772 194.619 294.659 109.576 294.659 109.576H294.916C294.745 110.489 294.617 111.362 294.574 112.275C294.574 112.433 294.574 112.632 294.574 112.791C294.574 112.949 294.531 113.148 294.531 113.306C294.018 129.934 319.635 144.141 351.795 145.014C383.956 145.887 410.428 133.109 410.941 116.481C410.941 116.283 410.941 116.124 410.941 115.926C410.941 115.767 410.984 115.608 410.984 115.449C411.027 114.537 410.941 113.624 410.813 112.711H411.07C411.027 112.671 438.526 199.42 421.932 324.821Z" fill="url(#paint27_linear_4190_20459)"/>
<path d="M410.94 115.887C410.94 116.085 410.94 116.244 410.94 116.442C410.427 133.07 383.955 145.848 351.794 144.975C319.634 144.102 294.017 129.895 294.53 113.267C294.53 113.109 294.53 112.91 294.573 112.752C294.573 112.593 294.573 112.394 294.573 112.236C294.616 111.323 294.701 110.41 294.915 109.537L410.812 112.672C410.94 113.585 410.983 114.498 410.983 115.41C410.94 115.569 410.94 115.728 410.94 115.887Z" fill="url(#paint28_linear_4190_20459)"/>
<path d="M410.897 116.441C410.384 133.069 383.912 145.847 351.751 144.974C319.591 144.101 293.974 129.894 294.487 113.267C294.487 113.108 294.487 112.91 294.53 112.751C294.615 111.64 294.786 110.568 295.086 109.536C295.3 108.782 295.513 108.068 295.856 107.354C295.898 107.274 295.941 107.155 295.984 107.076C296.369 106.163 299.362 90.5675 314.373 70.805C331.865 47.7487 351.88 33.3038 355.301 33.3831C358.808 33.4625 378.651 49.7726 394.86 73.9797C407.818 93.3057 409.016 107.83 409.572 109.378C410.042 110.449 410.384 111.56 410.598 112.671C410.812 113.743 410.94 114.814 410.94 115.886C410.94 116.084 410.94 116.243 410.897 116.441Z" fill="url(#paint29_linear_4190_20459)"/>
<path d="M410.941 115.41C410.941 115.569 410.941 115.727 410.898 115.886C409.914 132.315 383.613 144.855 351.795 143.982C319.976 143.109 294.573 129.18 294.53 112.791C294.53 112.632 294.53 112.434 294.53 112.275C294.573 111.362 294.659 110.449 294.872 109.576C295.086 108.505 295.428 107.433 295.856 106.402C295.899 106.322 295.942 106.243 295.984 106.124C296.369 105.211 299.363 89.6154 314.374 69.8528C331.865 46.7965 351.88 32.3516 355.301 32.431C358.808 32.5104 378.652 48.8204 394.86 73.0275C407.819 92.3536 409.016 106.878 409.572 108.426C410.171 109.814 410.556 111.243 410.77 112.711C410.941 113.584 410.983 114.497 410.941 115.41Z" fill="#4468CA"/>
<path d="M352.864 362.442L365.138 400.895C370.741 418.436 371.425 445.341 366.806 467.326L355.943 518.875L351.752 518.756L353.677 470.263C353.078 457.048 351.111 444.944 347.989 435.5L345.637 428.317L348.63 362.362L352.864 362.442Z" fill="url(#paint30_linear_4190_20459)"/>
<path d="M348.673 362.322L360.947 400.776C366.549 418.316 367.234 445.222 362.615 467.207L351.752 518.756L349.528 470.143C348.93 456.929 346.962 444.825 343.84 435.38L341.488 428.197L348.673 362.322Z" fill="url(#paint31_linear_4190_20459)"/>
<path d="M404.612 218.191C403.842 242.477 381.091 261.605 353.806 260.851C326.521 260.097 305.009 239.818 305.779 215.492C306.549 191.206 329.3 172.078 356.585 172.832C383.87 173.626 405.382 193.904 404.612 218.191Z" fill="url(#paint32_linear_4190_20459)"/>
<path d="M404.482 222.556C403.712 246.842 380.961 265.97 353.676 265.216C326.391 264.462 304.879 244.184 305.649 219.857C306.419 195.571 329.171 176.443 356.456 177.197C383.741 177.951 405.252 198.269 404.482 222.556Z" fill="url(#paint33_linear_4190_20459)"/>
<path d="M395.373 222.317C394.732 242.159 376.171 257.755 353.89 257.12C331.609 256.525 314.074 239.937 314.673 220.135C314.716 219.42 314.759 218.666 314.801 217.952C315.486 236.802 332.549 252.199 354.018 252.795C375.487 253.39 393.492 238.945 395.331 220.135C395.416 220.849 395.416 221.563 395.373 222.317Z" fill="url(#paint34_linear_4190_20459)"/>
<path d="M395.374 220.135C393.492 238.906 375.488 253.351 354.062 252.795C332.593 252.2 315.529 236.802 314.845 217.953C316.726 199.182 334.731 184.737 356.157 185.293C377.626 185.888 394.733 201.285 395.374 220.135Z" fill="url(#paint35_linear_4190_20459)"/>
</g>
<defs>
<linearGradient id="paint0_linear_4190_20459" x1="542.32" y1="596.493" x2="97.742" y2="596.493" gradientUnits="userSpaceOnUse">
<stop stop-color="#505FAA"/>
<stop offset="1" stop-color="#2C3C91"/>
</linearGradient>
<linearGradient id="paint1_linear_4190_20459" x1="542.32" y1="595.184" x2="97.742" y2="595.184" gradientUnits="userSpaceOnUse">
<stop stop-color="#F9F9FC"/>
<stop offset="1" stop-color="#D7DCEE"/>
</linearGradient>
<linearGradient id="paint2_linear_4190_20459" x1="35.7482" y1="567.607" x2="655.094" y2="567.607" gradientUnits="userSpaceOnUse">
<stop stop-color="#F9F9FC"/>
<stop offset="1" stop-color="#D7DCEE"/>
</linearGradient>
<linearGradient id="paint3_linear_4190_20459" x1="229.695" y1="403.261" x2="259.478" y2="424.454" gradientUnits="userSpaceOnUse">
<stop stop-color="#8F92C7"/>
<stop offset="1" stop-color="#505FAA"/>
</linearGradient>
<linearGradient id="paint4_linear_4190_20459" x1="502.54" y1="415.994" x2="467.513" y2="498.61" gradientUnits="userSpaceOnUse">
<stop stop-color="#8F92C7"/>
<stop offset="1" stop-color="#505FAA"/>
</linearGradient>
<linearGradient id="paint5_linear_4190_20459" x1="140.863" y1="479.341" x2="170.998" y2="494.844" gradientUnits="userSpaceOnUse">
<stop stop-color="#8F92C7"/>
<stop offset="1" stop-color="#505FAA"/>
</linearGradient>
<linearGradient id="paint6_linear_4190_20459" x1="297.298" y1="504.617" x2="400.105" y2="523.571" gradientUnits="userSpaceOnUse">
<stop stop-color="#8F92C7"/>
<stop offset="1" stop-color="#505FAA"/>
</linearGradient>
<linearGradient id="paint7_linear_4190_20459" x1="552.582" y1="506.673" x2="521.53" y2="579.913" gradientUnits="userSpaceOnUse">
<stop stop-color="#8F92C7"/>
<stop offset="1" stop-color="#CFD5EB"/>
</linearGradient>
<linearGradient id="paint8_linear_4190_20459" x1="527.28" y1="520.179" x2="493.715" y2="599.348" gradientUnits="userSpaceOnUse">
<stop stop-color="#8F92C7"/>
<stop offset="1" stop-color="#505FAA"/>
</linearGradient>
<linearGradient id="paint9_linear_4190_20459" x1="191.082" y1="546.972" x2="159.94" y2="620.423" gradientUnits="userSpaceOnUse">
<stop stop-color="#8F92C7"/>
<stop offset="1" stop-color="#CFD5EB"/>
</linearGradient>
<linearGradient id="paint10_linear_4190_20459" x1="161.552" y1="522.23" x2="126.018" y2="606.041" gradientUnits="userSpaceOnUse">
<stop stop-color="#8F92C7"/>
<stop offset="1" stop-color="#505FAA"/>
</linearGradient>
<linearGradient id="paint11_linear_4190_20459" x1="175.287" y1="588.28" x2="211.954" y2="593.012" gradientUnits="userSpaceOnUse">
<stop stop-color="#8F92C7"/>
<stop offset="1" stop-color="#505FAA"/>
</linearGradient>
<linearGradient id="paint12_linear_4190_20459" x1="488.806" y1="599.234" x2="466.323" y2="652.263" gradientUnits="userSpaceOnUse">
<stop stop-color="#8F92C7"/>
<stop offset="1" stop-color="#505FAA"/>
</linearGradient>
<linearGradient id="paint13_linear_4190_20459" x1="544.526" y1="559.107" x2="499.133" y2="666.175" gradientUnits="userSpaceOnUse">
<stop stop-color="#8F92C7"/>
<stop offset="1" stop-color="#CFD5EB"/>
</linearGradient>
<linearGradient id="paint14_linear_4190_20459" x1="332.618" y1="638.307" x2="298.422" y2="637.122" gradientUnits="userSpaceOnUse">
<stop stop-color="#8F92C7"/>
<stop offset="1" stop-color="#CFD5EB"/>
</linearGradient>
<linearGradient id="paint15_linear_4190_20459" x1="299.389" y1="606.504" x2="264.379" y2="689.08" gradientUnits="userSpaceOnUse">
<stop stop-color="#8F92C7"/>
<stop offset="1" stop-color="#505FAA"/>
</linearGradient>
<linearGradient id="paint16_linear_4190_20459" x1="243.79" y1="617.451" x2="219.334" y2="675.134" gradientUnits="userSpaceOnUse">
<stop stop-color="#8F92C7"/>
<stop offset="1" stop-color="#505FAA"/>
</linearGradient>
<linearGradient id="paint17_linear_4190_20459" x1="358.287" y1="619.274" x2="326.94" y2="693.212" gradientUnits="userSpaceOnUse">
<stop stop-color="#8F92C7"/>
<stop offset="1" stop-color="#505FAA"/>
</linearGradient>
<linearGradient id="paint18_linear_4190_20459" x1="408.832" y1="620.963" x2="370.39" y2="711.633" gradientUnits="userSpaceOnUse">
<stop stop-color="#8F92C7"/>
<stop offset="1" stop-color="#CFD5EB"/>
</linearGradient>
<linearGradient id="paint19_linear_4190_20459" x1="284.83" y1="378.69" x2="376.491" y2="596.317" gradientUnits="userSpaceOnUse">
<stop stop-color="#5988EF"/>
<stop offset="1" stop-color="white"/>
</linearGradient>
<linearGradient id="paint20_linear_4190_20459" x1="375.313" y1="410.971" x2="320.886" y2="584.341" gradientUnits="userSpaceOnUse">
<stop stop-color="#F58B21"/>
<stop offset="1" stop-color="#F5B419"/>
</linearGradient>
<linearGradient id="paint21_linear_4190_20459" x1="209.434" y1="412.051" x2="288.232" y2="414.542" gradientUnits="userSpaceOnUse">
<stop stop-color="#212253"/>
<stop offset="1" stop-color="#313F95"/>
</linearGradient>
<linearGradient id="paint22_linear_4190_20459" x1="214.122" y1="412.908" x2="292.921" y2="415.399" gradientUnits="userSpaceOnUse">
<stop stop-color="#4468CA"/>
<stop offset="1" stop-color="#2C3C91"/>
</linearGradient>
<linearGradient id="paint23_linear_4190_20459" x1="469.897" y1="410.771" x2="391.098" y2="408.287" gradientUnits="userSpaceOnUse">
<stop stop-color="#212253"/>
<stop offset="1" stop-color="#313F95"/>
</linearGradient>
<linearGradient id="paint24_linear_4190_20459" x1="381.749" y1="393.868" x2="432.479" y2="448.85" gradientUnits="userSpaceOnUse">
<stop stop-color="#5988EF"/>
<stop offset="1" stop-color="#4468CA"/>
</linearGradient>
<linearGradient id="paint25_linear_4190_20459" x1="264.82" y1="392.178" x2="408.001" y2="396.703" gradientUnits="userSpaceOnUse">
<stop stop-color="#4468CA"/>
<stop offset="1" stop-color="#5988EF"/>
</linearGradient>
<linearGradient id="paint26_linear_4190_20459" x1="265.363" y1="334.091" x2="411.125" y2="338.698" gradientUnits="userSpaceOnUse">
<stop stop-color="#212253"/>
<stop offset="1" stop-color="#313F95"/>
</linearGradient>
<linearGradient id="paint27_linear_4190_20459" x1="262.297" y1="242.473" x2="419.973" y2="247.457" gradientUnits="userSpaceOnUse">
<stop stop-color="#8F92C7"/>
<stop offset="0.732" stop-color="#CFD5EB"/>
<stop offset="0.997" stop-color="white"/>
</linearGradient>
<linearGradient id="paint28_linear_4190_20459" x1="286.38" y1="134.527" x2="402.753" y2="138.205" gradientUnits="userSpaceOnUse">
<stop stop-color="#8F92C7"/>
<stop offset="1" stop-color="#CFD5EB"/>
</linearGradient>
<linearGradient id="paint29_linear_4190_20459" x1="391.672" y1="98.5067" x2="313.771" y2="96.0443" gradientUnits="userSpaceOnUse">
<stop stop-color="#212253"/>
<stop offset="1" stop-color="#313F95"/>
</linearGradient>
<linearGradient id="paint30_linear_4190_20459" x1="369.879" y1="440.991" x2="345.385" y2="440.218" gradientUnits="userSpaceOnUse">
<stop stop-color="#212253"/>
<stop offset="1" stop-color="#313F95"/>
</linearGradient>
<linearGradient id="paint31_linear_4190_20459" x1="345.463" y1="448.499" x2="340.291" y2="415.268" gradientUnits="userSpaceOnUse">
<stop stop-color="#505FAA"/>
<stop offset="1" stop-color="#2C3C91"/>
</linearGradient>
<linearGradient id="paint32_linear_4190_20459" x1="318.333" y1="224.145" x2="387.195" y2="226.321" gradientUnits="userSpaceOnUse">
<stop stop-color="#212253"/>
<stop offset="1" stop-color="#313F95"/>
</linearGradient>
<linearGradient id="paint33_linear_4190_20459" x1="341.189" y1="274.237" x2="350.776" y2="192.477" gradientUnits="userSpaceOnUse">
<stop stop-color="#8F92C7"/>
<stop offset="1" stop-color="#CFD5EB"/>
</linearGradient>
<linearGradient id="paint34_linear_4190_20459" x1="326.151" y1="245.59" x2="389.888" y2="247.605" gradientUnits="userSpaceOnUse">
<stop stop-color="#212253"/>
<stop offset="1" stop-color="#313F95"/>
</linearGradient>
<linearGradient id="paint35_linear_4190_20459" x1="387.648" y1="228.205" x2="307.123" y2="225.66" gradientUnits="userSpaceOnUse">
<stop stop-color="#5988EF"/>
<stop offset="1" stop-color="#4468CA"/>
</linearGradient>
<clipPath id="clip0_4190_20459">
<rect width="679" height="842" fill="white"/>
</clipPath>
</defs>
</svg>
