<svg width="61" height="61" viewBox="0 0 61 61" fill="none" xmlns="http://www.w3.org/2000/svg">
<g clip-path="url(#clip0_3195_13755)">
<path d="M54.1825 7.47985C52.9268 6.21778 46.2189 4.96623 38.5413 9.60223C37.153 10.4436 36.1517 11.1924 34.3428 12.6144H14.7239C14.5836 12.6146 14.4447 12.6428 14.3154 12.6974C14.1861 12.7519 14.069 12.8317 13.9709 12.932L10.3845 16.613C10.2603 16.7406 10.1706 16.8976 10.1237 17.0693C10.0768 17.2411 10.0742 17.4219 10.1162 17.5949C10.1583 17.7679 10.2435 17.9274 10.364 18.0584C10.4845 18.1895 10.6363 18.2878 10.8052 18.3442L22.6518 22.3197C20.8597 23.891 19.1222 25.4433 17.5236 26.88L10.008 23.9688C9.81361 23.8936 9.60126 23.8778 9.3979 23.9235C9.19454 23.9692 9.00935 24.0743 8.86582 24.2254L6.60041 26.6149C6.4264 26.798 6.32422 27.0376 6.31263 27.2899C6.30104 27.5422 6.38081 27.7902 6.5373 27.9885L10.6685 33.2471C10.3572 33.7098 10.1847 34.2525 10.1721 34.8268C10.1552 35.6408 10.4623 36.4065 11.0345 36.9828C11.4373 37.3908 11.9507 37.6719 12.5113 37.7915C13.072 37.9111 13.6554 37.864 14.1896 37.6559C17.2859 36.4485 27.4119 32.3615 34.978 27.6582L42.359 35.4242C42.5138 35.5881 42.7174 35.6978 42.9394 35.7368C43.1615 35.7758 43.3902 35.7422 43.5916 35.6408L47.7985 33.5374C48.0127 33.4297 48.1836 33.2522 48.2831 33.0342C48.3825 32.8161 48.4045 32.5707 48.3454 32.3384L45.2639 20.2646C48.8776 17.3408 50.9874 15.2226 51.9171 14.2845C53.2002 12.993 55.7601 9.06795 54.1825 7.47985Z" fill="#303C42"/>
<path d="M35.4795 24.8396C28.0017 29.8563 16.7083 34.4166 13.4248 35.6955C13.273 35.7553 13.107 35.7688 12.9475 35.7343C12.7881 35.6999 12.6424 35.6191 12.5288 35.502C12.4462 35.4198 12.3812 35.3216 12.3379 35.2135C12.2945 35.1054 12.2735 34.9895 12.2764 34.8731C12.2783 34.7574 12.3037 34.6432 12.3511 34.5377C12.3984 34.4321 12.4668 34.3372 12.5519 34.2589L12.5267 34.2294C12.5806 34.2017 12.632 34.1694 12.6802 34.1327L12.5119 33.9076L12.7644 34.0653C12.9619 33.8822 13.0817 33.6302 13.0989 33.3613C13.1161 33.0924 13.0295 32.8272 12.8569 32.6203L12.8275 32.5866L8.75098 27.4037L9.90577 26.1858L16.9839 28.9266C17.1771 29.101 17.4282 29.1976 17.6885 29.1976C17.9489 29.1976 18.1999 29.101 18.3932 28.9266C20.7157 26.8304 23.0562 24.7542 25.4145 22.6983C25.5541 22.5765 25.6591 22.4201 25.7188 22.2447C25.7785 22.0693 25.7909 21.8813 25.7546 21.6996C25.7183 21.518 25.6347 21.3491 25.5121 21.2101C25.3896 21.0712 25.2326 20.967 25.0569 20.9083L13.0609 16.8823L15.1707 14.7178H34.7075C34.944 14.7184 35.1738 14.6391 35.3596 14.4928C37.4715 12.8289 38.3381 12.1853 39.6296 11.4007C46.4153 7.30527 51.5919 8.45796 52.5868 8.91862C52.5511 9.59172 51.6571 11.5648 50.4245 12.8037C48.9479 14.2908 44.457 18.8132 35.4795 24.8396ZM46.0998 32.0355L43.3464 33.4112L36.7752 26.4971C39.0555 24.9667 41.2843 23.3608 43.4579 21.6823L46.0998 32.0355Z" fill="#8D949C"/>
<path opacity="0.2" d="M15.1661 15.7673H34.7071C34.9436 15.7679 35.1734 15.6886 35.3592 15.5422C37.4711 13.8784 38.3377 13.2347 39.6292 12.4523C45.9395 8.6429 50.8553 9.3749 52.313 9.86501C52.475 9.46535 52.5759 9.1267 52.5864 8.91846C51.5915 8.4599 46.4149 7.30721 39.6292 11.4026C38.3377 12.1851 37.4711 12.8288 35.3592 14.4926C35.1734 14.6389 34.9436 14.7182 34.7071 14.7177H15.1661L13.0605 16.8821L13.8325 17.1408L15.1703 15.7673H15.1661Z" fill="white"/>
<path opacity="0.1" d="M43.7902 22.9905L43.4558 21.6821C41.5648 23.1461 39.373 24.7532 36.7773 26.499L37.6482 27.414C39.7402 26.0026 41.7886 24.5274 43.7902 22.9905Z" fill="black"/>
<path d="M45.2233 52.5801C51.6126 52.5801 56.7922 47.4005 56.7922 41.0111C56.7922 34.6217 51.6126 29.4421 45.2233 29.4421C38.8339 29.4421 33.6543 34.6217 33.6543 41.0111C33.6543 47.4005 38.8339 52.5801 45.2233 52.5801Z" fill="#303C42"/>
<path d="M45.2253 50.4767C50.4529 50.4767 54.6908 46.2388 54.6908 41.0112C54.6908 35.7835 50.4529 31.5457 45.2253 31.5457C39.9976 31.5457 35.7598 35.7835 35.7598 41.0112C35.7598 46.2388 39.9976 50.4767 45.2253 50.4767Z" fill="#7CB342"/>
<path d="M49.7387 37.1109L43.1213 43.7304L40.7086 41.3178C40.6116 41.2173 40.4955 41.1372 40.3672 41.0821C40.2389 41.027 40.1009 40.9979 39.9613 40.9967C39.8216 40.9955 39.6831 41.0221 39.5539 41.075C39.4246 41.1279 39.3072 41.206 39.2084 41.3047C39.1097 41.4035 39.0316 41.5209 38.9787 41.6502C38.9258 41.7794 38.8992 41.9179 38.9004 42.0576C38.9016 42.1972 38.9307 42.3352 38.9858 42.4635C39.0409 42.5918 39.121 42.7079 39.2215 42.8049L42.3766 45.9601C42.474 46.0582 42.5899 46.1361 42.7175 46.1893C42.8451 46.2424 42.982 46.2698 43.1202 46.2698C43.2585 46.2698 43.3953 46.2424 43.523 46.1893C43.6506 46.1361 43.7664 46.0582 43.8638 45.9601L51.2259 38.598C51.3263 38.501 51.4064 38.3849 51.4615 38.2566C51.5167 38.1283 51.5457 37.9903 51.5469 37.8507C51.5481 37.711 51.5215 37.5725 51.4686 37.4433C51.4157 37.314 51.3376 37.1966 51.2389 37.0978C51.1401 36.9991 51.0227 36.921 50.8935 36.8681C50.7642 36.8152 50.6257 36.7886 50.4861 36.7898C50.3464 36.791 50.2084 36.8201 50.0801 36.8752C49.9518 36.9303 49.8357 37.0104 49.7387 37.1109Z" fill="#303C42"/>
<path d="M47.6744 29.7091L45.2639 20.2646C48.8776 17.3408 50.9874 15.2226 51.9171 14.2845C53.2002 12.993 55.7601 9.06795 54.1825 7.47985C52.9268 6.21778 46.2189 4.96623 38.5413 9.60223C37.153 10.4436 36.1518 11.1924 34.3428 12.6144H14.7239C14.5836 12.6146 14.4447 12.6428 14.3154 12.6974C14.1861 12.7519 14.069 12.8317 13.9709 12.932L10.3845 16.613C10.2603 16.7406 10.1706 16.8976 10.1237 17.0693C10.0768 17.2411 10.0742 17.4219 10.1162 17.5949C10.1583 17.7679 10.2435 17.9274 10.364 18.0584C10.4845 18.1895 10.6363 18.2878 10.8052 18.3442L22.6518 22.3197C20.8597 23.891 19.1222 25.4433 17.5236 26.88L10.008 23.9688C9.81361 23.8936 9.60126 23.8778 9.3979 23.9235C9.19454 23.9692 9.00935 24.0743 8.86582 24.2254L6.60041 26.6149C6.4264 26.798 6.32422 27.0376 6.31263 27.2899C6.30104 27.5422 6.38081 27.7902 6.5373 27.9885L10.6685 33.2471C10.3572 33.7098 10.1847 34.2525 10.1721 34.8268C10.1552 35.6408 10.4623 36.4065 11.0345 36.9828C11.4373 37.3908 11.9507 37.6719 12.5113 37.7915C13.072 37.9111 13.6554 37.864 14.1896 37.6559C17.2859 36.4485 27.4119 32.3615 34.978 27.6582L38.638 31.5117C37.1016 32.5745 35.8457 33.9939 34.9778 35.6483C34.11 37.3026 33.656 39.1427 33.655 41.0109C33.655 47.3907 38.8442 52.5799 45.2239 52.5799C51.6037 52.5799 56.7929 47.3907 56.7929 41.0109C56.7887 38.3699 55.8824 35.8096 54.2241 33.7541C52.5657 31.6987 50.2549 30.2715 47.6744 29.7091Z" fill="url(#paint0_linear_3195_13755)"/>
</g>
<defs>
<linearGradient id="paint0_linear_3195_13755" x1="12.0105" y1="12.9888" x2="60.5097" y2="35.603" gradientUnits="userSpaceOnUse">
<stop stop-color="white" stop-opacity="0.2"/>
<stop offset="1" stop-color="white" stop-opacity="0"/>
</linearGradient>
<clipPath id="clip0_3195_13755">
<rect width="50.4828" height="50.4828" fill="white" transform="translate(6.31055 4.20679)"/>
</clipPath>
</defs>
</svg>
