<svg width="56" height="56" viewBox="0 0 56 56" fill="none" xmlns="http://www.w3.org/2000/svg">
<g clip-path="url(#clip0_3195_13798)">
<path d="M47.5288 30.0315C48.15 19.7747 40.3388 10.9563 30.082 10.3351C19.8252 9.71387 11.0068 17.5251 10.3856 27.7819C9.76434 38.0387 17.5755 46.8571 27.8324 47.4783C38.0892 48.0996 46.9076 40.2884 47.5288 30.0315Z" fill="#F8E8A6"/>
<path d="M44.5147 23.4915C43.6415 23.3907 42.6676 23.3236 41.5929 23.3236C40.6526 23.3236 39.7459 23.3907 38.9734 23.4579C38.8727 23.29 38.9063 23.0213 39.007 22.8534C39.2085 22.5847 39.5779 22.4168 40.1153 22.5511C39.7794 22.3832 39.8466 21.8123 40.4175 21.7787C40.7869 21.7452 41.1899 21.8795 41.4586 22.1482C41.1228 21.6108 41.7944 20.9056 42.5668 21.3422C43.0706 21.6444 43.2721 22.2825 42.9363 22.8198C43.6751 21.9802 45.0856 22.8198 44.5147 23.4915ZM20.0661 20.872C20.0325 20.9392 19.9989 21.0399 19.9653 21.1071C19.0922 21.0063 18.1183 20.9392 17.0436 20.9392C16.1033 20.9392 15.2301 20.9727 14.4241 21.0735C14.3234 20.9056 14.3569 20.6369 14.4577 20.469C14.592 20.2675 14.8271 20.1667 15.0622 20.0996C15.2301 20.066 15.4316 20.0996 15.5995 20.1332C15.5324 20.0996 15.4652 20.0324 15.4316 19.9652C15.3644 19.8309 15.398 19.663 15.4988 19.5287C15.5995 19.3943 15.7674 19.3607 15.9354 19.3272C16.3048 19.2936 16.7078 19.4279 16.9429 19.6966C16.8421 19.5622 16.8421 19.3272 16.9093 19.1592C17.01 18.9577 17.1779 18.8234 17.413 18.7562C17.6145 18.7227 17.8496 18.7562 18.0511 18.857C18.2862 18.9913 18.4877 19.26 18.5548 19.5287C18.622 19.7973 18.5884 20.0996 18.4205 20.3347C18.7563 19.9652 19.3608 19.8645 19.7638 20.1332C19.9318 20.3347 20.0997 20.6033 20.0661 20.872Z" fill="white"/>
<path d="M11.9727 41.3577C16.3049 45.5892 22.5514 48.2423 29.5031 48.2423C36.4548 48.2423 42.7013 45.5892 47.0335 41.3577C34.91 38.5031 23.2566 38.6039 11.9727 41.3577Z" fill="#73535E"/>
<path d="M31.7535 27.1856C31.6527 27.2192 31.552 27.2192 31.4512 27.1856C31.0147 27.0849 30.6788 26.7491 30.5781 26.3125C30.5445 26.1446 30.5445 25.9766 30.5109 25.8423C30.4773 25.6744 30.3766 25.5065 30.2422 25.4729C30.0743 25.4057 29.9064 25.4393 29.7721 25.4729C29.2683 25.5736 28.4623 25.6072 27.9586 25.4729C27.7907 25.4393 27.6228 25.4057 27.4884 25.4729C27.3541 25.5401 27.2533 25.708 27.2198 25.8423C27.1862 26.0102 27.1862 26.1781 27.1526 26.3125C27.0518 26.7491 26.716 27.0849 26.2794 27.1856C26.1787 27.2192 26.0779 27.2192 25.9772 27.1856C25.8428 27.1521 25.7085 26.9841 25.7757 26.8498C25.8093 26.7491 25.9772 26.7155 26.0443 26.6483C27.0518 25.7416 26.1787 24.5997 27.5556 24.3982C27.6899 24.3647 30.0743 24.3647 30.2087 24.3982C31.5856 24.5997 30.6788 25.708 31.7199 26.6483C31.7871 26.7155 31.955 26.7491 31.9886 26.8498C32.0222 26.9841 31.8878 27.1521 31.7535 27.1856Z" fill="#3A3B3B"/>
<path d="M25.6077 27.7567H26.313L26.2794 27.6223C26.2458 27.4208 26.2122 27.2529 26.1787 27.0514C26.1787 26.9507 26.1451 26.8499 26.1451 26.7492V26.4805C26.1115 26.4133 26.0107 26.4133 25.9772 26.4133H25.7421C25.6077 26.4469 25.4734 26.5477 25.4062 26.682C25.3391 26.8163 25.3727 26.9507 25.3727 27.1186C25.4398 27.3201 25.507 27.5216 25.6077 27.7567ZM32.1229 27.7567H31.4176L31.4512 27.6223C31.4848 27.4208 31.5184 27.2529 31.552 27.0514C31.552 26.9507 31.5855 26.8499 31.5855 26.7492V26.4805C31.6191 26.4133 31.7199 26.4133 31.7535 26.4133H31.9885C32.1229 26.4469 32.2572 26.5477 32.3244 26.682C32.3915 26.8163 32.358 26.9507 32.358 27.1186C32.3244 27.3201 32.2236 27.5216 32.1229 27.7567Z" fill="#E4E4E4"/>
<path d="M38.4026 41.7271H19.3609C18.9579 41.7271 18.6221 41.3913 18.6221 40.9883V28.0923C18.6221 27.6893 18.9579 27.3535 19.3609 27.3535H38.4026C38.8056 27.3535 39.1414 27.6893 39.1414 28.0923V40.9883C39.1414 41.3913 38.8056 41.7271 38.4026 41.7271Z" fill="#E14D6C"/>
<path d="M37.1267 27.1521H37.0259C36.8916 27.1521 36.7237 27.2193 36.6901 27.3536C36.6229 27.4879 36.7573 27.6558 36.8916 27.723C37.0259 27.7902 37.1939 27.7902 37.3282 27.8237C38.0334 27.9581 38.6044 28.5626 38.7051 29.2678C38.7051 29.3686 38.7387 29.5029 38.7723 29.6037C38.8058 29.7044 38.9066 29.8052 39.0074 29.8387C39.1081 29.8723 39.2424 29.8052 39.3096 29.7044C39.3768 29.6037 39.4103 29.5029 39.4439 29.4022C39.5783 28.932 39.6454 28.3947 39.4775 27.9245C39.4775 27.8909 39.4439 27.8573 39.4439 27.7902C39.1081 27.0513 38.47 26.9842 37.5969 27.0513C37.4289 27.0849 37.261 27.1185 37.1267 27.1521ZM20.6038 27.1521H20.7045C20.8388 27.1521 21.0068 27.2193 21.0403 27.3536C21.1075 27.4879 20.9732 27.6558 20.8388 27.723C20.7045 27.7902 20.5366 27.7902 20.4023 27.8237C19.697 27.9581 19.1261 28.5626 19.0253 29.2678C19.0253 29.3686 18.9918 29.5029 18.9582 29.6037C18.9246 29.7044 18.8238 29.8052 18.7231 29.8387C18.6223 29.8723 18.488 29.8052 18.4208 29.7044C18.3537 29.6037 18.3201 29.5029 18.2865 29.4022C17.9507 28.2267 18.2529 27.1521 19.5291 27.0849H20.1336C20.3015 27.0849 20.4694 27.1185 20.6038 27.1521ZM37.1267 41.8951H37.0259C36.8916 41.8951 36.7237 41.8279 36.6901 41.6936C36.6229 41.5593 36.7573 41.3914 36.8916 41.3242C37.0259 41.257 37.1939 41.257 37.3282 41.2234C38.0334 41.0891 38.6044 40.4846 38.7051 39.7794C38.7051 39.6786 38.7387 39.5443 38.7723 39.4435C38.8058 39.3428 38.9066 39.242 39.0074 39.2085C39.1081 39.1749 39.2424 39.242 39.3096 39.3428C39.3768 39.4435 39.4103 39.5443 39.4439 39.645C39.7798 40.8205 39.4775 41.8951 38.2014 41.9623H37.5969C37.4289 41.9623 37.261 41.9287 37.1267 41.8951ZM20.6038 41.8951H20.7045C20.8388 41.8951 21.0068 41.8279 21.0403 41.6936C21.1075 41.5593 20.9732 41.3914 20.8388 41.3242C20.7045 41.257 20.5366 41.257 20.4023 41.2234C19.697 41.0891 19.1261 40.4846 19.0253 39.7794C19.0253 39.6786 18.9918 39.5443 18.9582 39.4435C18.9246 39.3428 18.8238 39.242 18.7231 39.2085C18.6223 39.1749 18.488 39.242 18.4208 39.3428C18.3537 39.4435 18.3201 39.5443 18.2865 39.645C18.1522 40.1152 18.085 40.6525 18.2529 41.1227C18.2529 41.1563 18.2865 41.1899 18.2865 41.257C18.4208 41.5257 18.6559 41.7944 18.9582 41.9287C19.1261 41.9959 19.3276 41.9959 19.5291 41.9959H20.1336C20.3015 41.9623 20.4694 41.9287 20.6038 41.8951Z" fill="#EEE7E0"/>
<path d="M37.2607 27.6222C37.3534 27.6222 37.4286 27.547 37.4286 27.4543C37.4286 27.3616 37.3534 27.2864 37.2607 27.2864C37.168 27.2864 37.0928 27.3616 37.0928 27.4543C37.0928 27.547 37.168 27.6222 37.2607 27.6222Z" fill="#B4B4B4"/>
<path d="M38.7382 27.8573C38.831 27.8573 38.9061 27.7821 38.9061 27.6894C38.9061 27.5967 38.831 27.5215 38.7382 27.5215C38.6455 27.5215 38.5703 27.5967 38.5703 27.6894C38.5703 27.7821 38.6455 27.8573 38.7382 27.8573Z" fill="#B4B4B4"/>
<path d="M39.1074 29.5702C39.2001 29.5702 39.2753 29.495 39.2753 29.4023C39.2753 29.3096 39.2001 29.2344 39.1074 29.2344C39.0146 29.2344 38.9395 29.3096 38.9395 29.4023C38.9395 29.495 39.0146 29.5702 39.1074 29.5702Z" fill="#B4B4B4"/>
<path d="M37.2607 41.7609C37.3534 41.7609 37.4286 41.6857 37.4286 41.593C37.4286 41.5002 37.3534 41.425 37.2607 41.425C37.168 41.425 37.0928 41.5002 37.0928 41.593C37.0928 41.6857 37.168 41.7609 37.2607 41.7609Z" fill="#B4B4B4"/>
<path d="M38.9062 41.3914C38.9062 41.1899 38.6039 41.1899 38.6039 41.3914C38.5703 41.5929 38.9062 41.5929 38.9062 41.3914Z" fill="#B4B4B4"/>
<path d="M39.1074 39.8466C39.2001 39.8466 39.2753 39.7714 39.2753 39.6787C39.2753 39.5859 39.2001 39.5107 39.1074 39.5107C39.0146 39.5107 38.9395 39.5859 38.9395 39.6787C38.9395 39.7714 39.0146 39.8466 39.1074 39.8466Z" fill="#B4B4B4"/>
<path d="M20.5029 41.7609C20.5956 41.7609 20.6708 41.6857 20.6708 41.593C20.6708 41.5002 20.5956 41.425 20.5029 41.425C20.4101 41.425 20.335 41.5002 20.335 41.593C20.335 41.6857 20.4101 41.7609 20.5029 41.7609Z" fill="#B4B4B4"/>
<path d="M19.0253 41.5592C19.1181 41.5592 19.1933 41.484 19.1933 41.3913C19.1933 41.2986 19.1181 41.2234 19.0253 41.2234C18.9326 41.2234 18.8574 41.2986 18.8574 41.3913C18.8574 41.484 18.9326 41.5592 19.0253 41.5592Z" fill="#B4B4B4"/>
<path d="M18.6552 39.8466C18.748 39.8466 18.8231 39.7714 18.8231 39.6787C18.8231 39.5859 18.748 39.5107 18.6552 39.5107C18.5625 39.5107 18.4873 39.5859 18.4873 39.6787C18.4873 39.7714 18.5625 39.8466 18.6552 39.8466Z" fill="#B4B4B4"/>
<path d="M20.5029 27.6222C20.5956 27.6222 20.6708 27.547 20.6708 27.4543C20.6708 27.3616 20.5956 27.2864 20.5029 27.2864C20.4101 27.2864 20.335 27.3616 20.335 27.4543C20.335 27.547 20.4101 27.6222 20.5029 27.6222Z" fill="#B4B4B4"/>
<path d="M19.0251 27.8237C19.2266 27.8237 19.2266 27.5215 19.0251 27.5215C18.8236 27.5215 18.8236 27.8237 19.0251 27.8237Z" fill="#B4B4B4"/>
<path d="M18.6552 29.5702C18.748 29.5702 18.8231 29.495 18.8231 29.4023C18.8231 29.3096 18.748 29.2344 18.6552 29.2344C18.5625 29.2344 18.4873 29.3096 18.4873 29.4023C18.4873 29.495 18.5625 29.5702 18.6552 29.5702Z" fill="#B4B4B4"/>
<path d="M37.5629 35.0777L38.604 38.2345C38.6376 38.3017 38.6376 38.3689 38.604 38.4024C38.5704 38.5032 38.5032 38.6039 38.3689 38.6375L31.0142 41.0219H30.9806C30.8127 41.0555 30.6448 40.9548 30.6112 40.7868L29.5701 37.63C29.5365 37.5629 29.5365 37.4957 29.5701 37.4621C29.6037 37.3614 29.6709 37.2606 29.8052 37.227L37.1263 34.8426H37.1599C37.3614 34.809 37.4957 34.9098 37.5629 35.0777Z" fill="#F8F5D6"/>
<path d="M30.9801 41.0557C30.8122 41.0893 30.6443 40.9885 30.6107 40.8206L30.5771 40.6863L30.9801 41.0557Z" fill="#505DAA"/>
<path d="M31.6521 40.8542L31.3834 40.9213L30.3423 40.0146L30.208 39.6116L31.6521 40.8542Z" fill="#ED1C24"/>
<path d="M32.324 40.6189L32.0554 40.7197L29.9732 38.9398L29.8389 38.5032L32.324 40.6189Z" fill="#505DAA"/>
<path d="M32.996 40.4176L32.7273 40.4848L29.6041 37.8317L29.5369 37.6638C29.5033 37.5966 29.5033 37.5294 29.5369 37.4958L32.996 40.4176Z" fill="#ED1C24"/>
<path d="M33.6674 40.1824L33.3987 40.2831L29.8389 37.2271L30.0739 37.1599L33.6674 40.1824Z" fill="#505DAA"/>
<path d="M34.3392 39.9809L34.0706 40.048L30.5107 37.0256L30.7458 36.9248L34.3392 39.9809Z" fill="#ED1C24"/>
<path d="M34.9765 39.7459L34.7415 39.8466L31.1816 36.7906L31.4167 36.7234L34.9765 39.7459Z" fill="#505DAA"/>
<path d="M35.6484 39.5444L35.4133 39.6115L31.8535 36.589L32.0886 36.4883L35.6484 39.5444Z" fill="#ED1C24"/>
<path d="M36.3207 39.3094L36.0856 39.4101L32.4922 36.354L32.7609 36.2869L36.3207 39.3094Z" fill="#505DAA"/>
<path d="M36.9916 39.1078L36.7565 39.175L33.1631 36.1525L33.4318 36.0518L36.9916 39.1078Z" fill="#ED1C24"/>
<path d="M37.6634 38.8726L37.4284 38.9733L33.835 35.9173L34.1036 35.8501L37.6634 38.8726Z" fill="#505DAA"/>
<path d="M38.3353 38.6711L38.0667 38.7382L34.5068 35.7157L34.7755 35.615L38.3353 38.6711Z" fill="#ED1C24"/>
<path d="M38.537 38.0666L38.6042 38.2346C38.6378 38.3017 38.6378 38.3689 38.6042 38.4025L35.1787 35.4807L35.4474 35.4136L38.537 38.0666Z" fill="#505DAA"/>
<path d="M38.2014 36.9584L38.3357 37.395L35.8506 35.2792L36.0857 35.1785L38.2014 36.9584Z" fill="#ED1C24"/>
<path d="M37.8312 35.8838L37.9656 36.2868L36.5215 35.0442L36.7566 34.9771L37.8312 35.8838Z" fill="#505DAA"/>
<path d="M37.5628 35.0777L37.5964 35.212L37.1934 34.8426C37.3613 34.809 37.4956 34.9098 37.5628 35.0777Z" fill="#ED1C24"/>
<path opacity="0.15" d="M38.6371 36.8242C38.8386 37.5966 38.7379 38.4697 38.2341 39.1078C37.6296 39.8802 36.6221 40.1153 35.6482 40.3504C34.2042 40.6862 32.7937 40.9885 31.3496 41.3243C31.1817 41.3579 30.9802 41.3915 30.8458 41.2907C30.6779 41.1564 30.7115 40.8541 30.7787 40.6526C31.2152 39.3429 32.2899 38.3354 33.3646 37.4622C34.137 36.8577 34.943 36.2532 35.749 35.7159C36.152 35.4472 36.5886 35.1786 37.0251 34.9435C37.2602 34.8092 37.3274 34.742 37.5289 34.9099C37.6968 35.0442 37.8311 35.2793 37.9655 35.4472C38.2677 35.8502 38.5028 36.3204 38.6371 36.8242Z" fill="#3A3B3B"/>
<path d="M29.748 37.2556L37.1872 34.829L38.3536 38.4049L30.9145 40.8315L29.748 37.2556Z" fill="#F8F5D6"/>
<path d="M33.7676 27.085H35.4467V41.9959H33.7676V27.085Z" fill="#764037"/>
<path d="M35.0108 27.085H35.2795V41.9959H35.0108V27.085ZM33.9697 27.085H34.2384V41.9959H33.9697V27.085Z" fill="#874E46"/>
<path d="M35.1454 38.3353C35.1118 38.3353 35.1118 38.3689 35.1118 38.3689V38.6376C35.1118 38.6712 35.1454 38.6712 35.1454 38.6712C35.1789 38.6712 35.1789 38.6376 35.1789 38.6376V38.3689L35.1454 38.3353ZM35.1454 38.9062C35.1118 38.9062 35.1118 38.9398 35.1118 38.9398V39.2085C35.1118 39.2421 35.1454 39.2421 35.1454 39.2421C35.1789 39.2421 35.1789 39.2085 35.1789 39.2085V38.9398L35.1454 38.9062ZM35.1454 34.9098C35.1118 34.9098 35.1118 34.9434 35.1118 34.9434V35.2121C35.1118 35.2457 35.1454 35.2457 35.1454 35.2457C35.1789 35.2457 35.1789 35.2121 35.1789 35.2121V34.9434L35.1454 34.9098ZM35.1454 35.4808C35.1118 35.4808 35.1118 35.5143 35.1118 35.5143V35.783C35.1118 35.8166 35.1454 35.8166 35.1454 35.8166C35.1789 35.8166 35.1789 35.783 35.1789 35.783V35.5143L35.1454 35.4808ZM35.1454 36.0517C35.1118 36.0517 35.1118 36.0853 35.1118 36.0853V36.3539C35.1118 36.3875 35.1454 36.3875 35.1454 36.3875C35.1789 36.3875 35.1789 36.3539 35.1789 36.3539V36.0853L35.1454 36.0517ZM35.1454 36.6226C35.1118 36.6226 35.1118 36.6562 35.1118 36.6562V36.9584C35.1118 36.992 35.1454 36.992 35.1454 36.992C35.1789 36.992 35.1789 36.9584 35.1789 36.9584V36.6562L35.1454 36.6226ZM35.1454 37.1935C35.1118 37.1935 35.1118 37.2271 35.1118 37.2271V37.5293C35.1118 37.5629 35.1454 37.5629 35.1454 37.5629C35.1789 37.5629 35.1789 37.5293 35.1789 37.5293V37.2607C35.1789 37.2271 35.1454 37.1935 35.1454 37.1935ZM35.1454 37.7644C35.1118 37.7644 35.1118 37.798 35.1118 37.798V38.0667C35.1118 38.1003 35.1454 38.1003 35.1454 38.1003C35.1789 38.1003 35.1789 38.0667 35.1789 38.0667V37.798L35.1454 37.7644ZM35.1454 41.1899C35.1118 41.1899 35.1118 41.2235 35.1118 41.2235V41.4922C35.1118 41.5257 35.1454 41.5257 35.1454 41.5257C35.1789 41.5257 35.1789 41.4922 35.1789 41.4922V41.2235L35.1454 41.1899ZM35.1789 41.7944V41.9623H35.0782V41.7944C35.0782 41.7608 35.1118 41.7608 35.1118 41.7608C35.1454 41.7608 35.1789 41.7944 35.1789 41.7944ZM35.1454 40.619C35.1118 40.619 35.1118 40.6526 35.1118 40.6526V40.9212C35.1118 40.9548 35.1454 40.9548 35.1454 40.9548C35.1789 40.9548 35.1789 40.9212 35.1789 40.9212V40.6526L35.1454 40.619ZM35.1454 40.0481C35.1118 40.0481 35.1118 40.0817 35.1118 40.0817V40.3503C35.1118 40.3839 35.1454 40.3839 35.1454 40.3839C35.1789 40.3839 35.1789 40.3503 35.1789 40.3503V40.0817L35.1454 40.0481ZM35.1454 39.4772C35.1118 39.4772 35.1118 39.5107 35.1118 39.5107V39.7794C35.1118 39.813 35.1454 39.813 35.1454 39.813C35.1789 39.813 35.1789 39.7794 35.1789 39.7794V39.5107L35.1454 39.4772ZM35.1454 29.7716C35.1118 29.7716 35.1118 29.8052 35.1118 29.8052V30.0739C35.1118 30.1074 35.1454 30.1074 35.1454 30.1074C35.1789 30.1074 35.1789 30.0739 35.1789 30.0739V29.8052L35.1454 29.7716ZM35.1454 28.6298C35.1118 28.6298 35.1118 28.6634 35.1118 28.6634V28.932C35.1118 28.9656 35.1454 28.9656 35.1454 28.9656C35.1789 28.9656 35.1789 28.932 35.1789 28.932V28.6634L35.1454 28.6298ZM35.1454 29.2007C35.1118 29.2007 35.1118 29.2343 35.1118 29.2343V29.503C35.1118 29.5365 35.1454 29.5365 35.1454 29.5365C35.1789 29.5365 35.1789 29.503 35.1789 29.503V29.2343L35.1454 29.2007ZM35.1454 28.0589C35.1118 28.0589 35.1118 28.0925 35.1118 28.0925V28.3611C35.1118 28.3947 35.1454 28.3947 35.1454 28.3947C35.1789 28.3947 35.1789 28.3611 35.1789 28.3611V28.0925L35.1454 28.0589ZM35.1454 30.3425C35.1118 30.3425 35.1118 30.3761 35.1118 30.3761V30.6448C35.1118 30.6784 35.1454 30.6784 35.1454 30.6784C35.1789 30.6784 35.1789 30.6448 35.1789 30.6448V30.3761L35.1454 30.3425ZM35.1454 34.3389C35.1118 34.3389 35.1118 34.3725 35.1118 34.3725V34.6412C35.1118 34.6748 35.1454 34.6748 35.1454 34.6748C35.1789 34.6748 35.1789 34.6412 35.1789 34.6412V34.3725L35.1454 34.3389ZM35.1789 27.085V27.2529C35.1789 27.2865 35.1454 27.2865 35.1454 27.2865C35.1118 27.2865 35.1118 27.2529 35.1118 27.2529V27.085H35.1789ZM35.1454 27.488C35.1118 27.488 35.1118 27.5215 35.1118 27.5215V27.7902C35.1118 27.8238 35.1454 27.8238 35.1454 27.8238C35.1789 27.8238 35.1789 27.7902 35.1789 27.7902V27.5215L35.1454 27.488ZM35.1454 30.9134C35.1118 30.9134 35.1118 30.947 35.1118 30.947V31.2157C35.1118 31.2493 35.1454 31.2493 35.1454 31.2493C35.1789 31.2493 35.1789 31.2157 35.1789 31.2157V30.947L35.1454 30.9134ZM35.1454 32.6262C35.1118 32.6262 35.1118 32.6598 35.1118 32.6598V32.9284C35.1118 32.962 35.1454 32.962 35.1454 32.962C35.1789 32.962 35.1789 32.9284 35.1789 32.9284V32.6598L35.1454 32.6262ZM35.1454 33.768C35.1118 33.768 35.1118 33.8016 35.1118 33.8016V34.0703C35.1118 34.1038 35.1454 34.1039 35.1454 34.1039C35.1789 34.1039 35.1789 34.0703 35.1789 34.0703V33.8016L35.1454 33.768ZM35.1454 33.1971C35.1118 33.1971 35.1118 33.2307 35.1118 33.2307V33.4994C35.1118 33.5329 35.1454 33.5329 35.1454 33.5329C35.1789 33.5329 35.1789 33.4994 35.1789 33.4994V33.2307L35.1454 33.1971ZM35.1454 31.4844C35.1118 31.4844 35.1118 31.5179 35.1118 31.5179V31.8202C35.1118 31.8538 35.1454 31.8538 35.1454 31.8538C35.1789 31.8538 35.1789 31.8202 35.1789 31.8202V31.5515C35.1789 31.5179 35.1454 31.4844 35.1454 31.4844ZM35.1454 32.0553C35.1118 32.0553 35.1118 32.0889 35.1118 32.0889V32.3575C35.1118 32.3911 35.1454 32.3911 35.1454 32.3911C35.1789 32.3911 35.1789 32.3575 35.1789 32.3575V32.0889L35.1454 32.0553ZM34.0707 37.1935C34.0371 37.1935 34.0371 37.2271 34.0371 37.2271V37.5293C34.0371 37.5629 34.0707 37.5629 34.0707 37.5629C34.1043 37.5629 34.1043 37.5293 34.1043 37.5293V37.2607C34.1379 37.2271 34.1043 37.1935 34.0707 37.1935ZM34.0707 37.7644C34.0371 37.7644 34.0371 37.798 34.0371 37.798V38.0667C34.0371 38.1003 34.0707 38.1003 34.0707 38.1003C34.1043 38.1003 34.1043 38.0667 34.1043 38.0667V37.798C34.1379 37.798 34.1043 37.7644 34.0707 37.7644ZM34.0707 36.6226C34.0371 36.6226 34.0371 36.6562 34.0371 36.6562V36.9584C34.0371 36.992 34.0707 36.992 34.0707 36.992C34.1043 36.992 34.1043 36.9584 34.1043 36.9584V36.6562C34.1379 36.6562 34.1043 36.6226 34.0707 36.6226ZM34.0707 38.3353C34.0371 38.3353 34.0371 38.3689 34.0371 38.3689V38.6376C34.0371 38.6712 34.0707 38.6712 34.0707 38.6712C34.1043 38.6712 34.1043 38.6376 34.1043 38.6376V38.3689C34.1379 38.3689 34.1043 38.3353 34.0707 38.3353ZM34.0707 34.9098C34.0371 34.9098 34.0371 34.9434 34.0371 34.9434V35.2121C34.0371 35.2457 34.0707 35.2457 34.0707 35.2457C34.1043 35.2457 34.1043 35.2121 34.1043 35.2121V34.9434C34.1379 34.9434 34.1043 34.9098 34.0707 34.9098ZM34.0707 36.0517C34.0371 36.0517 34.0371 36.0853 34.0371 36.0853V36.3539C34.0371 36.3875 34.0707 36.3875 34.0707 36.3875C34.1043 36.3875 34.1043 36.3539 34.1043 36.3539V36.0853C34.1379 36.0853 34.1043 36.0517 34.0707 36.0517ZM34.0707 35.4808C34.0371 35.4808 34.0371 35.5143 34.0371 35.5143V35.783C34.0371 35.8166 34.0707 35.8166 34.0707 35.8166C34.1043 35.8166 34.1043 35.783 34.1043 35.783V35.5143C34.1379 35.5143 34.1043 35.4808 34.0707 35.4808ZM34.0707 34.3389C34.0371 34.3389 34.0371 34.3725 34.0371 34.3725V34.6412C34.0371 34.6748 34.0707 34.6748 34.0707 34.6748C34.1043 34.6748 34.1043 34.6412 34.1043 34.6412V34.3725C34.1379 34.3725 34.1043 34.3389 34.0707 34.3389ZM34.0707 41.1899C34.0371 41.1899 34.0371 41.2235 34.0371 41.2235V41.4922C34.0371 41.5257 34.0707 41.5257 34.0707 41.5257C34.1043 41.5257 34.1043 41.4922 34.1043 41.4922V41.2235C34.1379 41.2235 34.1043 41.1899 34.0707 41.1899ZM34.1379 41.7944V41.9623H34.0371V41.7944C34.0371 41.7608 34.0707 41.7608 34.0707 41.7608L34.1379 41.7944ZM34.0707 40.619C34.0371 40.619 34.0371 40.6526 34.0371 40.6526V40.9212C34.0371 40.9548 34.0707 40.9548 34.0707 40.9548C34.1043 40.9548 34.1043 40.9212 34.1043 40.9212V40.6526C34.1379 40.6526 34.1043 40.619 34.0707 40.619ZM34.0707 39.4772C34.0371 39.4772 34.0371 39.5107 34.0371 39.5107V39.7794C34.0371 39.813 34.0707 39.813 34.0707 39.813C34.1043 39.813 34.1043 39.7794 34.1043 39.7794V39.5107C34.1379 39.5107 34.1043 39.4772 34.0707 39.4772ZM34.0707 40.0481C34.0371 40.0481 34.0371 40.0817 34.0371 40.0817V40.3503C34.0371 40.3839 34.0707 40.3839 34.0707 40.3839C34.1043 40.3839 34.1043 40.3503 34.1043 40.3503V40.0817C34.1379 40.0817 34.1043 40.0481 34.0707 40.0481ZM34.0707 38.9062C34.0371 38.9062 34.0371 38.9398 34.0371 38.9398V39.2085C34.0371 39.2421 34.0707 39.2421 34.0707 39.2421C34.1043 39.2421 34.1043 39.2085 34.1043 39.2085V38.9398C34.1379 38.9398 34.1043 38.9062 34.0707 38.9062ZM34.0707 28.6298C34.0371 28.6298 34.0371 28.6634 34.0371 28.6634V28.932C34.0371 28.9656 34.0707 28.9656 34.0707 28.9656C34.1043 28.9656 34.1043 28.932 34.1043 28.932V28.6634C34.1379 28.6634 34.1043 28.6298 34.0707 28.6298ZM34.0707 29.2007C34.0371 29.2007 34.0371 29.2343 34.0371 29.2343V29.503C34.0371 29.5365 34.0707 29.5365 34.0707 29.5365C34.1043 29.5365 34.1043 29.503 34.1043 29.503V29.2343C34.1379 29.2343 34.1043 29.2007 34.0707 29.2007ZM34.0707 28.0589C34.0371 28.0589 34.0371 28.0925 34.0371 28.0925V28.3611C34.0371 28.3947 34.0707 28.3947 34.0707 28.3947C34.1043 28.3947 34.1043 28.3611 34.1043 28.3611V28.0925C34.1379 28.0925 34.1043 28.0589 34.0707 28.0589ZM34.1379 27.085V27.2529C34.1379 27.2865 34.1043 27.2865 34.1043 27.2865L34.0707 27.2529V27.085H34.1379ZM34.0707 29.7716C34.0371 29.7716 34.0371 29.8052 34.0371 29.8052V30.0739C34.0371 30.1074 34.0707 30.1074 34.0707 30.1074C34.1043 30.1074 34.1043 30.0739 34.1043 30.0739V29.8052C34.1379 29.8052 34.1043 29.7716 34.0707 29.7716ZM34.0707 27.488C34.0371 27.488 34.0371 27.5215 34.0371 27.5215V27.7902C34.0371 27.8238 34.0707 27.8238 34.0707 27.8238C34.1043 27.8238 34.1043 27.7902 34.1043 27.7902V27.5215C34.1379 27.5215 34.1043 27.488 34.0707 27.488ZM34.0707 31.4844C34.0371 31.4844 34.0371 31.5179 34.0371 31.5179V31.8202C34.0371 31.8538 34.0707 31.8538 34.0707 31.8538C34.1043 31.8538 34.1043 31.8202 34.1043 31.8202V31.5515C34.1379 31.5179 34.1043 31.4844 34.0707 31.4844ZM34.0707 32.6262C34.0371 32.6262 34.0371 32.6598 34.0371 32.6598V32.9284C34.0371 32.962 34.0707 32.962 34.0707 32.962C34.1043 32.962 34.1043 32.9284 34.1043 32.9284V32.6598C34.1379 32.6598 34.1043 32.6262 34.0707 32.6262ZM34.0707 33.1971C34.0371 33.1971 34.0371 33.2307 34.0371 33.2307V33.4994C34.0371 33.5329 34.0707 33.5329 34.0707 33.5329C34.1043 33.5329 34.1043 33.4994 34.1043 33.4994V33.2307C34.1379 33.2307 34.1043 33.1971 34.0707 33.1971ZM34.0707 32.0553C34.0371 32.0553 34.0371 32.0889 34.0371 32.0889V32.3575C34.0371 32.3911 34.0707 32.3911 34.0707 32.3911C34.1043 32.3911 34.1043 32.3575 34.1043 32.3575V32.0889C34.1379 32.0889 34.1043 32.0553 34.0707 32.0553ZM34.0707 30.3425C34.0371 30.3425 34.0371 30.3761 34.0371 30.3761V30.6448C34.0371 30.6784 34.0707 30.6784 34.0707 30.6784C34.1043 30.6784 34.1043 30.6448 34.1043 30.6448V30.3761C34.1379 30.3761 34.1043 30.3425 34.0707 30.3425ZM34.0707 30.9134C34.0371 30.9134 34.0371 30.947 34.0371 30.947V31.2157C34.0371 31.2493 34.0707 31.2493 34.0707 31.2493C34.1043 31.2493 34.1043 31.2157 34.1043 31.2157V30.947C34.1379 30.947 34.1043 30.9134 34.0707 30.9134ZM34.0707 33.768C34.0371 33.768 34.0371 33.8016 34.0371 33.8016V34.0703C34.0371 34.1038 34.0707 34.1039 34.0707 34.1039C34.1043 34.1039 34.1043 34.0703 34.1043 34.0703V33.8016C34.1379 33.8016 34.1043 33.768 34.0707 33.768Z" fill="#764037"/>
<path d="M35.2455 30.7119H33.9358C33.6335 30.7119 33.3984 30.947 33.3984 31.2492V34.1374C33.3984 34.3725 33.5328 34.5404 33.7343 34.6411V34.3053C33.7007 34.2717 33.6671 34.2046 33.6671 34.1374V31.2492C33.6671 31.1149 33.7679 31.0142 33.9022 31.0142H35.2119C35.3463 31.0142 35.447 31.1149 35.447 31.2492V34.1374C35.447 34.2046 35.4134 34.2382 35.3798 34.3053V34.6411C35.5813 34.574 35.7157 34.3725 35.7157 34.1374V31.2492C35.7828 30.947 35.5478 30.7119 35.2455 30.7119Z" fill="#F0EFEF"/>
<path d="M34.6072 31.7531C34.737 31.7531 34.8422 31.6479 34.8422 31.518C34.8422 31.3882 34.737 31.283 34.6072 31.283C34.4773 31.283 34.3721 31.3882 34.3721 31.518C34.3721 31.6479 34.4773 31.7531 34.6072 31.7531Z" fill="#BD5927"/>
<path d="M34.608 31.7531C34.5408 31.7531 34.4736 31.6859 34.4736 31.6187V30.1075C34.4736 30.0403 34.5408 29.9731 34.608 29.9731C34.6751 29.9731 34.7423 30.0403 34.7423 30.1075V31.6187C34.7423 31.6859 34.6751 31.7531 34.608 31.7531Z" fill="white"/>
<path d="M35.1454 34.9098C35.1118 34.9098 35.1118 34.9433 35.1118 34.9433V35.212C35.1118 35.2456 35.1454 35.2456 35.1454 35.2456C35.1789 35.2456 35.1789 35.212 35.1789 35.212V34.9433L35.1454 34.9098ZM35.1454 34.3389C35.1118 34.3389 35.1118 34.3724 35.1118 34.3724V34.6411C35.1118 34.6747 35.1454 34.6747 35.1454 34.6747C35.1789 34.6747 35.1789 34.6411 35.1789 34.6411V34.3724L35.1454 34.3389ZM35.1454 33.7679C35.1118 33.7679 35.1118 33.8015 35.1118 33.8015V34.0702C35.1118 34.1038 35.1454 34.1038 35.1454 34.1038C35.1789 34.1038 35.1789 34.0702 35.1789 34.0702V33.8015L35.1454 33.7679ZM35.1454 33.197C35.1118 33.197 35.1118 33.2306 35.1118 33.2306V33.4993C35.1118 33.5329 35.1454 33.5329 35.1454 33.5329C35.1789 33.5329 35.1789 33.4993 35.1789 33.4993V33.2306L35.1454 33.197ZM34.0707 34.9098C34.0371 34.9098 34.0371 34.9433 34.0371 34.9433V35.212C34.0371 35.2456 34.0707 35.2456 34.0707 35.2456C34.1043 35.2456 34.1043 35.212 34.1043 35.212V34.9433C34.1379 34.9433 34.1043 34.9098 34.0707 34.9098ZM34.0707 34.3389C34.0371 34.3389 34.0371 34.3724 34.0371 34.3724V34.6411C34.0371 34.6747 34.0707 34.6747 34.0707 34.6747C34.1043 34.6747 34.1043 34.6411 34.1043 34.6411V34.3724C34.1379 34.3724 34.1043 34.3389 34.0707 34.3389ZM34.0707 33.197C34.0371 33.197 34.0371 33.2306 34.0371 33.2306V33.4993C34.0371 33.5329 34.0707 33.5329 34.0707 33.5329C34.1043 33.5329 34.1043 33.4993 34.1043 33.4993V33.2306C34.1379 33.2306 34.1043 33.197 34.0707 33.197ZM34.0707 33.7679C34.0371 33.7679 34.0371 33.8015 34.0371 33.8015V34.0702C34.0371 34.1038 34.0707 34.1038 34.0707 34.1038C34.1043 34.1038 34.1043 34.0702 34.1043 34.0702V33.8015C34.1379 33.8015 34.1043 33.7679 34.0707 33.7679Z" fill="#764037"/>
<path opacity="0.15" d="M23.9286 35.6488C23.1226 35.7159 22.283 36.1525 21.5106 35.9174C21.0069 35.7495 20.6374 35.3465 20.1337 35.145C19.4956 34.9099 19.0254 35.1114 18.5889 35.4137V40.9885C18.5889 41.3915 18.9247 41.7273 19.3277 41.7273H27.7571V41.593C28.2272 37.0593 25.6413 35.4809 23.9286 35.6488Z" fill="#3A3B3B"/>
<path d="M22.2822 27.085H23.9614V41.9959H22.2822V27.085Z" fill="#764037"/>
<path d="M23.5255 27.085H23.7941V41.9959H23.5255V27.085ZM22.4844 27.085H22.753V41.9959H22.4844V27.085Z" fill="#874E46"/>
<path d="M23.659 38.3353C23.6254 38.3353 23.6254 38.3689 23.6254 38.3689V38.6376C23.6254 38.6712 23.659 38.6712 23.659 38.6712C23.6926 38.6712 23.6926 38.6376 23.6926 38.6376V38.3689L23.659 38.3353ZM23.659 38.9062C23.6254 38.9062 23.6254 38.9398 23.6254 38.9398V39.2085C23.6254 39.2421 23.659 39.2421 23.659 39.2421C23.6926 39.2421 23.6926 39.2085 23.6926 39.2085V38.9398L23.659 38.9062ZM23.659 34.9098C23.6254 34.9098 23.6254 34.9434 23.6254 34.9434V35.2121C23.6254 35.2457 23.659 35.2457 23.659 35.2457C23.6926 35.2457 23.6926 35.2121 23.6926 35.2121V34.9434L23.659 34.9098ZM23.659 35.4808C23.6254 35.4808 23.6254 35.5143 23.6254 35.5143V35.783C23.6254 35.8166 23.659 35.8166 23.659 35.8166C23.6926 35.8166 23.6926 35.783 23.6926 35.783V35.5143L23.659 35.4808ZM23.659 36.0517C23.6254 36.0517 23.6254 36.0853 23.6254 36.0853V36.3539C23.6254 36.3875 23.659 36.3875 23.659 36.3875C23.6926 36.3875 23.6926 36.3539 23.6926 36.3539V36.0853L23.659 36.0517ZM23.659 36.6226C23.6254 36.6226 23.6254 36.6562 23.6254 36.6562V36.9248C23.6254 36.9584 23.659 36.9584 23.659 36.9584C23.6926 36.9584 23.6926 36.9248 23.6926 36.9248V36.6562L23.659 36.6226ZM23.659 37.1935C23.6254 37.1935 23.6254 37.2271 23.6254 37.2271V37.5293C23.6254 37.5629 23.659 37.5629 23.659 37.5629C23.6926 37.5629 23.6926 37.5293 23.6926 37.5293V37.2607C23.6926 37.2271 23.659 37.1935 23.659 37.1935ZM23.659 37.7644C23.6254 37.7644 23.6254 37.798 23.6254 37.798V38.0667C23.6254 38.1003 23.659 38.1003 23.659 38.1003C23.6926 38.1003 23.6926 38.0667 23.6926 38.0667V37.798L23.659 37.7644ZM23.659 41.1899C23.6254 41.1899 23.6254 41.2235 23.6254 41.2235V41.4922C23.6254 41.5257 23.659 41.5257 23.659 41.5257C23.6926 41.5257 23.6926 41.4922 23.6926 41.4922V41.2235L23.659 41.1899ZM23.6926 41.7944V41.9623H23.5919V41.7944C23.5919 41.7608 23.6254 41.7608 23.6254 41.7608C23.659 41.7608 23.6926 41.7944 23.6926 41.7944ZM23.659 40.619C23.6254 40.619 23.6254 40.6526 23.6254 40.6526V40.9212C23.6254 40.9548 23.659 40.9548 23.659 40.9548C23.6926 40.9548 23.6926 40.9212 23.6926 40.9212V40.6526L23.659 40.619ZM23.659 40.0481C23.6254 40.0481 23.6254 40.0817 23.6254 40.0817V40.3503C23.6254 40.3839 23.659 40.3839 23.659 40.3839C23.6926 40.3839 23.6926 40.3503 23.6926 40.3503V40.0817L23.659 40.0481ZM23.659 39.4772C23.6254 39.4772 23.6254 39.5107 23.6254 39.5107V39.7794C23.6254 39.813 23.659 39.813 23.659 39.813C23.6926 39.813 23.6926 39.7794 23.6926 39.7794V39.5107L23.659 39.4772ZM23.659 29.7716C23.6254 29.7716 23.6254 29.8052 23.6254 29.8052V30.0739C23.6254 30.1074 23.659 30.1074 23.659 30.1074C23.6926 30.1074 23.6926 30.0739 23.6926 30.0739V29.8052L23.659 29.7716ZM23.659 28.6298C23.6254 28.6298 23.6254 28.6634 23.6254 28.6634V28.932C23.6254 28.9656 23.659 28.9656 23.659 28.9656C23.6926 28.9656 23.6926 28.932 23.6926 28.932V28.6634L23.659 28.6298ZM23.659 29.2007C23.6254 29.2007 23.6254 29.2343 23.6254 29.2343V29.503C23.6254 29.5365 23.659 29.5365 23.659 29.5365C23.6926 29.5365 23.6926 29.503 23.6926 29.503V29.2343L23.659 29.2007ZM23.659 28.0589C23.6254 28.0589 23.6254 28.0925 23.6254 28.0925V28.3611C23.6254 28.3947 23.659 28.3947 23.659 28.3947C23.6926 28.3947 23.6926 28.3611 23.6926 28.3611V28.0925L23.659 28.0589ZM23.659 30.3425C23.6254 30.3425 23.6254 30.3761 23.6254 30.3761V30.6448C23.6254 30.6784 23.659 30.6784 23.659 30.6784C23.6926 30.6784 23.6926 30.6448 23.6926 30.6448V30.3761L23.659 30.3425ZM23.659 34.3389C23.6254 34.3389 23.6254 34.3725 23.6254 34.3725V34.6412C23.6254 34.6748 23.659 34.6748 23.659 34.6748C23.6926 34.6748 23.6926 34.6412 23.6926 34.6412V34.3725L23.659 34.3389ZM23.6926 27.085V27.2529C23.6926 27.2865 23.659 27.2865 23.659 27.2865C23.6254 27.2865 23.6254 27.2529 23.6254 27.2529V27.085H23.6926ZM23.659 27.488C23.6254 27.488 23.6254 27.5215 23.6254 27.5215V27.7902C23.6254 27.8238 23.659 27.8238 23.659 27.8238C23.6926 27.8238 23.6926 27.7902 23.6926 27.7902V27.5215L23.659 27.488ZM23.659 30.9134C23.6254 30.9134 23.6254 30.947 23.6254 30.947V31.2157C23.6254 31.2493 23.659 31.2493 23.659 31.2493C23.6926 31.2493 23.6926 31.2157 23.6926 31.2157V30.947L23.659 30.9134ZM23.659 32.6262C23.6254 32.6262 23.6254 32.6598 23.6254 32.6598V32.9284C23.6254 32.962 23.659 32.962 23.659 32.962C23.6926 32.962 23.6926 32.9284 23.6926 32.9284V32.6598L23.659 32.6262ZM23.659 33.768C23.6254 33.768 23.6254 33.8016 23.6254 33.8016V34.0703C23.6254 34.1038 23.659 34.1039 23.659 34.1039C23.6926 34.1039 23.6926 34.0703 23.6926 34.0703V33.8016L23.659 33.768ZM23.659 33.1971C23.6254 33.1971 23.6254 33.2307 23.6254 33.2307V33.4994C23.6254 33.5329 23.659 33.5329 23.659 33.5329C23.6926 33.5329 23.6926 33.4994 23.6926 33.4994V33.2307L23.659 33.1971ZM23.659 31.4844C23.6254 31.4844 23.6254 31.5179 23.6254 31.5179V31.8202C23.6254 31.8538 23.659 31.8538 23.659 31.8538C23.6926 31.8538 23.6926 31.8202 23.6926 31.8202V31.5515C23.6926 31.5179 23.659 31.4844 23.659 31.4844ZM23.659 32.0553C23.6254 32.0553 23.6254 32.0889 23.6254 32.0889V32.3575C23.6254 32.3911 23.659 32.3911 23.659 32.3911C23.6926 32.3911 23.6926 32.3575 23.6926 32.3575V32.0889L23.659 32.0553ZM22.6179 37.1935C22.5844 37.1935 22.5844 37.2271 22.5844 37.2271V37.5293C22.5844 37.5629 22.6179 37.5629 22.6179 37.5629C22.6515 37.5629 22.6515 37.5293 22.6515 37.5293V37.2607C22.6515 37.2271 22.6179 37.1935 22.6179 37.1935ZM22.6179 37.7644C22.5844 37.7644 22.5844 37.798 22.5844 37.798V38.0667C22.5844 38.1003 22.6179 38.1003 22.6179 38.1003C22.6515 38.1003 22.6515 38.0667 22.6515 38.0667V37.798L22.6179 37.7644ZM22.6179 36.6226C22.5844 36.6226 22.5844 36.6562 22.5844 36.6562V36.9248C22.5844 36.9584 22.6179 36.9584 22.6179 36.9584C22.6515 36.9584 22.6515 36.9248 22.6515 36.9248V36.6562L22.6179 36.6226ZM22.6179 38.3353C22.5844 38.3353 22.5844 38.3689 22.5844 38.3689V38.6376C22.5844 38.6712 22.6179 38.6712 22.6179 38.6712C22.6515 38.6712 22.6515 38.6376 22.6515 38.6376V38.3689L22.6179 38.3353ZM22.6179 34.9098C22.5844 34.9098 22.5844 34.9434 22.5844 34.9434V35.2121C22.5844 35.2457 22.6179 35.2457 22.6179 35.2457C22.6515 35.2457 22.6515 35.2121 22.6515 35.2121V34.9434L22.6179 34.9098ZM22.6179 36.0517C22.5844 36.0517 22.5844 36.0853 22.5844 36.0853V36.3539C22.5844 36.3875 22.6179 36.3875 22.6179 36.3875C22.6515 36.3875 22.6515 36.3539 22.6515 36.3539V36.0853L22.6179 36.0517ZM22.6179 35.4808C22.5844 35.4808 22.5844 35.5143 22.5844 35.5143V35.783C22.5844 35.8166 22.6179 35.8166 22.6179 35.8166C22.6515 35.8166 22.6515 35.783 22.6515 35.783V35.5143L22.6179 35.4808ZM22.6179 34.3389C22.5844 34.3389 22.5844 34.3725 22.5844 34.3725V34.6412C22.5844 34.6748 22.6179 34.6748 22.6179 34.6748C22.6515 34.6748 22.6515 34.6412 22.6515 34.6412V34.3725L22.6179 34.3389ZM22.6179 41.1899C22.5844 41.1899 22.5844 41.2235 22.5844 41.2235V41.4922C22.5844 41.5257 22.6179 41.5257 22.6179 41.5257C22.6515 41.5257 22.6515 41.4922 22.6515 41.4922V41.2235L22.6179 41.1899ZM22.6515 41.7944V41.9623H22.5508V41.7944C22.5508 41.7608 22.5844 41.7608 22.5844 41.7608C22.6179 41.7608 22.6515 41.7944 22.6515 41.7944ZM22.6179 40.619C22.5844 40.619 22.5844 40.6526 22.5844 40.6526V40.9212C22.5844 40.9548 22.6179 40.9548 22.6179 40.9548C22.6515 40.9548 22.6515 40.9212 22.6515 40.9212V40.6526L22.6179 40.619ZM22.6179 39.4772C22.5844 39.4772 22.5844 39.5107 22.5844 39.5107V39.7794C22.5844 39.813 22.6179 39.813 22.6179 39.813C22.6515 39.813 22.6515 39.7794 22.6515 39.7794V39.5107L22.6179 39.4772ZM22.6179 40.0481C22.5844 40.0481 22.5844 40.0817 22.5844 40.0817V40.3503C22.5844 40.3839 22.6179 40.3839 22.6179 40.3839C22.6515 40.3839 22.6515 40.3503 22.6515 40.3503V40.0817L22.6179 40.0481ZM22.6179 38.9062C22.5844 38.9062 22.5844 38.9398 22.5844 38.9398V39.2085C22.5844 39.2421 22.6179 39.2421 22.6179 39.2421C22.6515 39.2421 22.6515 39.2085 22.6515 39.2085V38.9398L22.6179 38.9062ZM22.6179 28.6298C22.5844 28.6298 22.5844 28.6634 22.5844 28.6634V28.932C22.5844 28.9656 22.6179 28.9656 22.6179 28.9656C22.6515 28.9656 22.6515 28.932 22.6515 28.932V28.6634L22.6179 28.6298ZM22.6179 29.2007C22.5844 29.2007 22.5844 29.2343 22.5844 29.2343V29.503C22.5844 29.5365 22.6179 29.5365 22.6179 29.5365C22.6515 29.5365 22.6515 29.503 22.6515 29.503V29.2343L22.6179 29.2007ZM22.6179 28.0589C22.5844 28.0589 22.5844 28.0925 22.5844 28.0925V28.3611C22.5844 28.3947 22.6179 28.3947 22.6179 28.3947C22.6515 28.3947 22.6515 28.3611 22.6515 28.3611V28.0925L22.6179 28.0589ZM22.6515 27.085V27.2529C22.6515 27.2865 22.6179 27.2865 22.6179 27.2865C22.5844 27.2865 22.5844 27.2529 22.5844 27.2529V27.085H22.6515ZM22.6179 29.7716C22.5844 29.7716 22.5844 29.8052 22.5844 29.8052V30.0739C22.5844 30.1074 22.6179 30.1074 22.6179 30.1074C22.6515 30.1074 22.6515 30.0739 22.6515 30.0739V29.8052L22.6179 29.7716ZM22.6179 27.488C22.5844 27.488 22.5844 27.5215 22.5844 27.5215V27.7902C22.5844 27.8238 22.6179 27.8238 22.6179 27.8238C22.6515 27.8238 22.6515 27.7902 22.6515 27.7902V27.5215L22.6179 27.488ZM22.6179 31.4844C22.5844 31.4844 22.5844 31.5179 22.5844 31.5179V31.8202C22.5844 31.8538 22.6179 31.8538 22.6179 31.8538C22.6515 31.8538 22.6515 31.8202 22.6515 31.8202V31.5515C22.6515 31.5179 22.6179 31.4844 22.6179 31.4844ZM22.6179 32.6262C22.5844 32.6262 22.5844 32.6598 22.5844 32.6598V32.9284C22.5844 32.962 22.6179 32.962 22.6179 32.962C22.6515 32.962 22.6515 32.9284 22.6515 32.9284V32.6598L22.6179 32.6262ZM22.6179 33.1971C22.5844 33.1971 22.5844 33.2307 22.5844 33.2307V33.4994C22.5844 33.5329 22.6179 33.5329 22.6179 33.5329C22.6515 33.5329 22.6515 33.4994 22.6515 33.4994V33.2307L22.6179 33.1971ZM22.6179 32.0553C22.5844 32.0553 22.5844 32.0889 22.5844 32.0889V32.3575C22.5844 32.3911 22.6179 32.3911 22.6179 32.3911C22.6515 32.3911 22.6515 32.3575 22.6515 32.3575V32.0889L22.6179 32.0553ZM22.6179 30.3425C22.5844 30.3425 22.5844 30.3761 22.5844 30.3761V30.6448C22.5844 30.6784 22.6179 30.6784 22.6179 30.6784C22.6515 30.6784 22.6515 30.6448 22.6515 30.6448V30.3761L22.6179 30.3425ZM22.6179 30.9134C22.5844 30.9134 22.5844 30.947 22.5844 30.947V31.2157C22.5844 31.2493 22.6179 31.2493 22.6179 31.2493C22.6515 31.2493 22.6515 31.2157 22.6515 31.2157V30.947L22.6179 30.9134ZM22.6179 33.768C22.5844 33.768 22.5844 33.8016 22.5844 33.8016V34.0703C22.5844 34.1038 22.6179 34.1039 22.6179 34.1039C22.6515 34.1039 22.6515 34.0703 22.6515 34.0703V33.8016L22.6179 33.768Z" fill="#764037"/>
<path d="M23.7602 30.7119H22.4504C22.1482 30.7119 21.9131 30.947 21.9131 31.2492V34.1374C21.9131 34.3725 22.0474 34.5404 22.2489 34.6411V34.3053C22.2153 34.2717 22.1818 34.2046 22.1818 34.1374V31.2492C22.1818 31.1149 22.2825 31.0142 22.4168 31.0142H23.7602C23.8945 31.0142 23.9952 31.1149 23.9952 31.2492V34.1374C23.9952 34.2046 23.9617 34.2382 23.9281 34.3053V34.6411C24.1296 34.574 24.2639 34.3725 24.2639 34.1374V31.2492C24.2975 30.947 24.0624 30.7119 23.7602 30.7119Z" fill="#F0EFEF"/>
<path d="M23.1218 31.7531C23.2516 31.7531 23.3569 31.6479 23.3569 31.518C23.3569 31.3882 23.2516 31.283 23.1218 31.283C22.992 31.283 22.8867 31.3882 22.8867 31.518C22.8867 31.6479 22.992 31.7531 23.1218 31.7531Z" fill="#BD5927"/>
<path d="M23.1226 31.7531C23.0554 31.7531 22.9883 31.6859 22.9883 31.6187V30.1075C22.9883 30.0403 23.0554 29.9731 23.1226 29.9731C23.1898 29.9731 23.2569 30.0403 23.2569 30.1075V31.6187C23.2569 31.6859 23.2234 31.7531 23.1226 31.7531Z" fill="white"/>
<path d="M23.6596 34.9098C23.626 34.9098 23.626 34.9433 23.626 34.9433V35.212C23.626 35.2456 23.6596 35.2456 23.6596 35.2456C23.6932 35.2456 23.6932 35.212 23.6932 35.212V34.9433L23.6596 34.9098ZM23.6596 34.3389C23.626 34.3389 23.626 34.3724 23.626 34.3724V34.6411C23.626 34.6747 23.6596 34.6747 23.6596 34.6747C23.6932 34.6747 23.6932 34.6411 23.6932 34.6411V34.3724L23.6596 34.3389ZM23.6596 33.7679C23.626 33.7679 23.626 33.8015 23.626 33.8015V34.0702C23.626 34.1038 23.6596 34.1038 23.6596 34.1038C23.6932 34.1038 23.6932 34.0702 23.6932 34.0702V33.8015L23.6596 33.7679ZM23.6596 33.197C23.626 33.197 23.626 33.2306 23.626 33.2306V33.4993C23.626 33.5329 23.6596 33.5329 23.6596 33.5329C23.6932 33.5329 23.6932 33.4993 23.6932 33.4993V33.2306L23.6596 33.197ZM22.6185 34.9098C22.585 34.9098 22.585 34.9433 22.585 34.9433V35.212C22.585 35.2456 22.6185 35.2456 22.6185 35.2456C22.6521 35.2456 22.6521 35.212 22.6521 35.212V34.9433L22.6185 34.9098ZM22.6185 34.3389C22.585 34.3389 22.585 34.3724 22.585 34.3724V34.6411C22.585 34.6747 22.6185 34.6747 22.6185 34.6747C22.6521 34.6747 22.6521 34.6411 22.6521 34.6411V34.3724L22.6185 34.3389ZM22.6185 33.197C22.585 33.197 22.585 33.2306 22.585 33.2306V33.4993C22.585 33.5329 22.6185 33.5329 22.6185 33.5329C22.6521 33.5329 22.6521 33.4993 22.6521 33.4993V33.2306L22.6185 33.197ZM22.6185 33.7679C22.585 33.7679 22.585 33.8015 22.585 33.8015V34.0702C22.585 34.1038 22.6185 34.1038 22.6185 34.1038C22.6521 34.1038 22.6521 34.0702 22.6521 34.0702V33.8015L22.6185 33.7679Z" fill="#764037"/>
<path opacity="0.15" d="M18.5889 28.0923V32.6932C19.0254 32.7268 19.462 32.6932 19.8986 32.4917C20.4359 32.2231 20.9061 31.7865 21.3427 31.3499C21.7793 30.9133 22.2159 30.4768 22.7868 30.2081C23.3577 29.9394 23.9958 29.8387 24.6003 29.6708C25.2048 29.5028 25.8093 29.167 26.1115 28.6297C26.313 28.2267 26.313 27.7901 26.1787 27.3535H19.3613C18.9247 27.3535 18.5889 27.6893 18.5889 28.0923Z" fill="#3A3B3B"/>
<path d="M21.7787 24.8684C22.2152 24.7341 22.6518 24.6333 23.122 24.6669C23.5921 24.7005 24.0287 24.902 24.2638 25.305C24.4653 25.6072 24.4989 25.9767 24.4317 26.3125C24.3646 26.6483 24.2302 26.9842 24.0623 27.2864C23.0212 29.1671 21.107 30.4768 19.0248 31.0477C18.4875 31.1821 17.9166 31.3164 17.3793 31.2156C16.8419 31.1485 16.271 30.8462 16.0023 30.3761C15.0956 28.7641 18.2524 26.4468 19.898 25.6072C20.5025 25.305 21.1406 25.0363 21.7787 24.8684Z" fill="#F1DB52"/>
<path d="M17.816 29.4357C17.4802 29.0999 17.2115 28.4618 16.5399 26.7491C16.4391 26.4804 16.3384 26.2118 16.4055 25.9431C16.4727 25.708 16.6742 25.5401 16.8421 25.3722C17.9168 24.3983 18.1519 24.1296 18.5549 24.0288C19.025 23.8945 19.5624 24.096 19.9989 24.3647C20.5363 24.6669 21.0736 25.0028 21.5438 25.4058C21.8796 25.708 22.2154 26.0103 22.4505 26.4133C22.652 26.8162 22.7528 27.2864 22.5848 27.723C22.4505 28.0252 22.2154 28.2603 21.9468 28.4954C21.04 29.2007 19.8646 29.738 18.7228 29.7716C18.3534 29.738 18.0511 29.7044 17.816 29.4357Z" fill="#FEE673"/>
<path d="M18.689 29.7381C19.8308 29.671 21.0062 29.1672 21.913 28.462C22.1816 28.2605 22.4167 28.0254 22.551 27.6896C22.719 27.2866 22.6518 26.7828 22.4167 26.3798C22.2824 26.1111 22.0809 25.8761 21.8458 25.6746C21.913 26.0776 21.7786 26.5141 21.5771 26.8836C21.3085 27.2866 20.9055 27.6224 20.4353 27.8575C19.9987 28.0926 19.495 28.2269 19.0248 28.3612C18.5882 28.4956 17.7486 28.7642 17.1777 28.3948C17.3457 28.7642 17.48 29.1672 17.7822 29.4695C18.0509 29.7045 18.3531 29.7381 18.689 29.7381Z" fill="#874E46"/>
<path d="M22.8871 43.8766C23.1558 45.1528 25.0029 45.0184 25.4059 43.7423C25.4394 43.608 26.8835 37.7981 25.4394 36.2532C25.0364 35.8502 24.4319 35.6151 23.861 35.7159C22.4505 36.0181 22.1819 37.9996 22.8871 39.4772C23.3237 40.3504 22.7192 43.037 22.8871 43.8766Z" fill="#52B4E0"/>
<path d="M22.8201 41.3578C22.8537 41.7272 22.9544 42.0631 23.0216 42.3989C23.0552 42.4996 23.0552 42.634 23.1559 42.6676C23.2231 42.7011 23.3574 42.7011 23.4246 42.634C23.4917 42.5668 23.5253 42.4661 23.5253 42.3653C23.5253 42.2646 23.5253 42.1638 23.4917 42.0631C23.3238 41.3914 23.0216 40.7869 22.8872 40.1152C22.7529 40.5518 22.7865 40.9548 22.8201 41.3578ZM25.809 41.4921C25.6746 41.6601 25.5403 41.828 25.3724 41.9623C25.2381 42.1302 25.0702 42.2646 25.003 42.4661C24.9694 42.5332 24.9358 42.634 24.9358 42.7011C24.9358 42.8019 24.9694 42.8691 25.0702 42.9026C25.1373 42.9362 25.2045 42.9362 25.2717 42.9026C25.3388 42.8691 25.406 42.8355 25.4396 42.7683C26.0776 42.1638 26.1448 41.6601 26.0776 41.022C26.0776 40.9548 26.0441 40.8876 26.0105 40.8541C25.9769 40.9212 25.9769 41.0556 25.9433 41.1563C25.9097 41.2906 25.8761 41.3914 25.809 41.4921Z" fill="#E0A231"/>
<path d="M26.0105 42.0295C26.1448 41.6265 26.0776 41.1899 25.9433 40.8205C25.809 40.4175 25.5739 40.0816 25.3388 39.7458C25.0366 39.2757 24.7679 38.8055 24.4656 38.3689C24.4321 38.3353 24.3985 38.2682 24.3313 38.2346C23.391 39.007 22.8201 40.1824 22.7865 41.3914C22.6857 40.7533 22.585 40.0816 22.7529 39.4436C22.8872 38.9734 23.1559 38.5704 23.4246 38.201C23.5589 37.9995 23.7268 37.798 23.9283 37.6637C23.9955 37.6301 24.0626 37.5293 24.1634 37.5293V37.4957C24.1634 37.4286 24.197 37.395 24.1634 37.3278C24.1634 37.2607 24.1298 37.2271 24.0962 37.1599C24.0626 37.1263 24.0291 37.0592 24.0291 36.992C24.0291 36.9248 24.0626 36.8912 24.0962 36.8577C24.1298 36.8241 24.197 36.8577 24.2306 36.8912C24.2641 36.9248 24.2977 36.9584 24.2977 37.0256C24.3313 37.1263 24.3985 37.2271 24.3985 37.2942C24.3985 37.3614 24.4321 37.4286 24.3985 37.4957C24.4656 37.5293 24.5328 37.5629 24.5664 37.5965C25.2045 38.1002 25.6746 38.8055 25.9097 39.6115C26.2455 40.3839 26.2455 41.2235 26.0105 42.0295Z" fill="#FEE673"/>
<path d="M21.0064 43.8766C20.7377 45.1528 18.8906 45.0184 18.4876 43.7423C18.4541 43.608 17.01 37.7981 18.4541 36.2532C18.8571 35.8502 19.4615 35.6151 19.9989 35.7159C21.4094 36.0181 21.678 37.9996 20.9728 39.4772C20.5698 40.3504 21.2079 43.037 21.0064 43.8766Z" fill="#52B4E0"/>
<path d="M21.1068 41.3578C21.0732 41.7272 20.9725 42.0631 20.9053 42.3989C20.8717 42.4996 20.8717 42.634 20.771 42.6676C20.7038 42.7011 20.5695 42.7011 20.5023 42.634C20.4352 42.5668 20.4016 42.4661 20.4016 42.3653C20.4016 42.2646 20.4016 42.1638 20.4352 42.0631C20.6031 41.3914 20.9053 40.7869 21.0397 40.1152C21.1404 40.5518 21.1404 40.9548 21.1068 41.3578ZM18.0843 41.4921C18.2187 41.6601 18.353 41.828 18.5209 41.9623C18.6552 42.1302 18.8232 42.2646 18.8903 42.4661C18.9239 42.5332 18.9575 42.634 18.9575 42.7011C18.9575 42.8019 18.9239 42.8691 18.8232 42.9026C18.756 42.9362 18.6888 42.9362 18.6217 42.9026C18.5545 42.8691 18.4873 42.8355 18.4537 42.7683C17.8157 42.1638 17.7485 41.6601 17.8157 41.022C17.8157 40.9548 17.8492 40.8876 17.8828 40.8541C17.9164 40.9212 17.9164 41.0556 17.95 41.1563C17.9836 41.2906 18.0172 41.3914 18.0843 41.4921Z" fill="#E0A231"/>
<path d="M17.8832 42.0295C17.7488 41.6265 17.816 41.1899 17.9503 40.8205C18.0847 40.4175 18.3197 40.0816 18.5548 39.7458C18.8571 39.2757 19.1257 38.8055 19.428 38.3689C19.4616 38.3353 19.4952 38.2682 19.5623 38.2346C20.5027 39.007 21.0736 40.1824 21.1072 41.3914C21.2079 40.7533 21.3087 40.0816 21.1407 39.4436C21.0064 38.9734 20.7377 38.5704 20.4691 38.201C20.3347 37.9995 20.1668 37.798 19.9653 37.6637C19.8982 37.6301 19.831 37.5293 19.7302 37.5293V37.4957C19.7302 37.4286 19.6967 37.395 19.7302 37.3278C19.7302 37.2607 19.7638 37.2271 19.7974 37.1599C19.831 37.1263 19.8646 37.0592 19.8646 36.992C19.8646 36.9248 19.831 36.8912 19.7974 36.8577C19.7638 36.8241 19.6967 36.8577 19.6631 36.8912C19.6295 36.9248 19.5959 36.9584 19.5959 37.0256C19.5623 37.1263 19.4952 37.2271 19.4952 37.2942C19.4952 37.3614 19.4616 37.4286 19.4952 37.4957C19.428 37.5293 19.3608 37.5629 19.3272 37.5965C18.6892 38.1002 18.219 38.8055 17.9839 39.6115C17.6481 40.3839 17.6481 41.2235 17.8832 42.0295Z" fill="#FEE673"/>
<path d="M35.5819 23.9617L35.6491 23.458C35.6491 23.458 35.6491 23.4244 35.6827 23.458C35.6827 23.458 35.7163 23.458 35.6827 23.4916L35.5819 23.9617C35.6155 23.9617 35.6155 23.9617 35.5819 23.9617ZM34.6416 23.7938L34.7088 23.2901C34.7088 23.2901 34.7088 23.2565 34.7423 23.2901V23.3237L34.6416 23.7938Z" fill="#010101"/>
<path d="M34.9096 21.8124C33.7342 16.0025 34.6409 13.4166 35.5477 11.0322C35.7156 10.5956 35.8164 10.2262 35.7828 9.75602C34.9432 9.65527 34.1036 9.7896 33.3648 10.159C29.637 12.0733 32.5588 17.6145 34.2379 21.6781L34.9096 21.8124Z" fill="#E2DFE6"/>
<path d="M34.4394 21.7116L35.111 21.8459C34.7752 20.5361 34.6745 19.1928 34.8424 17.8495C35.0439 16.3382 34.2379 14.0882 35.514 11.5023C35.8163 10.8642 36.2193 10.2261 36.7566 9.72236C34.4058 9.62161 32.5923 10.4948 32.3572 12.7784C32.1557 14.9278 33.4319 19.0585 34.2379 21.1406C34.305 21.3086 34.3722 21.5101 34.4394 21.7116Z" fill="#EF424B"/>
<path d="M34.8094 21.7787L35.4475 21.913C36.5221 18.3868 37.3281 14.7262 37.7983 11.0657C37.8655 10.6962 37.6975 10.3268 37.6304 9.92383C37.1602 9.72233 36.6229 9.72233 36.1527 9.92383C35.7161 10.1253 35.3803 10.4947 35.1452 10.8977C34.9101 11.3007 34.7422 11.7373 34.6079 12.2075C33.9026 15.0621 34.272 18.2189 34.7086 21.2078C34.7758 21.3757 34.8094 21.5772 34.8094 21.7787ZM39.5782 10.4612C38.7386 12.1403 40.5857 14.8606 35.9512 22.0138L36.6229 22.1481C37.9662 20.7712 39.3431 19.4279 40.5857 17.9502C41.123 17.3121 41.5932 16.6069 41.9626 15.8681C43.4738 12.9127 41.5596 10.9649 39.5782 10.4612Z" fill="#E2DFE6"/>
<path d="M40.4511 11.0321C39.9137 10.6291 39.2756 10.3269 38.6376 10.0918C39.1077 11.0993 39.4771 12.98 38.6711 15.3979C38.3353 16.439 37.6972 17.3122 37.4286 18.3533C37.1263 19.663 36.5218 20.9056 35.7158 21.9803L36.3875 22.1146C36.5218 21.9467 36.6562 21.7788 36.8241 21.6444C38.3353 20.0324 39.6786 18.2525 40.7869 16.3719C41.1227 15.8009 41.425 15.23 41.5929 14.5919C42.0295 13.1143 41.5929 11.9389 40.4511 11.0321Z" fill="#EF424B"/>
<path d="M40.1488 11.368C39.7122 10.5956 38.9062 9.9911 37.9994 9.95752C37.1934 11.9389 37.6972 14.2898 36.9583 16.2712C36.5889 17.3122 36.3203 18.4205 36.0852 19.4952C35.9173 20.3011 35.7158 21.1071 35.5479 21.9467L36.1859 22.0811C37.4957 20.2676 38.7047 18.4205 39.645 16.3719C40.0144 15.5995 40.3503 14.7599 40.4846 13.9203C40.6525 13.0472 40.5518 12.1404 40.1488 11.368Z" fill="#E2DFE6"/>
<path d="M35.2119 21.8797L35.7157 21.9804C35.9507 21.3424 36.1858 20.7043 36.4545 20.0998L37.059 18.6893C37.1933 18.3534 37.7642 16.7415 38.3016 15.0287C38.8053 13.3495 38.9061 12.7115 38.7717 11.301C38.7382 11.0323 38.7046 10.7636 38.6038 10.5286C38.5031 10.2935 38.3352 10.0584 38.1001 9.95764C37.8986 9.85689 37.6299 9.85689 37.462 9.95764C37.2605 10.0584 37.1933 10.3606 37.1597 10.5621C37.1262 10.6293 37.1262 10.6965 37.0926 10.7636L36.8911 11.4689C36.8239 11.704 36.7903 11.9055 36.7232 12.1406C36.6224 12.6107 36.5217 13.1145 36.4209 13.5846C35.9172 15.969 35.2455 21.5438 35.2119 21.8797Z" fill="#EF424B"/>
<path opacity="0.1" d="M41.9959 15.8682C41.6265 16.6071 41.1563 17.3123 40.619 17.9504C39.3764 19.3945 37.9995 20.7378 36.6562 22.1483L36.4211 22.0811L36.186 22.0475L35.9845 22.014L35.7494 21.9804H35.7159L35.5479 21.9468H35.4472L35.2121 21.9132H35.1449L34.9099 21.8796H34.8091L34.4397 21.8125L34.2046 21.7789C33.4658 20.0325 32.7269 18.3198 32.0889 16.5735C32.4247 16.775 33.1635 17.3795 34.9099 17.4466C35.7159 17.4802 36.5219 17.3459 37.2943 17.0772C42.2646 15.2973 41.8952 12.9801 42.0295 12.1741C42.8355 13.4167 42.6004 14.6256 41.9959 15.8682Z" fill="#2C2D21"/>
<path d="M34.2047 24.3983C34.1711 24.499 34.1711 24.5998 34.2383 24.6669C34.2718 24.7341 34.3726 24.7677 34.4398 24.8013C34.7084 24.902 34.9771 24.9356 35.2793 25.0028C35.3801 25.0364 35.4808 25.0364 35.5816 24.9692C35.6823 24.902 35.6823 24.8013 35.7159 24.7005C35.7495 24.5326 35.7495 24.3983 35.7831 24.2304C35.7831 24.1296 35.7831 24.0289 35.7159 23.9617C35.6823 23.8945 35.5816 23.861 35.5144 23.861C35.2793 23.7938 35.0443 23.7266 34.8092 23.7266C34.6748 23.7266 34.4733 23.693 34.4062 23.861C34.3054 24.0289 34.2383 24.1968 34.2047 24.3983Z" fill="#CBBE89"/>
<path d="M36.6665 22.1381C36.7115 21.9012 36.2014 21.6054 35.5272 21.4774C34.853 21.3494 34.27 21.4377 34.225 21.6746C34.18 21.9115 34.6901 22.2073 35.3643 22.3353C36.0385 22.4633 36.6216 22.375 36.6665 22.1381Z" fill="#E2DFE6"/>
<path d="M36.6563 22.1481C36.6227 22.3832 36.0182 22.484 35.3465 22.3496C34.6749 22.2153 34.1711 21.913 34.2047 21.7116C34.2047 21.6444 34.2719 21.5772 34.3726 21.5436C34.6077 21.4429 35.0443 21.4093 35.5145 21.5101C35.9846 21.6108 36.3876 21.7787 36.5555 21.9466C36.6227 22.0138 36.6563 22.081 36.6563 22.1481Z" fill="white"/>
<path d="M36.555 21.9132C36.3199 22.0139 35.8833 22.0475 35.4131 21.9468C34.943 21.846 34.54 21.6781 34.3721 21.5102C34.6072 21.4094 35.0437 21.3759 35.5139 21.4766C35.9841 21.5774 36.3871 21.7453 36.555 21.9132Z" fill="#B4B4B4"/>
<path d="M35.5481 23.3909C35.5145 23.3909 35.5481 23.3573 35.5481 23.3573C35.9175 23.0887 36.4213 22.6521 36.6564 22.1147H36.69V22.1483C36.4213 22.6857 35.9511 23.1222 35.5481 23.3909Z" fill="#010101"/>
<path d="M35.5481 23.3907C35.6825 23.0884 35.8168 22.8198 35.9511 22.5511L36.3541 21.7451H36.3877V21.7787L35.9847 22.5847C35.8504 22.8534 35.716 23.122 35.5481 23.3907Z" fill="#010101"/>
<path d="M35.5482 23.3908L35.649 22.5848C35.6826 22.2154 35.7162 21.846 35.8505 21.5437H35.8841V21.5773C35.7497 21.8795 35.7162 22.2489 35.6826 22.5848C35.649 22.8534 35.649 23.1221 35.5482 23.3908ZM34.8766 23.2564C34.6079 22.8534 34.3057 22.2825 34.3057 21.678C34.3057 21.678 34.3057 21.6445 34.3392 21.6445C34.3392 21.6445 34.3728 21.6445 34.3728 21.678C34.3392 22.2489 34.6415 22.8534 34.8766 23.2564Z" fill="#010101"/>
<path d="M34.8763 23.2565C34.8091 22.9543 34.7756 22.652 34.7756 22.3498C34.742 22.0475 34.742 21.7453 34.6748 21.443V21.4094H34.7084L34.8091 22.3162C34.8091 22.6184 34.8427 22.9543 34.8763 23.2565Z" fill="#010101"/>
<path d="M34.8767 23.2564C34.8432 23.2564 34.8432 23.2564 34.8767 23.2564C34.8767 22.9877 34.9775 22.719 35.0447 22.484C35.1454 22.1481 35.2462 21.7787 35.2462 21.4765C35.2462 21.4765 35.2462 21.4429 35.2797 21.4429C35.2797 21.4429 35.3133 21.4429 35.3133 21.4765C35.3133 21.8123 35.2126 22.1481 35.1118 22.5175C35.0111 22.719 34.9103 22.9877 34.8767 23.2564ZM35.6492 23.5586L35.3469 23.2899C35.3133 23.2564 35.3133 23.2228 35.3469 23.1892C35.3805 23.1556 35.4141 23.1556 35.4477 23.1892L35.7163 23.4243C35.7499 23.4579 35.7499 23.4914 35.7163 23.525C35.7163 23.5586 35.6827 23.5586 35.6492 23.5586Z" fill="#010101"/>
<path d="M34.641 23.3572C34.6074 23.3572 34.6074 23.3236 34.6074 23.3236C34.6074 23.29 34.6074 23.2564 34.641 23.2564L34.9768 23.1221C35.0104 23.1221 35.044 23.1221 35.044 23.1557C35.044 23.1892 35.044 23.2228 35.0104 23.2228L34.641 23.3572C34.6746 23.3572 34.6746 23.3572 34.641 23.3572Z" fill="#010101"/>
<path opacity="0.3" d="M26.2117 21.7116C28.5858 21.7116 30.5104 19.787 30.5104 17.4129C30.5104 15.0388 28.5858 13.1143 26.2117 13.1143C23.8377 13.1143 21.9131 15.0388 21.9131 17.4129C21.9131 19.787 23.8377 21.7116 26.2117 21.7116Z" fill="white"/>
<path opacity="0.3" d="M26.2121 20.7041C28.0297 20.7041 29.5032 19.2306 29.5032 17.413C29.5032 15.5953 28.0297 14.1218 26.2121 14.1218C24.3944 14.1218 22.9209 15.5953 22.9209 17.413C22.9209 19.2306 24.3944 20.7041 26.2121 20.7041Z" fill="white"/>
<path d="M26.2122 19.7639C27.5105 19.7639 28.563 18.7114 28.563 17.4131C28.563 16.1148 27.5105 15.0623 26.2122 15.0623C24.9138 15.0623 23.8613 16.1148 23.8613 17.4131C23.8613 18.7114 24.9138 19.7639 26.2122 19.7639Z" fill="#FEE136"/>
<path d="M28.5622 17.4129C28.5622 18.7226 27.5211 19.7637 26.2113 19.7637C25.4725 19.7637 24.8008 19.4279 24.3643 18.8905C24.6329 18.9913 24.9016 19.0585 25.2038 19.0585C26.5136 19.0585 27.5547 18.0174 27.5547 16.7076C27.5547 16.1703 27.3532 15.633 27.0509 15.23C27.9241 15.5322 28.5622 16.4054 28.5622 17.4129Z" fill="#F9D72F"/>
<path opacity="0.3" d="M25.8824 16.3347C25.9162 16.1147 25.7654 15.9089 25.5454 15.8751C25.3254 15.8412 25.1196 15.9921 25.0857 16.212C25.0519 16.432 25.2027 16.6378 25.4227 16.6717C25.6427 16.7056 25.8485 16.5547 25.8824 16.3347Z" fill="white"/>
<path opacity="0.3" d="M25.2585 17.1035C25.281 16.9569 25.1804 16.8197 25.0338 16.7971C24.8871 16.7746 24.75 16.8752 24.7274 17.0218C24.7048 17.1685 24.8054 17.3056 24.9521 17.3282C25.0987 17.3508 25.2359 17.2502 25.2585 17.1035Z" fill="white"/>
<path opacity="0.2" d="M36.6224 10.0917C36.8574 10.0917 37.0925 10.1589 37.2604 10.2932C37.5291 10.5283 37.5963 10.9313 37.4284 11.2336C37.294 11.5358 36.9918 11.7709 36.6559 11.9052C36.3201 12.0396 35.9843 12.0396 35.6149 12.0732C35.3798 12.1067 35.1111 12.1067 34.876 12.0396C34.641 11.9724 34.4059 11.8381 34.3051 11.603C34.07 11.0992 34.6074 10.6962 34.9768 10.4612C35.447 10.1925 36.0515 10.0582 36.6224 10.0917ZM33.7006 11.8381C34.0365 11.9052 34.2715 12.2411 34.238 12.5769C34.2044 13.1142 33.5327 13.4501 33.029 13.0806C32.458 12.6105 33.0625 11.7037 33.7006 11.8381Z" fill="white"/>
<path opacity="0.3" d="M19.1254 26.4469C19.5284 26.4133 19.965 26.3126 20.2336 25.9768C20.4687 25.6745 20.4687 25.2379 20.3344 24.9021C20.2672 24.7006 20.1329 24.4991 19.9986 24.3312C19.562 24.0961 19.0582 23.8946 18.5881 23.9953C18.1515 24.0961 17.9164 24.3648 16.8753 25.3387C16.7074 25.5066 16.5059 25.6745 16.4387 25.9096C16.3716 26.1783 16.4723 26.4469 16.5731 26.7156C16.6067 26.8499 16.6738 26.9507 16.7074 27.085C16.7746 27.0514 16.8082 27.0178 16.8753 27.0178C17.2112 26.8499 17.547 26.6148 17.9164 26.5141C18.2858 26.4133 18.7224 26.4805 19.1254 26.4469Z" fill="white"/>
<path d="M18.9577 24.8686C19.1592 24.8014 19.3943 24.8014 19.5622 24.9022C19.7637 25.0029 19.898 25.2044 19.898 25.4059C19.898 25.6074 19.7637 25.8089 19.5622 25.8761C19.4279 25.9097 19.2935 25.8761 19.1256 25.8761C19.0249 25.9097 18.9241 25.9433 18.7898 25.9768C18.689 26.0104 18.5547 26.044 18.454 26.0104C18.1517 25.8761 18.286 25.5403 18.3868 25.3388C18.5211 25.1037 18.689 24.9358 18.9577 24.8686ZM17.3793 26.1447C17.4465 26.0104 17.48 25.8761 17.4129 25.7418C17.3457 25.6074 17.2114 25.5067 17.077 25.5403C16.9763 25.5738 16.8755 25.6746 16.842 25.7753C16.7748 25.9097 16.7412 26.0776 16.7412 26.2119C16.7412 26.2791 16.7412 26.3462 16.7748 26.4134C16.9763 26.7492 17.3121 26.3127 17.3793 26.1447Z" fill="#FEE673"/>
</g>
<defs>
<clipPath id="clip0_3195_13798">
<rect width="38.6207" height="38.6207" fill="white" transform="translate(9.65527 9.65527)"/>
</clipPath>
</defs>
</svg>
