<svg width="56" height="56" viewBox="0 0 56 56" fill="none" xmlns="http://www.w3.org/2000/svg">
<g clip-path="url(#clip0_3195_13770)">
<path d="M11.5554 20.7002H19.8632C20.4187 20.7002 20.9514 20.9209 21.3442 21.3136C21.737 21.7064 21.9576 22.2391 21.9576 22.7946V44.1576H9.46094V22.7946C9.46094 22.2391 9.6816 21.7064 10.0744 21.3136C10.4672 20.9209 10.9999 20.7002 11.5554 20.7002ZM33.7561 20.7002H42.064C42.6195 20.7002 43.1522 20.9209 43.545 21.3136C43.9377 21.7064 44.1584 22.2391 44.1584 22.7946V44.1576H31.6617V22.7946C31.6617 22.2391 31.8824 21.7064 32.2752 21.3136C32.668 20.9209 33.2007 20.7002 33.7561 20.7002Z" fill="#CAE6F7"/>
<path d="M42.0642 20.7002H38.9226C39.4781 20.7002 40.0108 20.9209 40.4036 21.3136C40.7963 21.7064 41.017 22.2391 41.017 22.7946V44.1576H44.1586V22.7946C44.1586 22.2391 43.938 21.7064 43.5452 21.3136C43.1524 20.9209 42.6197 20.7002 42.0642 20.7002ZM19.5143 15.7434H34.1054C34.6609 15.7434 35.1936 15.9641 35.5864 16.3568C35.9792 16.7496 36.1998 17.2823 36.1998 17.8378V44.1576H17.4199V17.8378C17.4199 17.2823 17.6406 16.7496 18.0334 16.3568C18.4261 15.9641 18.9589 15.7434 19.5143 15.7434Z" fill="#B8DFF7"/>
<path d="M30.9638 9.46021H22.6559C21.4992 9.46021 20.5615 10.3979 20.5615 11.5546V19.8625C20.5615 21.0192 21.4992 21.9569 22.6559 21.9569H30.9638C32.1205 21.9569 33.0582 21.0192 33.0582 19.8625V11.5546C33.0582 10.3979 32.1205 9.46021 30.9638 9.46021Z" fill="#BCD44C"/>
<path d="M30.9636 9.46021H28.8691C29.4246 9.46021 29.9573 9.68087 30.3501 10.0736C30.7429 10.4664 30.9636 10.9991 30.9636 11.5546V19.8625C30.9636 20.4179 30.7429 20.9507 30.3501 21.3434C29.9573 21.7362 29.4246 21.9569 28.8691 21.9569H30.9636C31.519 21.9569 32.0518 21.7362 32.4445 21.3434C32.8373 20.9507 33.058 20.4179 33.058 19.8625V11.5546C33.058 10.9991 32.8373 10.4664 32.4445 10.0736C32.0518 9.68087 31.519 9.46021 30.9636 9.46021Z" fill="#AECE44"/>
<path d="M26.7973 13.0747C26.9343 13.0747 27.07 13.1017 27.1965 13.1541C27.3231 13.2066 27.4381 13.2834 27.535 13.3803C27.6319 13.4772 27.7087 13.5922 27.7612 13.7188C27.8136 13.8454 27.8406 13.9811 27.8406 14.1181V15.0596H25.7539V14.1181C25.7539 13.9811 25.7809 13.8454 25.8333 13.7189C25.8857 13.5923 25.9626 13.4772 26.0595 13.3804C26.1564 13.2835 26.2714 13.2066 26.398 13.1542C26.5246 13.1017 26.6603 13.0748 26.7973 13.0748V13.0747Z" fill="#E1E1E3"/>
<path d="M26.7462 14.8306H26.8479C27.7793 14.8306 28.6725 15.2005 29.331 15.8591C29.9896 16.5177 30.3596 17.4109 30.3596 18.3422H23.2344C23.2344 17.881 23.3252 17.4244 23.5017 16.9983C23.6782 16.5723 23.9369 16.1851 24.263 15.8591C24.5891 15.533 24.9762 15.2743 25.4023 15.0978C25.8283 14.9214 26.285 14.8305 26.7462 14.8306Z" fill="white"/>
<path d="M25.6227 32.9175H27.9964C28.5519 32.9175 29.0846 33.1381 29.4774 33.5309C29.8702 33.9237 30.0908 34.4564 30.0908 35.0119V44.1575H23.5283V35.0119C23.5283 34.4564 23.749 33.9237 24.1418 33.5309C24.5345 33.1381 25.0673 32.9175 25.6227 32.9175Z" fill="#8B8893"/>
<path d="M27.9968 32.9175H25.9023C26.4578 32.9175 26.9905 33.1381 27.3833 33.5309C27.7761 33.9237 27.9968 34.4564 27.9968 35.0119V44.1575H30.0912V35.0119C30.0912 34.4564 29.8705 33.9237 29.4777 33.5309C29.085 33.1381 28.5522 32.9175 27.9968 32.9175Z" fill="#787681"/>
<path d="M24.9598 25.0984H20.8408C20.6866 25.0984 20.5615 25.2234 20.5615 25.3776V29.4967C20.5615 29.6509 20.6866 29.7759 20.8408 29.7759H24.9598C25.114 29.7759 25.239 29.6509 25.239 29.4967V25.3776C25.239 25.2234 25.114 25.0984 24.9598 25.0984Z" fill="#52BBE9"/>
<path d="M24.9596 25.0984H22.8652C22.9393 25.0984 23.0103 25.1278 23.0627 25.1802C23.1151 25.2326 23.1445 25.3036 23.1445 25.3776V29.4967C23.1445 29.5707 23.1151 29.6418 23.0627 29.6941C23.0103 29.7465 22.9393 29.7759 22.8652 29.7759H24.9596C25.0337 29.7759 25.1047 29.7465 25.1571 29.6941C25.2095 29.6418 25.2389 29.5707 25.2389 29.4967V25.3776C25.2389 25.3036 25.2095 25.2326 25.1571 25.1802C25.1047 25.1278 25.0337 25.0984 24.9596 25.0984Z" fill="#1CABE1"/>
<path d="M32.7791 25.0984H28.6601C28.5059 25.0984 28.3809 25.2234 28.3809 25.3776V29.4967C28.3809 29.6509 28.5059 29.7759 28.6601 29.7759H32.7791C32.9334 29.7759 33.0584 29.6509 33.0584 29.4967V25.3776C33.0584 25.2234 32.9334 25.0984 32.7791 25.0984Z" fill="#52BBE9"/>
<path d="M32.779 25.0984H30.6846C30.7586 25.0984 30.8297 25.1278 30.882 25.1802C30.9344 25.2326 30.9638 25.3036 30.9638 25.3776V29.4967C30.9638 29.5707 30.9344 29.6418 30.882 29.6941C30.8297 29.7465 30.7586 29.7759 30.6846 29.7759H32.779C32.853 29.7759 32.9241 29.7465 32.9764 29.6941C33.0288 29.6418 33.0582 29.5707 33.0582 29.4967V25.3776C33.0582 25.3036 33.0288 25.2326 32.9764 25.1802C32.9241 25.1278 32.853 25.0984 32.779 25.0984Z" fill="#1CABE1"/>
<path d="M36.2002 25.0984H40.5985C40.6725 25.0984 40.7436 25.1278 40.7959 25.1802C40.8483 25.2326 40.8777 25.3036 40.8777 25.3776V29.4967C40.8777 29.5707 40.8483 29.6418 40.7959 29.6941C40.7436 29.7465 40.6725 29.7759 40.5985 29.7759H36.2002V25.0984Z" fill="#52BBE9"/>
<path d="M40.5983 25.0984H38.5039C38.578 25.0984 38.649 25.1278 38.7014 25.1802C38.7537 25.2326 38.7832 25.3036 38.7832 25.3776V29.4967C38.7832 29.5707 38.7537 29.6418 38.7014 29.6941C38.649 29.7465 38.578 29.7759 38.5039 29.7759H40.5983C40.6724 29.7759 40.7434 29.7465 40.7958 29.6941C40.8482 29.6418 40.8776 29.5707 40.8776 29.4967V25.3776C40.8776 25.3036 40.8482 25.2326 40.7958 25.1802C40.7434 25.1278 40.6724 25.0984 40.5983 25.0984Z" fill="#1CABE1"/>
<path d="M13.0214 25.0984H17.4197V29.7759H13.0214C12.9474 29.7759 12.8764 29.7465 12.824 29.6941C12.7716 29.6418 12.7422 29.5707 12.7422 29.4967V25.3776C12.7422 25.3036 12.7716 25.2326 12.824 25.1802C12.8764 25.1278 12.9474 25.0984 13.0214 25.0984Z" fill="#52BBE9"/>
<path d="M15.3252 25.0984H17.4196V29.7759H15.3252V25.0984Z" fill="#1CABE1"/>
<path d="M36.2002 33.4761H40.5985C40.6725 33.4761 40.7436 33.5055 40.7959 33.5579C40.8483 33.6102 40.8777 33.6813 40.8777 33.7553V37.8743C40.8777 37.9484 40.8483 38.0194 40.7959 38.0718C40.7436 38.1242 40.6725 38.1536 40.5985 38.1536H36.2002V33.4761Z" fill="#52BBE9"/>
<path d="M40.5983 33.4761H38.5039C38.578 33.4761 38.649 33.5055 38.7014 33.5579C38.7537 33.6102 38.7832 33.6813 38.7832 33.7553V37.8743C38.7832 37.9484 38.7537 38.0194 38.7014 38.0718C38.649 38.1242 38.578 38.1536 38.5039 38.1536H40.5983C40.6724 38.1536 40.7434 38.1242 40.7958 38.0718C40.8482 38.0194 40.8776 37.9484 40.8776 37.8743V33.7553C40.8776 33.6813 40.8482 33.6102 40.7958 33.5579C40.7434 33.5055 40.6724 33.4761 40.5983 33.4761Z" fill="#1CABE1"/>
<path d="M13.0214 33.4761H17.4197V38.1536H13.0214C12.9474 38.1536 12.8764 38.1242 12.824 38.0718C12.7716 38.0194 12.7422 37.9484 12.7422 37.8743V33.7553C12.7422 33.6813 12.7716 33.6102 12.824 33.5579C12.8764 33.5055 12.9474 33.4761 13.0214 33.4761Z" fill="#52BBE9"/>
<path d="M15.3252 33.4761H17.4196V38.1536H15.3252V33.4761Z" fill="#1CABE1"/>
<path d="M25.239 24.5748H20.5615C20.4226 24.5748 20.2895 24.63 20.1913 24.7282C20.0931 24.8264 20.0379 24.9596 20.0379 25.0984V29.7759C20.0379 29.9148 20.0931 30.048 20.1913 30.1462C20.2895 30.2444 20.4226 30.2996 20.5615 30.2996H25.239C25.3779 30.2996 25.5111 30.2444 25.6093 30.1462C25.7075 30.048 25.7626 29.9148 25.7626 29.7759V25.0984C25.7626 24.9596 25.7075 24.8264 25.6093 24.7282C25.5111 24.63 25.3779 24.5748 25.239 24.5748ZM24.7154 29.2523H21.0851V25.622H24.7154V29.2523ZM42.0642 20.1765H36.7234V17.8378C36.7226 17.1437 36.4466 16.4782 35.9557 15.9874C35.4649 15.4966 34.7995 15.2205 34.1054 15.2198H33.5818V11.5545C33.581 10.8604 33.3049 10.195 32.8141 9.70418C32.3233 9.21337 31.6579 8.9373 30.9638 8.93652H22.6559C21.9618 8.9373 21.2964 9.21337 20.8056 9.70418C20.3147 10.195 20.0387 10.8604 20.0379 11.5545V15.2198H19.5143C18.8202 15.2205 18.1547 15.4966 17.6639 15.9874C17.1731 16.4782 16.8971 17.1437 16.8963 17.8378V20.1765H11.5555C10.8614 20.1773 10.196 20.4534 9.70516 20.9442C9.21435 21.435 8.93828 22.1005 8.9375 22.7946V44.1576C8.9375 44.2965 8.99267 44.4296 9.09086 44.5278C9.18905 44.626 9.32224 44.6812 9.4611 44.6812H44.1586C44.2974 44.6812 44.4306 44.626 44.5288 44.5278C44.627 44.4296 44.6822 44.2965 44.6822 44.1576V22.7946C44.6814 22.1005 44.4053 21.435 43.9145 20.9442C43.4237 20.4534 42.7583 20.1773 42.0642 20.1765ZM16.8963 37.63H13.266V33.9997H16.8963V37.63ZM16.8963 29.2523H13.266V25.622H16.8963V29.2523ZM16.8963 24.5748H12.7424C12.6035 24.5748 12.4703 24.63 12.3721 24.7282C12.2739 24.8264 12.2187 24.9596 12.2187 25.0984V29.7759C12.2187 29.9148 12.2739 30.048 12.3721 30.1462C12.4703 30.2444 12.6035 30.2996 12.7424 30.2996H16.8963V32.9525H12.7424C12.6035 32.9525 12.4703 33.0076 12.3721 33.1058C12.2739 33.204 12.2187 33.3372 12.2187 33.4761V38.1536C12.2187 38.2925 12.2739 38.4257 12.3721 38.5239C12.4703 38.622 12.6035 38.6772 12.7424 38.6772H16.8963V43.634H9.98471V22.7946C9.98517 22.3781 10.1508 21.9788 10.4453 21.6843C10.7398 21.3899 11.1391 21.2242 11.5555 21.2238H16.8963V24.5748ZM21.0851 11.5545C21.0856 11.1381 21.2512 10.7388 21.5457 10.4443C21.8402 10.1498 22.2395 9.98419 22.6559 9.98373H30.9638C31.3802 9.98421 31.7795 10.1499 32.074 10.4443C32.3684 10.7388 32.5341 11.1381 32.5346 11.5545V19.8624C32.5341 20.2788 32.3684 20.6781 32.074 20.9726C31.7795 21.2671 31.3802 21.4327 30.9638 21.4332H22.6559C22.2395 21.4327 21.8402 21.2671 21.5457 20.9726C21.2512 20.6781 21.0856 20.2789 21.0851 19.8624V11.5545ZM29.5675 43.634H24.0522V35.012C24.0527 34.5955 24.2183 34.1963 24.5128 33.9018C24.8073 33.6073 25.2065 33.4416 25.623 33.4412H27.9967C28.4131 33.4417 28.8124 33.6073 29.1069 33.9018C29.4014 34.1963 29.567 34.5955 29.5675 35.012V43.634ZM35.6762 43.634H30.6147V35.012C30.6139 34.3179 30.3378 33.6524 29.847 33.1616C29.3562 32.6708 28.6908 32.3947 27.9967 32.394H25.623C24.9289 32.3947 24.2634 32.6708 23.7726 33.1616C23.2818 33.6524 23.0058 34.3179 23.005 35.012V43.634H17.9435V17.8378C17.9439 17.4213 18.1096 17.022 18.4041 16.7276C18.6986 16.4331 19.0978 16.2674 19.5143 16.267H20.0379V19.8624C20.0387 20.5565 20.3147 21.2219 20.8056 21.7127C21.2964 22.2036 21.9618 22.4796 22.6559 22.4804H30.9638C31.6579 22.4796 32.3233 22.2036 32.8141 21.7127C33.3049 21.2219 33.581 20.5565 33.5818 19.8624V16.267H34.1054C34.5218 16.2675 34.9211 16.4331 35.2156 16.7276C35.5101 17.0221 35.6757 17.4213 35.6762 17.8378V43.634ZM36.7234 25.622H40.3537V29.2523H36.7234V25.622ZM36.7234 33.9997H40.3537V37.63H36.7234V33.9997ZM43.635 43.634H36.7234V38.6772H40.8773C41.0162 38.6772 41.1494 38.622 41.2476 38.5239C41.3458 38.4257 41.4009 38.2925 41.4009 38.1536V33.4761C41.4009 33.3372 41.3458 33.204 41.2476 33.1058C41.1494 33.0076 41.0162 32.9525 40.8773 32.9525H36.7234V30.2996H40.8773C41.0162 30.2996 41.1494 30.2444 41.2476 30.1462C41.3458 30.048 41.4009 29.9148 41.4009 29.7759V25.0984C41.4009 24.9596 41.3458 24.8264 41.2476 24.7282C41.1494 24.63 41.0162 24.5748 40.8773 24.5748H36.7234V21.2238H42.0642C42.4806 21.2242 42.8799 21.3899 43.1744 21.6844C43.4688 21.9788 43.6345 22.3781 43.635 22.7946V43.634ZM22.4965 18.8659H31.1231C31.2619 18.8659 31.3951 18.8107 31.4933 18.7125C31.5915 18.6143 31.6467 18.4811 31.6467 18.3423C31.6467 18.2034 31.5915 18.0702 31.4933 17.972C31.3951 17.8738 31.2619 17.8187 31.1231 17.8187H30.8482C30.7544 17.1113 30.4752 16.4413 30.0389 15.8767C29.6026 15.3121 29.0247 14.8728 28.3639 14.6036V14.1181C28.3639 13.7025 28.1988 13.304 27.9049 13.0101C27.6111 12.7162 27.2125 12.5511 26.7969 12.5511C26.3813 12.5511 25.9828 12.7162 25.6889 13.0101C25.395 13.304 25.23 13.7025 25.23 14.1181V14.6037C24.5692 14.873 23.9914 15.3122 23.5552 15.8768C23.119 16.4414 22.8398 17.1114 22.746 17.8187H22.4965C22.3577 17.8187 22.2245 17.8738 22.1263 17.972C22.0281 18.0702 21.9729 18.2034 21.9729 18.3423C21.9729 18.4811 22.0281 18.6143 22.1263 18.7125C22.2245 18.8107 22.3577 18.8659 22.4965 18.8659ZM26.2772 14.1181C26.2773 13.9802 26.3322 13.848 26.4297 13.7505C26.5272 13.653 26.6594 13.5981 26.7973 13.598C26.9351 13.5983 27.0671 13.6532 27.1645 13.7507C27.2619 13.8482 27.3166 13.9803 27.3167 14.1181V14.3351C27.1611 14.3167 27.0047 14.3073 26.848 14.307H26.7462C26.5895 14.3073 26.4328 14.3167 26.2772 14.3352V14.1181ZM26.7462 15.3542H26.848C27.5495 15.3551 28.2283 15.6023 28.7661 16.0528C29.3038 16.5032 29.6662 17.1282 29.7901 17.8186H23.8041C23.928 17.1282 24.2904 16.5032 24.8282 16.0527C25.3659 15.6023 26.0448 15.3551 26.7462 15.3542ZM33.0582 24.5748H28.3806C28.2418 24.5748 28.1086 24.63 28.0104 24.7282C27.9122 24.8264 27.857 24.9596 27.857 25.0984V29.7759C27.857 29.9148 27.9122 30.048 28.0104 30.1462C28.1086 30.2444 28.2418 30.2996 28.3806 30.2996H33.0582C33.197 30.2996 33.3302 30.2444 33.4284 30.1462C33.5266 30.048 33.5818 29.9148 33.5818 29.7759V25.0984C33.5818 24.9596 33.5266 24.8264 33.4284 24.7282C33.3302 24.63 33.197 24.5748 33.0582 24.5748ZM32.5346 29.2523H28.9043V25.622H32.5346V29.2523Z" fill="#3C3B41"/>
</g>
<defs>
<clipPath id="clip0_3195_13770">
<rect width="35.7447" height="35.7447" fill="white" transform="translate(8.9375 8.93652)"/>
</clipPath>
</defs>
</svg>
