<svg width="34" height="34" viewBox="0 0 34 34" fill="none" xmlns="http://www.w3.org/2000/svg">
<circle opacity="0.4" cx="17" cy="17" r="17" fill="#0067FF" fill-opacity="0.3"/>
<g clip-path="url(#clip0_4195_21495)">
<path d="M27.8717 17.8394C27.0551 17.5774 27.0551 16.4224 27.8717 16.1604C28.8312 15.8524 28.6067 14.4354 27.5989 14.4391C26.7416 14.4424 26.3844 13.3437 27.08 12.8421C27.898 12.2529 27.2464 10.9741 26.2887 11.2891C25.4745 11.5573 24.7953 10.6226 25.3044 9.92975C25.8997 9.11647 24.8853 8.10163 24.072 8.69741C23.3801 9.20413 22.4455 8.52491 22.7126 7.71069C23.0262 6.75397 21.7475 6.10288 21.1583 6.92179C20.6567 7.616 19.558 7.25882 19.5612 6.40147C19.565 5.39366 18.148 5.16913 17.84 6.12866C17.578 6.94522 16.423 6.94522 16.1609 6.12866C15.853 5.16913 14.4359 5.39366 14.4397 6.40147C14.443 7.25882 13.3442 7.616 12.8426 6.92179C12.2534 6.10429 10.9747 6.75538 11.2897 7.71304C11.5578 8.52725 10.6231 9.20647 9.9303 8.69975C9.11702 8.10444 8.10218 9.11882 8.69796 9.9321C9.20468 10.624 8.52546 11.5587 7.71124 11.2915C6.75452 10.9741 6.10296 12.2529 6.92233 12.8421C7.61796 13.3437 7.26077 14.4424 6.40343 14.4391C5.39561 14.4354 5.17108 15.8524 6.13061 16.1604C6.94718 16.4224 6.94718 17.5774 6.13061 17.8394C5.17108 18.1474 5.39561 19.5644 6.40343 19.5607C7.25936 19.5574 7.61655 20.6562 6.92233 21.1577C6.10436 21.7469 6.75593 23.0257 7.71358 22.7107C8.5278 22.4426 9.20702 23.3773 8.7003 24.0701C8.10499 24.8833 9.11936 25.8982 9.93264 25.3024C10.6245 24.7957 11.5592 25.4749 11.292 26.2868C10.977 27.2444 12.2558 27.8955 12.845 27.078C13.3466 26.3824 14.4453 26.7396 14.442 27.5969C14.4383 28.6048 15.8553 28.8293 16.1633 27.8698C16.4253 27.0532 17.5803 27.0532 17.8423 27.8698C18.1503 28.8293 19.5673 28.6048 19.5636 27.5969C19.558 26.741 20.6567 26.3838 21.1583 27.078C21.7475 27.8955 23.0262 27.2444 22.7112 26.2868C22.4431 25.4726 23.3778 24.7933 24.0706 25.3024C24.8839 25.8977 25.8987 24.8833 25.303 24.0701C24.7962 23.3782 25.4755 22.4435 26.2873 22.7107C27.245 23.0257 27.8966 21.7469 27.0786 21.1577C26.383 20.6562 26.7401 19.5574 27.5975 19.5607C28.6067 19.5644 28.8312 18.1474 27.8717 17.8394ZM25.6901 18.2655C25.7082 18.3002 25.7147 18.3396 25.7086 18.3782C25.7025 18.4168 25.6842 18.4524 25.6564 18.4798C25.3446 18.7901 25.1111 19.1703 24.9753 19.5887C24.8395 20.0072 24.8053 20.452 24.8755 20.8863C24.8818 20.9247 24.8758 20.9642 24.8581 20.9989C24.8405 21.0337 24.8123 21.0619 24.7775 21.0794C24.3845 21.2796 24.0446 21.57 23.7856 21.9269C23.5266 22.2838 23.3558 22.6969 23.2873 23.1326C23.2814 23.1707 23.2635 23.206 23.2362 23.2333C23.2089 23.2606 23.1736 23.2785 23.1355 23.2844C22.7002 23.353 22.2874 23.5237 21.9309 23.7826C21.5743 24.0414 21.2842 24.3811 21.0842 24.7737C21.0668 24.8081 21.0389 24.8361 21.0045 24.8536C20.9701 24.8712 20.9311 24.8773 20.893 24.8712C20.748 24.848 20.6015 24.8364 20.4547 24.8365C19.7164 24.8383 19.0088 25.1318 18.4859 25.653C18.4584 25.6811 18.4226 25.6996 18.3839 25.7059C18.3451 25.7122 18.3053 25.706 18.2703 25.6882C17.8787 25.4872 17.4449 25.3823 17.0047 25.3823C16.5645 25.3823 16.1306 25.4872 15.7391 25.6882C15.704 25.706 15.6643 25.7122 15.6255 25.7059C15.5867 25.6996 15.551 25.6811 15.5234 25.653C15.0006 25.1318 14.2929 24.8383 13.5547 24.8365C13.4079 24.8364 13.2613 24.848 13.1164 24.8712C13.0783 24.8773 13.0392 24.8712 13.0049 24.8536C12.9705 24.8361 12.9426 24.8081 12.9251 24.7737C12.7252 24.3811 12.435 24.0414 12.0785 23.7826C11.7219 23.5237 11.3091 23.353 10.8739 23.2844C10.8357 23.2785 10.8004 23.2606 10.7731 23.2333C10.7458 23.206 10.7279 23.1707 10.722 23.1326C10.6531 22.6961 10.4815 22.2822 10.2214 21.9251C9.96126 21.5679 9.62002 21.2776 9.22577 21.078C9.19099 21.0605 9.16274 21.0323 9.14511 20.9975C9.12749 20.9628 9.12142 20.9233 9.1278 20.8849C9.19721 20.4506 9.16238 20.0059 9.0262 19.5877C8.89001 19.1694 8.65637 18.7895 8.34452 18.4793C8.3167 18.4519 8.29841 18.4163 8.29234 18.3777C8.28626 18.3392 8.29272 18.2997 8.31077 18.2651C8.51161 17.8734 8.61636 17.4396 8.61636 16.9994C8.61636 16.5593 8.51161 16.1255 8.31077 15.7338C8.29272 15.6992 8.28626 15.6597 8.29234 15.6211C8.29841 15.5826 8.3167 15.547 8.34452 15.5196C8.65662 15.2096 8.89044 14.8297 9.02664 14.4114C9.16284 13.9931 9.19752 13.5483 9.1278 13.114C9.12164 13.0757 9.12781 13.0364 9.14542 13.0019C9.16303 12.9673 9.19117 12.9393 9.22577 12.9218C9.61871 12.7217 9.95863 12.4312 10.2177 12.0744C10.4767 11.7175 10.6474 11.3043 10.7159 10.8687C10.7218 10.8305 10.7397 10.7952 10.7671 10.7679C10.7944 10.7406 10.8296 10.7227 10.8678 10.7168C11.303 10.6482 11.7158 10.4775 12.0724 10.2187C12.4289 9.95982 12.7191 9.62017 12.9191 9.22757C12.9362 9.19295 12.964 9.16471 12.9983 9.14692C13.0326 9.12914 13.0717 9.12274 13.1098 9.12866C13.2548 9.15182 13.4013 9.16342 13.5481 9.16335C14.2864 9.16161 14.9941 8.8681 15.5169 8.34679C15.5444 8.31875 15.5801 8.30023 15.6189 8.29391C15.6577 8.28758 15.6975 8.29379 15.7325 8.31163C16.1241 8.51266 16.5579 8.61752 16.9981 8.61752C17.4383 8.61752 17.8721 8.51266 18.2637 8.31163C18.2987 8.29379 18.3385 8.28758 18.3773 8.29391C18.4161 8.30023 18.4518 8.31875 18.4794 8.34679C19.0022 8.86801 19.7098 9.16151 20.4481 9.16335C20.5949 9.16342 20.7415 9.15182 20.8864 9.12866C20.9245 9.12252 20.9636 9.12866 20.9979 9.14619C21.0323 9.16371 21.0602 9.19172 21.0776 9.22616C21.2776 9.61877 21.5678 9.95841 21.9243 10.2173C22.2809 10.4761 22.6937 10.6468 23.1289 10.7154C23.1671 10.7213 23.2023 10.7392 23.2296 10.7665C23.257 10.7938 23.2749 10.8291 23.2808 10.8673C23.3495 11.3035 23.5208 11.7173 23.7806 12.0744C24.0404 12.4316 24.3812 12.722 24.7751 12.9218C24.8099 12.9393 24.8382 12.9675 24.8558 13.0023C24.8734 13.037 24.8795 13.0765 24.8731 13.1149C24.8036 13.5492 24.8384 13.9938 24.9746 14.412C25.1108 14.8302 25.3445 15.21 25.6564 15.5201C25.6842 15.5475 25.7026 15.5832 25.7086 15.6219C25.7147 15.6605 25.7082 15.7001 25.6901 15.7348C25.4893 16.1264 25.3845 16.5602 25.3845 17.0004C25.3845 17.4405 25.4893 17.8744 25.6901 18.266V18.2655Z" fill="#8BD5EF"/>
<path d="M15.3309 28.7656C15.0153 28.7666 14.712 28.6427 14.4872 28.4211C14.3799 28.3129 14.2956 28.1842 14.2392 28.0427C14.1828 27.9012 14.1556 27.7498 14.1591 27.5975C14.1595 27.4703 14.1196 27.3463 14.045 27.2432C13.9705 27.1402 13.8651 27.0635 13.7442 27.0242C13.6232 26.9849 13.4929 26.985 13.3721 27.0245C13.2512 27.064 13.1459 27.1409 13.0716 27.2441C12.9684 27.3951 12.8299 27.5187 12.6682 27.6041C12.5065 27.6895 12.3263 27.7342 12.1434 27.7344C11.9539 27.733 11.7672 27.6874 11.5984 27.6012C11.4295 27.515 11.2831 27.3906 11.1708 27.238C11.064 27.0903 10.9947 26.9189 10.9688 26.7385C10.9429 26.5582 10.9612 26.3742 11.0222 26.2025C11.0437 26.1386 11.0548 26.0716 11.055 26.0042C11.0538 25.8934 11.0218 25.7851 10.9624 25.6915C10.903 25.5979 10.8187 25.5228 10.7189 25.4745C10.621 25.4233 10.5105 25.4012 10.4005 25.4107C10.2904 25.4203 10.1854 25.4611 10.0978 25.5284C9.89937 25.6781 9.65821 25.7602 9.40968 25.7628C9.19172 25.7593 8.97891 25.696 8.79442 25.5799C8.60994 25.4637 8.46086 25.2992 8.36343 25.1042C8.26669 24.9143 8.22557 24.7008 8.24481 24.4885C8.26405 24.2762 8.34286 24.0737 8.47218 23.9042C8.54926 23.803 8.59137 23.6794 8.59218 23.5522C8.59055 23.4551 8.56632 23.3597 8.52141 23.2736C8.47649 23.1875 8.41213 23.1131 8.33343 23.0562C8.25742 23.0011 8.16917 22.9653 8.07625 22.9518C7.98333 22.9383 7.88853 22.9476 7.8 22.9789C7.67637 23.0203 7.54693 23.0416 7.41656 23.0422C6.9225 23.0422 6.48422 22.7141 6.32578 22.2223C6.16734 21.7306 6.33234 21.238 6.75656 20.9314C6.83404 20.8779 6.89736 20.8064 6.94105 20.7231C6.98474 20.6397 7.00749 20.5469 7.00734 20.4528C7.00736 20.2873 6.94218 20.1285 6.82593 20.0108C6.77032 19.9562 6.70435 19.9132 6.6319 19.8845C6.55945 19.8557 6.48198 19.8418 6.40406 19.8434H6.39703C6.13808 19.8492 5.88501 19.7659 5.6802 19.6073C5.47539 19.4487 5.33129 19.2246 5.27203 18.9725C5.13797 18.4433 5.36015 17.9183 5.82515 17.6661C5.89073 17.6305 5.96775 17.6225 6.03926 17.6437C6.11077 17.6649 6.17093 17.7137 6.20648 17.7793C6.24204 17.8449 6.25008 17.9219 6.22885 17.9934C6.20763 18.0649 6.15886 18.1251 6.09328 18.1606C5.80359 18.3176 5.76515 18.6219 5.81718 18.8342C5.84644 18.9647 5.92044 19.0808 6.02636 19.1624C6.13228 19.244 6.26342 19.2859 6.39703 19.2809C6.54972 19.2787 6.70132 19.3069 6.84303 19.3638C6.98474 19.4207 7.11373 19.5051 7.2225 19.6123C7.44428 19.8359 7.56892 20.1379 7.56937 20.4528C7.56944 20.636 7.52544 20.8166 7.44108 20.9793C7.35673 21.142 7.23449 21.282 7.08468 21.3875C6.97979 21.4579 6.901 21.5608 6.8605 21.6805C6.82 21.8001 6.82004 21.9297 6.86062 22.0494C6.93 22.2636 7.12828 22.4797 7.41609 22.4797C7.48674 22.4791 7.55685 22.4673 7.62375 22.4445C7.79684 22.3856 7.98152 22.369 8.16234 22.3962C8.34315 22.4234 8.51482 22.4935 8.66296 22.6006C8.8141 22.7092 8.93739 22.8521 9.02277 23.0174C9.10815 23.1828 9.15319 23.3661 9.15422 23.5522C9.15311 23.7987 9.07311 24.0383 8.92593 24.2361C8.85697 24.3213 8.81441 24.4248 8.8035 24.5339C8.79259 24.643 8.8138 24.7529 8.86453 24.8501C8.91541 24.9521 8.99287 25.0385 9.08873 25.1001C9.1846 25.1617 9.29532 25.1963 9.40921 25.2003C9.53811 25.1984 9.66293 25.1548 9.765 25.0761C9.93628 24.9468 10.1407 24.8686 10.3545 24.8506C10.5684 24.8326 10.7829 24.8755 10.9734 24.9744C11.1661 25.0694 11.3284 25.2162 11.4421 25.3984C11.5559 25.5805 11.6166 25.7908 11.6175 26.0056C11.6175 26.1331 11.597 26.2597 11.5566 26.3806C11.5237 26.4678 11.5128 26.5618 11.525 26.6542C11.5372 26.7466 11.572 26.8346 11.6264 26.9103C11.686 26.9913 11.7636 27.0572 11.8531 27.103C11.9426 27.1488 12.0415 27.1732 12.142 27.1742C12.2351 27.1739 12.3267 27.1505 12.4085 27.106C12.4903 27.0616 12.5598 26.9976 12.6108 26.9197C12.7537 26.719 12.9567 26.5689 13.1905 26.4911C13.4243 26.4133 13.6768 26.4118 13.9115 26.4868C14.1462 26.5618 14.351 26.7094 14.4964 26.9084C14.6417 27.1073 14.7201 27.3473 14.7202 27.5937C14.7166 27.6727 14.7292 27.7515 14.7573 27.8253C14.7853 27.8992 14.8282 27.9665 14.8833 28.0231C15.003 28.1395 15.1639 28.2039 15.3309 28.2022C15.4577 28.2044 15.5817 28.1646 15.6834 28.089C15.7852 28.0133 15.8591 27.9061 15.8934 27.784C15.9685 27.5493 16.1163 27.3445 16.3154 27.1991C16.5145 27.0538 16.7546 26.9755 17.0011 26.9755C17.2476 26.9755 17.4877 27.0538 17.6868 27.1991C17.8859 27.3445 18.0336 27.5493 18.1087 27.784C18.2245 28.1455 18.5386 28.2308 18.773 28.1942C19.0073 28.1576 19.2806 27.9805 19.2806 27.6017C19.2784 27.4491 19.3066 27.2976 19.3635 27.1559C19.4204 27.0143 19.5049 26.8854 19.612 26.7767C19.8354 26.5546 20.1375 26.4298 20.4525 26.4294C20.6357 26.4294 20.8163 26.4734 20.9789 26.5578C21.1416 26.6421 21.2816 26.7643 21.3872 26.914C21.4574 27.0191 21.5604 27.098 21.68 27.1386C21.7997 27.1792 21.9294 27.1792 22.0491 27.1386C22.2633 27.0692 22.4794 26.8705 22.4794 26.5826C22.4788 26.5121 22.4669 26.4422 22.4442 26.3755C22.3853 26.2024 22.3687 26.0177 22.3959 25.8369C22.4231 25.6561 22.4932 25.4844 22.6003 25.3362C22.709 25.185 22.8519 25.0617 23.0174 24.9762C23.1828 24.8908 23.3661 24.8456 23.5523 24.8445C23.7987 24.8458 24.0383 24.926 24.2358 25.0733C24.3212 25.1419 24.4247 25.1842 24.5337 25.1951C24.6427 25.206 24.7525 25.185 24.8498 25.1347C24.9519 25.0838 25.0383 25.0062 25.0999 24.9103C25.1615 24.8143 25.1961 24.7035 25.2 24.5895C25.198 24.4608 25.1544 24.3361 25.0758 24.2342C24.9465 24.063 24.8684 23.8587 24.8503 23.645C24.8322 23.4312 24.875 23.2167 24.9736 23.0262C25.0685 22.8335 25.2153 22.671 25.3975 22.5571C25.5796 22.4431 25.79 22.3822 26.0048 22.3812C26.1323 22.3814 26.2589 22.4022 26.3798 22.4426C26.467 22.4757 26.5609 22.4865 26.6533 22.4743C26.7457 22.462 26.8336 22.427 26.9091 22.3723C26.9901 22.3128 27.0561 22.2352 27.1019 22.1457C27.1477 22.0562 27.172 21.9572 27.173 21.8567C27.1726 21.7636 27.1492 21.6721 27.1048 21.5902C27.0604 21.5084 26.9963 21.4389 26.9184 21.388C26.7183 21.2446 26.5689 21.0415 26.4915 20.8079C26.4142 20.5742 26.413 20.3221 26.4881 20.0877C26.5632 19.8533 26.7107 19.6488 26.9094 19.5035C27.1081 19.3583 27.3478 19.2799 27.5939 19.2795C27.6727 19.2827 27.7514 19.2699 27.8252 19.242C27.899 19.214 27.9663 19.1715 28.0233 19.1169C28.1401 18.9971 28.2048 18.836 28.2033 18.6687C28.2056 18.5419 28.1658 18.4179 28.0902 18.3161C28.0145 18.2144 27.9072 18.1405 27.7852 18.1062C27.5504 18.0311 27.3456 17.8834 27.2002 17.6843C27.0549 17.4852 26.9766 17.2451 26.9766 16.9986C26.9766 16.7521 27.0549 16.512 27.2002 16.3129C27.3456 16.1138 27.5504 15.966 27.7852 15.8909C28.1466 15.7751 28.2319 15.4606 28.1953 15.2267C28.1587 14.9928 27.9816 14.7186 27.6028 14.7186C27.3576 14.7202 27.1182 14.6443 26.9187 14.5017C26.7193 14.3591 26.57 14.157 26.4923 13.9245C26.4146 13.6919 26.4125 13.4407 26.4861 13.2068C26.5598 12.973 26.7055 12.7684 26.9025 12.6223C26.9066 12.6186 26.9109 12.6153 26.9156 12.6125C27.0205 12.5421 27.0993 12.4392 27.1398 12.3195C27.1803 12.1999 27.1803 12.0702 27.1397 11.9506C27.0703 11.7364 26.8716 11.5198 26.5837 11.5198C26.5133 11.5207 26.4434 11.5325 26.3766 11.555C26.2035 11.6141 26.0188 11.6308 25.838 11.6037C25.6572 11.5766 25.4855 11.5065 25.3373 11.3994C25.1862 11.2906 25.0628 11.1477 24.9774 10.9823C24.8919 10.8168 24.8468 10.6335 24.8456 10.4473C24.847 10.2008 24.9271 9.96115 25.0744 9.76342C25.1432 9.67824 25.1857 9.57479 25.1966 9.46579C25.2076 9.35679 25.1864 9.24698 25.1358 9.14983C25.0849 9.04773 25.0074 8.96126 24.9114 8.89955C24.8155 8.83784 24.7046 8.80317 24.5906 8.7992C24.4618 8.80136 24.3372 8.8451 24.2353 8.92389C24.0641 9.05312 23.8598 9.13129 23.6461 9.14937C23.4323 9.16745 23.2178 9.12471 23.0273 9.02608C22.8346 8.93116 22.6721 8.78437 22.5582 8.6022C22.4442 8.42003 22.3833 8.20969 22.3823 7.99483C22.3825 7.86734 22.4033 7.74072 22.4437 7.61983C22.4766 7.53269 22.4874 7.43878 22.4752 7.34646C22.463 7.25413 22.4282 7.16625 22.3739 7.09061C22.3143 7.00962 22.2367 6.94358 22.1472 6.89771C22.0577 6.85183 21.9588 6.82736 21.8583 6.82624C21.7652 6.82682 21.6737 6.8504 21.5919 6.89489C21.5101 6.93938 21.4406 7.00339 21.3895 7.08124C21.2464 7.2819 21.0433 7.43191 20.8094 7.50964C20.5755 7.58736 20.323 7.58878 20.0883 7.51368C19.8535 7.43858 19.6487 7.29085 19.5034 7.0918C19.3581 6.89276 19.2797 6.65269 19.2797 6.40624V6.40155C19.2797 6.02186 19.0078 5.84327 18.773 5.80624C18.5381 5.7692 18.2236 5.85311 18.1078 6.21592C18.0324 6.45045 17.8846 6.65501 17.6855 6.80012C17.4865 6.94524 17.2465 7.02343 17.0002 7.02343C16.7538 7.02343 16.5138 6.94524 16.3148 6.80012C16.1157 6.65501 15.9679 6.45045 15.8925 6.21592C15.7767 5.85452 15.4627 5.7692 15.2283 5.80577C14.9939 5.84233 14.7202 6.01952 14.7202 6.3978C14.7226 6.55052 14.6946 6.70219 14.6377 6.84394C14.5807 6.98568 14.4961 7.11464 14.3887 7.22327C14.1653 7.44518 13.8632 7.56985 13.5483 7.57014C13.3651 7.57017 13.1846 7.52615 13.022 7.4418C12.8594 7.35744 12.7195 7.23522 12.6141 7.08545C12.5437 6.98056 12.4407 6.90177 12.3211 6.86127C12.2014 6.82077 12.0718 6.82081 11.9522 6.86139C11.738 6.93077 11.5214 7.12905 11.5214 7.41686C11.5222 7.48749 11.534 7.55756 11.5566 7.62452C11.6156 7.79755 11.6324 7.98224 11.6053 8.16307C11.5782 8.34391 11.5081 8.5156 11.4009 8.66374C11.2921 8.81477 11.1492 8.93798 10.9837 9.02334C10.8183 9.1087 10.6351 9.15381 10.4489 9.15499C10.2024 9.15382 9.96277 9.07383 9.765 8.9267C9.67981 8.85783 9.57636 8.81533 9.46736 8.80443C9.35836 8.79352 9.24855 8.81467 9.1514 8.8653C9.04937 8.91616 8.96295 8.9936 8.90124 9.08946C8.83953 9.18532 8.80483 9.29605 8.80078 9.40999C8.80287 9.53893 8.84661 9.66373 8.92546 9.76577C9.05469 9.93698 9.13286 10.1413 9.15094 10.355C9.16903 10.5687 9.12628 10.7832 9.02765 10.9737C8.93262 11.1664 8.78579 11.3287 8.60364 11.4426C8.42148 11.5564 8.21121 11.6173 7.9964 11.6183C7.86894 11.6182 7.74232 11.5977 7.6214 11.5573C7.26093 11.4387 7.00687 11.6436 6.89906 11.8555C6.79125 12.0673 6.77484 12.3926 7.08281 12.6148C7.08748 12.6177 7.09188 12.621 7.09593 12.6247C7.29175 12.7703 7.43678 12.9739 7.51046 13.2065C7.58414 13.4391 7.58274 13.6891 7.50645 13.9209C7.43017 14.1527 7.28288 14.3546 7.08544 14.498C6.888 14.6415 6.65043 14.7191 6.4064 14.72C6.32753 14.7162 6.24872 14.7287 6.17492 14.7568C6.10111 14.7848 6.0339 14.8278 5.9775 14.8831C5.8606 15.0027 5.79573 15.1636 5.79703 15.3308C5.79679 15.4217 5.8168 15.5115 5.85562 15.5937C5.88751 15.6608 5.8916 15.7377 5.86698 15.8078C5.84236 15.8778 5.79104 15.9353 5.72422 15.9677C5.65739 16 5.58048 16.0047 5.51026 15.9805C5.44003 15.9564 5.3822 15.9055 5.34937 15.8389C5.27375 15.6802 5.23452 15.5066 5.23453 15.3308C5.23384 15.0151 5.35764 14.712 5.57906 14.487C5.6875 14.3801 5.81624 14.296 5.95768 14.2397C6.09913 14.1833 6.25042 14.1559 6.40265 14.1589C6.52989 14.1596 6.65408 14.1199 6.75726 14.0454C6.86044 13.971 6.93728 13.8656 6.97667 13.7446C7.01606 13.6237 7.01597 13.4933 6.9764 13.3723C6.93684 13.2514 6.85985 13.1462 6.75656 13.0719L6.74343 13.062C6.52159 12.8974 6.36559 12.6591 6.30339 12.39C6.24119 12.1208 6.27685 11.8383 6.40397 11.593C6.5311 11.3477 6.74139 11.1557 6.99718 11.0513C7.25298 10.947 7.53757 10.9371 7.8 11.0234C7.86374 11.0449 7.93054 11.056 7.99781 11.0562C8.10851 11.0545 8.21654 11.0221 8.30984 10.9624C8.40314 10.9028 8.47801 10.8185 8.52609 10.7187C8.57707 10.6208 8.59903 10.5103 8.5894 10.4003C8.57976 10.2902 8.53894 10.1853 8.47171 10.0976C8.3221 9.89919 8.23996 9.65804 8.23734 9.40952C8.24075 9.19182 8.30371 8.97922 8.4194 8.79478C8.53509 8.61033 8.69909 8.4611 8.89359 8.36327C9.08363 8.26653 9.29712 8.22542 9.50949 8.24466C9.72187 8.2639 9.92449 8.34271 10.0941 8.47202C10.1952 8.54903 10.3185 8.59114 10.4456 8.59202C10.5428 8.59042 10.6382 8.56621 10.7244 8.52129C10.8106 8.47638 10.8851 8.412 10.942 8.33327C10.9972 8.25727 11.033 8.16899 11.0464 8.07605C11.0598 7.98311 11.0503 7.88831 11.0189 7.79983C10.9777 7.67615 10.9564 7.54674 10.9556 7.41639C10.9556 6.92233 11.2837 6.48405 11.7759 6.32561C12.2681 6.16717 12.7603 6.33217 13.0669 6.75639C13.1203 6.83384 13.1917 6.89714 13.275 6.94083C13.3583 6.98452 13.4509 7.00729 13.545 7.00717C13.7105 7.0074 13.8694 6.94219 13.987 6.82577C14.0419 6.77031 14.0849 6.70437 14.1137 6.63188C14.1424 6.55939 14.1563 6.48185 14.1544 6.40389V6.39686C14.1545 6.11955 14.2537 5.8514 14.4341 5.64079C14.6145 5.43017 14.8642 5.29096 15.1382 5.24825C15.4122 5.20554 15.6925 5.26216 15.9284 5.40787C16.1644 5.55359 16.3405 5.77883 16.425 6.04295C16.464 6.16391 16.5404 6.26936 16.6432 6.34417C16.7459 6.41897 16.8698 6.45927 16.9969 6.45927C17.124 6.45927 17.2478 6.41897 17.3506 6.34417C17.4533 6.26936 17.5297 6.16391 17.5687 6.04295C17.6537 5.77872 17.8303 5.55357 18.0667 5.40817C18.3031 5.26278 18.5837 5.20672 18.8579 5.25014C19.132 5.29355 19.3815 5.43357 19.5615 5.6449C19.7414 5.85623 19.8398 6.12494 19.8389 6.40249C19.8386 6.52964 19.8786 6.65361 19.9533 6.75656C20.0279 6.85951 20.1332 6.93614 20.2542 6.97543C20.3751 7.01471 20.5054 7.01463 20.6263 6.97519C20.7471 6.93574 20.8524 6.85897 20.9269 6.75592C21.0302 6.60471 21.1689 6.481 21.3309 6.39556C21.4929 6.31011 21.6733 6.2655 21.8564 6.26561C22.0461 6.26699 22.2328 6.31263 22.4018 6.39889C22.5707 6.48515 22.7172 6.60965 22.8295 6.76249C22.9362 6.91018 23.0055 7.08159 23.0313 7.26196C23.0571 7.44233 23.0387 7.62627 22.9777 7.79795C22.9564 7.86175 22.9453 7.92851 22.9448 7.99577C22.9462 8.10667 22.9784 8.21502 23.0378 8.30865C23.0973 8.40229 23.1816 8.47753 23.2814 8.52592C23.3794 8.5769 23.4899 8.59886 23.5999 8.58923C23.7099 8.5796 23.8149 8.53877 23.9025 8.47155C24.1008 8.32194 24.3418 8.2398 24.5902 8.23717C24.8079 8.2405 25.0206 8.30342 25.2052 8.41912C25.3897 8.53481 25.539 8.69885 25.6369 8.89342C25.7336 9.08346 25.7747 9.29695 25.7555 9.50933C25.7362 9.7217 25.6574 9.92433 25.5281 10.0939C25.451 10.195 25.4087 10.3183 25.4077 10.4455C25.4093 10.5426 25.4336 10.638 25.4785 10.7242C25.5234 10.8103 25.5877 10.8849 25.6664 10.9419C25.7425 10.997 25.8309 11.0328 25.9239 11.0462C26.0169 11.0596 26.1117 11.0501 26.2003 11.0187C26.3238 10.9776 26.4531 10.9563 26.5833 10.9555C27.0778 10.9555 27.5161 11.2836 27.6745 11.7758C27.7539 12.0065 27.7562 12.2567 27.6809 12.4888C27.6057 12.7209 27.457 12.9223 27.2573 13.0625L27.2442 13.0723C27.141 13.1466 27.064 13.2518 27.0244 13.3727C26.9848 13.4936 26.9847 13.6239 27.024 13.7449C27.0634 13.8659 27.1401 13.9712 27.2432 14.0457C27.3463 14.1202 27.4704 14.16 27.5977 14.1594H27.6028C27.8801 14.1595 28.1483 14.2587 28.3589 14.4391C28.5695 14.6195 28.7087 14.8692 28.7514 15.1432C28.7941 15.4172 28.7375 15.6975 28.5918 15.9334C28.4461 16.1694 28.2208 16.3455 27.9567 16.43C27.8355 16.4688 27.7298 16.5451 27.6548 16.6479C27.5798 16.7507 27.5393 16.8746 27.5393 17.0019C27.5393 17.1291 27.5798 17.2531 27.6548 17.3559C27.7298 17.4586 27.8355 17.5349 27.9567 17.5737C28.4559 17.7336 28.7658 18.154 28.7658 18.6706C28.7673 18.9872 28.6434 19.2916 28.4212 19.5172C28.3133 19.6248 28.1847 19.7094 28.0431 19.7658C27.9016 19.8222 27.75 19.8492 27.5977 19.8453C27.4705 19.845 27.3465 19.885 27.2436 19.9597C27.1406 20.0343 27.064 20.1396 27.0247 20.2606C26.9854 20.3815 26.9855 20.5118 27.025 20.6327C27.0644 20.7535 27.1412 20.8588 27.2442 20.9333C27.3947 21.0358 27.518 21.1734 27.6034 21.3342C27.6888 21.495 27.7338 21.6742 27.7345 21.8562C27.733 22.0458 27.6873 22.2325 27.6012 22.4014C27.515 22.5703 27.3907 22.7168 27.2381 22.8294C27.0904 22.9361 26.919 23.0053 26.7386 23.0311C26.5583 23.0569 26.3743 23.0385 26.2027 22.9775C26.1387 22.9562 26.0718 22.9451 26.0044 22.9447C25.8934 22.9459 25.7851 22.978 25.6914 23.0375C25.5977 23.097 25.5225 23.1814 25.4742 23.2812C25.4231 23.3792 25.4011 23.4897 25.4107 23.5997C25.4204 23.7098 25.4613 23.8148 25.5286 23.9023C25.6782 24.1006 25.7604 24.3416 25.763 24.59C25.7595 24.808 25.6963 25.0209 25.5802 25.2055C25.464 25.3901 25.2994 25.5392 25.1044 25.6367C24.9144 25.7335 24.7009 25.7746 24.4886 25.7553C24.2763 25.736 24.0737 25.657 23.9044 25.5275C23.8032 25.4507 23.6799 25.4086 23.5528 25.4075C23.4556 25.4092 23.3602 25.4335 23.274 25.4785C23.1879 25.5235 23.1134 25.5879 23.0564 25.6667C23.0013 25.7427 22.9655 25.831 22.952 25.9239C22.9385 26.0168 22.9478 26.1116 22.9791 26.2001C23.0205 26.3236 23.0418 26.4529 23.0423 26.5831C23.0423 27.0776 22.7142 27.5159 22.2225 27.6744C21.7308 27.8328 21.2381 27.6678 20.9316 27.2436C20.8781 27.166 20.8066 27.1027 20.7233 27.0589C20.6399 27.0151 20.5471 26.9923 20.453 26.9923C20.2874 26.9925 20.1286 27.0578 20.0109 27.1742C19.9562 27.2297 19.9132 27.2957 19.8844 27.3682C19.8557 27.4406 19.8418 27.5181 19.8436 27.5961V27.6012C19.8431 27.8783 19.7438 28.1461 19.5634 28.3564C19.383 28.5667 19.1335 28.7057 18.8598 28.7484C18.586 28.7911 18.306 28.7346 18.0702 28.5892C17.8344 28.4438 17.6582 28.2189 17.5734 27.9551C17.5346 27.834 17.4583 27.7282 17.3556 27.6532C17.2528 27.5782 17.1288 27.5378 17.0016 27.5378C16.8743 27.5378 16.7504 27.5782 16.6476 27.6532C16.5448 27.7282 16.4685 27.834 16.4297 27.9551C16.2684 28.4558 15.848 28.7656 15.3309 28.7656Z" fill="#1D71A0"/>
<path d="M6.74117 17.3071H6.72524C6.65077 17.303 6.58099 17.2695 6.53124 17.2139C6.48149 17.1584 6.45583 17.0853 6.45992 17.0109V17.0001C6.46032 16.9059 6.43915 16.8129 6.39805 16.7282C6.36511 16.6613 6.3601 16.584 6.38415 16.5133C6.40819 16.4427 6.45931 16.3845 6.52625 16.3516C6.5932 16.3186 6.67049 16.3136 6.74113 16.3377C6.81176 16.3617 6.86995 16.4128 6.90289 16.4798C6.98175 16.6419 7.02263 16.8198 7.02242 17.0001V17.0418C7.01835 17.1136 6.98693 17.1811 6.93462 17.2305C6.88231 17.2798 6.81309 17.3072 6.74117 17.3071ZM15.6512 25.9907C15.5896 25.9907 15.5287 25.9785 15.4719 25.9547C15.415 25.931 15.3635 25.8962 15.3202 25.8524L15.3165 25.8487C14.8464 25.3817 14.211 25.119 13.5484 25.1179C13.4164 25.1181 13.2846 25.1284 13.1541 25.1488C13.0573 25.1646 12.958 25.149 12.8706 25.1045C12.7832 25.06 12.7123 24.9889 12.668 24.9013C12.6089 24.7851 12.5407 24.6736 12.4641 24.5681C12.2701 24.3009 12.0253 24.0747 11.7438 23.9021C11.4623 23.7296 11.1496 23.6142 10.8235 23.5626C10.7262 23.5478 10.6361 23.5022 10.5665 23.4325C10.497 23.3629 10.4515 23.2728 10.4368 23.1754C10.375 22.7841 10.2215 22.413 9.98884 22.0924C9.75616 21.7719 9.45091 21.5109 9.09805 21.3309C9.01037 21.2865 8.93905 21.2154 8.89439 21.1279C8.84974 21.0403 8.83406 20.9409 8.84961 20.8438C8.91209 20.4538 8.88091 20.0544 8.75866 19.6788C8.63641 19.3031 8.42658 18.962 8.14649 18.6834C8.076 18.6139 8.0296 18.5237 8.01408 18.4259C7.99856 18.3281 8.01473 18.228 8.06024 18.1401C8.24091 17.7881 8.33515 17.3981 8.33515 17.0024C8.33515 16.6068 8.24091 16.2168 8.06024 15.8648C8.01453 15.777 7.99819 15.6768 8.01363 15.579C8.02907 15.4812 8.07547 15.391 8.14602 15.3215C8.4262 15.043 8.6361 14.7018 8.75836 14.3261C8.88062 13.9505 8.91174 13.5511 8.84914 13.161C8.83295 13.0636 8.84837 12.9635 8.89316 12.8754C8.93795 12.7874 9.00975 12.716 9.09805 12.6717C9.45137 12.4915 9.75699 12.2302 9.98986 11.9092C10.2227 11.5882 10.3762 11.2166 10.4377 10.8248C10.4526 10.7275 10.4981 10.6374 10.5676 10.5678C10.6372 10.4982 10.7272 10.4525 10.8245 10.4376C11.1506 10.3859 11.4633 10.2706 11.7448 10.098C12.0263 9.92552 12.271 9.69924 12.4651 9.43212C12.5417 9.32655 12.6099 9.21511 12.669 9.09884C12.7133 9.01106 12.7845 8.9397 12.8722 8.89511C12.9598 8.85052 13.0594 8.83502 13.1565 8.85087C13.5473 8.91324 13.9473 8.88202 14.3237 8.7598C14.7 8.63757 15.0421 8.42781 15.3216 8.14775C15.3911 8.07685 15.4815 8.03008 15.5796 8.0143C15.6776 7.99853 15.7781 8.01458 15.8663 8.06009C16.218 8.2403 16.6074 8.33428 17.0026 8.33428C17.3977 8.33428 17.7872 8.2403 18.1388 8.06009C18.2269 8.01461 18.3271 7.99849 18.425 8.01409C18.5228 8.0297 18.6131 8.0762 18.6826 8.14681C18.9622 8.42579 19.3039 8.6346 19.6798 8.75615C20.0556 8.87771 20.4549 8.90856 20.8449 8.84619C20.9418 8.83065 21.041 8.8463 21.1284 8.89088C21.2158 8.93545 21.2867 9.00663 21.331 9.09415C21.3901 9.21042 21.4583 9.32186 21.5349 9.42744C21.729 9.69455 21.9737 9.92084 22.2552 10.0934C22.5367 10.2659 22.8495 10.3813 23.1755 10.4329C23.2728 10.4479 23.3628 10.4935 23.4324 10.5631C23.5019 10.6328 23.5474 10.7228 23.5623 10.8201C23.624 11.2114 23.7775 11.5825 24.0102 11.9031C24.2429 12.2236 24.5482 12.4846 24.901 12.6646C24.9893 12.709 25.0611 12.7804 25.106 12.8684C25.1508 12.9564 25.1664 13.0565 25.1504 13.154C25.0879 13.5441 25.1191 13.9434 25.2413 14.319C25.3636 14.6947 25.5734 15.0359 25.8535 15.3145C25.924 15.384 25.9704 15.4742 25.9859 15.5719C26.0014 15.6697 25.9853 15.7698 25.9398 15.8577C25.7591 16.2098 25.6649 16.5997 25.6649 16.9954C25.6649 17.3911 25.7591 17.7811 25.9398 18.1331C25.9855 18.2209 26.0018 18.321 25.9864 18.4188C25.9709 18.5166 25.9245 18.6069 25.854 18.6763C25.5738 18.9549 25.3639 19.296 25.2416 19.6717C25.1194 20.0474 25.0883 20.4467 25.1509 20.8368C25.1671 20.9343 25.1516 21.0344 25.1068 21.1224C25.0621 21.2105 24.9903 21.2819 24.902 21.3262C24.5484 21.5066 24.2427 21.7683 24.0099 22.0897C23.7771 22.4112 23.6239 22.7832 23.5627 23.1754C23.5479 23.2727 23.5024 23.3627 23.4328 23.4324C23.3633 23.502 23.2733 23.5476 23.176 23.5626C22.8499 23.6142 22.5372 23.7296 22.2557 23.9021C21.9742 24.0747 21.7294 24.3009 21.5354 24.5681C21.4588 24.6736 21.3906 24.7851 21.3315 24.9013C21.2872 24.9889 21.2163 25.06 21.1289 25.1046C21.0415 25.1492 20.9422 25.1648 20.8454 25.1493C20.4546 25.0869 20.0546 25.1182 19.6782 25.2404C19.3018 25.3626 18.9598 25.5724 18.6802 25.8524C18.6106 25.9227 18.5203 25.9688 18.4226 25.9843C18.3249 25.9997 18.2249 25.9836 18.137 25.9382C17.7853 25.758 17.3958 25.664 17.0007 25.664C16.6056 25.664 16.2161 25.758 15.8645 25.9382C15.7986 25.9725 15.7254 25.9905 15.6512 25.9907ZM17.0002 25.1024C17.4612 25.1026 17.9161 25.2069 18.331 25.4076C18.6639 25.0889 19.0644 24.8493 19.5026 24.7065C19.9408 24.5638 20.4055 24.5216 20.8623 24.5831C21.0811 24.177 21.3885 23.8255 21.7618 23.5547C22.1351 23.2838 22.5647 23.1005 23.0185 23.0184C23.1007 22.5644 23.2842 22.1348 23.5552 21.7615C23.8263 21.3882 24.178 21.0808 24.5841 20.8621C24.5214 20.4054 24.563 19.9404 24.7056 19.502C24.8482 19.0636 25.0883 18.6632 25.4077 18.3309C25.2066 17.9157 25.1021 17.4604 25.1021 16.9992C25.1021 16.5379 25.2066 16.0826 25.4077 15.6674C25.0884 15.335 24.8485 14.9345 24.706 14.4962C24.5634 14.0578 24.5219 13.5929 24.5846 13.1362C24.1785 12.9173 23.8269 12.6099 23.5558 12.2366C23.2846 11.8633 23.101 11.4338 23.0185 10.9799C22.5647 10.8978 22.1351 10.7145 21.7618 10.4436C21.3885 10.1728 21.0811 9.82126 20.8623 9.41525C20.7257 9.43362 20.588 9.44286 20.4502 9.4429C19.6601 9.44128 18.9008 9.13621 18.3291 8.59072C17.9143 8.79155 17.4593 8.89587 16.9984 8.89587C16.5374 8.89587 16.0825 8.79155 15.6676 8.59072C15.0959 9.13617 14.3366 9.44123 13.5465 9.4429C13.4087 9.44286 13.271 9.43362 13.1345 9.41525C12.9156 9.82126 12.6082 10.1728 12.2349 10.4436C11.8616 10.7145 11.4321 10.8978 10.9782 10.9799C10.896 11.4339 10.7126 11.8635 10.4415 12.2368C10.1705 12.6101 9.81877 12.9175 9.41258 13.1362C9.47501 13.5929 9.43336 14.0578 9.29074 14.4962C9.14811 14.9345 8.90821 15.3349 8.58899 15.6674C8.79011 16.0826 8.89459 16.5379 8.89459 16.9992C8.89459 17.4604 8.79011 17.9157 8.58899 18.3309C8.90827 18.6633 9.14818 19.0638 9.29073 19.5021C9.43328 19.9405 9.47478 20.4054 9.41211 20.8621C9.81822 21.081 10.1699 21.3885 10.441 21.7617C10.7121 22.135 10.8957 22.5645 10.9782 23.0184C11.7568 23.1608 12.4508 23.5971 12.9165 24.2371C12.9961 24.3473 13.0684 24.4625 13.133 24.5821C13.5898 24.5206 14.0545 24.5628 14.4928 24.7056C14.931 24.8483 15.3314 25.0879 15.6643 25.4067C16.0809 25.2056 16.5377 25.1016 17.0002 25.1024Z" fill="#1D71A0"/>
<path d="M19.4976 15.9577C19.4976 15.8831 19.468 15.8115 19.4152 15.7588C19.3625 15.706 19.291 15.6764 19.2164 15.6764H17.8293V14.4713H19.2164C19.291 14.4713 19.3625 14.4416 19.4152 14.3889C19.468 14.3361 19.4976 14.2646 19.4976 14.19C19.4976 14.1154 19.468 14.0439 19.4152 13.9911C19.3625 13.9384 19.291 13.9088 19.2164 13.9088H17.8293V12.7031H19.2164C19.291 12.7031 19.3625 12.6735 19.4152 12.6207C19.468 12.568 19.4976 12.4965 19.4976 12.4219C19.4976 12.3473 19.468 12.2757 19.4152 12.223C19.3625 12.1703 19.291 12.1406 19.2164 12.1406H17.6629C17.5578 12.1407 17.4571 12.1826 17.3828 12.2569C17.3086 12.3313 17.2668 12.4321 17.2668 12.5372V15.8423C17.2668 15.9474 17.3086 16.0482 17.3828 16.1226C17.4571 16.1969 17.5578 16.2388 17.6629 16.2389H19.2164C19.291 16.2389 19.3625 16.2093 19.4152 16.1565C19.468 16.1038 19.4976 16.0322 19.4976 15.9577ZM20.2167 16.2389H21.7696C21.8442 16.2389 21.9158 16.2093 21.9685 16.1565C22.0213 16.1038 22.0509 16.0322 22.0509 15.9577C22.0509 15.8831 22.0213 15.8115 21.9685 15.7588C21.9158 15.706 21.8442 15.6764 21.7696 15.6764H20.3826V14.4713H21.7696C21.8442 14.4713 21.9158 14.4416 21.9685 14.3889C22.0213 14.3361 22.0509 14.2646 22.0509 14.19C22.0509 14.1154 22.0213 14.0439 21.9685 13.9911C21.9158 13.9384 21.8442 13.9088 21.7696 13.9088H20.3826V12.7031H21.7696C21.8442 12.7031 21.9158 12.6735 21.9685 12.6207C22.0213 12.568 22.0509 12.4965 22.0509 12.4219C22.0509 12.3473 22.0213 12.2757 21.9685 12.223C21.9158 12.1703 21.8442 12.1406 21.7696 12.1406H20.2167C20.1646 12.1406 20.113 12.1509 20.0649 12.1708C20.0168 12.1907 19.9731 12.22 19.9363 12.2568C19.8994 12.2936 19.8702 12.3373 19.8503 12.3854C19.8304 12.4335 19.8201 12.4851 19.8201 12.5372V15.8423C19.8201 15.9475 19.8619 16.0484 19.9363 16.1228C20.0106 16.1971 20.1115 16.2389 20.2167 16.2389ZM12.2306 16.2389C12.3052 16.2389 12.3767 16.2093 12.4295 16.1565C12.4822 16.1038 12.5118 16.0322 12.5118 15.9577V14.4713H13.8989C13.9735 14.4713 14.045 14.4416 14.0977 14.3889C14.1505 14.3361 14.1801 14.2646 14.1801 14.19C14.1801 14.1154 14.1505 14.0439 14.0977 13.9911C14.045 13.9384 13.9735 13.9088 13.8989 13.9088H12.5118V12.7031H13.8989C13.9735 12.7031 14.045 12.6735 14.0977 12.6207C14.1505 12.568 14.1801 12.4965 14.1801 12.4219C14.1801 12.3473 14.1505 12.2757 14.0977 12.223C14.045 12.1703 13.9735 12.1406 13.8989 12.1406H12.4101C12.2879 12.1407 12.1708 12.1893 12.0844 12.2757C11.998 12.3621 11.9495 12.4792 11.9493 12.6014V15.9577C11.9493 16.0322 11.979 16.1038 12.0317 16.1565C12.0845 16.2093 12.156 16.2389 12.2306 16.2389ZM16.9734 16.1756C17.0312 16.1285 17.0679 16.0603 17.0755 15.9862C17.083 15.912 17.0608 15.8378 17.0137 15.78L15.8418 14.3447H16.0293C16.3159 14.3363 16.588 14.2166 16.7877 14.0109C16.9875 13.8053 17.0992 13.5298 17.0992 13.2431C17.0992 12.9564 16.9875 12.681 16.7877 12.4753C16.588 12.2696 16.3159 12.1499 16.0293 12.1416H14.8973C14.8227 12.1416 14.7512 12.1712 14.6984 12.2239C14.6457 12.2767 14.6161 12.3482 14.6161 12.4228V15.9586C14.6161 16.0332 14.6457 16.1047 14.6984 16.1575C14.7512 16.2102 14.8227 16.2398 14.8973 16.2398C14.9719 16.2398 15.0434 16.2102 15.0962 16.1575C15.1489 16.1047 15.1786 16.0332 15.1786 15.9586V14.4183L16.5782 16.1353C16.6254 16.1931 16.6935 16.2298 16.7677 16.2374C16.8419 16.2449 16.9161 16.2227 16.9739 16.1756H16.9734ZM16.5726 13.2427C16.5724 13.3857 16.5154 13.5228 16.4143 13.6239C16.3132 13.725 16.1761 13.7819 16.0331 13.7822H15.1786V12.7041H16.0331C16.1759 12.7043 16.3129 12.7611 16.414 12.862C16.5151 12.963 16.5721 13.0998 16.5726 13.2427ZM19.6457 17.6217C19.6259 17.5676 19.59 17.5208 19.5427 17.4878C19.4955 17.4548 19.4392 17.4371 19.3816 17.4371C19.324 17.4371 19.2677 17.4548 19.2205 17.4878C19.1732 17.5208 19.1373 17.5676 19.1175 17.6217L17.7112 21.4823C17.684 21.5519 17.6855 21.6294 17.7154 21.6979C17.7454 21.7663 17.8013 21.82 17.8708 21.8473C17.9404 21.8745 18.0179 21.873 18.0863 21.843C18.1548 21.8131 18.2085 21.7572 18.2357 21.6877L18.7467 20.4689H20.0831L20.5223 21.6759C20.542 21.7302 20.578 21.7771 20.6253 21.8102C20.6726 21.8433 20.7289 21.8611 20.7867 21.8611C20.8195 21.8612 20.852 21.8555 20.8828 21.8442C20.9175 21.8316 20.9494 21.8123 20.9766 21.7873C21.0039 21.7624 21.026 21.7323 21.0416 21.6988C21.0572 21.6654 21.0661 21.6291 21.0677 21.5922C21.0693 21.5553 21.0637 21.5185 21.0511 21.4837L19.6457 17.6217ZM18.885 19.9064L19.3818 18.5419L19.8782 19.9064H18.885ZM17.0343 17.4366C16.9597 17.4366 16.8882 17.4662 16.8355 17.5189C16.7827 17.5717 16.7531 17.6432 16.7531 17.7178V21.5784C16.7531 21.653 16.7827 21.7246 16.8355 21.7773C16.8882 21.8301 16.9597 21.8597 17.0343 21.8597C17.1089 21.8597 17.1805 21.8301 17.2332 21.7773C17.286 21.7246 17.3156 21.653 17.3156 21.5784V17.7178C17.3156 17.6432 17.286 17.5717 17.2332 17.5189C17.1805 17.4662 17.1089 17.4366 17.0343 17.4366ZM23.0793 21.2972H21.9037C21.9011 21.2972 21.8986 21.2962 21.8968 21.2943C21.8949 21.2925 21.8939 21.29 21.8939 21.2873V17.7178C21.8939 17.6432 21.8642 17.5717 21.8115 17.5189C21.7587 17.4662 21.6872 17.4366 21.6126 17.4366C21.538 17.4366 21.4665 17.4662 21.4137 17.5189C21.361 17.5717 21.3314 17.6432 21.3314 17.7178V21.2873C21.3316 21.4391 21.392 21.5845 21.4993 21.6918C21.6066 21.7991 21.752 21.8594 21.9037 21.8597H23.0793C23.1539 21.8597 23.2255 21.8301 23.2782 21.7773C23.331 21.7246 23.3606 21.653 23.3606 21.5784C23.3606 21.5038 23.331 21.4323 23.2782 21.3796C23.2255 21.3268 23.1539 21.2972 23.0793 21.2972ZM16.312 18.6141C16.3116 18.3019 16.1874 18.0026 15.9667 17.7819C15.746 17.5611 15.4467 17.4369 15.1345 17.4366H13.8946C13.8201 17.4366 13.7485 17.4662 13.6958 17.5189C13.643 17.5717 13.6134 17.6432 13.6134 17.7178V21.5784C13.6134 21.6154 13.6207 21.6519 13.6348 21.6861C13.6489 21.7202 13.6697 21.7512 13.6958 21.7773C13.7219 21.8034 13.7529 21.8241 13.787 21.8383C13.8211 21.8524 13.8577 21.8597 13.8946 21.8597C13.9316 21.8597 13.9682 21.8524 14.0023 21.8383C14.0364 21.8241 14.0674 21.8034 14.0935 21.7773C14.1196 21.7512 14.1404 21.7202 14.1545 21.6861C14.1686 21.6519 14.1759 21.6154 14.1759 21.5784V19.8253L15.7495 21.7561C15.7971 21.8123 15.8649 21.8475 15.9382 21.8543C16.0116 21.8611 16.0846 21.8388 16.1417 21.7922C16.1988 21.7457 16.2354 21.6786 16.2435 21.6054C16.2517 21.5322 16.2309 21.4588 16.1854 21.4008L14.8729 19.7916H15.1336C15.4459 19.7914 15.7454 19.6674 15.9664 19.4466C16.1873 19.2258 16.3116 18.9264 16.312 18.6141ZM15.7495 18.6141C15.7492 18.7771 15.6844 18.9334 15.5691 19.0487C15.4538 19.1639 15.2975 19.2288 15.1345 19.2291H14.1759V17.9991H15.1345C15.2975 17.9993 15.4538 18.0642 15.5691 18.1795C15.6844 18.2947 15.7492 18.451 15.7495 18.6141ZM13.0987 17.4366H10.9209C10.8463 17.4366 10.7748 17.4662 10.722 17.5189C10.6693 17.5717 10.6396 17.6432 10.6396 17.7178C10.6396 17.7924 10.6693 17.8639 10.722 17.9167C10.7748 17.9694 10.8463 17.9991 10.9209 17.9991H11.7286V21.5784C11.7286 21.653 11.7582 21.7246 11.8109 21.7773C11.8637 21.8301 11.9352 21.8597 12.0098 21.8597C12.0844 21.8597 12.1559 21.8301 12.2087 21.7773C12.2614 21.7246 12.2911 21.653 12.2911 21.5784V17.9991H13.0987C13.1733 17.9991 13.2448 17.9694 13.2976 17.9167C13.3503 17.8639 13.38 17.7924 13.38 17.7178C13.38 17.6432 13.3503 17.5717 13.2976 17.5189C13.2448 17.4662 13.1733 17.4366 13.0987 17.4366Z" fill="#1D71A0"/>
</g>
<defs>
<clipPath id="clip0_4195_21495">
<rect width="24" height="24" fill="white" transform="translate(5 5)"/>
</clipPath>
</defs>
</svg>
