<svg width="580" height="340" viewBox="0 0 580 340" fill="none" xmlns="http://www.w3.org/2000/svg">
<path d="M290.038 339.24C449.982 339.24 579.642 269.974 579.642 184.531C579.642 99.087 449.982 29.8213 290.038 29.8213C130.093 29.8213 0.432617 99.087 0.432617 184.531C0.432617 269.974 130.093 339.24 290.038 339.24Z" fill="url(#paint0_linear_4287_6419)"/>
<mask id="mask0_4287_6419" style="mask-type:luminance" maskUnits="userSpaceOnUse" x="210" y="10" width="12" height="85">
<path d="M221.966 37.202L219.326 94.1748C216.447 85.2357 213.607 76.2966 210.727 67.3575L213.367 10.3848C216.247 19.3239 219.086 28.2629 221.966 37.202Z" fill="white"/>
</mask>
<g mask="url(#mask0_4287_6419)">
<path d="M221.966 37.202L219.326 94.1748C216.447 85.2357 213.607 76.2966 210.727 67.3575L213.367 10.3848C216.247 19.3239 219.086 28.2629 221.966 37.202Z" fill="url(#paint1_linear_4287_6419)"/>
</g>
<path d="M431.781 40.8369L429.141 97.8097L404.904 120.547L407.544 63.537L431.781 40.8369Z" fill="url(#paint2_linear_4287_6419)"/>
<path d="M142.977 92.5795L140.337 149.589L104.581 134.085L107.221 77.0752L142.977 92.5795Z" fill="url(#paint3_linear_4287_6419)"/>
<mask id="mask1_4287_6419" style="mask-type:luminance" maskUnits="userSpaceOnUse" x="487" y="122" width="4" height="66">
<path d="M490.814 122.29L488.174 179.263C488.054 181.971 487.694 184.641 487.094 187.275L489.734 130.302C490.294 127.668 490.654 124.998 490.814 122.29Z" fill="white"/>
</mask>
<g mask="url(#mask1_4287_6419)">
<path d="M490.815 122.29L488.175 179.263C488.135 180.264 488.055 181.266 487.935 182.23L490.575 125.257C490.655 124.293 490.735 123.292 490.815 122.29Z" fill="#5E6072"/>
<path d="M490.574 125.295L487.934 182.268C487.734 183.937 487.454 185.643 487.094 187.275L489.734 130.302C490.094 128.633 490.374 126.964 490.574 125.295Z" fill="#616477"/>
</g>
<path d="M203.969 180.302C204.009 179.671 204.049 179.04 204.129 178.41C204.129 178.261 204.169 178.113 204.169 177.965C204.249 177.408 204.329 176.815 204.409 176.259C204.449 176.036 204.489 175.813 204.529 175.591C204.609 175.072 204.729 174.552 204.849 174.033C204.889 173.848 204.929 173.625 205.009 173.44C205.089 173.143 205.169 172.846 205.249 172.512C205.329 172.216 205.409 171.919 205.489 171.659C205.569 171.362 205.689 171.066 205.809 170.732C205.889 170.472 206.008 170.213 206.088 169.916C206.408 169.026 206.808 168.135 207.208 167.245C207.288 167.06 207.368 166.911 207.448 166.726C207.848 165.91 208.248 165.131 208.688 164.315C208.768 164.204 208.848 164.055 208.928 163.944C209.288 163.351 209.648 162.757 210.008 162.164C210.128 161.978 210.288 161.756 210.408 161.57C210.808 160.977 211.208 160.42 211.648 159.827C211.728 159.716 211.808 159.604 211.888 159.493C212.368 158.863 212.888 158.195 213.448 157.564C213.608 157.379 213.768 157.193 213.928 157.045C214.327 156.6 214.727 156.155 215.127 155.71C215.327 155.487 215.527 155.265 215.727 155.079C216.127 154.671 216.527 154.263 216.927 153.892C217.247 153.596 217.527 153.299 217.847 153.002C218.527 152.372 219.207 151.741 219.927 151.147C220.207 150.888 220.527 150.665 220.807 150.406C221.327 149.998 221.847 149.553 222.407 149.145C222.726 148.922 223.006 148.662 223.326 148.44C223.926 147.995 224.526 147.55 225.166 147.142C225.406 146.956 225.686 146.771 225.926 146.585C226.806 145.992 227.726 145.398 228.646 144.842C228.686 144.805 228.726 144.805 228.766 144.768C229.646 144.211 230.565 143.692 231.525 143.173C231.925 142.95 232.325 142.765 232.725 142.542C233.325 142.208 233.965 141.875 234.565 141.578C235.045 141.355 235.525 141.096 236.005 140.873C236.565 140.613 237.165 140.317 237.765 140.057C238.325 139.797 238.924 139.538 239.524 139.315C240.044 139.093 240.604 138.87 241.164 138.648C241.964 138.314 242.804 138.017 243.644 137.683C244.044 137.535 244.444 137.386 244.844 137.238C246.164 136.756 247.483 136.311 248.803 135.903C249.043 135.829 249.283 135.754 249.563 135.68C250.803 135.309 252.043 134.938 253.323 134.605C253.723 134.493 254.163 134.382 254.563 134.271C256.322 133.826 258.082 133.418 259.882 133.047C260.202 132.973 260.522 132.935 260.842 132.861C261.842 132.676 262.842 132.453 263.881 132.305C264.361 132.231 264.881 132.157 265.401 132.082C266.241 131.934 267.121 131.823 267.961 131.711C268.361 131.674 268.721 131.6 269.121 131.563C270.401 131.415 271.641 131.266 272.92 131.118C273.4 131.081 273.88 131.007 274.4 130.97C275.76 130.858 277.12 130.747 278.52 130.673C278.8 130.673 279.08 130.636 279.36 130.636C280.999 130.562 282.639 130.525 284.279 130.487C284.719 130.487 285.159 130.487 285.599 130.487C286.879 130.487 288.119 130.487 289.398 130.525C289.958 130.525 290.518 130.562 291.078 130.562C291.678 130.599 292.238 130.599 292.838 130.636C293.558 130.673 294.318 130.71 295.038 130.747C295.638 130.784 296.198 130.821 296.797 130.858C297.397 130.895 297.997 130.97 298.597 131.007C299.877 131.118 301.157 131.266 302.437 131.415C302.837 131.452 303.237 131.489 303.637 131.563C305.036 131.749 306.396 131.934 307.756 132.194C307.876 132.194 307.956 132.231 308.076 132.231C309.476 132.453 310.876 132.713 312.276 133.01C312.836 133.121 313.395 133.269 313.995 133.381C314.755 133.566 315.555 133.714 316.315 133.9C317.155 134.085 317.995 134.308 318.795 134.53C319.235 134.642 319.715 134.753 320.155 134.864C321.435 135.198 322.674 135.569 323.914 135.977C323.994 136.014 324.074 136.014 324.114 136.051C325.274 136.422 326.394 136.793 327.554 137.164C327.914 137.312 328.314 137.424 328.674 137.572C329.474 137.869 330.313 138.165 331.113 138.462C331.553 138.61 331.953 138.796 332.393 138.981C333.353 139.352 334.313 139.76 335.273 140.168C336.873 140.873 338.392 141.578 339.872 142.32C339.952 142.357 340.032 142.394 340.072 142.431C341.352 143.062 342.592 143.729 343.792 144.397C344.072 144.545 344.352 144.731 344.632 144.879C345.872 145.584 347.071 146.288 348.231 147.03C348.391 147.142 348.551 147.253 348.711 147.364C349.711 147.995 350.671 148.662 351.591 149.33C351.911 149.553 352.191 149.775 352.471 149.961C353.511 150.739 354.51 151.481 355.47 152.297C355.51 152.334 355.55 152.372 355.59 152.409C356.59 153.225 357.55 154.078 358.47 154.968C358.79 155.265 359.11 155.598 359.43 155.895C360.03 156.489 360.59 157.045 361.15 157.639C361.55 158.047 361.91 158.492 362.31 158.9C362.749 159.419 363.189 159.938 363.629 160.42C364.109 161.014 364.589 161.607 365.029 162.238C365.429 162.757 365.829 163.276 366.189 163.833C366.389 164.092 366.549 164.352 366.709 164.612C367.229 165.391 367.709 166.17 368.189 166.986C368.269 167.134 368.389 167.319 368.469 167.468C368.989 168.432 369.509 169.359 369.949 170.324C370.069 170.584 370.149 170.843 370.269 171.066C370.589 171.808 370.909 172.549 371.188 173.291C371.308 173.588 371.388 173.885 371.508 174.181C371.788 175.072 372.068 175.925 372.308 176.815C372.348 176.926 372.388 177.037 372.388 177.149C372.628 178.15 372.828 179.115 372.988 180.116C373.028 180.376 373.068 180.672 373.108 180.932C373.228 181.674 373.308 182.453 373.348 183.195C373.388 183.491 373.388 183.788 373.388 184.085C373.428 185.086 373.428 186.088 373.388 187.089L376.028 130.117C376.068 129.115 376.068 128.114 376.028 127.112C376.028 126.815 375.988 126.519 375.988 126.222C375.948 125.48 375.868 124.701 375.748 123.959C375.708 123.663 375.668 123.403 375.628 123.106C375.468 122.105 375.268 121.103 375.028 120.139C374.988 120.028 374.948 119.916 374.948 119.805C374.708 118.915 374.468 118.062 374.148 117.172C374.028 116.875 373.948 116.578 373.828 116.281C373.548 115.54 373.228 114.798 372.908 114.056C372.788 113.796 372.708 113.537 372.588 113.314C372.148 112.387 371.708 111.496 371.228 110.606C371.188 110.569 371.148 110.495 371.148 110.458C371.069 110.31 370.948 110.124 370.868 109.976C370.389 109.197 369.909 108.381 369.389 107.602C369.229 107.342 369.029 107.083 368.869 106.823C368.709 106.6 368.549 106.378 368.389 106.155C368.189 105.859 367.909 105.562 367.669 105.265C367.229 104.672 366.749 104.041 366.269 103.448C366.109 103.262 365.949 103.04 365.789 102.854C365.509 102.557 365.229 102.224 364.949 101.927C364.549 101.482 364.189 101.074 363.789 100.666C363.629 100.48 363.469 100.295 363.269 100.109C362.869 99.7014 362.47 99.3304 362.07 98.9224C361.75 98.6257 361.43 98.2919 361.11 97.9951C360.99 97.8839 360.91 97.7726 360.79 97.6613C359.99 96.9195 359.15 96.1777 358.27 95.4729C358.27 95.4729 358.27 95.4729 358.23 95.4358C358.19 95.3987 358.15 95.3616 358.11 95.3616C357.35 94.7311 356.55 94.1005 355.75 93.5071C355.55 93.3587 355.31 93.1732 355.07 93.0248C354.79 92.8023 354.471 92.5798 354.191 92.3943C353.831 92.1347 353.511 91.9121 353.191 91.6525C352.591 91.2445 351.951 90.8365 351.311 90.3913C351.151 90.2801 350.991 90.1688 350.831 90.0575C350.751 90.0204 350.711 89.9834 350.631 89.9463C349.751 89.3899 348.871 88.8706 347.951 88.3142C347.711 88.1659 347.471 88.0546 347.231 87.9062C346.951 87.7579 346.671 87.5724 346.391 87.424C345.992 87.2015 345.632 86.9789 345.232 86.7935C344.392 86.3484 343.552 85.9033 342.672 85.4953C342.592 85.4582 342.512 85.4211 342.472 85.384C342.432 85.384 342.432 85.3469 342.392 85.3469C341.432 84.8647 340.432 84.4196 339.472 83.9374C338.952 83.7148 338.432 83.4552 337.872 83.2327C337.393 83.0101 336.873 82.8247 336.393 82.6021C335.953 82.4166 335.473 82.2312 334.993 82.0457C334.553 81.8603 334.153 81.7119 333.713 81.5264C333.553 81.4523 333.353 81.3781 333.193 81.341C332.553 81.1184 331.913 80.8959 331.273 80.6363C330.873 80.4879 330.513 80.3395 330.113 80.2282C330.033 80.1911 329.953 80.1541 329.873 80.1541C328.834 79.7831 327.754 79.4493 326.674 79.1155C326.594 79.0784 326.514 79.0784 326.474 79.0413C325.274 78.6704 324.074 78.2995 322.834 77.9656C322.794 77.9656 322.754 77.9286 322.714 77.9286C322.234 77.8173 321.794 77.706 321.314 77.5576C320.555 77.3722 319.835 77.1496 319.075 76.9642C318.995 76.9642 318.955 76.9271 318.875 76.9271C318.115 76.7416 317.315 76.5933 316.555 76.4078C316.035 76.2965 315.515 76.1853 314.995 76.074C314.955 76.074 314.915 76.074 314.835 76.0369C313.435 75.7402 312.036 75.4805 310.636 75.258C310.636 75.258 310.636 75.258 310.596 75.258C310.516 75.258 310.396 75.2209 310.316 75.2209C308.956 74.9983 307.556 74.7758 306.196 74.5903C306.076 74.5903 305.956 74.5532 305.836 74.5532C305.556 74.5161 305.276 74.479 304.957 74.4419C303.677 74.2936 302.397 74.1452 301.117 74.0339C300.837 73.9968 300.597 73.9598 300.317 73.9598C299.957 73.9227 299.637 73.9227 299.277 73.8856C298.677 73.8485 298.117 73.8114 297.517 73.7743C296.797 73.7372 296.038 73.7001 295.318 73.663C294.758 73.6259 294.158 73.5889 293.598 73.5889C293.318 73.5889 293.038 73.5517 292.758 73.5517C292.478 73.5517 292.198 73.5517 291.918 73.5517C290.638 73.5146 289.398 73.5146 288.119 73.5146C287.679 73.5146 287.239 73.5146 286.799 73.5146C285.159 73.5517 283.519 73.5888 281.879 73.663C281.599 73.663 281.319 73.7001 281.079 73.7001C279.68 73.7743 278.32 73.8856 276.96 73.9969C276.48 74.0339 276 74.0711 275.48 74.1452C274.2 74.2565 272.92 74.4049 271.681 74.5903C271.401 74.6274 271.121 74.6645 270.881 74.6645C270.761 74.6645 270.641 74.7016 270.561 74.7016C269.681 74.8129 268.841 74.9612 268.001 75.1096C267.481 75.1838 267.001 75.258 266.481 75.3321C265.481 75.5176 264.441 75.7031 263.442 75.8885C263.122 75.9627 262.842 75.9998 262.522 76.074H262.482C260.682 76.4449 258.922 76.8529 257.162 77.298C256.962 77.3351 256.722 77.4093 256.522 77.4464C256.322 77.4834 256.122 77.5576 255.922 77.6318C254.643 77.9656 253.403 78.3366 252.163 78.7075C251.963 78.7817 251.763 78.8188 251.563 78.8929C251.523 78.8929 251.443 78.93 251.403 78.93C250.043 79.338 248.723 79.7832 247.443 80.2654C247.403 80.3024 247.323 80.3024 247.283 80.3395C246.924 80.4508 246.604 80.5992 246.284 80.7475C245.444 81.0443 244.604 81.3781 243.804 81.7119C243.684 81.749 243.564 81.7861 243.444 81.8603C243.004 82.0457 242.604 82.2312 242.204 82.4166C241.604 82.6763 241.044 82.8988 240.444 83.1585C240.324 83.2327 240.164 83.2698 240.044 83.3439C239.604 83.5665 239.164 83.7891 238.724 83.9745C238.245 84.1971 237.765 84.4196 237.285 84.6792C237.165 84.7163 237.045 84.7905 236.965 84.8276C236.445 85.0872 235.965 85.384 235.445 85.6436C235.045 85.8662 234.645 86.0516 234.245 86.2742C234.165 86.3113 234.085 86.3484 234.045 86.3855C233.205 86.8677 232.365 87.3499 231.525 87.8691C231.485 87.9062 231.445 87.9062 231.405 87.9433C230.526 88.4626 229.686 89.019 228.886 89.5754C228.806 89.6124 228.766 89.6866 228.686 89.7237C228.446 89.9092 228.166 90.0946 227.926 90.243C227.446 90.5768 226.966 90.8736 226.526 91.2074C226.366 91.3187 226.246 91.4299 226.086 91.5412C225.766 91.7637 225.486 91.9863 225.166 92.2459C224.846 92.4685 224.566 92.691 224.246 92.9507C224.006 93.1361 223.806 93.3216 223.566 93.5071C223.286 93.7667 222.966 93.9892 222.686 94.2489C222.486 94.3973 222.286 94.5827 222.127 94.7311C221.607 95.1762 221.087 95.6213 220.607 96.1035C220.447 96.2518 220.247 96.4373 220.087 96.5857C219.967 96.734 219.807 96.8453 219.687 96.9937C219.287 97.4017 218.887 97.8097 218.487 98.1806C218.367 98.2919 218.247 98.4032 218.127 98.5144C218.047 98.6257 217.967 98.6999 217.847 98.8112C217.447 99.2563 217.047 99.7014 216.647 100.146C216.527 100.295 216.407 100.406 216.287 100.554C216.247 100.592 216.207 100.666 216.167 100.703C215.647 101.333 215.127 101.964 214.607 102.632C214.607 102.669 214.567 102.669 214.567 102.706C214.487 102.78 214.447 102.891 214.407 102.965C213.968 103.559 213.568 104.115 213.168 104.709C213.088 104.82 213.048 104.894 212.968 105.005C212.888 105.117 212.848 105.228 212.768 105.339C212.368 105.933 212.008 106.526 211.648 107.12C211.608 107.231 211.528 107.305 211.488 107.416C211.488 107.454 211.448 107.491 211.448 107.491C211.008 108.27 210.568 109.086 210.208 109.902C210.168 109.976 210.128 110.087 210.088 110.161C210.048 110.235 210.008 110.347 209.968 110.421C209.568 111.311 209.168 112.201 208.848 113.091C208.848 113.129 208.808 113.166 208.808 113.203C208.728 113.425 208.648 113.648 208.568 113.87C208.448 114.167 208.368 114.501 208.248 114.798C208.168 115.094 208.088 115.354 208.008 115.651C207.928 115.947 207.848 116.281 207.768 116.578C207.768 116.652 207.728 116.726 207.728 116.764C207.688 116.912 207.688 117.023 207.648 117.172C207.528 117.691 207.408 118.21 207.328 118.766C207.288 118.989 207.248 119.212 207.208 119.434C207.128 119.991 207.048 120.547 206.968 121.14C206.968 121.252 206.928 121.363 206.928 121.474C206.928 121.511 206.928 121.548 206.928 121.585C206.848 122.216 206.808 122.847 206.768 123.477L203.969 180.302Z" fill="url(#paint4_linear_4287_6419)"/>
<mask id="mask2_4287_6419" style="mask-type:luminance" maskUnits="userSpaceOnUse" x="444" y="130" width="46" height="63">
<path d="M489.694 130.302L487.054 187.275C473.016 188.832 458.898 190.427 444.78 192.022L447.419 135.05C461.538 133.455 475.656 131.86 489.694 130.302Z" fill="white"/>
</mask>
<g mask="url(#mask2_4287_6419)">
<path d="M489.694 130.302L487.054 187.275C473.016 188.832 458.898 190.427 444.78 192.022L447.419 135.05C461.538 133.455 475.656 131.86 489.694 130.302Z" fill="url(#paint5_linear_4287_6419)"/>
</g>
<path d="M446.579 141.467C446.339 142.765 446.059 144.026 445.739 145.287C445.619 145.806 445.459 146.289 445.339 146.808C445.179 147.364 445.019 147.921 444.859 148.477C444.699 148.996 444.499 149.516 444.339 150.072C444.139 150.628 443.979 151.185 443.779 151.741C443.539 152.409 443.259 153.076 443.019 153.744C442.899 154.078 442.779 154.412 442.619 154.708C442.219 155.71 441.779 156.711 441.299 157.713C441.179 157.972 441.019 158.232 440.899 158.529C440.499 159.308 440.139 160.124 439.699 160.903L437.06 217.875C437.62 216.837 438.14 215.761 438.66 214.686C439.14 213.684 439.58 212.683 439.979 211.681C440.099 211.347 440.219 211.013 440.379 210.717C440.579 210.197 440.819 209.678 441.019 209.122C441.059 208.973 441.099 208.825 441.179 208.714C441.379 208.157 441.579 207.601 441.739 207.045C441.899 206.525 442.099 206.006 442.259 205.45C442.419 204.893 442.579 204.337 442.739 203.781C442.859 203.373 442.979 202.965 443.099 202.594C443.139 202.482 443.139 202.371 443.179 202.26C443.499 200.999 443.779 199.701 444.019 198.439C444.059 198.254 444.059 198.106 444.099 197.92C444.299 196.807 444.459 195.695 444.579 194.582C444.579 194.434 444.619 194.248 444.659 194.1C444.739 193.395 444.819 192.69 444.859 191.985L447.499 135.013C447.419 135.866 447.339 136.719 447.219 137.609C447.099 138.722 446.939 139.835 446.739 140.947C446.619 141.133 446.619 141.318 446.579 141.467Z" fill="url(#paint6_linear_4287_6419)"/>
<mask id="mask3_4287_6419" style="mask-type:luminance" maskUnits="userSpaceOnUse" x="106" y="168" width="46" height="62">
<path d="M151.815 168.024L149.175 224.997C134.937 226.592 120.699 228.187 106.421 229.782L109.06 172.809C123.299 171.214 137.577 169.619 151.815 168.024Z" fill="white"/>
</mask>
<g mask="url(#mask3_4287_6419)">
<path d="M151.815 168.024L149.175 224.997C134.937 226.592 120.699 228.187 106.421 229.782L109.06 172.809C123.299 171.214 137.577 169.619 151.815 168.024Z" fill="url(#paint7_linear_4287_6419)"/>
</g>
<path d="M103.541 226.629C103.621 226.741 103.741 226.852 103.821 226.963C104.661 227.927 105.501 228.892 106.381 229.819L109.02 172.846C108.14 171.919 107.26 170.955 106.461 169.99C106.261 169.768 106.061 169.545 105.861 169.286C104.781 167.987 103.781 166.689 102.821 165.391C102.621 165.131 102.461 164.872 102.261 164.612C101.821 163.981 101.381 163.314 100.941 162.646C100.701 162.312 100.501 161.941 100.301 161.608C99.9413 161.014 99.5814 160.384 99.2214 159.79C99.0215 159.456 98.8215 159.085 98.6215 158.752C98.1816 157.973 97.7816 157.157 97.3817 156.378C97.2617 156.155 97.1417 155.895 97.0217 155.673C96.5418 154.634 96.0618 153.596 95.6619 152.557C95.5819 152.298 95.4619 152.075 95.3819 151.815C95.0619 150.999 94.782 150.183 94.502 149.367C94.382 149.033 94.262 148.7 94.182 148.366C93.9421 147.587 93.7021 146.808 93.5021 146.029C93.4221 145.732 93.3421 145.436 93.2622 145.139C93.0222 144.063 92.7822 143.025 92.5822 141.949C92.5422 141.764 92.5422 141.615 92.5022 141.43C92.3423 140.539 92.2223 139.612 92.1423 138.722C92.1023 138.388 92.0623 138.054 92.0623 137.721C91.9823 136.942 91.9423 136.163 91.9023 135.421C91.9023 135.087 91.8623 134.79 91.8623 134.456C91.8223 133.381 91.8223 132.342 91.9023 131.267L89.2626 188.239C89.2226 189.315 89.2227 190.354 89.2227 191.429C89.2227 191.763 89.2626 192.06 89.2626 192.394C89.3026 193.173 89.3426 193.951 89.4226 194.693C89.4626 195.027 89.4626 195.361 89.5026 195.695C89.6226 196.585 89.7426 197.512 89.8626 198.402C89.9026 198.551 89.9026 198.736 89.9426 198.885C90.1425 199.96 90.3825 200.999 90.6225 202.075C90.7025 202.371 90.7825 202.668 90.8624 202.965C91.0624 203.744 91.3024 204.523 91.5424 205.302C91.6624 205.635 91.7423 205.969 91.8623 206.34C92.1423 207.156 92.4223 207.972 92.7422 208.788C92.8222 209.048 92.9022 209.27 93.0222 209.53C93.4621 210.569 93.9021 211.607 94.382 212.646C94.502 212.905 94.622 213.128 94.742 213.35C95.1419 214.166 95.5419 214.945 95.9818 215.724C96.0618 215.873 96.1418 216.021 96.2218 216.206C96.3418 216.392 96.4618 216.577 96.5418 216.763C96.9017 217.356 97.2617 217.987 97.6216 218.58C97.8216 218.914 98.0616 219.285 98.2616 219.619C98.7015 220.287 99.1414 220.917 99.5814 221.585C99.7414 221.807 99.8614 222.03 100.021 222.252C100.061 222.289 100.101 222.327 100.101 222.364C101.061 223.699 102.061 224.997 103.141 226.258C103.381 226.37 103.461 226.518 103.541 226.629Z" fill="url(#paint8_linear_4287_6419)"/>
<path d="M170.094 245.174C170.894 245.768 171.694 246.361 172.494 246.954L175.134 189.982C174.174 189.277 173.254 188.609 172.334 187.905C170.934 186.829 169.534 185.753 168.214 184.64C168.014 184.492 167.854 184.344 167.654 184.158C166.415 183.12 165.175 182.044 164.015 180.968C163.695 180.672 163.375 180.412 163.055 180.115C161.655 178.817 160.335 177.519 159.016 176.221C158.496 175.701 157.976 175.145 157.496 174.626C157.176 174.292 156.856 173.958 156.576 173.661C155.936 172.957 155.296 172.252 154.696 171.547C154.536 171.325 154.336 171.139 154.136 170.917C153.336 169.989 152.536 169.025 151.776 168.061L149.137 225.033C149.897 225.961 150.657 226.888 151.416 227.815C151.416 227.852 151.456 227.852 151.456 227.889C151.616 228.075 151.816 228.297 151.976 228.483C152.616 229.188 153.216 229.929 153.856 230.634C154.176 230.968 154.456 231.302 154.776 231.599C155.216 232.044 155.616 232.526 156.096 232.971C156.176 233.045 156.256 233.119 156.336 233.193C157.616 234.529 158.976 235.827 160.375 237.088C160.495 237.199 160.615 237.348 160.735 237.459C160.935 237.644 161.135 237.793 161.295 237.941C162.455 239.017 163.695 240.055 164.935 241.094C165.095 241.205 165.215 241.354 165.335 241.465C165.375 241.502 165.415 241.539 165.495 241.576C166.815 242.689 168.214 243.765 169.614 244.84C169.814 244.989 169.934 245.1 170.094 245.174Z" fill="url(#paint9_linear_4287_6419)"/>
<path d="M431.302 217.69L428.662 274.7L392.947 259.195L395.626 202.223L431.302 217.69Z" fill="url(#paint10_linear_4287_6419)"/>
<path d="M453.418 204.373C452.898 204.781 452.338 205.227 451.778 205.635C451.258 206.043 450.698 206.451 450.179 206.859C449.619 207.267 449.059 207.637 448.459 208.045C447.899 208.453 447.339 208.824 446.779 209.195C446.179 209.566 445.579 209.974 444.979 210.345C444.379 210.716 443.819 211.087 443.219 211.458C442.579 211.829 441.98 212.2 441.34 212.571C440.74 212.904 440.14 213.275 439.54 213.609C438.86 213.98 438.18 214.351 437.5 214.685C436.9 215.019 436.3 215.315 435.66 215.649C434.94 216.02 434.18 216.391 433.421 216.725C432.701 217.059 432.021 217.393 431.301 217.726L428.661 274.699C428.861 274.588 429.061 274.514 429.261 274.402C429.781 274.18 430.261 273.92 430.741 273.698C431.501 273.327 432.261 272.993 432.981 272.622C433.101 272.548 433.221 272.511 433.341 272.437C433.821 272.177 434.3 271.917 434.82 271.658C435.5 271.287 436.18 270.953 436.86 270.582C436.98 270.508 437.14 270.434 437.26 270.359C437.74 270.1 438.22 269.803 438.7 269.543C439.34 269.172 439.98 268.802 440.58 268.431C440.7 268.356 440.86 268.282 440.98 268.208C441.46 267.911 441.9 267.615 442.34 267.318C442.939 266.947 443.539 266.576 444.139 266.168C444.259 266.094 444.419 266.02 444.539 265.908C444.979 265.612 445.419 265.315 445.859 264.981C446.419 264.573 447.019 264.202 447.579 263.794C447.699 263.72 447.819 263.609 447.979 263.535C448.419 263.238 448.779 262.904 449.219 262.607C449.779 262.199 450.339 261.791 450.858 261.346C450.978 261.235 451.098 261.161 451.218 261.049C451.618 260.753 451.978 260.419 452.378 260.085C452.898 259.64 453.458 259.195 453.938 258.787C454.058 258.676 454.178 258.601 454.298 258.49C455.058 257.822 455.778 257.192 456.498 256.524C456.738 256.302 456.978 256.042 457.258 255.819C457.578 255.523 457.858 255.189 458.178 254.892C458.658 254.41 459.177 253.928 459.617 253.409C459.737 253.26 459.897 253.149 460.017 253.001C460.297 252.704 460.537 252.407 460.817 252.11C461.297 251.591 461.737 251.072 462.217 250.552C462.337 250.404 462.497 250.256 462.617 250.07C462.857 249.811 463.057 249.514 463.297 249.217C463.737 248.661 464.177 248.142 464.617 247.585C464.777 247.4 464.937 247.214 465.057 247.029C465.257 246.769 465.417 246.51 465.577 246.287C466.017 245.693 466.417 245.137 466.817 244.544C466.977 244.321 467.136 244.099 467.296 243.839C467.416 243.616 467.536 243.431 467.696 243.208C468.096 242.578 468.496 241.91 468.896 241.28C469.056 241.02 469.256 240.723 469.416 240.464C469.496 240.315 469.576 240.167 469.656 240.018C470.096 239.24 470.496 238.424 470.896 237.645C471.016 237.385 471.176 237.125 471.296 236.866C471.336 236.791 471.336 236.717 471.376 236.68C471.896 235.605 472.376 234.492 472.776 233.416L475.415 176.443C475.016 177.556 474.536 178.632 474.016 179.707C473.856 180.041 473.696 180.338 473.536 180.672C473.136 181.451 472.736 182.267 472.296 183.046C472.056 183.454 471.816 183.899 471.576 184.307C471.176 184.937 470.816 185.605 470.376 186.236C470.096 186.681 469.816 187.126 469.496 187.534C469.096 188.127 468.696 188.721 468.256 189.277C467.936 189.722 467.616 190.167 467.256 190.612C466.817 191.169 466.377 191.725 465.937 192.244C465.577 192.689 465.217 193.135 464.857 193.543C464.417 194.062 463.937 194.581 463.457 195.1C463.057 195.546 462.657 195.954 462.257 196.399C461.777 196.881 461.297 197.363 460.817 197.845C460.257 198.402 459.737 198.958 459.137 199.477C458.298 200.256 457.458 200.998 456.578 201.777C456.058 202.222 455.538 202.667 455.018 203.075C454.458 203.557 453.938 203.965 453.418 204.373Z" fill="url(#paint11_linear_4287_6419)"/>
<path d="M385.307 207.304C383.787 208.009 382.227 208.677 380.667 209.307C380.267 209.455 379.867 209.641 379.468 209.789C377.468 210.605 375.428 211.384 373.388 212.126C372.988 212.274 372.548 212.423 372.148 212.571C369.829 213.387 367.469 214.203 365.109 214.945C363.669 215.39 362.19 215.835 360.75 216.28L358.11 273.253C359.51 272.845 360.95 272.437 362.35 271.992C362.39 271.992 362.43 271.955 362.51 271.955C364.909 271.213 367.229 270.397 369.549 269.581C369.789 269.507 370.029 269.433 370.269 269.321C370.469 269.247 370.629 269.173 370.789 269.099C372.828 268.357 374.868 267.578 376.868 266.762C376.988 266.725 377.108 266.651 377.228 266.614C377.508 266.502 377.748 266.391 378.028 266.243C379.588 265.575 381.147 264.908 382.667 264.24C382.947 264.129 383.227 264.017 383.507 263.869C383.667 263.795 383.827 263.721 383.987 263.646C385.707 262.83 387.427 262.014 389.106 261.198C389.146 261.161 389.186 261.161 389.226 261.124C390.466 260.494 391.706 259.826 392.946 259.158L395.586 202.186C394.306 202.89 393.026 203.558 391.746 204.189C390.066 205.042 388.346 205.858 386.627 206.637C386.227 206.896 385.787 207.082 385.307 207.304Z" fill="#A9AECF"/>
<path d="M270.88 223.736C270.04 223.662 269.16 223.55 268.32 223.439C267.48 223.328 266.64 223.254 265.8 223.142C265.16 223.068 264.481 222.957 263.841 222.883C261.281 222.549 258.721 222.178 256.162 221.733C255.762 221.659 255.362 221.585 254.962 221.51C252.842 221.14 250.722 220.732 248.602 220.324C248.203 220.249 247.763 220.175 247.363 220.064C245.523 219.693 243.643 219.285 241.843 218.84L239.204 275.813C241.043 276.258 242.883 276.629 244.723 277.037C244.883 277.074 245.003 277.111 245.163 277.148C245.443 277.185 245.723 277.259 245.963 277.296C248.083 277.704 250.202 278.112 252.322 278.483C252.602 278.52 252.882 278.594 253.162 278.632C253.282 278.669 253.402 278.669 253.522 278.706C256.082 279.114 258.641 279.522 261.201 279.856C261.441 279.893 261.681 279.93 261.921 279.967C262.321 280.004 262.761 280.078 263.161 280.115C264.001 280.227 264.84 280.338 265.68 280.412C266.52 280.523 267.4 280.597 268.24 280.709C269.08 280.783 269.92 280.894 270.76 280.968C271.2 281.005 271.64 281.043 272.04 281.08C272.32 281.117 272.6 281.117 272.88 281.154C275.159 281.339 277.399 281.525 279.679 281.636L282.318 224.663C280.039 224.552 277.799 224.367 275.519 224.181C274.799 224.107 274.079 224.07 273.359 223.996C272.56 223.921 271.72 223.81 270.88 223.736Z" fill="url(#paint12_linear_4287_6419)"/>
<path d="M241.764 218.877L239.124 275.887L214.927 298.55L217.567 241.577L241.764 218.877Z" fill="url(#paint13_linear_4287_6419)"/>
<path d="M178.853 288.089C179.173 288.237 179.533 288.386 179.853 288.534C180.212 288.682 180.612 288.831 180.972 288.979C181.732 289.276 182.452 289.573 183.212 289.869C183.572 290.018 183.932 290.166 184.292 290.277C184.652 290.426 185.012 290.537 185.412 290.685C186.212 290.982 187.012 291.279 187.812 291.539C188.212 291.687 188.571 291.835 188.931 291.947C189.291 292.058 189.651 292.169 189.971 292.28C190.811 292.577 191.651 292.837 192.491 293.096C192.891 293.245 193.331 293.356 193.731 293.504C194.051 293.616 194.371 293.69 194.691 293.764C195.571 294.024 196.491 294.283 197.37 294.543C197.81 294.654 198.29 294.803 198.73 294.951C199.01 295.025 199.25 295.099 199.53 295.173C200.49 295.433 201.45 295.693 202.41 295.915C202.89 296.027 203.41 296.175 203.89 296.286C204.09 296.323 204.29 296.36 204.49 296.435C205.569 296.694 206.689 296.917 207.769 297.176C208.249 297.288 208.769 297.399 209.249 297.51C209.369 297.547 209.489 297.547 209.609 297.584C211.289 297.918 212.929 298.215 214.608 298.512C214.688 298.512 214.768 298.549 214.848 298.549H214.888L217.528 241.576C217.448 241.576 217.328 241.539 217.248 241.539C215.568 241.242 213.928 240.946 212.249 240.612C211.649 240.5 211.009 240.352 210.409 240.204C209.329 239.981 208.209 239.721 207.129 239.462C206.409 239.313 205.729 239.128 205.049 238.943C204.09 238.72 203.13 238.46 202.17 238.201C201.45 238.015 200.73 237.793 200.01 237.607C199.13 237.348 198.21 237.088 197.33 236.828C196.61 236.606 195.891 236.383 195.131 236.161C194.291 235.901 193.451 235.604 192.611 235.345C191.891 235.085 191.171 234.862 190.411 234.603C189.611 234.306 188.811 234.046 188.012 233.75C187.292 233.49 186.572 233.193 185.852 232.934C185.092 232.637 184.332 232.34 183.612 232.044C182.892 231.747 182.172 231.45 181.452 231.153C180.732 230.857 180.012 230.523 179.293 230.226C178.573 229.929 177.893 229.595 177.173 229.262C176.493 228.928 175.813 228.631 175.133 228.297C174.453 227.963 173.773 227.63 173.093 227.296C172.413 226.962 171.773 226.628 171.134 226.294C170.454 225.923 169.814 225.59 169.134 225.219C168.494 224.885 167.854 224.514 167.254 224.143C166.614 223.772 165.974 223.401 165.334 223.03C164.734 222.659 164.094 222.288 163.494 221.917C162.895 221.547 162.255 221.139 161.655 220.768C161.055 220.397 160.495 219.989 159.895 219.618C159.295 219.21 158.735 218.839 158.175 218.431C157.615 218.023 157.015 217.615 156.455 217.207C155.895 216.799 155.375 216.391 154.856 215.983C154.296 215.538 153.736 215.093 153.176 214.648C152.416 214.017 151.616 213.386 150.896 212.756L148.256 269.729C148.736 270.137 149.216 270.545 149.736 270.953C150.016 271.175 150.296 271.361 150.536 271.583C151.096 272.028 151.656 272.473 152.216 272.918C152.496 273.141 152.736 273.327 153.016 273.549C153.296 273.735 153.576 273.957 153.856 274.143C154.416 274.551 154.976 274.959 155.575 275.367C155.855 275.589 156.135 275.775 156.455 275.997C156.735 276.183 157.055 276.368 157.335 276.591C157.935 276.999 158.495 277.369 159.095 277.74C159.415 277.926 159.695 278.148 160.015 278.334C160.335 278.519 160.615 278.705 160.935 278.89C161.535 279.261 162.135 279.632 162.775 280.003C163.095 280.188 163.375 280.374 163.694 280.559C164.014 280.745 164.334 280.93 164.694 281.116C165.334 281.487 165.934 281.82 166.574 282.191C166.894 282.377 167.214 282.562 167.534 282.711C167.894 282.896 168.214 283.082 168.574 283.267C169.214 283.601 169.894 283.935 170.534 284.269C170.854 284.417 171.174 284.602 171.494 284.751C171.853 284.936 172.213 285.085 172.573 285.27C173.253 285.604 173.933 285.938 174.613 286.234C174.933 286.383 175.253 286.531 175.613 286.717C175.973 286.865 176.373 287.05 176.733 287.199C177.413 287.458 178.133 287.792 178.853 288.089Z" fill="url(#paint14_linear_4287_6419)"/>
<mask id="mask4_4287_6419" style="mask-type:luminance" maskUnits="userSpaceOnUse" x="279" y="224" width="13" height="85">
<path d="M291.078 251.777L288.438 308.75C285.519 299.7 282.639 290.686 279.719 281.636L282.359 224.663C285.239 233.713 288.158 242.764 291.078 251.777Z" fill="white"/>
</mask>
<g mask="url(#mask4_4287_6419)">
<path d="M291.078 251.777L288.438 308.75C285.519 299.7 282.639 290.686 279.719 281.636L282.359 224.663C285.239 233.713 288.158 242.764 291.078 251.777Z" fill="url(#paint15_linear_4287_6419)"/>
</g>
<path d="M362.35 245.434C360.59 245.954 358.831 246.473 357.031 246.955C356.711 247.029 356.431 247.141 356.151 247.215C355.671 247.326 355.191 247.437 354.711 247.586C353.711 247.845 352.711 248.068 351.711 248.328C351.111 248.476 350.552 248.587 349.952 248.699C349.072 248.884 348.192 249.069 347.352 249.255C346.072 249.515 344.792 249.737 343.512 249.96C342.992 250.071 342.473 250.145 341.953 250.256C340.153 250.553 338.313 250.85 336.513 251.109C336.353 251.147 336.233 251.147 336.073 251.147C333.874 251.443 331.674 251.703 329.434 251.925C328.914 251.963 328.394 252.037 327.874 252.074C325.555 252.296 323.275 252.445 320.955 252.593C320.555 252.63 320.195 252.63 319.795 252.63C317.716 252.741 315.636 252.779 313.556 252.816C313.076 252.816 312.636 252.853 312.156 252.853C309.837 252.853 307.517 252.853 305.237 252.779C304.437 252.741 303.637 252.704 302.877 252.704C302.077 252.667 301.278 252.63 300.478 252.593C299.598 252.556 298.758 252.482 297.878 252.408C297.078 252.333 296.278 252.296 295.518 252.222C294.078 252.111 292.599 251.963 291.159 251.814L288.519 308.787C289.759 308.935 290.959 309.047 292.199 309.158C292.439 309.195 292.639 309.195 292.879 309.195C293.678 309.269 294.438 309.306 295.238 309.38C296.118 309.455 296.958 309.492 297.838 309.566C298.638 309.603 299.438 309.64 300.238 309.677C300.838 309.714 301.437 309.751 302.037 309.751C302.237 309.751 302.397 309.751 302.597 309.751C304.917 309.826 307.197 309.863 309.516 309.826C309.956 309.826 310.436 309.826 310.876 309.788C312.956 309.751 315.036 309.677 317.156 309.603C317.556 309.603 317.915 309.566 318.315 309.566C320.635 309.455 322.955 309.269 325.235 309.047C325.755 309.01 326.274 308.935 326.794 308.898C329.034 308.676 331.234 308.416 333.434 308.119C333.554 308.119 333.674 308.082 333.754 308.082C333.794 308.082 333.834 308.082 333.874 308.082C335.713 307.823 337.513 307.563 339.313 307.229C339.833 307.155 340.353 307.044 340.873 306.932C342.153 306.71 343.432 306.45 344.672 306.228C344.912 306.191 345.152 306.153 345.392 306.079C346.032 305.931 346.672 305.783 347.312 305.671C347.912 305.56 348.472 305.412 349.072 305.3C350.072 305.078 351.071 304.818 352.071 304.559C352.551 304.447 353.031 304.336 353.511 304.188C353.591 304.151 353.711 304.151 353.791 304.113C353.991 304.076 354.191 304.002 354.391 303.928C356.191 303.446 357.951 302.926 359.71 302.407C359.99 302.333 360.27 302.259 360.55 302.148C360.79 302.073 361.03 301.999 361.27 301.925C362.67 301.48 364.07 300.998 365.43 300.516C365.71 300.404 365.99 300.33 366.27 300.219C366.43 300.145 366.59 300.108 366.75 300.033L369.389 243.061C368.949 243.209 368.509 243.357 368.109 243.506C366.75 243.988 365.35 244.47 363.95 244.915C363.39 245.101 362.87 245.249 362.35 245.434Z" fill="url(#paint16_linear_4287_6419)"/>
<path d="M150.934 212.645L175.131 189.982C165.773 183.232 157.973 175.85 151.814 168.024C137.576 169.619 123.338 171.214 109.059 172.809C95.0211 158.158 89.1818 139.834 93.0213 123.18L135.256 118.47C135.936 109.716 138.496 101.037 142.975 92.5797L107.22 77.0754C110.379 68.9152 116.059 61.0147 123.578 53.9673C131.137 46.8828 140.536 40.6514 151.254 35.7924L187.01 51.2967C197.649 45.5104 209.407 40.7997 221.926 37.2019C219.046 28.2628 216.206 19.3237 213.327 10.3846C236.204 2.0019 265.081 -1.26217 291.597 1.70516L300.356 28.8562C313.995 29.6352 327.593 31.564 340.871 34.6426L365.108 11.9424C391.145 16.3934 415.702 27.0388 431.74 40.8739L407.503 63.5741C416.862 70.2876 424.661 77.6689 430.78 85.4952C445.059 83.9003 459.337 82.3053 473.615 80.7104C487.574 95.3245 493.493 113.685 489.653 130.339C475.615 131.897 461.497 133.492 447.378 135.087C446.699 143.84 444.139 152.557 439.619 160.977L475.295 176.444C472.175 184.604 466.576 192.468 459.017 199.552C451.458 206.637 442.019 212.868 431.26 217.727L395.585 202.223C384.946 207.972 373.187 212.682 360.709 216.317L369.348 243.098C346.471 251.48 317.514 254.707 291.077 251.777C288.158 242.727 285.278 233.713 282.358 224.663C268.72 223.884 255.082 221.955 241.803 218.877L217.606 241.577C191.489 237.2 166.932 226.518 150.934 212.645ZM220.446 95.9921C194.769 120.065 205.688 153.336 244.843 170.287C283.998 187.275 336.512 181.525 362.189 157.49C387.866 133.418 376.947 100.183 337.792 83.1955C298.676 66.2075 246.123 71.9567 220.446 95.9921Z" fill="url(#paint17_linear_4287_6419)"/>
<defs>
<linearGradient id="paint0_linear_4287_6419" x1="0.431817" y1="184.531" x2="579.643" y2="184.531" gradientUnits="userSpaceOnUse">
<stop stop-color="#F9F9FC"/>
<stop offset="1" stop-color="#D7DCEE"/>
</linearGradient>
<linearGradient id="paint1_linear_4287_6419" x1="181.811" y1="30.9187" x2="209.653" y2="50.7417" gradientUnits="userSpaceOnUse">
<stop stop-color="#8F92C7"/>
<stop offset="1" stop-color="#505FAA"/>
</linearGradient>
<linearGradient id="paint2_linear_4287_6419" x1="436.975" y1="42.8199" x2="404.249" y2="120.053" gradientUnits="userSpaceOnUse">
<stop stop-color="#8F92C7"/>
<stop offset="1" stop-color="#505FAA"/>
</linearGradient>
<linearGradient id="paint3_linear_4287_6419" x1="98.7347" y1="102.029" x2="126.911" y2="116.533" gradientUnits="userSpaceOnUse">
<stop stop-color="#8F92C7"/>
<stop offset="1" stop-color="#505FAA"/>
</linearGradient>
<linearGradient id="paint4_linear_4287_6419" x1="245.033" y1="125.655" x2="341.174" y2="143.389" gradientUnits="userSpaceOnUse">
<stop stop-color="#8F92C7"/>
<stop offset="1" stop-color="#505FAA"/>
</linearGradient>
<linearGradient id="paint5_linear_4287_6419" x1="483.775" y1="127.576" x2="454.762" y2="196.044" gradientUnits="userSpaceOnUse">
<stop stop-color="#8F92C7"/>
<stop offset="1" stop-color="#CFD5EB"/>
</linearGradient>
<linearGradient id="paint6_linear_4287_6419" x1="460.112" y1="140.2" x2="428.751" y2="214.21" gradientUnits="userSpaceOnUse">
<stop stop-color="#8F92C7"/>
<stop offset="1" stop-color="#505FAA"/>
</linearGradient>
<linearGradient id="paint7_linear_4287_6419" x1="145.699" y1="165.242" x2="116.603" y2="233.908" gradientUnits="userSpaceOnUse">
<stop stop-color="#8F92C7"/>
<stop offset="1" stop-color="#CFD5EB"/>
</linearGradient>
<linearGradient id="paint8_linear_4287_6419" x1="118.083" y1="142.117" x2="84.8838" y2="220.467" gradientUnits="userSpaceOnUse">
<stop stop-color="#8F92C7"/>
<stop offset="1" stop-color="#505FAA"/>
</linearGradient>
<linearGradient id="paint9_linear_4287_6419" x1="130.929" y1="203.852" x2="165.219" y2="208.28" gradientUnits="userSpaceOnUse">
<stop stop-color="#8F92C7"/>
<stop offset="1" stop-color="#505FAA"/>
</linearGradient>
<linearGradient id="paint10_linear_4287_6419" x1="424.131" y1="214.091" x2="403.124" y2="263.665" gradientUnits="userSpaceOnUse">
<stop stop-color="#8F92C7"/>
<stop offset="1" stop-color="#505FAA"/>
</linearGradient>
<linearGradient id="paint11_linear_4287_6419" x1="476.24" y1="176.585" x2="433.828" y2="276.675" gradientUnits="userSpaceOnUse">
<stop stop-color="#8F92C7"/>
<stop offset="1" stop-color="#CFD5EB"/>
</linearGradient>
<linearGradient id="paint12_linear_4287_6419" x1="278.065" y1="250.612" x2="246.085" y2="249.503" gradientUnits="userSpaceOnUse">
<stop stop-color="#8F92C7"/>
<stop offset="1" stop-color="#CFD5EB"/>
</linearGradient>
<linearGradient id="paint13_linear_4287_6419" x1="246.989" y1="220.886" x2="214.278" y2="298.081" gradientUnits="userSpaceOnUse">
<stop stop-color="#8F92C7"/>
<stop offset="1" stop-color="#505FAA"/>
</linearGradient>
<linearGradient id="paint14_linear_4287_6419" x1="194.993" y1="231.117" x2="172.143" y2="285.041" gradientUnits="userSpaceOnUse">
<stop stop-color="#8F92C7"/>
<stop offset="1" stop-color="#505FAA"/>
</linearGradient>
<linearGradient id="paint15_linear_4287_6419" x1="302.07" y1="232.822" x2="272.782" y2="301.942" gradientUnits="userSpaceOnUse">
<stop stop-color="#8F92C7"/>
<stop offset="1" stop-color="#505FAA"/>
</linearGradient>
<linearGradient id="paint16_linear_4287_6419" x1="349.339" y1="234.4" x2="313.422" y2="319.162" gradientUnits="userSpaceOnUse">
<stop stop-color="#8F92C7"/>
<stop offset="1" stop-color="#CFD5EB"/>
</linearGradient>
<linearGradient id="paint17_linear_4287_6419" x1="233.373" y1="7.95244" x2="319.013" y2="211.398" gradientUnits="userSpaceOnUse">
<stop stop-color="#5988EF"/>
<stop offset="1" stop-color="white"/>
</linearGradient>
</defs>
</svg>
