<svg width="41" height="41" viewBox="0 0 41 41" fill="none" xmlns="http://www.w3.org/2000/svg">
<circle opacity="0.4" cx="20.5" cy="20.5" r="20.5" fill="#0067FF" fill-opacity="0.3"/>
<path d="M29.8817 13.2715H11.2026C10.9875 13.2715 10.8135 13.4456 10.8135 13.6606V26.0487C10.8135 26.2639 10.9875 26.4379 11.2026 26.4379H12.7873V28.2985C12.7873 28.9354 13.3053 29.4534 13.9422 29.4534C14.0741 29.4534 14.2006 29.4313 14.3188 29.3903V32.3397C14.3188 32.5548 14.4929 32.7289 14.708 32.7289H18.8203C19.0354 32.7289 19.2094 32.5548 19.2094 32.3397V26.4379H29.8817C30.0968 26.4379 30.2708 26.2639 30.2708 26.0487V13.6606C30.2708 13.4456 30.0968 13.2715 29.8817 13.2715ZM18.7408 24.3839C18.5603 24.4215 18.4311 24.5804 18.4311 24.7646V31.9506H15.0971V24.7646C15.0971 24.5496 14.9231 24.3755 14.708 24.3755C14.4929 24.3755 14.3188 24.5496 14.3188 24.7646V28.2985C14.3188 28.506 14.1497 28.6751 13.9422 28.6751C13.7347 28.6751 13.5656 28.506 13.5656 28.2985V24.1513C13.5656 23.5702 14.0384 23.0975 14.6194 23.0975H20.0838C20.2085 23.0975 20.3251 23.0378 20.3985 22.9371L22.9895 19.3747C23.0252 19.325 23.0925 19.3102 23.1461 19.339C23.2054 19.3709 23.2274 19.445 23.1955 19.5043L20.7998 23.9533L18.7408 24.3839ZM29.4926 25.6596H19.2094V25.0809L21.1361 24.678C21.2486 24.6548 21.3448 24.5826 21.3995 24.4815L23.8811 19.8729C24.1163 19.4359 23.9521 18.8887 23.5151 18.6538C23.1203 18.4402 22.624 18.5542 22.3602 18.9168L19.8858 22.3192H14.6194C13.6093 22.3192 12.7873 23.1412 12.7873 24.1513V25.6596H11.5918V14.0498H29.4926V25.6596Z" fill="#00AAFF"/>
<path d="M16.9053 21.703C18.2106 21.703 19.2725 20.6409 19.2725 19.3354C19.2725 18.03 18.2106 16.9683 16.9053 16.9683C15.5999 16.9683 14.5381 18.03 14.5381 19.3354C14.5381 20.6409 15.5999 21.703 16.9053 21.703ZM16.9053 17.7465C17.7812 17.7465 18.4942 18.4595 18.4942 19.3354C18.4942 20.2118 17.7812 20.9247 16.9053 20.9247C16.0293 20.9247 15.3164 20.2118 15.3164 19.3354C15.3164 18.4595 16.0293 17.7465 16.9053 17.7465Z" fill="#00AAFF"/>
</svg>
