<svg width="20" height="19" viewBox="0 0 20 19" fill="none" xmlns="http://www.w3.org/2000/svg">
<path d="M19.5313 18.1285H15.293L16.1555 11.3421C16.2825 11.2647 16.3742 11.1406 16.4107 10.9964L16.6964 9.85579C16.7174 9.77163 16.719 9.68378 16.7009 9.59894C16.6828 9.5141 16.6457 9.43449 16.5922 9.36617C16.5388 9.29784 16.4705 9.24261 16.3925 9.20466C16.3145 9.16671 16.2288 9.14704 16.1421 9.14715H15.8769L16.139 8.45231C16.3684 8.49578 16.6057 8.45809 16.8102 8.34571C17.0148 8.23332 17.1738 8.05325 17.2601 7.83638L17.5158 7.18528C17.5433 7.11504 17.5566 7.04004 17.555 6.96461C17.5533 6.88919 17.5367 6.81485 17.506 6.7459C17.4754 6.67695 17.4314 6.61476 17.3766 6.56294C17.3218 6.51113 17.2572 6.47071 17.1866 6.44404C17.1815 6.44211 17.1753 6.4399 17.1689 6.43769C17.1631 6.43486 17.1584 6.43012 17.1557 6.42426C17.1546 6.42222 17.154 6.41995 17.154 6.41765C17.1539 6.41534 17.1544 6.41304 17.1554 6.41095C17.1587 6.4049 17.1636 6.39989 17.1696 6.39649C17.1756 6.39309 17.1824 6.39143 17.1893 6.3917C17.1926 6.3917 17.196 6.39212 17.1992 6.39293C17.205 6.39537 17.2109 6.39771 17.2169 6.39997C17.3575 6.45341 17.5135 6.44925 17.6511 6.38838C17.7887 6.32752 17.8967 6.21487 17.9517 6.07486L19.0446 3.29131C19.1131 3.11837 19.1463 2.93347 19.1422 2.7475C19.1381 2.56153 19.0968 2.37827 19.0208 2.2085C18.9444 2.03593 18.8343 1.88035 18.6969 1.75091C18.5596 1.62147 18.3978 1.52078 18.221 1.45475L17.4163 1.1499C17.2524 1.08765 17.0786 1.05577 16.9034 1.05581C16.6152 1.05372 16.3331 1.13907 16.0944 1.30061C15.8557 1.46216 15.6716 1.69229 15.5664 1.96062L14.4736 4.74417C14.4187 4.88405 14.4213 5.03992 14.4808 5.17789C14.5403 5.31586 14.6519 5.42476 14.7912 5.4809C14.8055 5.48669 14.8129 5.49849 14.8088 5.50895C14.8055 5.5149 14.8007 5.5198 14.7947 5.52313C14.7888 5.52645 14.7821 5.52806 14.7753 5.52778C14.7703 5.52776 14.7654 5.52688 14.7607 5.52517C14.621 5.47554 14.4674 5.48215 14.3325 5.54362C14.1976 5.60508 14.0919 5.71659 14.0376 5.85458L13.782 6.50568C13.7338 6.62723 13.7105 6.75719 13.7134 6.8879C13.7163 7.0186 13.7453 7.14741 13.7987 7.26672C13.897 7.48832 14.0731 7.66614 14.2938 7.76646L13.7729 9.14715H12.2851V4.87657C12.6769 4.65859 13.003 4.33928 13.2292 3.95206C13.4554 3.56484 13.5733 3.12394 13.5707 2.67551C13.568 2.22708 13.4449 1.78761 13.2142 1.40308C12.9834 1.01856 12.6536 0.703117 12.2592 0.489779C12.1723 0.439994 12.074 0.413884 11.9739 0.414063C11.8738 0.414242 11.7755 0.440704 11.6889 0.490799C11.6023 0.540895 11.5303 0.612867 11.4802 0.699514C11.4301 0.78616 11.4037 0.884442 11.4035 0.984522V2.26738L10.8239 2.53817L10.2443 2.26738V1.02216C10.2441 0.920369 10.2167 0.820484 10.1649 0.732828C10.1132 0.645173 10.0389 0.572929 9.94992 0.523562C9.8609 0.474194 9.76031 0.449494 9.65854 0.452015C9.55678 0.454535 9.45754 0.484185 9.37107 0.537899C8.99199 0.761838 8.67876 1.08189 8.46304 1.46571C8.24732 1.84952 8.13675 2.28349 8.14253 2.72373C8.14831 3.16397 8.27022 3.59489 8.49593 3.97291C8.72165 4.35093 9.04317 4.66266 9.428 4.87657V9.14715H7.48323L6.50246 6.512C6.59549 6.44283 6.66524 6.34695 6.70243 6.23715C6.77938 6.29115 6.86845 6.32536 6.96176 6.33676C7.05508 6.34816 7.14976 6.3364 7.23745 6.30251L7.79874 6.08567C8.0102 6.00275 8.1807 5.84019 8.27362 5.63293C8.36654 5.42567 8.37446 5.19023 8.29569 4.97718L7.7352 3.47018C7.67387 3.30607 7.56404 3.1645 7.4203 3.06432C7.27657 2.96414 7.10574 2.91008 6.93054 2.90934C6.8249 2.9093 6.72017 2.92889 6.62168 2.96712L6.0158 3.20117C5.93898 3.23081 5.86948 3.27672 5.81207 3.33575C5.75466 3.39478 5.71071 3.46554 5.68322 3.54316C5.61069 3.50452 5.53068 3.48195 5.44865 3.477C5.36662 3.47204 5.28448 3.48482 5.20783 3.51444L2.63499 4.50859C2.40246 4.5906 0.908221 5.20299 0.856969 7.40042C0.854346 7.52486 0.892411 7.64675 0.965383 7.74758C1.03835 7.84841 1.14224 7.92266 1.26126 7.95906C1.38029 7.99546 1.50794 7.99202 1.62482 7.94925C1.74171 7.90648 1.84144 7.82673 1.90887 7.72211C2.09079 7.44312 2.65714 6.7644 3.28959 6.60694L3.76659 7.15908C3.84371 7.24828 3.94649 7.31146 4.06089 7.34C4.17529 7.36853 4.29572 7.36102 4.40568 7.31849L4.44892 7.30178L5.13524 9.14715H3.85672C3.76998 9.14704 3.68435 9.1667 3.60635 9.20465C3.52835 9.2426 3.46003 9.29784 3.40658 9.36616C3.35314 9.43448 3.31597 9.51409 3.29792 9.59894C3.27986 9.68378 3.28139 9.77162 3.30238 9.85579L3.58809 10.9964C3.62465 11.1406 3.71627 11.2647 3.84329 11.3421L4.70581 18.1285H0.468053C0.427406 18.1232 0.386094 18.1266 0.346876 18.1385C0.307658 18.1505 0.271436 18.1706 0.24063 18.1977C0.209823 18.2247 0.185142 18.258 0.168233 18.2954C0.151325 18.3327 0.142578 18.3732 0.142578 18.4142C0.142578 18.4552 0.151325 18.4957 0.168233 18.5331C0.185142 18.5704 0.209823 18.6037 0.24063 18.6308C0.271436 18.6578 0.307658 18.678 0.346876 18.6899C0.386094 18.7018 0.427406 18.7052 0.468053 18.6999H19.5313C19.5719 18.7052 19.6132 18.7018 19.6525 18.6899C19.6917 18.678 19.7279 18.6578 19.7587 18.6308C19.7895 18.6037 19.8142 18.5704 19.8311 18.5331C19.848 18.4957 19.8568 18.4552 19.8568 18.4142C19.8568 18.3732 19.848 18.3327 19.8311 18.2954C19.8142 18.258 19.7895 18.2247 19.7587 18.1977C19.7279 18.1706 19.6917 18.1505 19.6525 18.1385C19.6132 18.1266 19.5719 18.1232 19.5313 18.1285ZM14.314 6.71377L14.5696 6.06265C14.6357 6.08609 14.7052 6.09808 14.7753 6.0981C14.8969 6.09869 15.0159 6.06266 15.1168 5.99469C15.2176 5.92673 15.2957 5.82998 15.3409 5.71703C15.3974 5.57113 15.3939 5.40876 15.3311 5.26545C15.2682 5.12213 15.1512 5.00953 15.0056 4.95225L16.0985 2.16871C16.1627 2.00795 16.2738 1.87024 16.4174 1.77347C16.5609 1.67671 16.7303 1.62536 16.9034 1.62612C17.0094 1.62615 17.1144 1.64545 17.2135 1.6831L18.0182 1.98794C18.1232 2.0266 18.2194 2.08578 18.3012 2.16202C18.3831 2.23825 18.449 2.33002 18.495 2.43197C18.541 2.53392 18.5662 2.64402 18.5693 2.75583C18.5723 2.86764 18.553 2.97894 18.5126 3.08323L17.4197 5.86677C17.4155 5.86518 17.4116 5.86303 17.4074 5.86144C17.3377 5.83498 17.2638 5.82141 17.1893 5.82138C17.0676 5.82084 16.9485 5.85693 16.8476 5.92497C16.7466 5.993 16.6685 6.08983 16.6233 6.20287C16.5949 6.2762 16.5814 6.35445 16.5835 6.43307C16.5856 6.51169 16.6034 6.5891 16.6357 6.66079C16.6681 6.73247 16.7144 6.797 16.772 6.8506C16.8295 6.9042 16.8972 6.94581 16.971 6.973C16.9752 6.9746 16.9795 6.97559 16.9837 6.9772L16.7281 7.6283C16.696 7.70868 16.6404 7.77754 16.5687 7.82592C16.4969 7.8743 16.4122 7.89997 16.3256 7.89959C16.2727 7.89957 16.2201 7.88992 16.1706 7.8711L14.5612 7.26141C14.5087 7.24208 14.4606 7.21249 14.4197 7.17437C14.3787 7.13625 14.3458 7.09037 14.3228 7.03939C14.2998 6.98842 14.2872 6.93337 14.2857 6.87747C14.2841 6.82156 14.2938 6.76591 14.314 6.71377ZM15.5993 8.26468L15.2663 9.14715H14.3835L14.8268 7.97205L15.5993 8.26468ZM8.71373 2.69104C8.71755 2.35406 8.80773 2.02369 8.97566 1.73151C9.14359 1.43932 9.38365 1.19509 9.6729 1.02216V2.6301L10.8239 3.16788L11.9749 2.6301V0.984528C12.2814 1.15285 12.5378 1.39952 12.7177 1.69934C12.8977 1.99916 12.9949 2.34138 12.9993 2.69104C12.992 3.08989 12.8658 3.47746 12.6367 3.80404C12.4076 4.13062 12.0862 4.38131 11.7136 4.52394V9.14715H9.99941V4.52394C9.62686 4.38131 9.30543 4.13063 9.07635 3.80405C8.84728 3.47747 8.721 3.08989 8.71373 2.69104ZM4.78295 6.5611L4.19934 6.78665L3.52305 6.00383C2.32363 6.0236 1.42822 7.41369 1.42822 7.41369C1.47368 5.46446 2.83218 5.04395 2.83218 5.04395L5.41412 4.0463L5.92967 4.60392L6.28896 4.46519L6.22206 3.73303L6.82818 3.49887C6.86082 3.48619 6.89552 3.47967 6.93054 3.47965C6.98931 3.47991 7.04659 3.49817 7.09467 3.53196C7.14276 3.56575 7.17934 3.61345 7.1995 3.66866L7.76003 5.17577C7.78724 5.24817 7.78493 5.32836 7.75359 5.39907C7.72225 5.46977 7.66439 5.52535 7.59248 5.55381L7.03119 5.77065L6.57749 5.24125L6.15085 5.40598L6.16103 6.05467L5.79174 6.24021L6.87367 9.14715H5.74474L4.78295 6.5611ZM3.85672 9.71747H16.1421L15.8564 10.8581H4.14243L3.85672 9.71747ZM4.43025 11.4284H15.5686L14.717 18.1285H5.28179L4.43025 11.4284Z" fill="currentColor"/>
</svg>
