<svg width="65" height="65" viewBox="0 0 65 65" fill="none" xmlns="http://www.w3.org/2000/svg">
<g clip-path="url(#clip0_3684_18776)">
<path d="M20.3167 27.2881C9.09604 27.2881 0 34.078 0 42.454C0 46.7101 2.3513 50.5541 6.13374 53.3084L2.25861 59.0505C1.87822 59.614 2.45813 60.3284 3.08778 60.073L12.2273 56.3668C14.707 57.1711 17.4409 57.6199 20.3173 57.6199C31.538 57.6199 40.634 50.83 40.634 42.454C40.6329 34.078 31.5369 27.2881 20.3167 27.2881Z" fill="#96AACE"/>
<path d="M20.3163 27.2881C15.9031 27.2881 11.8216 28.3417 8.49023 30.126C10.1446 39.9653 21.3845 47.5788 35.0136 47.5788C36.5697 47.5788 38.0918 47.4737 39.5744 47.2838C40.2571 45.7662 40.633 44.1434 40.633 42.454C40.6325 34.078 31.5364 27.2881 20.3163 27.2881Z" fill="#1E61DC"/>
<path d="M57.6653 38.5604C62.208 34.9826 64.9996 30.1539 64.9996 24.8358C64.9996 13.8112 53.0271 4.87402 38.2586 4.87402C23.49 4.87402 11.5176 13.8112 11.5176 24.8358C11.5176 35.8604 23.49 44.7976 38.2586 44.7976C42.3434 44.7976 46.2118 44.1114 49.6743 42.8888L62.1045 47.93C62.8857 48.2465 63.6041 47.3603 63.1327 46.6617L57.6653 38.5604Z" fill="#ADCAFF"/>
<path d="M25.2866 27.5869C26.8062 27.5869 28.0381 26.3551 28.0381 24.8355C28.0381 23.3159 26.8062 22.084 25.2866 22.084C23.767 22.084 22.5352 23.3159 22.5352 24.8355C22.5352 26.3551 23.767 27.5869 25.2866 27.5869Z" fill="#4A6699"/>
<path d="M33.9341 27.5869C35.4537 27.5869 36.6856 26.3551 36.6856 24.8355C36.6856 23.3159 35.4537 22.084 33.9341 22.084C32.4145 22.084 31.1826 23.3159 31.1826 24.8355C31.1826 26.3551 32.4145 27.5869 33.9341 27.5869Z" fill="#4A6699"/>
<path d="M42.5825 27.5869C44.1021 27.5869 45.334 26.3551 45.334 24.8355C45.334 23.3159 44.1021 22.084 42.5825 22.084C41.0629 22.084 39.8311 23.3159 39.8311 24.8355C39.8311 26.3551 41.0629 27.5869 42.5825 27.5869Z" fill="#4A6699"/>
<path d="M51.231 27.5869C52.7506 27.5869 53.9824 26.3551 53.9824 24.8355C53.9824 23.3159 52.7506 22.084 51.231 22.084C49.7114 22.084 48.4795 23.3159 48.4795 24.8355C48.4795 26.3551 49.7114 27.5869 51.231 27.5869Z" fill="#4A6699"/>
</g>
<defs>
<clipPath id="clip0_3684_18776">
<rect width="65" height="65" fill="white"/>
</clipPath>
</defs>
</svg>
