<svg width="34" height="40" viewBox="0 0 34 40" fill="none" xmlns="http://www.w3.org/2000/svg">
<g clip-path="url(#clip0_3450_22426)">
<ellipse cx="34" cy="28.2188" rx="70" ry="67.5" fill="#1E61DC"/>
<path d="M28.3038 36.2229H19.2925C18.823 35.0721 18.4911 33.8533 18.3058 32.5997H19.2041C19.6147 32.5992 20.0083 32.411 20.2987 32.0765C20.5891 31.742 20.7524 31.2884 20.753 30.8152V29.4593C21.1601 29.4646 21.5642 29.3773 21.9421 29.2025C22.32 29.0276 22.6643 28.7686 22.9552 28.4402C23.2461 28.1119 23.478 27.7207 23.6375 27.289C23.7971 26.8573 23.8812 26.3935 23.885 25.9243C23.8889 25.4551 23.8124 24.9896 23.66 24.5545C23.5075 24.1194 23.2821 23.7232 22.9966 23.3886C22.7111 23.054 22.3712 22.7875 21.9963 22.6045C21.6213 22.4214 21.2187 22.3253 20.8115 22.3217L15.9184 22.2982L14.8044 21.5792C14.3408 21.2802 13.9353 20.8747 13.6132 20.3878C13.2911 19.9009 13.0592 19.343 12.9318 18.7487L11.1606 10.3861L11.7484 10.2193C12.5074 10.0032 13.1677 9.4651 13.5974 8.71248C14.0271 7.95985 14.1946 7.04813 14.0664 6.15943C13.9382 5.27074 13.5237 4.47049 12.9058 3.91854C12.2879 3.3666 11.512 3.10359 10.7331 3.18206L8.52511 3.40325C7.62415 3.5114 6.78967 3.99939 6.18201 4.77346C5.57435 5.54752 5.23639 6.55304 5.23307 7.5968L5.20114 15.7627C5.20231 15.9237 5.25845 16.0776 5.3574 16.1912C5.45635 16.3048 5.59015 16.369 5.72984 16.3698C5.86952 16.3705 6.00386 16.3079 6.10376 16.1954C6.20367 16.0829 6.2611 15.9296 6.26364 15.7687L6.29555 7.60397C6.29722 6.86352 6.53593 6.14981 6.96596 5.5996C7.39599 5.04938 7.98709 4.70134 8.62601 4.62217L10.826 4.40158C11.1085 4.37261 11.3932 4.41205 11.6617 4.51736C11.9302 4.62268 12.1767 4.79155 12.3852 5.01312C12.6524 5.30373 12.8472 5.67148 12.9493 6.07817C13.0515 6.48486 13.0572 6.91564 12.966 7.32576C12.8748 7.73588 12.69 8.11038 12.4307 8.41034C12.1714 8.7103 11.8471 8.92478 11.4915 9.0315L10.3917 9.34356C10.2551 9.38237 10.1375 9.482 10.0645 9.62062C9.9916 9.75924 9.96934 9.92553 10.0026 10.083L11.8996 19.0398C12.1808 20.3477 12.8549 21.4985 13.8024 22.2881L9.35233 22.2668C9.21274 22.2684 9.07933 22.3333 8.98095 22.4475C8.88257 22.5616 8.82711 22.7157 8.82657 22.8766C8.82602 23.0374 8.88044 23.192 8.97805 23.307C9.07567 23.422 9.20863 23.4881 9.3482 23.491L20.8074 23.546C21.3435 23.5543 21.8552 23.806 22.2311 24.2465C22.6071 24.687 22.8169 25.2807 22.8151 25.8986C22.8132 26.5164 22.5998 27.1084 22.2213 27.5459C21.8427 27.9835 21.3295 28.2311 20.7934 28.2351L18.064 28.2292C17.9244 28.2311 17.7912 28.2963 17.693 28.4106C17.5948 28.5248 17.5395 28.679 17.5392 28.8398C17.5388 29.0007 17.5934 29.1552 17.6912 29.27C17.7889 29.3848 17.9219 29.4507 18.0614 29.4535L19.6904 29.457V30.8152C19.6903 30.9638 19.639 31.1062 19.5478 31.2112C19.4566 31.3162 19.333 31.3753 19.2041 31.3754H10.5676C10.4387 31.3753 10.3151 31.3162 10.2239 31.2112C10.1327 31.1062 10.0814 30.9638 10.0812 30.8152V29.4275L15.9364 29.4469C16.076 29.445 16.2094 29.3799 16.3077 29.2656C16.406 29.1513 16.4613 28.9971 16.4616 28.8362C16.4619 28.6753 16.4073 28.5207 16.3095 28.4059C16.2117 28.2911 16.0786 28.2252 15.939 28.2226L8.52329 28.1981C7.91352 28.1928 7.33021 27.9104 6.90015 27.4122C6.47009 26.9141 6.22803 26.2405 6.22658 25.5379L6.25301 18.2167C6.25146 18.0559 6.19509 17.9023 6.09607 17.789C5.99704 17.6757 5.86333 17.6119 5.72379 17.6113C5.58426 17.6107 5.45012 17.6733 5.35034 17.7857C5.25056 17.8981 5.19315 18.0512 5.19051 18.2119L5.16406 25.5331C5.16902 26.0904 5.27599 26.6402 5.47798 27.1466C5.67998 27.653 5.97245 28.1046 6.33627 28.4719C6.7001 28.8391 7.12709 29.1137 7.58934 29.2778C8.05158 29.4418 8.53867 29.4917 9.01877 29.424L9.01874 30.8152C9.01926 31.2884 9.18262 31.7419 9.47298 32.0765C9.76335 32.411 10.157 32.5991 10.5676 32.5996H11.4661C11.2809 33.8533 10.949 35.0721 10.4794 36.2229H7.20426C7.06337 36.2229 6.92824 36.2874 6.82861 36.4022C6.72899 36.517 6.67301 36.6727 6.67301 36.8351C6.67301 36.9974 6.72899 37.1531 6.82861 37.2679C6.92824 37.3827 7.06337 37.4472 7.20426 37.4472C9.54955 37.4477 28.3038 37.4472 28.3038 37.4472C28.4434 37.4449 28.5766 37.3794 28.6746 37.2649C28.7726 37.1503 28.8276 36.9959 28.8276 36.8351C28.8276 36.6742 28.7726 36.5198 28.6746 36.4052C28.5766 36.2907 28.4434 36.2252 28.3038 36.2229ZM11.6448 36.2229C12.0722 35.0622 12.3741 33.8453 12.5437 32.5997H17.2282C17.3979 33.8453 17.6998 35.0621 18.1271 36.2229H11.6448Z" fill="white"/>
<path d="M19.4971 15.9679C19.9337 16.0394 20.3784 16.0031 20.8018 15.8612C21.2252 15.7194 21.6175 15.4753 21.9527 15.1452C22.2879 14.8152 22.5582 14.4066 22.7458 13.9468C22.9334 13.487 23.0338 12.9865 23.0405 12.4785V9.49136C23.0385 9.3305 22.9817 9.17701 22.8823 9.06407C22.7829 8.95112 22.6489 8.88781 22.5093 8.88781C22.3696 8.88781 22.2356 8.95112 22.1362 9.06407C22.0368 9.17701 21.98 9.3305 21.978 9.49136V12.4786C21.9774 13.0791 21.7701 13.6548 21.4016 14.0795C21.0331 14.5041 20.5334 14.7429 20.0123 14.7436H19.4971C18.976 14.7429 18.4763 14.5041 18.1078 14.0795C17.7393 13.6548 17.532 13.0791 17.5314 12.4786V7.99746C17.532 7.397 17.7393 6.82134 18.1079 6.39681C18.4764 5.97228 18.976 5.73355 19.4971 5.733H20.0123C20.4189 5.73295 20.8154 5.87838 21.1472 6.14919C21.479 6.42001 21.7296 6.80285 21.8644 7.24483C21.9124 7.39583 22.01 7.519 22.1362 7.58774C22.2623 7.65648 22.4069 7.66525 22.5386 7.61217C22.6704 7.55908 22.7787 7.44841 22.8402 7.30405C22.9016 7.1597 22.9114 6.99327 22.8672 6.84072C21.7667 3.16922 16.4317 3.96154 16.4689 7.99752L16.4689 12.4786C16.4698 13.4037 16.7891 14.2906 17.3568 14.9448C17.9245 15.599 18.6943 15.9669 19.4971 15.9679Z" fill="white"/>
<rect x="2.79443" y="32.3826" width="27.0137" height="5.36675" fill="#1E61DC"/>
</g>
<defs>
<clipPath id="clip0_3450_22426">
<rect width="34" height="39.1773" fill="white" transform="translate(0 0.71875)"/>
</clipPath>
</defs>
</svg>
