<svg width="65" height="65" viewBox="0 0 65 65" fill="none" xmlns="http://www.w3.org/2000/svg">
<path d="M63.088 15.8171V10.1965C63.0847 8.96833 62.5944 7.79159 61.7247 6.92433C60.8551 6.05706 59.677 5.57004 58.4488 5.57004H55.6704V2.84259C55.674 2.6056 55.5859 2.37639 55.4243 2.20296C55.2628 2.02953 55.0404 1.92534 54.8037 1.9122H5.3145C5.19184 1.91048 5.07009 1.93338 4.95643 1.97953C4.84277 2.02568 4.73952 2.09414 4.65279 2.18088C4.56605 2.26762 4.49758 2.37087 4.45143 2.48453C4.40528 2.59818 4.38239 2.71994 4.3841 2.84259V11.7642H2.84195C2.71535 11.764 2.59006 11.7896 2.47372 11.8395C2.35738 11.8894 2.25245 11.9626 2.16536 12.0544C2.07826 12.1463 2.01083 12.255 1.96719 12.3738C1.92355 12.4926 1.90462 12.6191 1.91155 12.7455C1.91155 12.9923 2.00958 13.2289 2.18406 13.4034C2.35854 13.5779 2.59519 13.6759 2.84195 13.6759H4.3841V21.6671H2.84195C2.59519 21.6671 2.35854 21.7651 2.18406 21.9396C2.00958 22.1141 1.91155 22.3507 1.91155 22.5975C1.91155 22.8442 2.00958 23.0809 2.18406 23.2554C2.35854 23.4299 2.59519 23.5279 2.84195 23.5279H4.3841V31.5573H2.84195C2.59519 31.5573 2.35854 31.6553 2.18406 31.8298C2.00958 32.0043 1.91155 32.2409 1.91155 32.4877C1.91155 32.7344 2.00958 32.9711 2.18406 33.1456C2.35854 33.3201 2.59519 33.4181 2.84195 33.4181H4.3841V41.4475H2.84195C2.59519 41.4475 2.35854 41.5455 2.18406 41.72C2.00958 41.8945 1.91155 42.1311 1.91155 42.3779C1.9149 42.6224 2.0144 42.8558 2.18853 43.0275C2.36265 43.1993 2.59738 43.2956 2.84195 43.2955H4.3841V51.3377H2.84195C2.59738 51.3377 2.36265 51.4339 2.18853 51.6057C2.0144 51.7774 1.9149 52.0108 1.91155 52.2553C1.9149 52.4999 2.0144 52.7333 2.18853 52.905C2.36265 53.0767 2.59738 53.173 2.84195 53.173H4.3841V62.0946C4.3841 62.3413 4.48213 62.578 4.65661 62.7524C4.83109 62.9269 5.06774 63.0249 5.3145 63.0249H54.8037C55.0505 63.0249 55.2871 62.9269 55.4616 62.7524C55.6361 62.578 55.7341 62.3413 55.7341 62.0946V59.3798H58.5125C59.7209 59.3634 60.8751 58.876 61.7297 58.0215C62.5842 57.167 63.0715 56.0127 63.088 54.8044V49.1838C63.0821 48.459 62.9061 47.7458 62.574 47.1016C62.2419 46.4574 61.7632 45.9002 61.1763 45.4749C61.7592 45.0477 62.2336 44.4895 62.5612 43.8452C62.8889 43.201 63.0606 42.4889 63.0625 41.7661V36.2093C63.0606 35.4865 62.8889 34.7743 62.5612 34.1301C62.2336 33.4859 61.7592 32.9277 61.1763 32.5004C61.7585 32.0725 62.2323 31.5141 62.5599 30.87C62.8874 30.226 63.0596 29.5142 63.0625 28.7916V23.2347C63.0606 22.512 62.8889 21.7998 62.5612 21.1556C62.2336 20.5114 61.7592 19.9532 61.1763 19.5259C61.7624 19.1 62.2407 18.5426 62.5726 17.8986C62.9046 17.2545 63.0811 16.5417 63.088 15.8171ZM14.2743 61.1769H6.23214V53.1475H7.78704C8.02607 53.1476 8.25569 53.0544 8.42707 52.8878C8.59845 52.7212 8.69805 52.4943 8.70469 52.2553C8.70471 52.0108 8.60844 51.776 8.43671 51.6019C8.26497 51.4278 8.03158 51.3283 7.78704 51.3249H6.23214V43.3338H7.78704C8.03042 43.3338 8.26383 43.2371 8.43592 43.065C8.60801 42.8929 8.70469 42.6595 8.70469 42.4161C8.70471 42.1716 8.60844 41.9368 8.43671 41.7627C8.26497 41.5886 8.03158 41.4891 7.78704 41.4857H6.23214V33.4563H7.78704C8.0338 33.4563 8.27045 33.3583 8.44493 33.1838C8.61941 33.0093 8.71744 32.7727 8.71744 32.5259C8.71744 32.2792 8.61941 32.0425 8.44493 31.868C8.27045 31.6936 8.0338 31.5955 7.78704 31.5955H6.23214V23.5661H7.78704C8.0338 23.5661 8.27045 23.4681 8.44493 23.2936C8.61941 23.1191 8.71744 22.8825 8.71744 22.6357C8.71744 22.389 8.61941 22.1523 8.44493 21.9778C8.27045 21.8034 8.0338 21.7053 7.78704 21.7053H6.23214V13.6759H7.78704C8.03158 13.6726 8.26497 13.5731 8.43671 13.399C8.60844 13.2248 8.70471 12.9901 8.70469 12.7455C8.70469 12.5022 8.60801 12.2688 8.43592 12.0967C8.26383 11.9246 8.03042 11.8279 7.78704 11.8279H6.23214V3.82396H14.2743V61.1769ZM53.7841 61.1769H16.1223V3.82396H53.8223L53.7841 61.1769ZM61.2018 49.1328V54.8044C61.2018 55.5446 60.9077 56.2546 60.3842 56.778C59.8608 57.3015 59.1508 57.5955 58.4106 57.5955H55.6704V46.4053H58.4488C59.1869 46.4053 59.8949 46.6976 60.418 47.2183C60.9411 47.739 61.2366 48.4457 61.24 49.1838L61.2018 49.1328ZM61.2018 36.1583V41.7151C61.2154 42.087 61.1545 42.4578 61.0228 42.8058C60.891 43.1537 60.691 43.4718 60.4345 43.7414C60.178 44.0109 59.8702 44.2265 59.5292 44.3754C59.1882 44.5242 58.8209 44.6034 58.4488 44.6083H55.6704V33.4308H58.4488C58.8148 33.4291 59.1774 33.4998 59.516 33.6387C59.8546 33.7775 60.1624 33.9819 60.4217 34.2401C60.6811 34.4983 60.8869 34.8051 61.0273 35.143C61.1677 35.481 61.24 35.8433 61.24 36.2093L61.2018 36.1583ZM61.2018 23.1838V28.7406C61.1984 29.4787 60.9028 30.1854 60.3797 30.7061C59.8567 31.2268 59.1486 31.5191 58.4106 31.5191H55.6704V20.3926H58.4488C58.8197 20.3925 59.1868 20.4664 59.5289 20.6098C59.8709 20.7533 60.1809 20.9634 60.4407 21.2281C60.7006 21.4927 60.9051 21.8064 61.0423 22.1509C61.1796 22.4955 61.2468 22.8639 61.24 23.2347L61.2018 23.1838ZM61.2018 15.7661C61.1984 16.5042 60.9028 17.2109 60.3797 17.7315C59.8567 18.2522 59.1486 18.5446 58.4106 18.5446H55.6704V7.46906H58.4488C59.1782 7.46887 59.8786 7.75418 60.4003 8.26392C60.9219 8.77366 61.2233 9.46735 61.24 10.1965L61.2018 15.7661Z" fill="#96AACE"/>
<path d="M24.4705 40.7847H36.8205C36.9421 40.7863 37.0628 40.7639 37.1756 40.7185C37.2884 40.6731 37.3911 40.6058 37.4777 40.5204C37.5642 40.435 37.633 40.3333 37.6799 40.2211C37.7268 40.109 37.7509 39.9886 37.7509 39.867V35.9033H45.4745C45.7212 35.9033 45.9579 35.8053 46.1323 35.6308C46.3068 35.4563 46.4048 35.2196 46.4048 34.9729V29.2376C46.3964 27.9574 45.9462 26.7193 45.1303 25.7327C44.9697 25.5588 44.7489 25.4527 44.5128 25.4359C44.2767 25.4192 44.043 25.493 43.8595 25.6425C43.6759 25.7919 43.5562 26.0057 43.5248 26.2403C43.4933 26.4749 43.5524 26.7127 43.6901 26.9052C44.264 27.5486 44.5894 28.3757 44.6078 29.2376V34.0425H34.0421V29.2376C34.0392 28.3854 34.3371 27.5594 34.8833 26.9052C35.021 26.7127 35.0801 26.4749 35.0487 26.2403C35.0172 26.0057 34.8975 25.7919 34.7139 25.6425C34.5304 25.493 34.2968 25.4192 34.0606 25.4359C33.8245 25.4527 33.6037 25.5588 33.4431 25.7327C32.6272 26.7193 32.177 27.9574 32.1686 29.2376V34.9729C32.1686 35.2196 32.2666 35.4563 32.4411 35.6308C32.6156 35.8053 32.8522 35.9033 33.099 35.9033H35.8774V38.9876H25.3882V34.1827C25.3882 33.3348 25.6859 32.5139 26.2294 31.8631C26.3671 31.6706 26.4262 31.4328 26.3947 31.1982C26.3633 30.9636 26.2436 30.7498 26.06 30.6003C25.8765 30.4509 25.6428 30.377 25.4067 30.3938C25.1706 30.4105 24.9498 30.5167 24.7892 30.6905C23.9733 31.6771 23.523 32.9152 23.5146 34.1954V39.9307C23.5341 40.1685 23.6442 40.3896 23.8221 40.5485C24 40.7075 24.2321 40.792 24.4705 40.7847Z" fill="#96AACE"/>
<path d="M39.2933 26.0129C40.0909 26.0154 40.8713 25.781 41.5356 25.3395C42.1999 24.8979 42.718 24.269 43.0245 23.5326C43.3309 22.7961 43.4117 21.9853 43.2567 21.2029C43.1017 20.4204 42.7179 19.7016 42.1539 19.1376C41.5898 18.5736 40.871 18.1898 40.0886 18.0348C39.3062 17.8798 38.4953 17.9606 37.7589 18.267C37.0225 18.5734 36.3936 19.0916 35.952 19.7559C35.5104 20.4201 35.2761 21.2006 35.2786 21.9982C35.2819 23.0619 35.706 24.0811 36.4582 24.8333C37.2104 25.5855 38.2296 26.0095 39.2933 26.0129ZM39.2933 19.8315C39.7223 19.829 40.1425 19.9539 40.5005 20.1905C40.8585 20.427 41.1381 20.7645 41.3041 21.1602C41.47 21.5558 41.5148 21.9919 41.4326 22.413C41.3505 22.8341 41.1451 23.2214 40.8426 23.5257C40.5401 23.83 40.1541 24.0376 39.7334 24.1222C39.3128 24.2069 38.8765 24.1647 38.4799 24.0011C38.0832 23.8375 37.7441 23.5598 37.5054 23.2032C37.2668 22.8467 37.1394 22.4273 37.1394 21.9982C37.1394 21.4258 37.3659 20.8766 37.7695 20.4706C38.173 20.0646 38.7209 19.8349 39.2933 19.8315ZM29.4031 30.7158C29.5001 30.733 29.5993 30.733 29.6962 30.7158C29.8916 30.717 30.0822 30.6559 30.2403 30.5413C30.3985 30.4267 30.516 30.2646 30.5756 30.0786C30.6524 29.8453 30.6339 29.5912 30.5241 29.3715C30.4143 29.1519 30.2221 28.9845 29.9894 28.906C29.4974 28.695 29.101 28.3093 28.8766 27.8233C28.6522 27.3373 28.6156 26.7855 28.7739 26.2741C28.9322 25.7627 29.2742 25.3281 29.734 25.0539C30.1938 24.7798 30.7387 24.6855 31.2639 24.7894C31.3821 24.8397 31.5095 24.8646 31.638 24.8626C31.7664 24.8605 31.893 24.8316 32.0095 24.7775C32.1261 24.7234 32.23 24.6455 32.3145 24.5487C32.399 24.452 32.4622 24.3386 32.5002 24.2158C32.5379 24.0995 32.5523 23.9769 32.5427 23.855C32.533 23.7331 32.4994 23.6143 32.4437 23.5054C32.3881 23.3965 32.3115 23.2996 32.2184 23.2203C32.1253 23.141 32.0175 23.0809 31.9011 23.0433C30.8871 22.7053 29.7803 22.7839 28.8242 23.262C27.8681 23.74 27.1411 24.5782 26.8031 25.5923C26.4651 26.6064 26.5437 27.7132 27.0218 28.6692C27.4998 29.6253 28.3381 30.3523 29.3521 30.6903L29.4031 30.7158ZM24.4707 48.2531H45.4747C45.6051 48.2684 45.7373 48.256 45.8626 48.2166C45.9879 48.1771 46.1035 48.1116 46.2016 48.0243C46.2998 47.937 46.3783 47.83 46.4321 47.7101C46.4859 47.5903 46.5138 47.4604 46.5138 47.3291C46.5138 47.1977 46.4859 47.0678 46.4321 46.948C46.3783 46.8282 46.2998 46.7211 46.2016 46.6338C46.1035 46.5465 45.9879 46.481 45.8626 46.4416C45.7373 46.4021 45.6051 46.3897 45.4747 46.405H24.4707C24.3403 46.3897 24.2081 46.4021 24.0828 46.4416C23.9575 46.481 23.8419 46.5465 23.7438 46.6338C23.6456 46.7211 23.5671 46.8282 23.5133 46.948C23.4595 47.0678 23.4316 47.1977 23.4316 47.3291C23.4316 47.4604 23.4595 47.5903 23.5133 47.7101C23.5671 47.83 23.6456 47.937 23.7438 48.0243C23.8419 48.1116 23.9575 48.1771 24.0828 48.2166C24.2081 48.256 24.3403 48.2684 24.4707 48.2531Z" fill="#96AACE"/>
</svg>
