<svg width="237" height="532" viewBox="0 0 237 532" fill="none" xmlns="http://www.w3.org/2000/svg">
<path d="M166.578 359.863C166.578 359.863 174.218 389.648 161.699 401.851C149.181 414.054 169.298 425.256 152.38 446.027C135.462 466.799 162.619 479.706 143.501 505.522C131.143 522.176 145.421 531.227 145.421 531.227C145.421 531.227 124.384 523.92 125.383 502.592C126.383 481.264 121.104 466.613 108.066 457.006C95.0272 447.4 83.1886 430.449 93.8673 407.526C104.546 384.603 80.9888 365.946 80.9888 365.946L166.578 359.863Z" fill="url(#paint0_linear_4286_24721)"/>
<path d="M150.939 357.156C150.939 357.156 158.898 382.119 145.98 398.365C133.062 414.611 152.779 421.733 135.101 439.129C122.623 451.406 135.941 459.678 135.861 467.318C135.741 477.074 128.262 482.118 128.262 482.118C128.262 482.118 134.141 467.467 122.863 455.523C114.664 446.807 96.8659 432.304 105.945 417.059C115.024 401.815 89.4269 365.873 89.4269 365.873L150.939 357.156Z" fill="#DD6A0B"/>
<path d="M60.7903 272.513L19.0354 308.306C-0.002316 324.626 -5.40169 350.554 5.75696 372.252L31.9138 423.179L36.2733 424.663L44.7522 376.481C48.2318 363.795 55.6709 352.334 66.1496 343.543L74.1087 336.83L65.1498 273.996L60.7903 272.513Z" fill="url(#paint1_linear_4286_24721)"/>
<path d="M65.1491 273.996L23.3942 309.79C4.35647 326.11 -1.04285 352.037 10.1158 373.736L36.2726 424.662L49.1111 377.964C52.5906 365.279 60.0297 353.817 70.5085 345.027L78.4675 338.313L65.1491 273.996Z" fill="url(#paint2_linear_4286_24721)"/>
<path d="M180.256 275.776L219.691 313.758C237.689 331.08 241.408 357.267 228.93 378.335L199.614 427.741L195.174 429.002L189.735 380.449C187.055 367.578 180.336 355.746 170.457 346.399L162.898 339.277L175.776 277.037L180.256 275.776Z" fill="url(#paint3_linear_4286_24721)"/>
<path d="M175.815 277.001L215.251 314.983C233.248 332.305 236.968 358.491 224.49 379.559L195.173 428.966L185.294 381.637C182.615 368.766 175.895 356.934 166.017 347.586L158.458 340.465L175.815 277.001Z" fill="url(#paint4_linear_4286_24721)"/>
<path d="M187.216 284.79L53.3121 281.155L67.8703 352.037H67.9503C68.9902 365.873 90.5076 377.371 117.264 378.113C144.021 378.855 166.218 368.506 168.138 354.745H168.218L187.216 284.79Z" fill="url(#paint5_linear_4286_24721)"/>
<path d="M188.615 278.114C187.975 297.772 156.978 312.906 119.343 311.867C81.7076 310.828 51.6713 294.063 52.3112 274.404C52.9511 254.746 83.9473 239.612 121.583 240.651C159.218 241.69 189.215 258.455 188.615 278.114Z" fill="url(#paint6_linear_4286_24721)"/>
<path d="M191.455 273.292C190.815 293.544 158.579 309.085 119.464 308.046C80.3485 306.971 49.1522 289.723 49.7921 269.471C41.6731 151.594 72.4294 72.1064 72.4294 72.1064H72.6694C72.5094 72.9596 72.3894 73.7756 72.3494 74.6287C72.3494 74.777 72.3494 74.9625 72.3494 75.1109C72.3494 75.2592 72.3094 75.4447 72.3094 75.593C71.8295 91.1344 95.7866 104.413 125.863 105.229C155.939 106.045 180.696 94.1018 181.176 78.5604C181.176 78.3749 181.176 78.2266 181.176 78.0411C181.176 77.8927 181.216 77.7444 181.216 77.596C181.256 76.7429 181.176 75.8898 181.056 75.0367H181.296C181.256 74.9996 206.973 156.082 191.455 273.292Z" fill="url(#paint7_linear_4286_24721)"/>
<path d="M181.175 78.004C181.175 78.1895 181.175 78.3378 181.175 78.5233C180.695 94.0647 155.938 106.008 125.862 105.192C95.7856 104.376 71.8285 91.0974 72.3084 75.556C72.3084 75.4076 72.3084 75.2221 72.3484 75.0738C72.3484 74.9254 72.3484 74.74 72.3484 74.5916C72.3884 73.7385 72.4684 72.8854 72.6684 72.0693L181.055 74.9996C181.175 75.8527 181.215 76.7058 181.215 77.5589C181.175 77.7073 181.175 77.8556 181.175 78.004Z" fill="url(#paint8_linear_4286_24721)"/>
<path d="M181.135 78.5238C180.655 94.0652 155.898 106.009 125.822 105.193C95.7455 104.377 71.7884 91.0978 72.2683 75.5564C72.2683 75.4081 72.2683 75.2226 72.3083 75.0742C72.3883 74.0357 72.5483 73.0342 72.8283 72.0698C73.0282 71.3651 73.2282 70.6974 73.5481 70.0298C73.5881 69.9556 73.6282 69.8443 73.6681 69.7701C74.0281 68.917 76.8278 54.34 90.8661 35.8684C107.224 14.3181 125.942 0.816746 129.141 0.890929C132.421 0.965112 150.979 16.2098 166.137 38.8357C178.255 56.8993 179.375 70.4749 179.895 71.9214C180.335 72.9229 180.655 73.9615 180.855 75C181.055 76.0015 181.175 77.003 181.175 78.0045C181.175 78.1899 181.175 78.3383 181.135 78.5238Z" fill="url(#paint9_linear_4286_24721)"/>
<path d="M181.176 77.559C181.176 77.7073 181.176 77.8557 181.136 78.004C180.216 93.36 155.619 105.081 125.862 104.265C96.106 103.449 72.3489 90.4297 72.3089 75.1109C72.3089 74.9625 72.3089 74.7771 72.3089 74.6287C72.3489 73.7756 72.4289 72.9225 72.6289 72.1065C72.8289 71.105 73.1488 70.1035 73.5487 69.1392C73.5887 69.065 73.6287 68.9908 73.6687 68.8795C74.0287 68.0264 76.8284 53.4494 90.8667 34.9777C107.225 13.4275 125.942 -0.0738792 129.142 0.000304143C132.422 0.0744874 150.979 15.3192 166.138 37.9451C178.256 56.0087 179.376 69.5842 179.896 71.0308C180.456 72.329 180.816 73.6643 181.016 75.0367C181.176 75.8527 181.216 76.7059 181.176 77.559Z" fill="#4468CA"/>
<path d="M126.863 308.454L138.341 344.396C143.581 360.79 144.221 385.939 139.901 406.487L129.742 454.669L125.823 454.558L127.623 409.232C127.063 396.881 125.223 385.568 122.303 376.74L120.104 370.026L122.903 308.38L126.863 308.454Z" fill="url(#paint10_linear_4286_24721)"/>
<path d="M122.943 308.343L134.421 344.285C139.661 360.679 140.301 385.827 135.981 406.376L125.822 454.558L123.743 409.121C123.183 396.769 121.343 385.456 118.423 376.629L116.224 369.915L122.943 308.343Z" fill="url(#paint11_linear_4286_24721)"/>
<path d="M175.257 173.626C174.537 196.326 153.26 214.204 127.743 213.499C102.226 212.795 82.1082 193.841 82.8281 171.104C83.548 148.404 104.825 130.525 130.342 131.23C155.859 131.972 175.977 150.926 175.257 173.626Z" fill="url(#paint12_linear_4286_24721)"/>
<path d="M175.136 177.706C174.416 200.406 153.139 218.284 127.622 217.579C102.105 216.875 81.9871 197.921 82.707 175.184C83.4269 152.484 104.704 134.605 130.221 135.31C155.738 136.015 175.856 155.006 175.136 177.706Z" fill="url(#paint13_linear_4286_24721)"/>
<path d="M166.617 177.483C166.018 196.029 148.66 210.606 127.822 210.013C106.985 209.456 90.5866 193.952 91.1466 175.443C91.1865 174.776 91.2266 174.071 91.2666 173.403C91.9065 191.022 107.865 205.413 127.942 205.97C148.02 206.526 164.858 193.025 166.577 175.443C166.657 176.111 166.657 176.779 166.617 177.483Z" fill="url(#paint14_linear_4286_24721)"/>
<path d="M166.618 175.443C164.858 192.988 148.02 206.489 127.982 205.97C107.905 205.413 91.9467 191.022 91.3068 173.403C93.0666 155.859 109.905 142.358 129.942 142.877C150.02 143.433 166.018 157.825 166.618 175.443Z" fill="url(#paint15_linear_4286_24721)"/>
<defs>
<linearGradient id="paint0_linear_4286_24721" x1="147.857" y1="353.814" x2="97.0081" y2="515.875" gradientUnits="userSpaceOnUse">
<stop stop-color="#F58B21"/>
<stop offset="1" stop-color="#F5B419"/>
</linearGradient>
<linearGradient id="paint1_linear_4286_24721" x1="-7.27267" y1="354.823" x2="66.419" y2="357.154" gradientUnits="userSpaceOnUse">
<stop stop-color="#212253"/>
<stop offset="1" stop-color="#313F95"/>
</linearGradient>
<linearGradient id="paint2_linear_4286_24721" x1="-2.88876" y1="355.624" x2="70.8037" y2="357.955" gradientUnits="userSpaceOnUse">
<stop stop-color="#4468CA"/>
<stop offset="1" stop-color="#2C3C91"/>
</linearGradient>
<linearGradient id="paint3_linear_4286_24721" x1="236.311" y1="353.627" x2="162.619" y2="351.302" gradientUnits="userSpaceOnUse">
<stop stop-color="#212253"/>
<stop offset="1" stop-color="#313F95"/>
</linearGradient>
<linearGradient id="paint4_linear_4286_24721" x1="153.876" y1="337.828" x2="201.289" y2="389.244" gradientUnits="userSpaceOnUse">
<stop stop-color="#5988EF"/>
<stop offset="1" stop-color="#4468CA"/>
</linearGradient>
<linearGradient id="paint5_linear_4286_24721" x1="44.5238" y1="336.248" x2="178.427" y2="340.483" gradientUnits="userSpaceOnUse">
<stop stop-color="#4468CA"/>
<stop offset="1" stop-color="#5988EF"/>
</linearGradient>
<linearGradient id="paint6_linear_4286_24721" x1="45.0318" y1="281.955" x2="181.348" y2="286.266" gradientUnits="userSpaceOnUse">
<stop stop-color="#212253"/>
<stop offset="1" stop-color="#313F95"/>
</linearGradient>
<linearGradient id="paint7_linear_4286_24721" x1="42.1644" y1="196.323" x2="189.622" y2="200.986" gradientUnits="userSpaceOnUse">
<stop stop-color="#8F92C7"/>
<stop offset="0.732" stop-color="#CFD5EB"/>
<stop offset="0.997" stop-color="white"/>
</linearGradient>
<linearGradient id="paint8_linear_4286_24721" x1="64.6869" y1="95.4267" x2="173.518" y2="98.8686" gradientUnits="userSpaceOnUse">
<stop stop-color="#8F92C7"/>
<stop offset="1" stop-color="#CFD5EB"/>
</linearGradient>
<linearGradient id="paint9_linear_4286_24721" x1="163.156" y1="61.7606" x2="90.3023" y2="59.4565" gradientUnits="userSpaceOnUse">
<stop stop-color="#212253"/>
<stop offset="1" stop-color="#313F95"/>
</linearGradient>
<linearGradient id="paint10_linear_4286_24721" x1="142.775" y1="381.872" x2="119.869" y2="381.15" gradientUnits="userSpaceOnUse">
<stop stop-color="#212253"/>
<stop offset="1" stop-color="#313F95"/>
</linearGradient>
<linearGradient id="paint11_linear_4286_24721" x1="119.941" y1="388.89" x2="115.109" y2="357.829" gradientUnits="userSpaceOnUse">
<stop stop-color="#505FAA"/>
<stop offset="1" stop-color="#2C3C91"/>
</linearGradient>
<linearGradient id="paint12_linear_4286_24721" x1="94.5685" y1="179.191" x2="158.968" y2="181.228" gradientUnits="userSpaceOnUse">
<stop stop-color="#212253"/>
<stop offset="1" stop-color="#313F95"/>
</linearGradient>
<linearGradient id="paint13_linear_4286_24721" x1="115.944" y1="226.011" x2="124.9" y2="149.591" gradientUnits="userSpaceOnUse">
<stop stop-color="#8F92C7"/>
<stop offset="1" stop-color="#CFD5EB"/>
</linearGradient>
<linearGradient id="paint14_linear_4286_24721" x1="101.881" y1="199.236" x2="161.487" y2="201.121" gradientUnits="userSpaceOnUse">
<stop stop-color="#212253"/>
<stop offset="1" stop-color="#313F95"/>
</linearGradient>
<linearGradient id="paint15_linear_4286_24721" x1="159.393" y1="182.986" x2="84.0852" y2="180.605" gradientUnits="userSpaceOnUse">
<stop stop-color="#5988EF"/>
<stop offset="1" stop-color="#4468CA"/>
</linearGradient>
</defs>
</svg>
