<svg width="406" height="687" viewBox="0 0 406 687" fill="none" xmlns="http://www.w3.org/2000/svg">
<mask id="mask0_4190_20570" style="mask-type:luminance" maskUnits="userSpaceOnUse" x="123" y="384" width="12" height="85">
<path d="M134.374 411.383L131.71 468.895C128.803 459.872 125.936 450.848 123.029 441.824L125.694 384.312C128.601 393.336 131.467 402.36 134.374 411.383Z" fill="white"/>
</mask>
<g mask="url(#mask0_4190_20570)">
<path d="M134.374 411.383L131.71 468.895C128.803 459.872 125.936 450.848 123.029 441.824L125.694 384.312C128.601 393.336 131.467 402.36 134.374 411.383Z" fill="url(#paint0_linear_4190_20570)"/>
</g>
<path d="M346.172 415.052L343.507 472.564L319.041 495.516L321.706 437.967L346.172 415.052Z" fill="url(#paint1_linear_4190_20570)"/>
<path d="M54.639 467.284L51.9743 524.833L15.8809 509.182L18.5455 451.633L54.639 467.284Z" fill="url(#paint2_linear_4190_20570)"/>
<mask id="mask1_4190_20570" style="mask-type:luminance" maskUnits="userSpaceOnUse" x="402" y="497" width="4" height="66">
<path d="M405.763 497.275L403.098 554.787C402.977 557.52 402.613 560.216 402.008 562.875L404.672 505.363C405.238 502.705 405.601 500.009 405.763 497.275Z" fill="white"/>
</mask>
<g mask="url(#mask1_4190_20570)">
<path d="M405.763 497.275L403.099 554.787C403.058 555.798 402.978 556.809 402.856 557.783L405.521 500.271C405.602 499.297 405.683 498.286 405.763 497.275Z" fill="#5E6072"/>
<path d="M405.52 500.308L402.856 557.819C402.654 559.504 402.371 561.227 402.008 562.874L404.672 505.362C405.036 503.677 405.318 501.993 405.52 500.308Z" fill="#616477"/>
</g>
<path d="M116.207 555.835C116.247 555.199 116.288 554.562 116.368 553.926C116.368 553.776 116.409 553.626 116.409 553.476C116.49 552.915 116.57 552.316 116.651 551.754C116.691 551.529 116.732 551.305 116.772 551.08C116.853 550.556 116.974 550.032 117.095 549.507C117.136 549.32 117.176 549.096 117.257 548.908C117.337 548.609 117.418 548.309 117.499 547.972C117.58 547.673 117.66 547.373 117.741 547.111C117.822 546.812 117.943 546.512 118.064 546.175C118.145 545.913 118.266 545.651 118.347 545.351C118.67 544.453 119.074 543.554 119.477 542.655C119.558 542.468 119.639 542.318 119.719 542.131C120.123 541.307 120.527 540.521 120.971 539.697C121.052 539.585 121.133 539.435 121.213 539.323C121.577 538.724 121.94 538.125 122.303 537.526C122.424 537.339 122.586 537.114 122.707 536.927C123.111 536.328 123.515 535.766 123.959 535.167C124.039 535.055 124.12 534.942 124.201 534.83C124.685 534.193 125.21 533.519 125.775 532.883C125.937 532.696 126.098 532.508 126.26 532.359C126.664 531.909 127.067 531.46 127.471 531.011C127.673 530.786 127.875 530.561 128.077 530.374C128.48 529.962 128.884 529.551 129.288 529.176C129.611 528.877 129.893 528.577 130.216 528.277C130.903 527.641 131.589 527.004 132.316 526.405C132.598 526.143 132.921 525.919 133.204 525.656C133.729 525.245 134.254 524.795 134.819 524.383C135.142 524.159 135.425 523.897 135.748 523.672C136.353 523.223 136.959 522.773 137.605 522.362C137.847 522.174 138.13 521.987 138.372 521.8C139.26 521.201 140.189 520.602 141.117 520.04C141.158 520.003 141.198 520.003 141.238 519.965C142.127 519.404 143.055 518.879 144.024 518.355C144.428 518.131 144.831 517.943 145.235 517.719C145.841 517.382 146.487 517.045 147.092 516.745C147.577 516.52 148.061 516.258 148.546 516.034C149.111 515.772 149.717 515.472 150.322 515.21C150.887 514.948 151.493 514.686 152.099 514.461C152.623 514.237 153.189 514.012 153.754 513.787C154.561 513.45 155.409 513.151 156.257 512.814C156.661 512.664 157.065 512.514 157.468 512.364C158.801 511.878 160.133 511.428 161.465 511.016C161.707 510.942 161.95 510.867 162.232 510.792C163.484 510.417 164.735 510.043 166.027 509.706C166.431 509.594 166.875 509.481 167.279 509.369C169.055 508.92 170.832 508.508 172.649 508.133C172.972 508.058 173.295 508.021 173.618 507.946C174.627 507.759 175.636 507.534 176.686 507.385C177.17 507.31 177.695 507.235 178.22 507.16C179.068 507.01 179.956 506.898 180.804 506.785C181.208 506.748 181.571 506.673 181.975 506.636C183.267 506.486 184.518 506.336 185.81 506.186C186.295 506.149 186.779 506.074 187.304 506.037C188.677 505.924 190.049 505.812 191.462 505.737C191.745 505.737 192.028 505.7 192.31 505.7C193.966 505.625 195.621 505.587 197.276 505.55C197.72 505.55 198.164 505.55 198.608 505.55C199.9 505.55 201.152 505.55 202.444 505.587C203.009 505.587 203.574 505.625 204.14 505.625C204.745 505.662 205.31 505.662 205.916 505.7C206.643 505.737 207.41 505.775 208.136 505.812C208.742 505.849 209.307 505.887 209.913 505.924C210.519 505.962 211.124 506.037 211.73 506.074C213.022 506.186 214.314 506.336 215.606 506.486C216.009 506.523 216.413 506.561 216.817 506.636C218.23 506.823 219.602 507.01 220.975 507.272C221.096 507.272 221.177 507.31 221.298 507.31C222.711 507.534 224.124 507.796 225.537 508.096C226.102 508.208 226.668 508.358 227.273 508.47C228.04 508.658 228.848 508.807 229.615 508.995C230.463 509.182 231.311 509.406 232.118 509.631C232.562 509.743 233.047 509.856 233.491 509.968C234.783 510.305 236.034 510.679 237.286 511.091C237.367 511.129 237.447 511.129 237.488 511.166C238.659 511.541 239.789 511.915 240.96 512.289C241.323 512.439 241.727 512.552 242.09 512.701C242.898 513.001 243.746 513.3 244.553 513.6C244.997 513.75 245.401 513.937 245.845 514.124C246.814 514.499 247.783 514.91 248.752 515.322C250.367 516.034 251.901 516.745 253.395 517.494C253.475 517.531 253.556 517.569 253.597 517.606C254.888 518.243 256.14 518.917 257.351 519.591C257.634 519.741 257.916 519.928 258.199 520.078C259.451 520.789 260.662 521.5 261.833 522.249C261.994 522.362 262.156 522.474 262.317 522.586C263.326 523.223 264.295 523.897 265.224 524.571C265.547 524.795 265.83 525.02 266.112 525.207C267.162 525.993 268.171 526.742 269.14 527.566C269.181 527.604 269.221 527.641 269.261 527.678C270.271 528.502 271.24 529.363 272.168 530.262C272.491 530.561 272.814 530.898 273.137 531.198C273.743 531.797 274.308 532.359 274.873 532.958C275.277 533.37 275.64 533.819 276.044 534.231C276.488 534.755 276.932 535.279 277.376 535.766C277.861 536.365 278.345 536.964 278.789 537.601C279.193 538.125 279.597 538.649 279.96 539.211C280.162 539.473 280.324 539.735 280.485 539.997C281.01 540.783 281.494 541.57 281.979 542.393C282.06 542.543 282.181 542.73 282.261 542.88C282.786 543.854 283.311 544.79 283.755 545.763C283.876 546.025 283.957 546.287 284.078 546.512C284.401 547.261 284.724 548.01 285.007 548.759C285.128 549.058 285.209 549.358 285.33 549.657C285.612 550.556 285.895 551.417 286.137 552.316C286.178 552.428 286.218 552.54 286.218 552.653C286.46 553.664 286.662 554.637 286.824 555.648C286.864 555.91 286.904 556.21 286.945 556.472C287.066 557.221 287.147 558.007 287.187 558.756C287.227 559.055 287.227 559.355 287.227 559.654C287.268 560.665 287.268 561.676 287.227 562.687L289.892 505.175C289.932 504.164 289.932 503.154 289.892 502.143C289.892 501.843 289.852 501.543 289.852 501.244C289.811 500.495 289.73 499.709 289.609 498.96C289.569 498.66 289.529 498.398 289.488 498.099C289.327 497.088 289.125 496.077 288.883 495.103C288.842 494.991 288.802 494.879 288.802 494.766C288.56 493.868 288.317 493.007 287.994 492.108C287.873 491.808 287.793 491.509 287.671 491.209C287.389 490.461 287.066 489.712 286.743 488.963C286.622 488.701 286.541 488.439 286.42 488.214C285.976 487.278 285.532 486.379 285.047 485.481C285.007 485.443 284.966 485.368 284.966 485.331C284.886 485.181 284.765 484.994 284.684 484.844C284.199 484.058 283.715 483.234 283.19 482.448C283.029 482.186 282.827 481.924 282.665 481.662C282.504 481.437 282.342 481.212 282.181 480.988C281.979 480.688 281.696 480.388 281.454 480.089C281.01 479.49 280.525 478.853 280.041 478.254C279.879 478.067 279.718 477.842 279.556 477.655C279.274 477.356 278.991 477.019 278.709 476.719C278.305 476.27 277.942 475.858 277.538 475.446C277.376 475.259 277.215 475.072 277.013 474.884C276.609 474.473 276.205 474.098 275.802 473.686C275.479 473.387 275.156 473.05 274.833 472.75C274.712 472.638 274.631 472.526 274.51 472.413C273.702 471.664 272.854 470.916 271.966 470.204C271.966 470.204 271.966 470.204 271.926 470.167C271.886 470.129 271.845 470.092 271.805 470.092C271.038 469.455 270.23 468.819 269.423 468.22C269.221 468.07 268.979 467.883 268.736 467.733C268.454 467.508 268.131 467.284 267.848 467.096C267.485 466.834 267.162 466.61 266.839 466.347C266.233 465.936 265.587 465.524 264.941 465.074C264.78 464.962 264.618 464.85 264.457 464.737C264.376 464.7 264.336 464.663 264.255 464.625C263.367 464.064 262.479 463.539 261.55 462.978C261.308 462.828 261.066 462.716 260.823 462.566C260.541 462.416 260.258 462.229 259.976 462.079C259.572 461.854 259.208 461.63 258.805 461.443C257.957 460.993 257.109 460.544 256.221 460.132C256.14 460.095 256.059 460.057 256.019 460.02C255.979 460.02 255.979 459.982 255.938 459.982C254.969 459.496 253.96 459.046 252.991 458.559C252.466 458.335 251.941 458.073 251.376 457.848C250.892 457.623 250.367 457.436 249.882 457.212C249.438 457.024 248.954 456.837 248.469 456.65C248.025 456.463 247.621 456.313 247.177 456.126C247.016 456.051 246.814 455.976 246.652 455.938C246.006 455.714 245.36 455.489 244.714 455.227C244.311 455.077 243.947 454.928 243.544 454.815C243.463 454.778 243.382 454.74 243.301 454.74C242.252 454.366 241.162 454.029 240.072 453.692C239.991 453.654 239.91 453.654 239.87 453.617C238.659 453.243 237.447 452.868 236.196 452.531C236.155 452.531 236.115 452.494 236.075 452.494C235.59 452.381 235.146 452.269 234.662 452.119C233.894 451.932 233.168 451.707 232.401 451.52C232.32 451.52 232.28 451.483 232.199 451.483C231.432 451.296 230.624 451.146 229.857 450.959C229.332 450.846 228.808 450.734 228.283 450.622C228.242 450.622 228.202 450.622 228.121 450.584C226.708 450.285 225.295 450.023 223.882 449.798C223.882 449.798 223.882 449.798 223.842 449.798C223.761 449.798 223.64 449.76 223.559 449.76C222.186 449.536 220.773 449.311 219.401 449.124C219.279 449.124 219.158 449.086 219.037 449.086C218.755 449.049 218.472 449.012 218.149 448.974C216.857 448.824 215.565 448.675 214.273 448.562C213.991 448.525 213.748 448.487 213.466 448.487C213.102 448.45 212.779 448.45 212.416 448.413C211.81 448.375 211.245 448.338 210.64 448.3C209.913 448.263 209.146 448.225 208.419 448.188C207.854 448.15 207.248 448.113 206.683 448.113C206.4 448.113 206.118 448.076 205.835 448.076C205.553 448.076 205.27 448.076 204.987 448.076C203.695 448.038 202.444 448.038 201.152 448.038C200.708 448.038 200.264 448.038 199.82 448.038C198.164 448.076 196.509 448.113 194.854 448.188C194.571 448.188 194.289 448.225 194.046 448.225C192.633 448.3 191.261 448.413 189.888 448.525C189.403 448.562 188.919 448.6 188.394 448.675C187.102 448.787 185.81 448.937 184.559 449.124C184.276 449.161 183.993 449.199 183.751 449.199C183.63 449.199 183.509 449.236 183.428 449.236C182.54 449.349 181.692 449.498 180.844 449.648C180.319 449.723 179.835 449.798 179.31 449.873C178.301 450.06 177.251 450.247 176.242 450.434C175.919 450.509 175.636 450.547 175.313 450.622H175.273C173.456 450.996 171.68 451.408 169.903 451.857C169.701 451.895 169.459 451.97 169.257 452.007C169.055 452.044 168.853 452.119 168.652 452.194C167.36 452.531 166.108 452.906 164.857 453.28C164.655 453.355 164.453 453.392 164.251 453.467C164.211 453.467 164.13 453.505 164.089 453.505C162.717 453.917 161.384 454.366 160.093 454.853C160.052 454.89 159.971 454.89 159.931 454.928C159.568 455.04 159.245 455.19 158.922 455.339C158.074 455.639 157.226 455.976 156.419 456.313C156.297 456.35 156.176 456.388 156.055 456.463C155.611 456.65 155.207 456.837 154.804 457.024C154.198 457.286 153.633 457.511 153.027 457.773C152.906 457.848 152.745 457.885 152.624 457.96C152.179 458.185 151.735 458.41 151.291 458.597C150.807 458.822 150.322 459.046 149.838 459.308C149.717 459.346 149.596 459.421 149.515 459.458C148.99 459.72 148.505 460.02 147.981 460.282C147.577 460.506 147.173 460.694 146.769 460.918C146.689 460.956 146.608 460.993 146.568 461.031C145.72 461.517 144.872 462.004 144.024 462.528C143.984 462.566 143.943 462.566 143.903 462.603C143.015 463.127 142.167 463.689 141.359 464.251C141.279 464.288 141.238 464.363 141.158 464.401C140.915 464.588 140.633 464.775 140.39 464.925C139.906 465.262 139.422 465.561 138.977 465.898C138.816 466.011 138.695 466.123 138.533 466.235C138.21 466.46 137.928 466.684 137.605 466.947C137.282 467.171 136.999 467.396 136.676 467.658C136.434 467.845 136.232 468.032 135.99 468.22C135.707 468.482 135.384 468.706 135.102 468.968C134.9 469.118 134.698 469.305 134.536 469.455C134.012 469.905 133.487 470.354 133.002 470.841C132.841 470.99 132.639 471.178 132.477 471.327C132.356 471.477 132.195 471.589 132.074 471.739C131.67 472.151 131.266 472.563 130.862 472.937C130.741 473.05 130.62 473.162 130.499 473.274C130.418 473.387 130.338 473.462 130.216 473.574C129.813 474.023 129.409 474.473 129.005 474.922C128.884 475.072 128.763 475.184 128.642 475.334C128.602 475.371 128.561 475.446 128.521 475.483C127.996 476.12 127.471 476.757 126.946 477.43C126.946 477.468 126.906 477.468 126.906 477.505C126.825 477.58 126.785 477.693 126.744 477.767C126.3 478.367 125.897 478.928 125.493 479.527C125.412 479.64 125.372 479.714 125.291 479.827C125.21 479.939 125.17 480.051 125.089 480.164C124.685 480.763 124.322 481.362 123.959 481.961C123.918 482.073 123.838 482.148 123.797 482.261C123.797 482.298 123.757 482.335 123.757 482.335C123.313 483.122 122.869 483.945 122.505 484.769C122.465 484.844 122.424 484.956 122.384 485.031C122.344 485.106 122.303 485.219 122.263 485.293C121.859 486.192 121.456 487.091 121.133 487.989C121.133 488.027 121.092 488.064 121.092 488.102C121.011 488.326 120.931 488.551 120.85 488.776C120.729 489.075 120.648 489.412 120.527 489.712C120.446 490.011 120.365 490.273 120.285 490.573C120.204 490.872 120.123 491.209 120.042 491.509C120.042 491.584 120.002 491.659 120.002 491.696C119.962 491.846 119.962 491.958 119.921 492.108C119.8 492.632 119.679 493.156 119.598 493.718C119.558 493.943 119.518 494.167 119.477 494.392C119.396 494.954 119.316 495.515 119.235 496.114C119.235 496.227 119.195 496.339 119.195 496.451C119.195 496.489 119.195 496.526 119.195 496.564C119.114 497.2 119.074 497.837 119.033 498.473L116.207 555.835Z" fill="url(#paint3_linear_4190_20570)"/>
<mask id="mask2_4190_20570" style="mask-type:luminance" maskUnits="userSpaceOnUse" x="359" y="505" width="46" height="63">
<path d="M404.632 505.363L401.967 562.875C387.796 564.448 373.545 566.058 359.293 567.668L361.958 510.156C376.209 508.546 390.461 506.936 404.632 505.363Z" fill="white"/>
</mask>
<g mask="url(#mask2_4190_20570)">
<path d="M404.632 505.363L401.967 562.875C387.796 564.448 373.545 566.058 359.293 567.668L361.958 510.156C376.209 508.546 390.461 506.936 404.632 505.363Z" fill="url(#paint4_linear_4190_20570)"/>
</g>
<path d="M361.11 516.633C360.868 517.944 360.585 519.217 360.262 520.49C360.141 521.014 359.979 521.501 359.858 522.025C359.697 522.587 359.535 523.148 359.374 523.71C359.212 524.234 359.01 524.758 358.849 525.32C358.647 525.881 358.486 526.443 358.284 527.005C358.041 527.679 357.759 528.353 357.517 529.027C357.395 529.364 357.274 529.701 357.113 530C356.709 531.011 356.265 532.022 355.781 533.033C355.659 533.295 355.498 533.557 355.377 533.857C354.973 534.643 354.61 535.467 354.166 536.253L351.501 593.765C352.066 592.716 352.591 591.631 353.116 590.545C353.6 589.534 354.044 588.523 354.448 587.512C354.569 587.175 354.69 586.838 354.852 586.538C355.054 586.014 355.296 585.49 355.498 584.928C355.538 584.779 355.579 584.629 355.659 584.516C355.861 583.955 356.063 583.393 356.225 582.832C356.386 582.307 356.588 581.783 356.749 581.222C356.911 580.66 357.072 580.098 357.234 579.537C357.355 579.125 357.476 578.713 357.597 578.338C357.638 578.226 357.638 578.114 357.678 578.001C358.001 576.728 358.284 575.418 358.526 574.145C358.566 573.958 358.566 573.808 358.607 573.621C358.808 572.497 358.97 571.374 359.091 570.251C359.091 570.101 359.131 569.914 359.172 569.764C359.253 569.053 359.333 568.341 359.374 567.63L362.038 510.118C361.958 510.979 361.877 511.841 361.756 512.739C361.635 513.862 361.473 514.986 361.271 516.109C361.15 516.296 361.15 516.483 361.11 516.633Z" fill="url(#paint5_linear_4190_20570)"/>
<mask id="mask3_4190_20570" style="mask-type:luminance" maskUnits="userSpaceOnUse" x="17" y="543" width="47" height="63">
<path d="M63.5607 543.443L60.8961 600.955C46.5233 602.565 32.1505 604.175 17.7373 605.785L20.4019 548.273C34.7747 546.663 49.1879 545.053 63.5607 543.443Z" fill="white"/>
</mask>
<g mask="url(#mask3_4190_20570)">
<path d="M63.5607 543.443L60.8961 600.955C46.5233 602.565 32.1505 604.175 17.7373 605.785L20.4019 548.273C34.7747 546.663 49.1879 545.053 63.5607 543.443Z" fill="url(#paint6_linear_4190_20570)"/>
</g>
<path d="M14.8305 602.602C14.9112 602.714 15.0324 602.826 15.1131 602.939C15.961 603.912 16.8088 604.886 17.697 605.822L20.3616 548.31C19.4734 547.374 18.5852 546.4 17.7777 545.427C17.5759 545.202 17.374 544.978 17.1721 544.716C16.0821 543.405 15.0727 542.095 14.1038 540.784C13.9019 540.522 13.7404 540.26 13.5386 539.998C13.0945 539.361 12.6503 538.687 12.2062 538.013C11.964 537.676 11.7621 537.302 11.5603 536.965C11.1969 536.366 10.8336 535.729 10.4702 535.13C10.2684 534.793 10.0665 534.419 9.86462 534.082C9.42052 533.296 9.01677 532.472 8.61304 531.686C8.49192 531.461 8.37082 531.199 8.2497 530.974C7.76522 529.926 7.28074 528.877 6.87701 527.829C6.79626 527.567 6.67514 527.342 6.59439 527.08C6.27141 526.256 5.98879 525.433 5.70618 524.609C5.58506 524.272 5.46394 523.935 5.3832 523.598C5.14096 522.812 4.89872 522.025 4.69685 521.239C4.61611 520.939 4.53537 520.64 4.45462 520.34C4.21238 519.255 3.97014 518.206 3.76828 517.12C3.7279 516.933 3.7279 516.783 3.68752 516.596C3.52603 515.698 3.40493 514.761 3.32418 513.863C3.28381 513.526 3.24343 513.189 3.24343 512.852C3.16268 512.066 3.1223 511.279 3.08193 510.53C3.08193 510.193 3.04157 509.894 3.04157 509.557C3.00119 508.471 3.00118 507.423 3.08193 506.337L0.417316 563.849C0.376943 564.934 0.376953 565.983 0.376953 567.069C0.376953 567.406 0.417316 567.705 0.417316 568.042C0.457689 568.828 0.498072 569.615 0.578818 570.364C0.619192 570.701 0.619172 571.038 0.659545 571.375C0.780664 572.273 0.901793 573.209 1.02291 574.108C1.06329 574.258 1.06329 574.445 1.10366 574.595C1.30553 575.68 1.54777 576.729 1.79001 577.815C1.87076 578.114 1.95149 578.414 2.03224 578.713C2.2341 579.5 2.47635 580.286 2.71859 581.072C2.83971 581.409 2.92045 581.746 3.04157 582.121C3.32418 582.944 3.60679 583.768 3.92978 584.592C4.01052 584.854 4.09127 585.079 4.21239 585.341C4.6565 586.389 5.10059 587.437 5.58506 588.486C5.70618 588.748 5.82731 588.973 5.94843 589.197C6.35216 590.021 6.75588 590.807 7.19999 591.594C7.28073 591.743 7.36149 591.893 7.44224 592.08C7.56336 592.268 7.68447 592.455 7.76522 592.642C8.12858 593.241 8.49194 593.878 8.8553 594.477C9.05716 594.814 9.29939 595.188 9.50126 595.525C9.94536 596.199 10.3895 596.836 10.8336 597.51C10.9951 597.734 11.1162 597.959 11.2777 598.183C11.3181 598.221 11.3584 598.258 11.3584 598.296C12.3274 599.644 13.3367 600.954 14.4267 602.227C14.669 602.34 14.7497 602.489 14.8305 602.602Z" fill="url(#paint7_linear_4190_20570)"/>
<path d="M82.0129 621.323C82.8204 621.922 83.6278 622.521 84.4353 623.12L87.0999 565.608C86.131 564.897 85.2024 564.223 84.2738 563.511C82.8607 562.425 81.4477 561.34 80.1154 560.216C79.9135 560.067 79.752 559.917 79.5502 559.73C78.2986 558.681 77.047 557.595 75.8762 556.51C75.5532 556.21 75.2302 555.948 74.9073 555.648C73.4942 554.338 72.1619 553.027 70.8296 551.717C70.3047 551.193 69.7799 550.631 69.2954 550.107C68.9724 549.77 68.6495 549.433 68.3668 549.133C67.7209 548.422 67.0749 547.711 66.4693 546.999C66.3078 546.774 66.1059 546.587 65.9041 546.363C65.0966 545.426 64.2892 544.453 63.5221 543.479L60.8574 600.991C61.6245 601.927 62.3916 602.863 63.1587 603.799C63.1587 603.837 63.1991 603.837 63.1991 603.874C63.3606 604.062 63.5625 604.286 63.7239 604.473C64.3699 605.185 64.9755 605.934 65.6215 606.645C65.9444 606.982 66.2271 607.319 66.5501 607.619C66.9942 608.068 67.3979 608.555 67.8823 609.004C67.9631 609.079 68.0438 609.154 68.1246 609.229C69.4165 610.577 70.7892 611.887 72.2023 613.16C72.3234 613.272 72.4445 613.422 72.5656 613.534C72.7675 613.722 72.9693 613.872 73.1308 614.021C74.3017 615.107 75.5532 616.155 76.8048 617.204C76.9663 617.316 77.0874 617.466 77.2085 617.578C77.2489 617.616 77.2893 617.653 77.37 617.691C78.7023 618.814 80.1154 619.9 81.5285 620.986C81.7303 621.135 81.8514 621.248 82.0129 621.323Z" fill="url(#paint8_linear_4190_20570)"/>
<path d="M345.688 593.578L343.024 651.128L306.971 635.477L309.676 577.965L345.688 593.578Z" fill="url(#paint9_linear_4190_20570)"/>
<path d="M368.014 580.137C367.49 580.549 366.924 580.998 366.359 581.41C365.834 581.822 365.269 582.233 364.744 582.645C364.179 583.057 363.614 583.432 363.008 583.843C362.443 584.255 361.878 584.63 361.312 585.004C360.707 585.379 360.101 585.79 359.496 586.165C358.89 586.539 358.325 586.914 357.719 587.288C357.073 587.663 356.468 588.037 355.822 588.411C355.216 588.748 354.611 589.123 354.005 589.46C353.319 589.834 352.632 590.209 351.946 590.546C351.34 590.883 350.735 591.182 350.089 591.519C349.362 591.894 348.595 592.268 347.828 592.605C347.101 592.942 346.415 593.279 345.688 593.616L343.023 651.128C343.225 651.015 343.427 650.94 343.629 650.828C344.154 650.603 344.638 650.341 345.123 650.117C345.89 649.742 346.657 649.405 347.384 649.031C347.505 648.956 347.626 648.919 347.747 648.844C348.232 648.582 348.716 648.32 349.241 648.057C349.927 647.683 350.614 647.346 351.3 646.972C351.421 646.897 351.583 646.822 351.704 646.747C352.188 646.485 352.673 646.185 353.157 645.923C353.803 645.549 354.449 645.174 355.055 644.8C355.176 644.725 355.337 644.65 355.458 644.575C355.943 644.276 356.387 643.976 356.831 643.677C357.437 643.302 358.042 642.928 358.648 642.516C358.769 642.441 358.93 642.366 359.052 642.254C359.496 641.954 359.94 641.655 360.384 641.318C360.949 640.906 361.555 640.531 362.12 640.12C362.241 640.045 362.362 639.932 362.524 639.857C362.968 639.558 363.331 639.221 363.775 638.921C364.34 638.51 364.906 638.098 365.43 637.648C365.552 637.536 365.673 637.461 365.794 637.349C366.198 637.049 366.561 636.712 366.965 636.375C367.49 635.926 368.055 635.477 368.539 635.065C368.66 634.952 368.781 634.878 368.903 634.765C369.67 634.091 370.396 633.455 371.123 632.781C371.365 632.556 371.608 632.294 371.89 632.069C372.213 631.77 372.496 631.433 372.819 631.133C373.303 630.647 373.828 630.16 374.272 629.636C374.393 629.486 374.555 629.374 374.676 629.224C374.959 628.924 375.201 628.625 375.483 628.325C375.968 627.801 376.412 627.277 376.896 626.753C377.018 626.603 377.179 626.453 377.3 626.266C377.542 626.004 377.744 625.704 377.986 625.405C378.431 624.843 378.875 624.319 379.319 623.757C379.48 623.57 379.642 623.383 379.763 623.196C379.965 622.933 380.126 622.671 380.288 622.447C380.732 621.848 381.136 621.286 381.539 620.687C381.701 620.462 381.862 620.238 382.024 619.976C382.145 619.751 382.266 619.564 382.428 619.339C382.831 618.702 383.235 618.028 383.639 617.392C383.8 617.13 384.002 616.83 384.164 616.568C384.244 616.418 384.325 616.269 384.406 616.119C384.85 615.333 385.254 614.509 385.657 613.723C385.778 613.46 385.94 613.198 386.061 612.936C386.101 612.861 386.102 612.787 386.142 612.749C386.667 611.663 387.151 610.54 387.555 609.454L390.22 551.942C389.816 553.066 389.331 554.152 388.806 555.237C388.645 555.574 388.484 555.874 388.322 556.211C387.918 556.997 387.515 557.821 387.07 558.607C386.828 559.019 386.586 559.468 386.344 559.88C385.94 560.517 385.577 561.191 385.133 561.827C384.85 562.277 384.567 562.726 384.244 563.138C383.841 563.737 383.437 564.336 382.993 564.897C382.67 565.347 382.347 565.796 381.983 566.245C381.539 566.807 381.095 567.369 380.651 567.893C380.288 568.342 379.924 568.792 379.561 569.203C379.117 569.728 378.632 570.252 378.148 570.776C377.744 571.225 377.341 571.637 376.937 572.086C376.452 572.573 375.968 573.06 375.483 573.547C374.918 574.108 374.393 574.67 373.788 575.194C372.94 575.98 372.092 576.729 371.204 577.516C370.679 577.965 370.154 578.414 369.629 578.826C369.064 579.313 368.539 579.725 368.014 580.137Z" fill="url(#paint10_linear_4190_20570)"/>
<path d="M299.258 583.094C297.724 583.805 296.15 584.479 294.575 585.116C294.171 585.265 293.768 585.453 293.364 585.602C291.345 586.426 289.286 587.213 287.227 587.961C286.823 588.111 286.379 588.261 285.976 588.411C283.634 589.234 281.252 590.058 278.87 590.807C277.417 591.256 275.923 591.706 274.469 592.155L271.805 649.667C273.218 649.255 274.671 648.843 276.084 648.394C276.125 648.394 276.165 648.356 276.246 648.356C278.668 647.607 281.01 646.784 283.351 645.96C283.594 645.885 283.836 645.81 284.078 645.698C284.28 645.623 284.441 645.548 284.603 645.473C286.662 644.724 288.721 643.938 290.74 643.114C290.861 643.077 290.982 643.002 291.103 642.964C291.386 642.852 291.628 642.74 291.91 642.59C293.485 641.916 295.06 641.242 296.594 640.568C296.876 640.456 297.159 640.344 297.442 640.194C297.603 640.119 297.765 640.044 297.926 639.969C299.662 639.145 301.398 638.322 303.094 637.498C303.134 637.46 303.175 637.46 303.215 637.423C304.467 636.786 305.718 636.112 306.97 635.439L309.634 577.927C308.342 578.638 307.05 579.312 305.758 579.949C304.063 580.81 302.327 581.634 300.591 582.42C300.187 582.682 299.743 582.869 299.258 583.094Z" fill="#A9AECF"/>
<path d="M183.75 599.681C182.902 599.606 182.014 599.493 181.166 599.381C180.318 599.269 179.47 599.194 178.622 599.082C177.977 599.007 177.29 598.894 176.644 598.82C174.06 598.483 171.476 598.108 168.893 597.659C168.489 597.584 168.085 597.509 167.681 597.434C165.542 597.06 163.402 596.648 161.262 596.236C160.858 596.161 160.414 596.086 160.011 595.974C158.153 595.599 156.256 595.188 154.439 594.738L151.774 652.25C153.632 652.699 155.489 653.074 157.346 653.486C157.507 653.523 157.629 653.561 157.79 653.598C158.073 653.635 158.355 653.71 158.597 653.748C160.737 654.16 162.877 654.571 165.017 654.946C165.299 654.983 165.582 655.058 165.865 655.096C165.986 655.133 166.107 655.133 166.228 655.171C168.812 655.582 171.396 655.994 173.98 656.331C174.222 656.369 174.464 656.406 174.706 656.444C175.11 656.481 175.554 656.556 175.958 656.593C176.806 656.706 177.654 656.818 178.501 656.893C179.349 657.005 180.237 657.08 181.085 657.192C181.933 657.267 182.781 657.38 183.629 657.455C184.073 657.492 184.517 657.529 184.921 657.567C185.203 657.604 185.486 657.604 185.769 657.642C188.07 657.829 190.331 658.016 192.632 658.128L195.297 600.617C192.995 600.504 190.734 600.317 188.433 600.13C187.706 600.055 186.98 600.018 186.253 599.943C185.446 599.868 184.598 599.756 183.75 599.681Z" fill="url(#paint11_linear_4190_20570)"/>
<path d="M154.36 594.776L151.695 652.326L127.27 675.203L129.934 617.691L154.36 594.776Z" fill="url(#paint12_linear_4190_20570)"/>
<path d="M90.8541 664.644C91.1771 664.794 91.5405 664.944 91.8635 665.094C92.2268 665.244 92.6306 665.393 92.9939 665.543C93.761 665.843 94.4877 666.142 95.2548 666.442C95.6182 666.591 95.9815 666.741 96.3449 666.854C96.7082 667.003 97.0716 667.116 97.4753 667.265C98.2828 667.565 99.0903 667.865 99.8977 668.127C100.301 668.276 100.665 668.426 101.028 668.538C101.391 668.651 101.755 668.763 102.078 668.875C102.926 669.175 103.774 669.437 104.621 669.699C105.025 669.849 105.469 669.961 105.873 670.111C106.196 670.223 106.519 670.298 106.842 670.373C107.73 670.635 108.659 670.897 109.547 671.159C109.991 671.272 110.475 671.422 110.92 671.571C111.202 671.646 111.444 671.721 111.727 671.796C112.696 672.058 113.665 672.32 114.634 672.545C115.118 672.657 115.643 672.807 116.128 672.919C116.33 672.957 116.531 672.994 116.733 673.069C117.823 673.331 118.954 673.556 120.044 673.818C120.528 673.93 121.053 674.043 121.538 674.155C121.659 674.192 121.78 674.192 121.901 674.23C123.597 674.567 125.252 674.866 126.948 675.166C127.028 675.166 127.109 675.203 127.19 675.203H127.23L129.895 617.691C129.814 617.691 129.693 617.654 129.612 617.654C127.917 617.354 126.261 617.055 124.566 616.718C123.96 616.606 123.314 616.456 122.708 616.306C121.618 616.081 120.488 615.819 119.398 615.557C118.671 615.407 117.985 615.22 117.298 615.033C116.33 614.808 115.361 614.546 114.392 614.284C113.665 614.097 112.938 613.872 112.211 613.685C111.323 613.423 110.395 613.161 109.506 612.899C108.78 612.674 108.053 612.45 107.286 612.225C106.438 611.963 105.59 611.663 104.742 611.401C104.016 611.139 103.289 610.914 102.522 610.652C101.715 610.353 100.907 610.091 100.1 609.791C99.3729 609.529 98.6461 609.229 97.9194 608.967C97.1523 608.668 96.3853 608.368 95.6585 608.069C94.9318 607.769 94.2051 607.47 93.4784 607.17C92.7517 606.871 92.0249 606.534 91.2982 606.234C90.5715 605.935 89.8852 605.598 89.1585 605.261C88.4721 604.924 87.7858 604.624 87.0994 604.287C86.4131 603.95 85.7268 603.613 85.0404 603.276C84.3541 602.939 83.7081 602.602 83.0621 602.265C82.3758 601.891 81.7298 601.554 81.0435 601.179C80.3975 600.842 79.7515 600.468 79.146 600.093C78.5 599.719 77.854 599.345 77.208 598.97C76.6024 598.596 75.9565 598.221 75.3509 597.847C74.7453 597.472 74.0993 597.061 73.4937 596.686C72.8881 596.312 72.3229 595.9 71.7173 595.526C71.1117 595.114 70.5465 594.739 69.9813 594.327C69.4161 593.915 68.8104 593.504 68.2452 593.092C67.68 592.68 67.1552 592.268 66.6303 591.856C66.0651 591.407 65.4999 590.958 64.9347 590.508C64.1676 589.872 63.3601 589.235 62.6334 588.599L59.9688 646.11C60.4532 646.522 60.9377 646.934 61.4625 647.346C61.7451 647.571 62.0278 647.758 62.27 647.983C62.8352 648.432 63.4005 648.881 63.9657 649.33C64.2483 649.555 64.4905 649.742 64.7732 649.967C65.0558 650.154 65.3384 650.379 65.621 650.566C66.1862 650.978 66.7514 651.39 67.357 651.802C67.6397 652.026 67.9222 652.214 68.2452 652.438C68.5278 652.625 68.8508 652.813 69.1334 653.037C69.739 653.449 70.3042 653.824 70.9098 654.198C71.2328 654.385 71.5155 654.61 71.8384 654.797C72.1614 654.984 72.444 655.171 72.767 655.359C73.3726 655.733 73.9782 656.108 74.6242 656.482C74.9472 656.669 75.2298 656.856 75.5527 657.044C75.8757 657.231 76.1987 657.418 76.5621 657.605C77.208 657.98 77.8137 658.317 78.4596 658.691C78.7826 658.878 79.1056 659.065 79.4285 659.215C79.7919 659.402 80.1149 659.59 80.4783 659.777C81.1243 660.114 81.8106 660.451 82.4565 660.788C82.7795 660.938 83.1025 661.125 83.4255 661.275C83.7888 661.462 84.1522 661.612 84.5156 661.799C85.2019 662.136 85.8883 662.473 86.5746 662.772C86.8976 662.922 87.2206 663.072 87.5839 663.259C87.9473 663.409 88.351 663.596 88.7143 663.746C89.4007 664.008 90.1274 664.345 90.8541 664.644Z" fill="url(#paint13_linear_4190_20570)"/>
<mask id="mask4_4190_20570" style="mask-type:luminance" maskUnits="userSpaceOnUse" x="192" y="600" width="13" height="86">
<path d="M204.14 627.988L201.475 685.499C198.528 676.363 195.621 667.265 192.674 658.129L195.338 600.617C198.245 609.753 201.193 618.889 204.14 627.988Z" fill="white"/>
</mask>
<g mask="url(#mask4_4190_20570)">
<path d="M204.14 627.988L201.475 685.499C198.528 676.363 195.621 667.265 192.674 658.129L195.338 600.617C198.245 609.753 201.193 618.889 204.14 627.988Z" fill="url(#paint14_linear_4190_20570)"/>
</g>
<path d="M276.085 621.586C274.309 622.11 272.532 622.634 270.716 623.121C270.393 623.196 270.11 623.308 269.828 623.383C269.343 623.495 268.859 623.608 268.374 623.757C267.365 624.02 266.355 624.244 265.346 624.506C264.74 624.656 264.175 624.768 263.57 624.881C262.681 625.068 261.793 625.255 260.945 625.442C259.654 625.704 258.362 625.929 257.07 626.154C256.545 626.266 256.02 626.341 255.495 626.453C253.678 626.753 251.821 627.052 250.004 627.315C249.843 627.352 249.722 627.352 249.56 627.352C247.34 627.651 245.119 627.914 242.858 628.138C242.333 628.176 241.809 628.251 241.284 628.288C238.942 628.513 236.641 628.662 234.299 628.812C233.895 628.85 233.532 628.85 233.128 628.85C231.029 628.962 228.93 628.999 226.83 629.037C226.346 629.037 225.902 629.074 225.417 629.074C223.076 629.074 220.734 629.074 218.433 628.999C217.625 628.962 216.818 628.925 216.051 628.925C215.243 628.887 214.436 628.85 213.628 628.812C212.74 628.775 211.892 628.7 211.004 628.625C210.196 628.55 209.389 628.513 208.622 628.438C207.168 628.325 205.675 628.176 204.221 628.026L201.557 685.538C202.808 685.687 204.019 685.8 205.271 685.912C205.513 685.95 205.715 685.95 205.957 685.95C206.765 686.024 207.532 686.062 208.339 686.137C209.228 686.212 210.075 686.249 210.964 686.324C211.771 686.361 212.579 686.399 213.386 686.436C213.992 686.474 214.597 686.511 215.203 686.511C215.405 686.511 215.566 686.511 215.768 686.511C218.11 686.586 220.411 686.623 222.752 686.586C223.197 686.586 223.681 686.586 224.125 686.549C226.225 686.511 228.324 686.436 230.464 686.361C230.868 686.361 231.231 686.324 231.635 686.324C233.976 686.212 236.318 686.024 238.619 685.8C239.144 685.762 239.669 685.687 240.194 685.65C242.455 685.425 244.675 685.163 246.896 684.864C247.017 684.864 247.138 684.826 247.219 684.826C247.259 684.826 247.299 684.826 247.34 684.826C249.197 684.564 251.014 684.302 252.83 683.965C253.355 683.89 253.88 683.778 254.405 683.666C255.697 683.441 256.989 683.179 258.24 682.954C258.483 682.917 258.725 682.879 258.967 682.804C259.613 682.655 260.259 682.505 260.905 682.392C261.511 682.28 262.076 682.13 262.681 682.018C263.691 681.793 264.7 681.531 265.709 681.269C266.194 681.157 266.678 681.045 267.163 680.895C267.244 680.857 267.365 680.857 267.445 680.82C267.647 680.782 267.849 680.708 268.051 680.633C269.868 680.146 271.644 679.622 273.421 679.098C273.703 679.023 273.986 678.948 274.269 678.835C274.511 678.761 274.753 678.686 274.995 678.611C276.408 678.161 277.821 677.675 279.194 677.188C279.477 677.076 279.759 677.001 280.042 676.888C280.203 676.814 280.365 676.776 280.526 676.701L283.191 619.189C282.747 619.339 282.303 619.489 281.899 619.639C280.526 620.126 279.113 620.612 277.7 621.062C277.135 621.249 276.61 621.399 276.085 621.586Z" fill="url(#paint15_linear_4190_20570)"/>
<path d="M62.6721 588.486L87.0978 565.609C77.6505 558.794 69.7778 551.343 63.5604 543.443C49.1875 545.053 34.8147 546.663 20.4015 548.273C6.23058 533.483 0.336126 514.986 4.21194 498.175L46.8459 493.419C47.5322 484.583 50.1161 475.821 54.6379 467.285L18.5444 451.634C21.7339 443.396 27.4668 435.421 35.057 428.307C42.6875 421.155 52.1751 414.865 62.9951 409.96L99.0886 425.611C109.828 419.77 121.698 415.015 134.334 411.383C131.427 402.359 128.561 393.336 125.654 384.312C148.747 375.85 177.897 372.555 204.664 375.55L213.506 402.958C227.273 403.745 241 405.692 254.404 408.799L278.87 385.884C305.153 390.378 329.942 401.124 346.131 415.09L321.665 438.004C331.113 444.782 338.985 452.233 345.162 460.133C359.576 458.523 373.989 456.913 388.402 455.303C402.492 470.055 408.467 488.589 404.592 505.401C390.421 506.974 376.169 508.584 361.917 510.194C361.231 519.03 358.647 527.829 354.085 536.329L390.098 551.942C386.949 560.18 381.296 568.117 373.666 575.269C366.035 582.42 356.507 588.711 345.647 593.616L309.634 577.965C298.895 583.768 287.025 588.524 274.429 592.193L283.149 619.226C260.056 627.688 230.826 630.946 204.139 627.988C201.192 618.852 198.285 609.753 195.338 600.617C181.571 599.831 167.804 597.884 154.4 594.776L129.974 617.691C103.61 613.273 78.8213 602.49 62.6721 588.486ZM132.841 470.729C106.921 495.029 117.943 528.615 157.468 545.727C196.993 562.875 250.003 557.072 275.923 532.809C301.842 508.509 290.82 474.96 251.295 457.812C211.81 440.663 158.76 446.466 132.841 470.729Z" fill="url(#paint16_linear_4190_20570)"/>
<path d="M240.567 364.234C240.567 364.234 248.279 394.301 235.642 406.619C223.005 418.938 243.313 430.246 226.235 451.213C209.157 472.181 236.57 485.211 217.272 511.271C204.797 528.083 219.21 537.219 219.21 537.219C219.21 537.219 197.974 529.843 198.983 508.313C199.992 486.784 194.663 471.994 181.502 462.296C168.34 452.599 156.389 435.488 167.169 412.348C177.949 389.209 154.169 370.375 154.169 370.375L240.567 364.234Z" fill="url(#paint17_linear_4190_20570)"/>
<path d="M224.78 361.502C224.78 361.502 232.814 386.701 219.774 403.101C206.733 419.5 226.637 426.689 208.793 444.25C196.196 456.643 209.64 464.993 209.56 472.706C209.439 482.554 201.889 487.646 201.889 487.646C201.889 487.646 207.824 472.856 196.438 460.8C188.162 452.001 170.196 437.361 179.361 421.972C188.525 406.583 162.687 370.301 162.687 370.301L224.78 361.502Z" fill="#DD6A0B"/>
<path d="M133.78 276.058L91.6303 312.19C72.4127 328.664 66.9623 354.837 78.2264 376.741L104.63 428.149L109.031 429.647L117.59 381.009C121.103 368.204 128.612 356.634 139.19 347.76L147.224 340.983L138.18 277.555L133.78 276.058Z" fill="url(#paint18_linear_4190_20570)"/>
<path d="M138.18 277.555L96.0306 313.687C76.8131 330.161 71.3627 356.334 82.6268 378.238L109.031 429.646L121.991 382.506C125.503 369.701 133.012 358.131 143.59 349.257L151.624 342.48L138.18 277.555Z" fill="url(#paint19_linear_4190_20570)"/>
<path d="M254.374 279.353L294.182 317.694C312.35 335.179 316.105 361.614 303.508 382.881L273.915 432.755L269.434 434.028L263.943 385.015C261.238 372.023 254.455 360.079 244.483 350.643L236.853 343.454L249.853 280.626L254.374 279.353Z" fill="url(#paint20_linear_4190_20570)"/>
<path d="M249.892 280.588L289.7 318.929C307.868 336.415 311.622 362.849 299.026 384.117L269.433 433.99L259.46 386.213C256.755 373.221 249.973 361.277 240.001 351.841L232.37 344.652L249.892 280.588Z" fill="url(#paint21_linear_4190_20570)"/>
<path d="M261.4 288.451L126.23 284.781L140.926 356.334H141.007C142.057 370.3 163.777 381.907 190.787 382.656C217.797 383.405 240.204 372.958 242.142 359.067H242.222L261.4 288.451Z" fill="url(#paint22_linear_4190_20570)"/>
<path d="M262.811 281.712C262.166 301.556 230.876 316.833 192.885 315.784C154.894 314.736 124.574 297.812 125.22 277.967C125.866 258.123 157.155 242.846 195.146 243.895C233.137 244.943 263.417 261.867 262.811 281.712Z" fill="url(#paint23_linear_4190_20570)"/>
<path d="M265.679 276.843C265.033 297.287 232.492 312.975 193.007 311.927C153.523 310.841 122.032 293.43 122.678 272.987C114.482 153.994 145.529 73.7549 145.529 73.7549H145.771C145.609 74.6161 145.488 75.4398 145.448 76.301C145.448 76.4507 145.448 76.6379 145.448 76.7877C145.448 76.9375 145.408 77.1247 145.408 77.2745C144.923 92.9629 169.107 106.367 199.467 107.191C229.828 108.015 254.819 95.9583 255.303 80.2699C255.303 80.0827 255.303 79.9329 255.303 79.7457C255.303 79.5959 255.343 79.4461 255.343 79.2964C255.384 78.4352 255.303 77.574 255.182 76.7128H255.424C255.384 76.6754 281.344 158.525 265.679 276.843Z" fill="url(#paint24_linear_4190_20570)"/>
<path d="M255.302 79.7096C255.302 79.8968 255.302 80.0465 255.302 80.2338C254.818 95.9222 229.827 107.979 199.466 107.155C169.106 106.331 144.922 92.9268 145.407 77.2384C145.407 77.0886 145.407 76.9014 145.447 76.7516C145.447 76.6018 145.447 76.4146 145.447 76.2649C145.487 75.4037 145.568 74.5425 145.77 73.7188L255.181 76.6767C255.302 77.5379 255.342 78.3991 255.342 79.2603C255.302 79.41 255.302 79.5598 255.302 79.7096Z" fill="url(#paint25_linear_4190_20570)"/>
<path d="M255.262 80.2328C254.778 95.9212 229.787 107.978 199.426 107.154C169.066 106.33 144.882 92.9258 145.367 77.2374C145.367 77.0876 145.367 76.9004 145.407 76.7506C145.488 75.7022 145.649 74.6913 145.932 73.7178C146.134 73.0064 146.335 72.3324 146.658 71.6584C146.699 71.5835 146.739 71.4712 146.78 71.3964C147.143 70.5352 149.969 55.8202 164.14 37.1739C180.653 15.4197 199.547 1.79066 202.777 1.86554C206.088 1.94043 224.821 17.3293 240.122 40.1693C252.355 58.4038 253.486 72.1078 254.01 73.568C254.455 74.579 254.778 75.6274 254.979 76.6757C255.181 77.6867 255.302 78.6976 255.302 79.7086C255.302 79.8958 255.302 80.0456 255.262 80.2328Z" fill="url(#paint26_linear_4190_20570)"/>
<path d="M255.303 79.2595C255.303 79.4093 255.303 79.559 255.262 79.7088C254.334 95.21 229.504 107.042 199.467 106.218C169.429 105.394 145.448 92.252 145.407 76.7883C145.407 76.6385 145.407 76.4513 145.407 76.3015C145.448 75.4403 145.528 74.5792 145.73 73.7554C145.932 72.7445 146.255 71.7335 146.659 70.76C146.699 70.6851 146.74 70.6103 146.78 70.4979C147.143 69.6367 149.969 54.9218 164.14 36.2754C180.653 14.5213 199.547 0.892219 202.777 0.967104C206.088 1.04199 224.821 16.4309 240.122 39.2708C252.355 57.5054 253.486 71.2093 254.011 72.6696C254.576 73.9801 254.939 75.328 255.141 76.7134C255.303 77.5371 255.343 78.3983 255.303 79.2595Z" fill="#4468CA"/>
<path d="M200.476 312.34L212.063 348.621C217.352 365.171 217.998 390.557 213.638 411.3L203.383 459.938L199.427 459.826L201.243 414.071C200.678 401.603 198.821 390.183 195.874 381.271L193.653 374.494L196.479 312.265L200.476 312.34Z" fill="url(#paint27_linear_4190_20570)"/>
<path d="M196.52 312.227L208.107 348.508C213.396 365.058 214.042 390.444 209.682 411.187L199.427 459.825L197.327 413.958C196.762 401.49 194.905 390.07 191.958 381.158L189.737 374.381L196.52 312.227Z" fill="url(#paint28_linear_4190_20570)"/>
<path d="M249.329 176.235C248.602 199.15 227.124 217.197 201.366 216.486C175.608 215.774 155.3 196.641 156.027 173.689C156.753 150.774 178.232 132.727 203.99 133.438C229.748 134.187 250.056 153.32 249.329 176.235Z" fill="url(#paint29_linear_4190_20570)"/>
<path d="M249.206 180.354C248.479 203.269 227.001 221.316 201.243 220.605C175.485 219.894 155.177 200.76 155.904 177.808C156.63 154.893 178.109 136.846 203.867 137.557C229.625 138.269 249.933 157.439 249.206 180.354Z" fill="url(#paint30_linear_4190_20570)"/>
<path d="M240.607 180.128C240.002 198.85 222.48 213.565 201.445 212.966C180.411 212.404 163.858 196.753 164.423 178.069C164.464 177.395 164.504 176.684 164.544 176.01C165.19 193.795 181.299 208.323 201.566 208.884C221.834 209.446 238.831 195.817 240.567 178.069C240.648 178.743 240.648 179.417 240.607 180.128Z" fill="url(#paint31_linear_4190_20570)"/>
<path d="M240.607 178.07C238.831 195.78 221.834 209.409 201.607 208.885C181.34 208.323 165.231 193.796 164.585 176.01C166.361 158.3 183.358 144.671 203.585 145.195C223.853 145.757 240.002 160.285 240.607 178.07Z" fill="url(#paint32_linear_4190_20570)"/>
<defs>
<linearGradient id="paint0_linear_4190_20570" x1="93.84" y1="405.041" x2="121.945" y2="425.051" gradientUnits="userSpaceOnUse">
<stop stop-color="#8F92C7"/>
<stop offset="1" stop-color="#505FAA"/>
</linearGradient>
<linearGradient id="paint1_linear_4190_20570" x1="351.415" y1="417.054" x2="318.379" y2="495.017" gradientUnits="userSpaceOnUse">
<stop stop-color="#8F92C7"/>
<stop offset="1" stop-color="#505FAA"/>
</linearGradient>
<linearGradient id="paint2_linear_4190_20570" x1="9.97906" y1="476.823" x2="38.4212" y2="491.463" gradientUnits="userSpaceOnUse">
<stop stop-color="#8F92C7"/>
<stop offset="1" stop-color="#505FAA"/>
</linearGradient>
<linearGradient id="paint3_linear_4190_20570" x1="157.659" y1="500.672" x2="254.709" y2="518.574" gradientUnits="userSpaceOnUse">
<stop stop-color="#8F92C7"/>
<stop offset="1" stop-color="#505FAA"/>
</linearGradient>
<linearGradient id="paint4_linear_4190_20570" x1="398.657" y1="502.612" x2="369.37" y2="571.728" gradientUnits="userSpaceOnUse">
<stop stop-color="#8F92C7"/>
<stop offset="1" stop-color="#CFD5EB"/>
</linearGradient>
<linearGradient id="paint5_linear_4190_20570" x1="374.771" y1="515.355" x2="343.113" y2="590.065" gradientUnits="userSpaceOnUse">
<stop stop-color="#8F92C7"/>
<stop offset="1" stop-color="#505FAA"/>
</linearGradient>
<linearGradient id="paint6_linear_4190_20570" x1="57.3873" y1="540.635" x2="28.0157" y2="609.95" gradientUnits="userSpaceOnUse">
<stop stop-color="#8F92C7"/>
<stop offset="1" stop-color="#CFD5EB"/>
</linearGradient>
<linearGradient id="paint7_linear_4190_20570" x1="29.5105" y1="517.29" x2="-4.00352" y2="596.381" gradientUnits="userSpaceOnUse">
<stop stop-color="#8F92C7"/>
<stop offset="1" stop-color="#505FAA"/>
</linearGradient>
<linearGradient id="paint8_linear_4190_20570" x1="42.4776" y1="579.61" x2="77.0912" y2="584.079" gradientUnits="userSpaceOnUse">
<stop stop-color="#8F92C7"/>
<stop offset="1" stop-color="#505FAA"/>
</linearGradient>
<linearGradient id="paint9_linear_4190_20570" x1="338.449" y1="589.946" x2="317.244" y2="639.988" gradientUnits="userSpaceOnUse">
<stop stop-color="#8F92C7"/>
<stop offset="1" stop-color="#505FAA"/>
</linearGradient>
<linearGradient id="paint10_linear_4190_20570" x1="391.052" y1="552.085" x2="348.238" y2="653.122" gradientUnits="userSpaceOnUse">
<stop stop-color="#8F92C7"/>
<stop offset="1" stop-color="#CFD5EB"/>
</linearGradient>
<linearGradient id="paint11_linear_4190_20570" x1="191.003" y1="626.811" x2="158.721" y2="625.692" gradientUnits="userSpaceOnUse">
<stop stop-color="#8F92C7"/>
<stop offset="1" stop-color="#CFD5EB"/>
</linearGradient>
<linearGradient id="paint12_linear_4190_20570" x1="159.634" y1="596.805" x2="126.614" y2="674.73" gradientUnits="userSpaceOnUse">
<stop stop-color="#8F92C7"/>
<stop offset="1" stop-color="#505FAA"/>
</linearGradient>
<linearGradient id="paint13_linear_4190_20570" x1="107.147" y1="607.133" x2="84.0809" y2="661.567" gradientUnits="userSpaceOnUse">
<stop stop-color="#8F92C7"/>
<stop offset="1" stop-color="#505FAA"/>
</linearGradient>
<linearGradient id="paint14_linear_4190_20570" x1="215.236" y1="608.853" x2="185.67" y2="678.627" gradientUnits="userSpaceOnUse">
<stop stop-color="#8F92C7"/>
<stop offset="1" stop-color="#505FAA"/>
</linearGradient>
<linearGradient id="paint15_linear_4190_20570" x1="262.951" y1="610.447" x2="226.694" y2="696.011" gradientUnits="userSpaceOnUse">
<stop stop-color="#8F92C7"/>
<stop offset="1" stop-color="#CFD5EB"/>
</linearGradient>
<linearGradient id="paint16_linear_4190_20570" x1="145.89" y1="381.857" x2="232.34" y2="587.227" gradientUnits="userSpaceOnUse">
<stop stop-color="#5988EF"/>
<stop offset="1" stop-color="white"/>
</linearGradient>
<linearGradient id="paint17_linear_4190_20570" x1="221.669" y1="358.127" x2="170.339" y2="521.722" gradientUnits="userSpaceOnUse">
<stop stop-color="#F58B21"/>
<stop offset="1" stop-color="#F5B419"/>
</linearGradient>
<linearGradient id="paint18_linear_4190_20570" x1="65.0736" y1="359.147" x2="139.462" y2="361.5" gradientUnits="userSpaceOnUse">
<stop stop-color="#212253"/>
<stop offset="1" stop-color="#313F95"/>
</linearGradient>
<linearGradient id="paint19_linear_4190_20570" x1="69.4994" y1="359.955" x2="143.888" y2="362.308" gradientUnits="userSpaceOnUse">
<stop stop-color="#4468CA"/>
<stop offset="1" stop-color="#2C3C91"/>
</linearGradient>
<linearGradient id="paint20_linear_4190_20570" x1="310.959" y1="357.939" x2="236.571" y2="355.593" gradientUnits="userSpaceOnUse">
<stop stop-color="#212253"/>
<stop offset="1" stop-color="#313F95"/>
</linearGradient>
<linearGradient id="paint21_linear_4190_20570" x1="227.745" y1="341.991" x2="275.607" y2="393.893" gradientUnits="userSpaceOnUse">
<stop stop-color="#5988EF"/>
<stop offset="1" stop-color="#4468CA"/>
</linearGradient>
<linearGradient id="paint22_linear_4190_20570" x1="117.359" y1="340.396" x2="252.527" y2="344.67" gradientUnits="userSpaceOnUse">
<stop stop-color="#4468CA"/>
<stop offset="1" stop-color="#5988EF"/>
</linearGradient>
<linearGradient id="paint23_linear_4190_20570" x1="117.872" y1="285.59" x2="255.476" y2="289.942" gradientUnits="userSpaceOnUse">
<stop stop-color="#212253"/>
<stop offset="1" stop-color="#313F95"/>
</linearGradient>
<linearGradient id="paint24_linear_4190_20570" x1="114.978" y1="199.146" x2="263.829" y2="203.854" gradientUnits="userSpaceOnUse">
<stop stop-color="#8F92C7"/>
<stop offset="0.732" stop-color="#CFD5EB"/>
<stop offset="0.997" stop-color="white"/>
</linearGradient>
<linearGradient id="paint25_linear_4190_20570" x1="137.713" y1="97.2971" x2="247.573" y2="100.771" gradientUnits="userSpaceOnUse">
<stop stop-color="#8F92C7"/>
<stop offset="1" stop-color="#CFD5EB"/>
</linearGradient>
<linearGradient id="paint26_linear_4190_20570" x1="237.113" y1="63.311" x2="163.571" y2="60.9852" gradientUnits="userSpaceOnUse">
<stop stop-color="#212253"/>
<stop offset="1" stop-color="#313F95"/>
</linearGradient>
<linearGradient id="paint27_linear_4190_20570" x1="216.539" y1="386.452" x2="193.416" y2="385.723" gradientUnits="userSpaceOnUse">
<stop stop-color="#212253"/>
<stop offset="1" stop-color="#313F95"/>
</linearGradient>
<linearGradient id="paint28_linear_4190_20570" x1="193.489" y1="393.536" x2="188.612" y2="362.181" gradientUnits="userSpaceOnUse">
<stop stop-color="#505FAA"/>
<stop offset="1" stop-color="#2C3C91"/>
</linearGradient>
<linearGradient id="paint29_linear_4190_20570" x1="167.878" y1="181.853" x2="232.886" y2="183.909" gradientUnits="userSpaceOnUse">
<stop stop-color="#212253"/>
<stop offset="1" stop-color="#313F95"/>
</linearGradient>
<linearGradient id="paint30_linear_4190_20570" x1="189.455" y1="229.116" x2="198.496" y2="151.973" gradientUnits="userSpaceOnUse">
<stop stop-color="#8F92C7"/>
<stop offset="1" stop-color="#CFD5EB"/>
</linearGradient>
<linearGradient id="paint31_linear_4190_20570" x1="175.259" y1="202.087" x2="235.429" y2="203.99" gradientUnits="userSpaceOnUse">
<stop stop-color="#212253"/>
<stop offset="1" stop-color="#313F95"/>
</linearGradient>
<linearGradient id="paint32_linear_4190_20570" x1="233.314" y1="185.684" x2="157.295" y2="183.28" gradientUnits="userSpaceOnUse">
<stop stop-color="#5988EF"/>
<stop offset="1" stop-color="#4468CA"/>
</linearGradient>
</defs>
</svg>
