<svg width="204" height="53" viewBox="0 0 204 53" fill="none" xmlns="http://www.w3.org/2000/svg">
<path d="M0 39.5914V20.3457C0 18.3394 0.64254 16.6325 1.92762 15.2248C3.2127 13.801 4.76064 13.0891 6.57143 13.0891V32.3105C6.57143 34.3168 5.92889 36.0319 4.64381 37.4557C3.35873 38.8795 1.8108 39.5914 0 39.5914Z" fill="currentColor"/>
<path d="M30.1699 19.6602C31.0033 20.4154 31.791 21.5156 32.5332 22.9609C33.2754 24.4062 33.6465 26.2943 33.6465 28.625V38C32.0319 38 30.6517 37.4271 29.5059 36.2812C28.373 35.1354 27.8066 33.7552 27.8066 32.1406V28.625C27.8066 26.5547 27.2467 24.9792 26.127 23.8984C25.1374 23 23.9525 22.5508 22.5723 22.5508C21.8431 22.5508 20.9772 22.7917 19.9746 23.2734C18.985 23.7422 18.4512 24.6276 18.373 25.9297V38C16.7454 38 15.3652 37.4401 14.2324 36.3203C13.1126 35.2005 12.5267 33.8073 12.4746 32.1406L12.377 22.4531C12.377 20.8516 12.9434 19.4844 14.0762 18.3516C15.222 17.2057 16.6022 16.6328 18.2168 16.6328V17.5703C19.5319 16.9974 20.9837 16.7109 22.5723 16.7109C25.4629 16.7109 27.9954 17.694 30.1699 19.6602ZM53.0996 31.418C53.8548 32.0039 54.2454 32.7396 54.2715 33.625C54.3105 34.5104 53.9785 35.2786 53.2754 35.9297C51.5046 37.3099 49.6165 38 47.6113 38C45.2806 38 43.2363 37.1862 41.4785 35.5586C40.8014 34.9596 40.1699 34.0872 39.584 32.9414C38.998 31.7956 38.7051 30.3177 38.7051 28.5078V24.7188C37.8327 24.6927 37.1035 24.3932 36.5176 23.8203C35.9447 23.2344 35.6452 22.5052 35.6191 21.6328V19.8164H38.7051V19.543C38.7051 17.9284 39.2715 16.5482 40.4043 15.4023C41.5501 14.2565 42.9303 13.6836 44.5449 13.6836V19.8359C45.5085 19.862 46.3092 20.194 46.9473 20.832C47.5853 21.457 47.9173 22.2513 47.9434 23.2148V24.7188H44.5449V28.5078C44.5449 29.7448 44.877 30.6953 45.541 31.3594C46.1139 31.8932 46.804 32.1602 47.6113 32.1602C47.7415 32.1602 47.9954 32.1276 48.373 32.0625C48.7507 31.9844 49.1217 31.7956 49.4863 31.4961C50.0072 31.0534 50.5996 30.832 51.2637 30.832C51.9277 30.819 52.5397 31.0143 53.0996 31.418ZM65.1895 16.5938C66.7389 16.5938 68.2363 17.0104 69.6816 17.8438C71.127 18.6771 72.2272 19.901 72.9824 21.5156L67.8848 25.2461C67.8848 24.3607 67.6895 23.7227 67.2988 23.332C66.9212 22.9414 66.5111 22.7005 66.0684 22.6094C65.6387 22.5052 65.3457 22.4531 65.1895 22.4531C64.3952 22.4531 63.7051 22.7201 63.1191 23.2539C62.4681 23.9049 62.1426 24.8555 62.1426 26.1055V38C60.528 38 59.1478 37.4271 58.002 36.2812C56.8561 35.1354 56.2832 33.7552 56.2832 32.1406V22.4531C56.2832 20.8385 56.8496 19.4648 57.9824 18.332C59.1283 17.1992 60.5085 16.6328 62.123 16.6328V17.1406C63.0996 16.776 64.1217 16.5938 65.1895 16.5938ZM89.4082 16.6328C91.0228 16.6328 92.403 17.2057 93.5488 18.3516C94.6947 19.4844 95.2676 20.8581 95.2676 22.4727V32.1406C95.2676 33.7552 94.6947 35.1354 93.5488 36.2812C92.403 37.4271 91.0228 38 89.4082 38V37.1797V36.6133C87.7806 37.6029 86.0358 38.0977 84.1738 38.0977C83.2884 38.0977 82.403 37.974 81.5176 37.7266C78.7702 36.9193 76.7064 35.2331 75.3262 32.668C74.0371 30.1289 73.7702 27.4531 74.5254 24.6406C75.4108 21.737 77.0579 19.582 79.4668 18.1758C81.8757 16.7565 84.4863 16.3984 87.2988 17.1016C88.054 17.3099 88.7572 17.6029 89.4082 17.9805V16.6328ZM88.6465 28.6055C88.998 27.2773 88.8939 26.0599 88.334 24.9531C87.7871 23.8464 86.9147 23.1042 85.7168 22.7266C85.3522 22.6354 84.9876 22.5898 84.623 22.5898C83.6335 22.5898 82.722 22.9219 81.8887 23.5859C81.0684 24.237 80.4889 25.1159 80.1504 26.2227C79.7988 27.5378 79.9225 28.7812 80.5215 29.9531C81.1074 31.0469 81.9668 31.763 83.0996 32.1016C84.3105 32.401 85.4368 32.2253 86.4785 31.5742C87.5202 30.9102 88.2428 29.9206 88.6465 28.6055ZM116.322 16.6328C117.416 16.6328 118.249 17.0755 118.822 17.9609C119.395 18.8464 119.473 19.8099 119.057 20.8516L112.729 35.0117C111.648 37.0039 110.111 38 108.119 38C106.127 38 104.59 37.0039 103.51 35.0117L97.1816 20.8516C96.765 19.8099 96.8431 18.8464 97.416 17.9609C98.002 17.0755 98.8353 16.6328 99.916 16.6328C101.127 16.6328 102.045 17.2448 102.67 18.4688L108.119 31.4375L113.568 18.4688C114.206 17.2448 115.124 16.6328 116.322 16.6328ZM139.857 24.9336C139.857 24.9466 139.857 24.9661 139.857 24.9922C140.079 26.1901 139.818 27.2253 139.076 28.0977C138.347 28.9701 137.377 29.4258 136.166 29.4648C134.721 29.4648 133.21 29.4648 131.635 29.4648C130.072 29.4518 128.731 29.4453 127.611 29.4453C126.505 29.4323 125.925 29.4258 125.873 29.4258C126.029 29.8034 126.238 30.1615 126.498 30.5C127.279 31.4635 128.256 32.0039 129.428 32.1211C130.326 32.1992 131.173 31.9974 131.967 31.5156C132.436 31.2161 132.943 31.0599 133.49 31.0469H133.783C135.242 31.1641 136.153 31.8411 136.518 33.0781C136.882 34.3151 136.492 35.3893 135.346 36.3008C134.278 37.0299 133.035 37.5378 131.615 37.8242C130.73 37.9935 129.825 38.0391 128.9 37.9609C126.062 37.6615 123.731 36.3789 121.908 34.1133C120.163 31.8477 119.408 29.2695 119.643 26.3789C119.929 23.4753 121.127 21.0664 123.236 19.1523C125.437 17.2383 127.963 16.3919 130.814 16.6133C131.557 16.6784 132.286 16.8281 133.002 17.0625C134.031 17.401 134.975 17.8958 135.834 18.5469C137.943 20.1875 139.285 22.3164 139.857 24.9336ZM125.893 25.2266L133.9 25.2461C133.21 23.6185 132.006 22.6875 130.287 22.4531C129.923 22.4141 129.558 22.4271 129.193 22.4922C128.438 22.6354 127.748 22.9805 127.123 23.5273C126.589 23.9961 126.179 24.5625 125.893 25.2266ZM151.049 16.5938C152.598 16.5938 154.096 17.0104 155.541 17.8438C156.986 18.6771 158.087 19.901 158.842 21.5156L153.744 25.2461C153.744 24.3607 153.549 23.7227 153.158 23.332C152.781 22.9414 152.37 22.7005 151.928 22.6094C151.498 22.5052 151.205 22.4531 151.049 22.4531C150.255 22.4531 149.564 22.7201 148.979 23.2539C148.327 23.9049 148.002 24.8555 148.002 26.1055V38C146.387 38 145.007 37.4271 143.861 36.2812C142.715 35.1354 142.143 33.7552 142.143 32.1406V22.4531C142.143 20.8385 142.709 19.4648 143.842 18.332C144.988 17.1992 146.368 16.6328 147.982 16.6328V17.1406C148.959 16.776 149.981 16.5938 151.049 16.5938ZM162.201 30.5391C163.269 30.3438 164.167 30.6367 164.896 31.418C165.105 31.6654 165.359 31.8607 165.658 32.0039C166.023 32.1732 166.426 32.2513 166.869 32.2383C167.325 32.2122 167.709 32.1081 168.021 31.9258C168.165 31.8477 168.269 31.7695 168.334 31.6914C168.412 31.6133 168.464 31.5417 168.49 31.4766C168.49 31.4766 168.49 31.4701 168.49 31.457C168.516 31.3919 168.536 31.3073 168.549 31.2031C168.549 31.1901 168.549 31.1771 168.549 31.1641C168.549 31.138 168.549 31.1185 168.549 31.1055C168.549 31.0924 168.549 31.0859 168.549 31.0859C168.549 31.0729 168.549 31.0664 168.549 31.0664C168.549 31.0664 168.549 31.0729 168.549 31.0859C168.549 31.112 168.555 31.1315 168.568 31.1445C168.581 31.1836 168.594 31.2096 168.607 31.2227C168.62 31.2357 168.62 31.2422 168.607 31.2422C168.607 31.2422 168.601 31.2292 168.588 31.2031C168.51 31.138 168.347 31.0339 168.1 30.8906C167.592 30.6432 166.921 30.3828 166.088 30.1094C165.958 30.0573 165.814 30.0052 165.658 29.9531C164.981 29.7318 164.232 29.4453 163.412 29.0938C162.917 28.8854 162.39 28.599 161.83 28.2344C161.257 27.8698 160.704 27.3359 160.17 26.6328C159.636 25.8906 159.298 25.0703 159.154 24.1719C159.037 23.4297 159.057 22.6549 159.213 21.8477C159.395 21.0273 159.721 20.2786 160.189 19.6016C160.658 18.9375 161.186 18.3971 161.771 17.9805C162.956 17.1602 164.187 16.6719 165.463 16.5156C166.726 16.3203 167.995 16.3984 169.271 16.75C169.91 16.9323 170.535 17.1992 171.146 17.5508C171.758 17.9023 172.312 18.3516 172.807 18.8984L172.846 18.918C173.523 19.7383 173.712 20.6042 173.412 21.5156C173.113 22.4141 172.449 22.9935 171.42 23.2539L170.248 23.4688C169.519 23.5859 168.848 23.4167 168.236 22.9609C167.911 22.7005 167.507 22.5117 167.025 22.3945C166.544 22.2643 166.042 22.3099 165.521 22.5312C165.352 22.5964 165.209 22.694 165.092 22.8242C164.962 22.9674 164.91 23.1237 164.936 23.293C164.936 23.293 164.929 23.2865 164.916 23.2734C164.916 23.2604 164.91 23.2474 164.896 23.2344C165.717 23.7552 166.602 24.1523 167.553 24.4258C167.644 24.4518 167.735 24.4779 167.826 24.5039C168.855 24.8294 169.851 25.2331 170.814 25.7148C171.348 25.9753 171.908 26.3529 172.494 26.8477C173.106 27.3685 173.607 28.0781 173.998 28.9766C174.18 29.4323 174.298 29.8815 174.35 30.3242C174.35 30.3503 174.35 30.3763 174.35 30.4023C174.363 30.4935 174.376 30.5781 174.389 30.6562V30.9297C174.389 30.9688 174.389 31.0078 174.389 31.0469C174.389 31.1901 174.389 31.3333 174.389 31.4766C174.35 32.2448 174.18 33 173.881 33.7422C173.191 35.2396 172.195 36.3333 170.893 37.0234C169.656 37.7005 168.386 38.0521 167.084 38.0781C165.769 38.1302 164.486 37.8828 163.236 37.3359C161.973 36.75 160.925 35.8971 160.092 34.7773C160.092 34.7643 160.085 34.7513 160.072 34.7383C159.538 33.9049 159.447 33.0651 159.799 32.2188C160.163 31.3724 160.827 30.8385 161.791 30.6172L162.201 30.5391ZM196.537 24.9336C196.537 24.9466 196.537 24.9661 196.537 24.9922C196.758 26.1901 196.498 27.2253 195.756 28.0977C195.027 28.9701 194.057 29.4258 192.846 29.4648C191.4 29.4648 189.89 29.4648 188.314 29.4648C186.752 29.4518 185.411 29.4453 184.291 29.4453C183.184 29.4323 182.605 29.4258 182.553 29.4258C182.709 29.8034 182.917 30.1615 183.178 30.5C183.959 31.4635 184.936 32.0039 186.107 32.1211C187.006 32.1992 187.852 31.9974 188.646 31.5156C189.115 31.2161 189.623 31.0599 190.17 31.0469H190.463C191.921 31.1641 192.833 31.8411 193.197 33.0781C193.562 34.3151 193.171 35.3893 192.025 36.3008C190.958 37.0299 189.714 37.5378 188.295 37.8242C187.41 37.9935 186.505 38.0391 185.58 37.9609C182.742 37.6615 180.411 36.3789 178.588 34.1133C176.843 31.8477 176.088 29.2695 176.322 26.3789C176.609 23.4753 177.807 21.0664 179.916 19.1523C182.117 17.2383 184.643 16.3919 187.494 16.6133C188.236 16.6784 188.965 16.8281 189.682 17.0625C190.71 17.401 191.654 17.8958 192.514 18.5469C194.623 20.1875 195.964 22.3164 196.537 24.9336ZM182.572 25.2266L190.58 25.2461C189.89 23.6185 188.686 22.6875 186.967 22.4531C186.602 22.4141 186.238 22.4271 185.873 22.4922C185.118 22.6354 184.428 22.9805 183.803 23.5273C183.269 23.9961 182.859 24.5625 182.572 25.2266Z" fill="currentColor"/>
</svg>
