<svg width="151" height="25" viewBox="0 0 151 25" fill="none" xmlns="http://www.w3.org/2000/svg">
<path d="M0 24.5391V8.8976C0 7.26705 0.347568 5.87976 1.0427 4.73575C1.73784 3.57858 2.57516 3 3.55467 3V18.6217C3.55467 20.2523 3.20711 21.6461 2.51197 22.8033C1.81683 23.9605 0.97951 24.5391 0 24.5391Z" fill="currentColor"/>
<path d="M18.6184 24V16.65C18.6184 16.22 18.6184 15.855 18.6184 15.555C18.6184 15.255 18.6184 14.975 18.6184 14.715C18.6184 13.935 18.4984 13.25 18.2584 12.66C18.0184 12.06 17.6234 11.595 17.0734 11.265C16.5234 10.925 15.7884 10.755 14.8684 10.755C14.0584 10.755 13.3234 10.955 12.6634 11.355C12.0134 11.755 11.4934 12.3 11.1034 12.99C10.7234 13.67 10.5334 14.445 10.5334 15.315L9.13844 14.625C9.13844 13.335 9.44344 12.18 10.0534 11.16C10.6634 10.13 11.4784 9.315 12.4984 8.715C13.5284 8.115 14.6534 7.815 15.8734 7.815C17.1334 7.815 18.2084 8.06 19.0984 8.55C19.9984 9.03 20.6834 9.72 21.1534 10.62C21.6334 11.51 21.8734 12.575 21.8734 13.815C21.8734 14.275 21.8734 14.785 21.8734 15.345C21.8734 15.905 21.8734 16.445 21.8734 16.965V24H18.6184ZM7.27844 24V8.07H10.5334V24H7.27844ZM32.3697 24.27C31.8397 24.27 31.3097 24.215 30.7797 24.105C30.2597 23.995 29.7797 23.795 29.3397 23.505C28.9097 23.205 28.5647 22.78 28.3047 22.23C28.0447 21.68 27.9147 20.96 27.9147 20.07C27.9147 19.86 27.9147 19.64 27.9147 19.41C27.9147 19.18 27.9147 18.945 27.9147 18.705V10.77H24.0897V8.07H26.0997C26.5297 8.07 26.8647 8.055 27.1047 8.025C27.3547 7.985 27.5347 7.9 27.6447 7.77C27.7647 7.63 27.8397 7.41 27.8697 7.11C27.8997 6.81 27.9147 6.4 27.9147 5.88V2.805H31.1697V8.07H36.0447V10.77H31.1697V17.835C31.1697 18.035 31.1697 18.235 31.1697 18.435C31.1697 18.635 31.1697 18.82 31.1697 18.99C31.1697 19.79 31.2647 20.42 31.4547 20.88C31.6547 21.34 32.1047 21.57 32.8047 21.57C33.1047 21.57 33.3897 21.545 33.6597 21.495C33.9297 21.445 34.1347 21.39 34.2747 21.33V23.985C34.0947 24.055 33.8397 24.12 33.5097 24.18C33.1797 24.24 32.7997 24.27 32.3697 24.27ZM39.1534 24V8.07H42.4084V13.155L41.5384 12.765C41.6084 12.115 41.7734 11.495 42.0334 10.905C42.2934 10.315 42.6384 9.79 43.0684 9.33C43.5084 8.86 44.0484 8.49 44.6884 8.22C45.3284 7.95 46.0684 7.815 46.9084 7.815C47.5484 7.815 48.0634 7.865 48.4534 7.965C48.8534 8.065 49.0984 8.145 49.1884 8.205L48.4984 11.265C48.3984 11.195 48.1934 11.105 47.8834 10.995C47.5834 10.885 47.1634 10.83 46.6234 10.83C45.8034 10.83 45.1234 10.975 44.5834 11.265C44.0434 11.555 43.6134 11.94 43.2934 12.42C42.9734 12.9 42.7434 13.425 42.6034 13.995C42.4734 14.555 42.4084 15.12 42.4084 15.69V24H39.1534ZM57.0367 24.315C55.8367 24.315 54.7817 24.125 53.8717 23.745C52.9717 23.365 52.2717 22.82 51.7717 22.11C51.2717 21.4 51.0217 20.545 51.0217 19.545C51.0217 18.475 51.3017 17.59 51.8617 16.89C52.4317 16.19 53.2117 15.65 54.2017 15.27C55.2017 14.88 56.3367 14.625 57.6067 14.505C59.4967 14.315 60.8267 14.13 61.5967 13.95C62.3767 13.77 62.7667 13.475 62.7667 13.065C62.7667 13.055 62.7667 13.045 62.7667 13.035C62.7667 12.225 62.4217 11.61 61.7317 11.19C61.0417 10.77 60.0567 10.56 58.7767 10.56C57.4267 10.56 56.3817 10.8 55.6417 11.28C54.9117 11.75 54.5467 12.5 54.5467 13.53H51.3517C51.3517 12.31 51.6667 11.275 52.2967 10.425C52.9367 9.575 53.8167 8.93 54.9367 8.49C56.0567 8.04 57.3417 7.815 58.7917 7.815C60.1217 7.815 61.3317 8.02 62.4217 8.43C63.5217 8.83 64.3967 9.43 65.0467 10.23C65.6967 11.03 66.0217 12.025 66.0217 13.215C66.0217 13.425 66.0217 13.635 66.0217 13.845C66.0217 14.045 66.0217 14.25 66.0217 14.46V20.82C66.0217 21.19 66.0367 21.55 66.0667 21.9C66.0967 22.24 66.1517 22.545 66.2317 22.815C66.3217 23.125 66.4267 23.38 66.5467 23.58C66.6767 23.78 66.7817 23.92 66.8617 24H63.6217C63.5617 23.94 63.4717 23.815 63.3517 23.625C63.2417 23.425 63.1417 23.195 63.0517 22.935C62.9617 22.685 62.8917 22.4 62.8417 22.08C62.8017 21.75 62.7817 21.395 62.7817 21.015L63.3817 21.435C63.0817 22.015 62.6267 22.52 62.0167 22.95C61.4167 23.38 60.6917 23.715 59.8417 23.955C59.0017 24.195 58.0667 24.315 57.0367 24.315ZM57.7117 21.615C58.6417 21.615 59.4867 21.47 60.2467 21.18C61.0167 20.88 61.6317 20.43 62.0917 19.83C62.5517 19.22 62.7817 18.455 62.7817 17.535V14.895L63.5467 15.9C62.9067 16.15 62.1217 16.355 61.1917 16.515C60.2717 16.665 59.3217 16.79 58.3417 16.89C56.9917 17.01 55.9767 17.245 55.2967 17.595C54.6167 17.935 54.2767 18.505 54.2767 19.305C54.2767 20.075 54.5567 20.655 55.1167 21.045C55.6867 21.425 56.5517 21.615 57.7117 21.615ZM82.372 8.07L77.212 24H72.892L67.597 8.07H70.957L75.307 22.635H74.797L79.012 8.07H82.372ZM85.5721 17.175V14.64H97.3021L96.8521 15.39C96.8521 15.33 96.8521 15.27 96.8521 15.21C96.8521 15.14 96.8521 15.08 96.8521 15.03C96.8521 14.22 96.6771 13.475 96.3271 12.795C95.9771 12.105 95.4521 11.555 94.7521 11.145C94.0621 10.725 93.1971 10.515 92.1571 10.515C91.1171 10.515 90.2021 10.74 89.4121 11.19C88.6321 11.63 88.0221 12.26 87.5821 13.08C87.1521 13.89 86.9371 14.865 86.9371 16.005C86.9371 17.165 87.1471 18.165 87.5671 19.005C87.9871 19.835 88.5921 20.475 89.3821 20.925C90.1721 21.375 91.1171 21.6 92.2171 21.6C92.9871 21.6 93.6521 21.525 94.2121 21.375C94.7821 21.215 95.2471 21.005 95.6071 20.745C95.9771 20.485 96.2571 20.205 96.4471 19.905C96.6371 19.595 96.7471 19.29 96.7771 18.99H100.017C99.9571 19.64 99.7421 20.285 99.3721 20.925C99.0121 21.555 98.4971 22.13 97.8271 22.65C97.1671 23.16 96.3571 23.57 95.3971 23.88C94.4471 24.18 93.3521 24.33 92.1121 24.33C90.4521 24.33 88.9971 23.98 87.7471 23.28C86.4971 22.58 85.5221 21.61 84.8221 20.37C84.1221 19.12 83.7721 17.69 83.7721 16.08C83.7721 14.44 84.1271 13 84.8371 11.76C85.5471 10.52 86.5321 9.555 87.7921 8.865C89.0521 8.165 90.4971 7.815 92.1271 7.815C93.7871 7.815 95.2221 8.165 96.4321 8.865C97.6521 9.565 98.5921 10.53 99.2521 11.76C99.9121 12.99 100.242 14.405 100.242 16.005C100.242 16.195 100.237 16.415 100.227 16.665C100.217 16.915 100.202 17.085 100.182 17.175H85.5721ZM103.87 24V8.07H107.125V13.155L106.255 12.765C106.325 12.115 106.49 11.495 106.75 10.905C107.01 10.315 107.355 9.79 107.785 9.33C108.225 8.86 108.765 8.49 109.405 8.22C110.045 7.95 110.785 7.815 111.625 7.815C112.265 7.815 112.78 7.865 113.17 7.965C113.57 8.065 113.815 8.145 113.905 8.205L113.215 11.265C113.115 11.195 112.91 11.105 112.6 10.995C112.3 10.885 111.88 10.83 111.34 10.83C110.52 10.83 109.84 10.975 109.3 11.265C108.76 11.555 108.33 11.94 108.01 12.42C107.69 12.9 107.46 13.425 107.32 13.995C107.19 14.555 107.125 15.12 107.125 15.69V24H103.87ZM122.504 24.315C121.554 24.315 120.659 24.21 119.819 24C118.979 23.79 118.239 23.485 117.599 23.085C116.969 22.675 116.474 22.17 116.114 21.57C115.764 20.97 115.589 20.275 115.589 19.485C115.589 19.415 115.589 19.345 115.589 19.275C115.589 19.195 115.589 19.13 115.589 19.08H118.829C118.829 19.13 118.829 19.175 118.829 19.215C118.829 19.255 118.829 19.31 118.829 19.38C118.829 20.11 119.164 20.665 119.834 21.045C120.514 21.415 121.434 21.6 122.594 21.6C123.274 21.6 123.894 21.53 124.454 21.39C125.024 21.25 125.474 21.035 125.804 20.745C126.144 20.455 126.314 20.085 126.314 19.635C126.314 18.905 125.954 18.385 125.234 18.075C124.524 17.765 123.444 17.49 121.994 17.25C121.204 17.11 120.439 16.93 119.699 16.71C118.969 16.49 118.309 16.2 117.719 15.84C117.139 15.47 116.674 15.015 116.324 14.475C115.984 13.925 115.814 13.265 115.814 12.495C115.814 11.495 116.114 10.645 116.714 9.945C117.314 9.245 118.124 8.715 119.144 8.355C120.164 7.995 121.289 7.815 122.519 7.815C123.709 7.815 124.809 8.01 125.819 8.4C126.839 8.78 127.659 9.335 128.279 10.065C128.899 10.785 129.209 11.67 129.209 12.72C129.209 12.76 129.209 12.805 129.209 12.855C129.209 12.905 129.209 12.95 129.209 12.99H125.984C125.984 12.95 125.984 12.915 125.984 12.885C125.984 12.855 125.984 12.82 125.984 12.78C125.984 12.26 125.819 11.835 125.489 11.505C125.159 11.175 124.729 10.93 124.199 10.77C123.679 10.6 123.124 10.515 122.534 10.515C121.994 10.515 121.449 10.575 120.899 10.695C120.359 10.805 119.909 11 119.549 11.28C119.189 11.55 119.009 11.92 119.009 12.39C119.009 12.87 119.184 13.255 119.534 13.545C119.884 13.825 120.379 14.06 121.019 14.25C121.659 14.43 122.404 14.595 123.254 14.745C124.034 14.885 124.794 15.065 125.534 15.285C126.274 15.495 126.939 15.775 127.529 16.125C128.129 16.475 128.604 16.925 128.954 17.475C129.314 18.025 129.494 18.7 129.494 19.5C129.494 20.33 129.304 21.045 128.924 21.645C128.544 22.245 128.024 22.745 127.364 23.145C126.714 23.535 125.969 23.825 125.129 24.015C124.299 24.215 123.424 24.315 122.504 24.315ZM134.234 17.175V14.64H145.964L145.514 15.39C145.514 15.33 145.514 15.27 145.514 15.21C145.514 15.14 145.514 15.08 145.514 15.03C145.514 14.22 145.339 13.475 144.989 12.795C144.639 12.105 144.114 11.555 143.414 11.145C142.724 10.725 141.859 10.515 140.819 10.515C139.779 10.515 138.864 10.74 138.074 11.19C137.294 11.63 136.684 12.26 136.244 13.08C135.814 13.89 135.599 14.865 135.599 16.005C135.599 17.165 135.809 18.165 136.229 19.005C136.649 19.835 137.254 20.475 138.044 20.925C138.834 21.375 139.779 21.6 140.879 21.6C141.649 21.6 142.314 21.525 142.874 21.375C143.444 21.215 143.909 21.005 144.269 20.745C144.639 20.485 144.919 20.205 145.109 19.905C145.299 19.595 145.409 19.29 145.439 18.99H148.679C148.619 19.64 148.404 20.285 148.034 20.925C147.674 21.555 147.159 22.13 146.489 22.65C145.829 23.16 145.019 23.57 144.059 23.88C143.109 24.18 142.014 24.33 140.774 24.33C139.114 24.33 137.659 23.98 136.409 23.28C135.159 22.58 134.184 21.61 133.484 20.37C132.784 19.12 132.434 17.69 132.434 16.08C132.434 14.44 132.789 13 133.499 11.76C134.209 10.52 135.194 9.555 136.454 8.865C137.714 8.165 139.159 7.815 140.789 7.815C142.449 7.815 143.884 8.165 145.094 8.865C146.314 9.565 147.254 10.53 147.914 11.76C148.574 12.99 148.904 14.405 148.904 16.005C148.904 16.195 148.899 16.415 148.889 16.665C148.879 16.915 148.864 17.085 148.844 17.175H134.234Z" fill="currentColor"/>
</svg>
