<svg width="37" height="37" viewBox="0 0 37 37" fill="none" xmlns="http://www.w3.org/2000/svg">
<path d="M17.239 16.5748H12.5615C12.4226 16.5748 12.2895 16.63 12.1913 16.7282C12.0931 16.8264 12.0379 16.9596 12.0379 17.0984V21.7759C12.0379 21.9148 12.0931 22.048 12.1913 22.1462C12.2895 22.2444 12.4226 22.2996 12.5615 22.2996H17.239C17.3779 22.2996 17.5111 22.2444 17.6093 22.1462C17.7075 22.048 17.7626 21.9148 17.7626 21.7759V17.0984C17.7626 16.9596 17.7075 16.8264 17.6093 16.7282C17.5111 16.63 17.3779 16.5748 17.239 16.5748ZM16.7154 21.2523H13.0851V17.622H16.7154V21.2523ZM34.0642 12.1765H28.7234V9.83779C28.7226 9.14368 28.4466 8.47823 27.9557 7.98742C27.4649 7.49662 26.7995 7.22054 26.1054 7.21977H25.5818V3.55454C25.581 2.86044 25.3049 2.19499 24.8141 1.70418C24.3233 1.21337 23.6579 0.9373 22.9638 0.936523L14.6559 0.936523C13.9618 0.9373 13.2964 1.21337 12.8056 1.70418C12.3147 2.19499 12.0387 2.86044 12.0379 3.55454V7.21977H11.5143C10.8202 7.22054 10.1547 7.49662 9.66393 7.98742C9.17313 8.47823 8.89705 9.14368 8.89628 9.83779V12.1765H3.55552C2.86142 12.1773 2.19596 12.4534 1.70516 12.9442C1.21435 13.435 0.938276 14.1005 0.9375 14.7946L0.9375 36.1576C0.9375 36.2965 0.992665 36.4296 1.09086 36.5278C1.18905 36.626 1.32224 36.6812 1.4611 36.6812H36.1586C36.2974 36.6812 36.4306 36.626 36.5288 36.5278C36.627 36.4296 36.6822 36.2965 36.6822 36.1576V14.7946C36.6814 14.1005 36.4053 13.435 35.9145 12.9442C35.4237 12.4534 34.7583 12.1773 34.0642 12.1765ZM8.89628 29.63H5.26596V25.9997H8.89628V29.63ZM8.89628 21.2523H5.26596V17.622H8.89628V21.2523ZM8.89628 16.5748H4.74235C4.60349 16.5748 4.4703 16.63 4.37211 16.7282C4.27391 16.8264 4.21875 16.9596 4.21875 17.0984V21.7759C4.21875 21.9148 4.27391 22.048 4.37211 22.1462C4.4703 22.2444 4.60349 22.2996 4.74235 22.2996H8.89628V24.9525H4.74235C4.60349 24.9525 4.4703 25.0076 4.37211 25.1058C4.27391 25.204 4.21875 25.3372 4.21875 25.4761V30.1536C4.21875 30.2925 4.27391 30.4257 4.37211 30.5239C4.4703 30.622 4.60349 30.6772 4.74235 30.6772H8.89628V35.634H1.98471V14.7946C1.98517 14.3781 2.15081 13.9788 2.4453 13.6843C2.73978 13.3899 3.13906 13.2242 3.55552 13.2238H8.89628V16.5748ZM13.0851 3.55454C13.0856 3.13808 13.2512 2.73881 13.5457 2.44432C13.8402 2.14984 14.2395 1.98419 14.6559 1.98373H22.9638C23.3802 1.98421 23.7795 2.14986 24.074 2.44434C24.3684 2.73882 24.5341 3.13808 24.5346 3.55454V11.8624C24.5341 12.2788 24.3684 12.6781 24.074 12.9726C23.7795 13.2671 23.3802 13.4327 22.9638 13.4332H14.6559C14.2395 13.4327 13.8402 13.2671 13.5457 12.9726C13.2512 12.6781 13.0856 12.2789 13.0851 11.8624V3.55454ZM21.5675 35.634H16.0522V27.012C16.0527 26.5955 16.2183 26.1963 16.5128 25.9018C16.8073 25.6073 17.2065 25.4416 17.623 25.4412H19.9967C20.4131 25.4417 20.8124 25.6073 21.1069 25.9018C21.4014 26.1963 21.567 26.5955 21.5675 27.012V35.634ZM27.6762 35.634H22.6147V27.012C22.6139 26.3179 22.3378 25.6524 21.847 25.1616C21.3562 24.6708 20.6908 24.3947 19.9967 24.394H17.623C16.9289 24.3947 16.2634 24.6708 15.7726 25.1616C15.2818 25.6524 15.0058 26.3179 15.005 27.012V35.634H9.94348V9.83779C9.94395 9.42132 10.1096 9.02205 10.4041 8.72757C10.6986 8.43308 11.0978 8.26744 11.5143 8.26697H12.0379V11.8624C12.0387 12.5565 12.3147 13.2219 12.8056 13.7127C13.2964 14.2036 13.9618 14.4796 14.6559 14.4804H22.9638C23.6579 14.4796 24.3233 14.2036 24.8141 13.7127C25.3049 13.2219 25.581 12.5565 25.5818 11.8624V8.26697H26.1054C26.5218 8.26746 26.9211 8.4331 27.2156 8.72759C27.5101 9.02207 27.6757 9.42133 27.6762 9.83779V35.634ZM28.7234 17.622H32.3537V21.2523H28.7234V17.622ZM28.7234 25.9997H32.3537V29.63H28.7234V25.9997ZM35.635 35.634H28.7234V30.6772H32.8773C33.0162 30.6772 33.1494 30.622 33.2476 30.5239C33.3458 30.4257 33.4009 30.2925 33.4009 30.1536V25.4761C33.4009 25.3372 33.3458 25.204 33.2476 25.1058C33.1494 25.0076 33.0162 24.9525 32.8773 24.9525H28.7234V22.2996H32.8773C33.0162 22.2996 33.1494 22.2444 33.2476 22.1462C33.3458 22.048 33.4009 21.9148 33.4009 21.7759V17.0984C33.4009 16.9596 33.3458 16.8264 33.2476 16.7282C33.1494 16.63 33.0162 16.5748 32.8773 16.5748H28.7234V13.2238H34.0642C34.4806 13.2242 34.8799 13.3899 35.1744 13.6844C35.4688 13.9788 35.6345 14.3781 35.635 14.7946V35.634ZM14.4965 10.8659H23.1231C23.2619 10.8659 23.3951 10.8107 23.4933 10.7125C23.5915 10.6143 23.6467 10.4811 23.6467 10.3423C23.6467 10.2034 23.5915 10.0702 23.4933 9.97202C23.3951 9.87382 23.2619 9.81866 23.1231 9.81866H22.8482C22.7544 9.11129 22.4752 8.44132 22.0389 7.87669C21.6026 7.31206 21.0247 6.87284 20.3639 6.60359V6.11811C20.3639 5.70252 20.1988 5.30395 19.9049 5.01009C19.6111 4.71623 19.2125 4.55113 18.7969 4.55113C18.3813 4.55113 17.9828 4.71623 17.6889 5.01009C17.395 5.30395 17.23 5.70252 17.23 6.11811V6.60373C16.5692 6.87301 15.9914 7.31223 15.5552 7.87683C15.119 8.44144 14.8398 9.11135 14.746 9.81866H14.4965C14.3577 9.81866 14.2245 9.87382 14.1263 9.97202C14.0281 10.0702 13.9729 10.2034 13.9729 10.3423C13.9729 10.4811 14.0281 10.6143 14.1263 10.7125C14.2245 10.8107 14.3577 10.8659 14.4965 10.8659ZM18.2772 6.11811C18.2773 5.98021 18.3322 5.848 18.4297 5.75049C18.5272 5.65299 18.6594 5.59814 18.7973 5.59799C18.9351 5.59825 19.0671 5.65315 19.1645 5.75066C19.2619 5.84816 19.3166 5.98031 19.3167 6.11811V6.33509C19.1611 6.31666 19.0047 6.30726 18.848 6.30695H18.7462C18.5895 6.30727 18.4328 6.31669 18.2772 6.33516V6.11811ZM18.7462 7.35416H18.848C19.5495 7.35508 20.2283 7.60233 20.7661 8.05276C21.3038 8.50318 21.6662 9.12816 21.7901 9.81859H15.8041C15.928 9.12816 16.2904 8.50317 16.8282 8.05275C17.3659 7.60232 18.0448 7.35507 18.7462 7.35416ZM25.0582 16.5748H20.3806C20.2418 16.5748 20.1086 16.63 20.0104 16.7282C19.9122 16.8264 19.857 16.9596 19.857 17.0984V21.7759C19.857 21.9148 19.9122 22.048 20.0104 22.1462C20.1086 22.2444 20.2418 22.2996 20.3806 22.2996H25.0582C25.197 22.2996 25.3302 22.2444 25.4284 22.1462C25.5266 22.048 25.5818 21.9148 25.5818 21.7759V17.0984C25.5818 16.9596 25.5266 16.8264 25.4284 16.7282C25.3302 16.63 25.197 16.5748 25.0582 16.5748ZM24.5346 21.2523H20.9043V17.622H24.5346V21.2523Z" fill="#3C3B41"/>
</svg>
