<svg width="61" height="60" viewBox="0 0 61 60" fill="none" xmlns="http://www.w3.org/2000/svg">
<path fill-rule="evenodd" clip-rule="evenodd" d="M30.4963 52.8C45.3196 52.8 57.3363 40.9803 57.3363 26.4C57.3363 11.8197 45.3196 0 30.4963 0C15.6729 0 3.65625 11.8197 3.65625 26.4C3.65625 33.1233 6.21143 39.2597 10.4187 43.9208C11.1406 44.7205 11.5862 45.7424 11.5862 46.8197V54.8726C11.5862 57.8107 14.6479 59.7462 17.302 58.4859L29.2569 52.8092C29.2645 52.8056 29.2643 52.7947 29.2566 52.7914C29.2467 52.787 29.2502 52.7721 29.2611 52.7725C29.6705 52.7908 30.0823 52.8 30.4963 52.8Z" fill="#D91010"/>
<path fill-rule="evenodd" clip-rule="evenodd" d="M27.4531 25.9779C27.4531 27.3826 28.5919 28.5214 29.9966 28.5214C31.4013 28.5214 32.5401 27.3826 32.5401 25.9779L32.5401 15.2388C32.5401 13.8341 31.4013 12.6953 29.9966 12.6953C28.5919 12.6953 27.4531 13.8341 27.4531 15.2388V25.9779ZM29.9966 35.304C31.4013 35.304 32.5401 34.1653 32.5401 32.7605C32.5401 31.3558 31.4013 30.2171 29.9966 30.2171C28.5919 30.2171 27.4531 31.3558 27.4531 32.7605C27.4531 34.1653 28.5919 35.304 29.9966 35.304Z" fill="white"/>
</svg>
