<svg width="104" height="67" viewBox="0 0 104 67" fill="none" xmlns="http://www.w3.org/2000/svg">
<circle cx="83" cy="11.4375" r="11" fill="#D91010"/>
<circle cx="63.2068" cy="43.5545" r="4.15994" fill="#D91010"/>
<circle cx="11.992" cy="7.21079" r="2.77329" fill="#D91010"/>
<path d="M78.8706 73.575C109.931 101.394 112.559 149.125 84.7401 180.186C56.9211 211.246 9.18992 213.874 -21.8706 186.055C-52.9311 158.236 -55.559 110.505 -27.7401 79.4444C-14.3975 64.5472 3.52554 56.1904 21.993 54.5965C26.2912 54.2255 29.8346 50.7844 29.8264 46.4702L29.8232 44.7788C29.8192 42.7108 28.4959 40.9255 26.936 39.5679C22.4553 35.6682 21.9843 28.8746 25.8839 24.3938C29.7836 19.9131 36.5772 19.4421 41.0579 23.3417C45.5387 27.2414 46.0097 34.035 42.11 38.5158C41.7779 38.8974 41.4248 39.2499 41.054 39.5731C38.4051 41.8815 35.5739 44.701 35.5806 48.2146C35.5875 51.8607 38.3736 54.8682 41.9619 55.5148C55.255 57.9103 68.0706 63.9021 78.8706 73.575Z" fill="#D91010"/>
</svg>
