<svg width="48" height="48" viewBox="0 0 48 48" fill="none" xmlns="http://www.w3.org/2000/svg">
<path d="M42.75 2.25H11.25C10.4544 2.25 9.69129 2.56607 9.12868 3.12868C8.56607 3.69129 8.25 4.45435 8.25 5.25V8.25H36.75C37.5456 8.25 38.3087 8.56607 38.8713 9.12868C39.4339 9.69129 39.75 10.4544 39.75 11.25V39.75H42.75C43.5457 39.75 44.3087 39.4339 44.8713 38.8713C45.4339 38.3087 45.75 37.5457 45.75 36.75V5.25C45.75 4.45435 45.4339 3.69129 44.8713 3.12868C44.3087 2.56607 43.5457 2.25 42.75 2.25Z" fill="#BDDBFF"/>
<path d="M42.75 1.5H11.25C10.2558 1.50119 9.30267 1.89666 8.59966 2.59966C7.89666 3.30267 7.50119 4.2558 7.5 5.25V7.5H5.25C4.2558 7.50119 3.30267 7.89666 2.59966 8.59966C1.89666 9.30267 1.50119 10.2558 1.5 11.25V42.75C1.50119 43.7442 1.89666 44.6973 2.59966 45.4003C3.30267 46.1033 4.2558 46.4988 5.25 46.5H36.75C37.7442 46.4988 38.6973 46.1033 39.4003 45.4003C40.1033 44.6973 40.4988 43.7442 40.5 42.75V40.5H42.75C43.7442 40.4988 44.6973 40.1033 45.4003 39.4003C46.1033 38.6973 46.4988 37.7442 46.5 36.75V5.25C46.4988 4.2558 46.1033 3.30267 45.4003 2.59966C44.6973 1.89666 43.7442 1.50119 42.75 1.5ZM39 42.75C39 43.3467 38.7629 43.919 38.341 44.341C37.919 44.7629 37.3467 45 36.75 45H5.25C4.65326 45 4.08097 44.7629 3.65901 44.341C3.23705 43.919 3 43.3467 3 42.75V11.25C3 10.6533 3.23705 10.081 3.65901 9.65901C4.08097 9.23705 4.65326 9 5.25 9H36.75C37.3467 9 37.919 9.23705 38.341 9.65901C38.7629 10.081 39 10.6533 39 11.25V42.75ZM45 36.75C45 37.3467 44.7629 37.919 44.341 38.341C43.919 38.7629 43.3467 39 42.75 39H40.5V11.25C40.4988 10.2558 40.1033 9.30267 39.4003 8.59966C38.6973 7.89666 37.7442 7.50119 36.75 7.5H9V5.25C9 4.65326 9.23705 4.08097 9.65901 3.65901C10.081 3.23705 10.6533 3 11.25 3H42.75C43.3467 3 43.919 3.23705 44.341 3.65901C44.7629 4.08097 45 4.65326 45 5.25V36.75Z" fill="#3D9AE2"/>
<path d="M29.25 26.25H21.75V18.75C21.75 18.5511 21.671 18.3603 21.5303 18.2197C21.3897 18.079 21.1989 18 21 18C20.8011 18 20.6103 18.079 20.4697 18.2197C20.329 18.3603 20.25 18.5511 20.25 18.75V26.25H12.75C12.5511 26.25 12.3603 26.329 12.2197 26.4697C12.079 26.6103 12 26.8011 12 27C12 27.1989 12.079 27.3897 12.2197 27.5303C12.3603 27.671 12.5511 27.75 12.75 27.75H20.25V35.25C20.25 35.4489 20.329 35.6397 20.4697 35.7803C20.6103 35.921 20.8011 36 21 36C21.1989 36 21.3897 35.921 21.5303 35.7803C21.671 35.6397 21.75 35.4489 21.75 35.25V27.75H29.25C29.4489 27.75 29.6397 27.671 29.7803 27.5303C29.921 27.3897 30 27.1989 30 27C30 26.8011 29.921 26.6103 29.7803 26.4697C29.6397 26.329 29.4489 26.25 29.25 26.25Z" fill="#3D9AE2"/>
</svg>
