<svg width="49" height="48" viewBox="0 0 49 48" fill="none" xmlns="http://www.w3.org/2000/svg">
<path d="M9.5 42.75H8L7.25 45.75H24.5V42.75H9.5Z" fill="#808285"/>
<path d="M41 42.75H39.5H24.5V45.75H41.75L41 42.75Z" fill="#8E9093"/>
<path d="M24.5 38.25H12.5H11L9.5 42.75H24.5V38.25Z" fill="#57A4FF"/>
<path d="M24.5 42.75H39.5L38 38.25H36.5H24.5V42.75Z" fill="#6AAEFF"/>
<path d="M24.5 35.25H14.75H13.25L12.5 38.25H24.5V35.25Z" fill="#A7A9AC"/>
<path d="M24.5 38.25H36.5L35.75 35.25H34.25H24.5V38.25Z" fill="#BCBEC0"/>
<path d="M24.5 35.25H34.25L32 14.25H24.5V35.25Z" fill="#D6EAF9"/>
<path d="M24.5 14.25H17L14.75 35.25H24.5V14.25Z" fill="#C2DFF6"/>
<path d="M24.5 2.25H23V5.25H20V2.25H17V5.25H14V2.25H11V11.25H17H24.5V2.25Z" fill="#9BC9FF"/>
<path d="M32 11.25H38V2.25H35V5.25H32V2.25H29V5.25H26V2.25H24.5V11.25H32Z" fill="#BDDBFF"/>
<path d="M24.5 11.25H17V14.25H24.5V11.25Z" fill="#A7A9AC"/>
<path d="M32 11.25H24.5V14.25H32V11.25Z" fill="#BCBEC0"/>
<path d="M30.3743 20.1958L28.8828 20.3555L30.1652 32.3313L31.6567 32.1715L30.3743 20.1958Z" fill="#F1F2F2"/>
<path d="M30.05 17.1716L28.5586 17.332L28.7164 18.7988L30.2078 18.6384L30.05 17.1716Z" fill="#F1F2F2"/>
</svg>
