<svg width="48" height="48" viewBox="0 0 48 48" fill="none" xmlns="http://www.w3.org/2000/svg">
<path d="M45 12.75V42.75C45 43.1478 44.842 43.5294 44.5607 43.8107C44.2794 44.092 43.8978 44.25 43.5 44.25H4.5C4.10218 44.25 3.72064 44.092 3.43934 43.8107C3.15804 43.5294 3 43.1478 3 42.75V12.75H45Z" fill="#CCD3EB"/>
<path d="M41.25 12V37.5C41.25 38.6935 40.7759 39.8381 39.932 40.682C39.0881 41.5259 37.9435 42 36.75 42H2.25V12H41.25Z" fill="#F5F7FF"/>
<path d="M19.1266 34.499C18.9609 34.4985 18.8 34.4431 18.6691 34.3415L11.9191 29.0915C11.8287 29.0214 11.7556 28.9316 11.7053 28.8289C11.6551 28.7262 11.6289 28.6133 11.6289 28.499C11.6289 28.3847 11.6551 28.2718 11.7053 28.1691C11.7556 28.0664 11.8287 27.9766 11.9191 27.9065L18.6691 22.6565C18.8271 22.5494 19.02 22.5065 19.2085 22.5367C19.397 22.5669 19.5669 22.6678 19.6836 22.8189C19.8003 22.97 19.8549 23.1599 19.8365 23.3499C19.818 23.5399 19.7277 23.7157 19.5841 23.8415L13.5841 28.499L19.5841 33.1565C19.7074 33.2522 19.7978 33.3841 19.8427 33.5337C19.8875 33.6833 19.8845 33.8431 19.8342 33.9909C19.7838 34.1387 19.6885 34.2671 19.5617 34.3582C19.4348 34.4493 19.2827 34.4985 19.1266 34.499ZM28.8766 34.499C28.7204 34.4985 28.5683 34.4493 28.4415 34.3582C28.3146 34.2671 28.2194 34.1387 28.169 33.9909C28.1186 33.8431 28.1156 33.6833 28.1605 33.5337C28.2053 33.3841 28.2957 33.2522 28.4191 33.1565L34.4191 28.499L28.4191 23.8415C28.2754 23.7157 28.1852 23.5399 28.1667 23.3499C28.1482 23.1599 28.2029 22.97 28.3195 22.8189C28.4362 22.6678 28.6061 22.5669 28.7946 22.5367C28.9831 22.5065 29.1761 22.5494 29.3341 22.6565L36.0841 27.9065C36.1744 27.9766 36.2475 28.0664 36.2978 28.1691C36.3481 28.2718 36.3742 28.3847 36.3742 28.499C36.3742 28.6133 36.3481 28.7262 36.2978 28.8289C36.2475 28.9316 36.1744 29.0214 36.0841 29.0915L29.3341 34.3415C29.2032 34.4431 29.0423 34.4985 28.8766 34.499ZM22.3216 36.1715H22.1416C21.9503 36.1236 21.7857 36.0022 21.6832 35.8338C21.5807 35.6654 21.5487 35.4634 21.5941 35.2715L24.9541 21.419C25.0105 21.2367 25.1342 21.0827 25.3002 20.9885C25.4661 20.8942 25.6617 20.8668 25.8472 20.9117C26.0326 20.9566 26.194 21.0706 26.2984 21.2303C26.4028 21.3901 26.4424 21.5836 26.4091 21.7715L23.0491 35.6015C23.0089 35.7641 22.9154 35.9086 22.7836 36.0119C22.6517 36.1152 22.4891 36.1714 22.3216 36.1715Z" fill="#FE9661"/>
<path d="M43.5 3H4.5C4.10218 3 3.72064 3.15804 3.43934 3.43934C3.15804 3.72064 3 4.10218 3 4.5V13.5H45V4.5C45 4.10218 44.842 3.72064 44.5607 3.43934C44.2794 3.15804 43.8978 3 43.5 3ZM28.5 9C28.5 9.39782 28.342 9.77936 28.0607 10.0607C27.7794 10.342 27.3978 10.5 27 10.5H7.5C7.10218 10.5 6.72064 10.342 6.43934 10.0607C6.15804 9.77936 6 9.39782 6 9V7.5C6 7.10218 6.15804 6.72064 6.43934 6.43934C6.72064 6.15804 7.10218 6 7.5 6H27C27.3978 6 27.7794 6.15804 28.0607 6.43934C28.342 6.72064 28.5 7.10218 28.5 7.5V9ZM32.25 9C32.1017 9 31.9567 8.95601 31.8333 8.8736C31.71 8.79119 31.6139 8.67406 31.5571 8.53701C31.5003 8.39997 31.4855 8.24917 31.5144 8.10368C31.5434 7.9582 31.6148 7.82456 31.7197 7.71967C31.8246 7.61478 31.9582 7.54335 32.1037 7.51441C32.2492 7.48547 32.4 7.50032 32.537 7.55709C32.6741 7.61386 32.7912 7.70999 32.8736 7.83332C32.956 7.95666 33 8.10166 33 8.25C33 8.44891 32.921 8.63968 32.7803 8.78033C32.6397 8.92098 32.4489 9 32.25 9ZM36.75 9C36.6017 9 36.4567 8.95601 36.3333 8.8736C36.21 8.79119 36.1139 8.67406 36.0571 8.53701C36.0003 8.39997 35.9855 8.24917 36.0144 8.10368C36.0434 7.9582 36.1148 7.82456 36.2197 7.71967C36.3246 7.61478 36.4582 7.54335 36.6037 7.51441C36.7492 7.48547 36.9 7.50032 37.037 7.55709C37.1741 7.61386 37.2912 7.70999 37.3736 7.83332C37.456 7.95666 37.5 8.10166 37.5 8.25C37.5 8.44891 37.421 8.63968 37.2803 8.78033C37.1397 8.92098 36.9489 9 36.75 9ZM41.25 9C41.1017 9 40.9567 8.95601 40.8333 8.8736C40.71 8.79119 40.6139 8.67406 40.5571 8.53701C40.5003 8.39997 40.4855 8.24917 40.5144 8.10368C40.5434 7.9582 40.6148 7.82456 40.7197 7.71967C40.8246 7.61478 40.9582 7.54335 41.1037 7.51441C41.2492 7.48547 41.4 7.50032 41.537 7.55709C41.6741 7.61386 41.7912 7.70999 41.8736 7.83332C41.956 7.95666 42 8.10166 42 8.25C42 8.44891 41.921 8.63968 41.7803 8.78033C41.6397 8.92098 41.4489 9 41.25 9Z" fill="#0074FF"/>
<path d="M27 6H7.5C6.67157 6 6 6.67157 6 7.5V9C6 9.82843 6.67157 10.5 7.5 10.5H27C27.8284 10.5 28.5 9.82843 28.5 9V7.5C28.5 6.67157 27.8284 6 27 6Z" fill="#F5F7FF"/>
<path d="M32.25 9.75C31.9533 9.75 31.6633 9.66203 31.4166 9.49721C31.17 9.33238 30.9777 9.09811 30.8642 8.82403C30.7506 8.54994 30.7209 8.24834 30.7788 7.95737C30.8367 7.66639 30.9796 7.39912 31.1893 7.18934C31.3991 6.97956 31.6664 6.8367 31.9574 6.77882C32.2483 6.72094 32.5499 6.75065 32.824 6.86418C33.0981 6.97771 33.3324 7.16997 33.4972 7.41665C33.662 7.66332 33.75 7.95333 33.75 8.25C33.75 8.64783 33.592 9.02936 33.3107 9.31066C33.0294 9.59197 32.6478 9.75 32.25 9.75Z" fill="#E0633D"/>
<path d="M36.75 9.75C36.4533 9.75 36.1633 9.66203 35.9166 9.49721C35.67 9.33238 35.4777 9.09811 35.3642 8.82403C35.2506 8.54994 35.2209 8.24834 35.2788 7.95737C35.3367 7.66639 35.4796 7.39912 35.6893 7.18934C35.8991 6.97956 36.1664 6.8367 36.4574 6.77882C36.7483 6.72094 37.0499 6.75065 37.324 6.86418C37.5981 6.97771 37.8324 7.16997 37.9972 7.41665C38.162 7.66332 38.25 7.95333 38.25 8.25C38.25 8.64783 38.092 9.02936 37.8107 9.31066C37.5294 9.59197 37.1478 9.75 36.75 9.75Z" fill="#0668CB"/>
<path d="M41.25 9.75C40.9533 9.75 40.6633 9.66203 40.4166 9.49721C40.17 9.33238 39.9777 9.09811 39.8642 8.82403C39.7506 8.54994 39.7209 8.24834 39.7788 7.95737C39.8367 7.66639 39.9796 7.39912 40.1893 7.18934C40.3991 6.97956 40.6664 6.8367 40.9574 6.77882C41.2483 6.72094 41.5499 6.75065 41.824 6.86418C42.0981 6.97771 42.3324 7.16997 42.4972 7.41665C42.662 7.66332 42.75 7.95333 42.75 8.25C42.75 8.64783 42.592 9.02936 42.3107 9.31066C42.0294 9.59197 41.6478 9.75 41.25 9.75Z" fill="#D7E9F7"/>
<path d="M41.25 9.75C42.0784 9.75 42.75 9.07843 42.75 8.25C42.75 7.42157 42.0784 6.75 41.25 6.75C40.4216 6.75 39.75 7.42157 39.75 8.25C39.75 9.07843 40.4216 9.75 41.25 9.75Z" fill="#F5F7FF"/>
<path d="M45 22.5C44.8011 22.5 44.6103 22.579 44.4697 22.7197C44.329 22.8603 44.25 23.0511 44.25 23.25V24C44.25 24.1989 44.329 24.3897 44.4697 24.5303C44.6103 24.671 44.8011 24.75 45 24.75C45.1989 24.75 45.3897 24.671 45.5303 24.5303C45.671 24.3897 45.75 24.1989 45.75 24V23.25C45.75 23.0511 45.671 22.8603 45.5303 22.7197C45.3897 22.579 45.1989 22.5 45 22.5Z" fill="#033C59"/>
<path d="M19.7191 22.7906C19.5975 22.6337 19.4188 22.5315 19.222 22.5062C19.0252 22.4809 18.8264 22.5346 18.6691 22.6556L11.9191 27.9056C11.8287 27.9757 11.7556 28.0655 11.7053 28.1682C11.6551 28.2709 11.6289 28.3837 11.6289 28.4981C11.6289 28.6124 11.6551 28.7252 11.7053 28.8279C11.7556 28.9306 11.8287 29.0205 11.9191 29.0906L18.6691 34.3406C18.8264 34.4615 19.0252 34.5152 19.222 34.4899C19.4188 34.4646 19.5975 34.3624 19.7191 34.2056C19.84 34.0483 19.8938 33.8495 19.8685 33.6527C19.8432 33.4559 19.7409 33.2771 19.5841 33.1556L13.5841 28.4981L19.5841 23.8406C19.7409 23.719 19.8432 23.5402 19.8685 23.3434C19.8938 23.1466 19.84 22.9478 19.7191 22.7906ZM28.2841 34.2056C28.3539 34.2963 28.4437 34.3699 28.5464 34.4206C28.6491 34.4713 28.762 34.4978 28.8766 34.4981C29.0423 34.4975 29.2032 34.4422 29.3341 34.3406L36.0841 29.0906C36.1744 29.0205 36.2475 28.9306 36.2978 28.8279C36.3481 28.7252 36.3742 28.6124 36.3742 28.4981C36.3742 28.3837 36.3481 28.2709 36.2978 28.1682C36.2475 28.0655 36.1744 27.9757 36.0841 27.9056L29.3341 22.6556C29.1761 22.5484 28.9831 22.5056 28.7946 22.5357C28.6061 22.5659 28.4362 22.6668 28.3195 22.8179C28.2029 22.9691 28.1482 23.159 28.1667 23.349C28.1852 23.539 28.2754 23.7148 28.4191 23.8406L34.4191 28.4981L28.4191 33.1556C28.2623 33.2771 28.16 33.4559 28.1347 33.6527C28.1094 33.8495 28.1631 34.0483 28.2841 34.2056ZM24.9541 21.3956L21.5941 35.2481C21.5487 35.4399 21.5807 35.6419 21.6832 35.8104C21.7857 35.9788 21.9503 36.1001 22.1416 36.1481H22.3216C22.4929 36.1531 22.6608 36.0992 22.7972 35.9955C22.9337 35.8918 23.0305 35.7445 23.0716 35.5781L26.4091 21.7481C26.4424 21.5602 26.4028 21.3666 26.2984 21.2069C26.194 21.0471 26.0326 20.9332 25.8472 20.8883C25.6617 20.8433 25.4661 20.8708 25.3002 20.965C25.1342 21.0593 25.0105 21.2133 24.9541 21.3956Z" fill="#0074FF"/>
<path d="M27 5.25H7.5C6.90326 5.25 6.33097 5.48705 5.90901 5.90901C5.48705 6.33097 5.25 6.90326 5.25 7.5V9C5.25 9.59674 5.48705 10.169 5.90901 10.591C6.33097 11.0129 6.90326 11.25 7.5 11.25H27C27.5967 11.25 28.169 11.0129 28.591 10.591C29.0129 10.169 29.25 9.59674 29.25 9V7.5C29.25 6.90326 29.0129 6.33097 28.591 5.90901C28.169 5.48705 27.5967 5.25 27 5.25ZM27.75 9C27.75 9.19891 27.671 9.38968 27.5303 9.53033C27.3897 9.67098 27.1989 9.75 27 9.75H7.5C7.30109 9.75 7.11032 9.67098 6.96967 9.53033C6.82902 9.38968 6.75 9.19891 6.75 9V7.5C6.75 7.30109 6.82902 7.11032 6.96967 6.96967C7.11032 6.82902 7.30109 6.75 7.5 6.75H27C27.1989 6.75 27.3897 6.82902 27.5303 6.96967C27.671 7.11032 27.75 7.30109 27.75 7.5V9Z" fill="#033C59"/>
<path d="M36.75 9.75C37.5784 9.75 38.25 9.07843 38.25 8.25C38.25 7.42157 37.5784 6.75 36.75 6.75C35.9216 6.75 35.25 7.42157 35.25 8.25C35.25 9.07843 35.9216 9.75 36.75 9.75Z" fill="#F5F7FF"/>
<path d="M32.25 9.75C33.0784 9.75 33.75 9.07843 33.75 8.25C33.75 7.42157 33.0784 6.75 32.25 6.75C31.4216 6.75 30.75 7.42157 30.75 8.25C30.75 9.07843 31.4216 9.75 32.25 9.75Z" fill="#F5F7FF"/>
<path d="M43.5 2.25H4.5C3.90326 2.25 3.33097 2.48705 2.90901 2.90901C2.48705 3.33097 2.25 3.90326 2.25 4.5V43.5C2.25 44.0967 2.48705 44.669 2.90901 45.091C3.33097 45.5129 3.90326 45.75 4.5 45.75H43.5C44.0967 45.75 44.669 45.5129 45.091 45.091C45.5129 44.669 45.75 44.0967 45.75 43.5V27C45.75 26.8011 45.671 26.6103 45.5303 26.4697C45.3897 26.329 45.1989 26.25 45 26.25C44.8011 26.25 44.6103 26.329 44.4697 26.4697C44.329 26.6103 44.25 26.8011 44.25 27V43.5C44.25 43.6989 44.171 43.8897 44.0303 44.0303C43.8897 44.171 43.6989 44.25 43.5 44.25H4.5C4.30109 44.25 4.11032 44.171 3.96967 44.0303C3.82902 43.8897 3.75 43.6989 3.75 43.5V14.25H44.25V20.25C44.25 20.4489 44.329 20.6397 44.4697 20.7803C44.6103 20.921 44.8011 21 45 21C45.1989 21 45.3897 20.921 45.5303 20.7803C45.671 20.6397 45.75 20.4489 45.75 20.25V4.5C45.75 3.90326 45.5129 3.33097 45.091 2.90901C44.669 2.48705 44.0967 2.25 43.5 2.25ZM44.25 12.75H3.75V4.5C3.75 4.30109 3.82902 4.11032 3.96967 3.96967C4.11032 3.82902 4.30109 3.75 4.5 3.75H43.5C43.6989 3.75 43.8897 3.82902 44.0303 3.96967C44.171 4.11032 44.25 4.30109 44.25 4.5V12.75Z" fill="#033C59"/>
</svg>
