<svg width="49" height="48" viewBox="0 0 49 48" fill="none" xmlns="http://www.w3.org/2000/svg">
<path d="M14.7264 21.1887H40.3876C41.0463 21.187 41.6775 20.924 42.1426 20.4575C42.6077 19.991 42.8688 19.3591 42.8685 18.7003V5.48834C42.8688 4.82961 42.6077 4.19767 42.1426 3.73117C41.6775 3.26468 41.0463 3.00173 40.3876 3H14.7264C14.0669 3.00143 13.4348 3.26405 12.9685 3.73039C12.5021 4.19674 12.2395 4.82883 12.2381 5.48834V18.7003C12.2395 19.3599 12.5021 19.9919 12.9685 20.4583C13.4348 20.9246 14.0669 21.1873 14.7264 21.1887ZM15.43 8.79136C15.4366 8.18086 16.016 7.9502 16.5409 8.08786C16.7391 8.0877 16.9351 8.04705 17.117 7.96842C17.299 7.8898 17.4629 7.77484 17.5988 7.63059C17.7347 7.48635 17.8397 7.31587 17.9074 7.1296C17.9751 6.94333 18.004 6.7452 17.9924 6.54736C17.9678 6.43831 17.9681 6.32515 17.9931 6.21622C18.0182 6.10729 18.0673 6.00536 18.137 5.91795C18.2066 5.83053 18.295 5.75987 18.3956 5.71115C18.4962 5.66243 18.6064 5.63691 18.7182 5.63647H36.3958C36.4992 5.63675 36.6013 5.65863 36.6957 5.70073C36.7901 5.74282 36.8746 5.80418 36.9439 5.88088C37.0216 5.9715 37.078 6.07847 37.1088 6.19385C37.1395 6.30923 37.1439 6.43006 37.1216 6.54737C37.1088 6.74548 37.1369 6.9441 37.2042 7.13088C37.2715 7.31767 37.3764 7.48861 37.5126 7.63309C37.6487 7.77758 37.8131 7.8925 37.9956 7.97073C38.1781 8.04895 38.3747 8.0888 38.5732 8.0878C38.6923 8.03925 38.8213 8.01987 38.9495 8.03128C39.0776 8.04269 39.2012 8.08456 39.3099 8.15341C39.4186 8.22225 39.5092 8.31607 39.5743 8.42704C39.6394 8.53802 39.677 8.66295 39.6841 8.79141V15.3973C39.677 15.5258 39.6394 15.6507 39.5744 15.7617C39.5093 15.8727 39.4186 15.9665 39.3099 16.0354C39.2012 16.1042 39.0776 16.1461 38.9495 16.1575C38.8213 16.1688 38.6923 16.1494 38.5732 16.1008C38.1845 16.1017 37.8121 16.2565 37.5373 16.5314C37.2625 16.8062 37.1077 17.1786 37.1068 17.5673C37.1406 17.6797 37.148 17.7985 37.1285 17.9143C37.109 18.0302 37.0631 18.14 36.9944 18.2352C36.9256 18.3304 36.8359 18.4086 36.7321 18.4636C36.6283 18.5185 36.5132 18.5489 36.3958 18.5522H18.7182C18.6136 18.5527 18.5101 18.5312 18.4144 18.4891C18.3187 18.447 18.233 18.3852 18.1627 18.3078C18.0797 18.2056 18.0218 18.0854 17.9935 17.9568C17.9652 17.8282 17.9674 17.6948 17.9998 17.5672C18.0006 17.1794 17.8474 16.8071 17.5738 16.5321C17.3002 16.2572 16.9287 16.1021 16.5408 16.1009C16.027 16.2363 15.4267 16.0094 15.43 15.3973L15.43 8.79136ZM19.4439 17.0711H35.67C35.7772 16.4486 36.081 15.8769 36.5368 15.4398C36.9926 15.0026 37.5765 14.723 38.2029 14.6419V9.5393C37.5766 9.46109 36.9922 9.18337 36.5361 8.74724C36.0799 8.31111 35.7763 7.73973 35.67 7.11764H19.4439C19.3377 7.73972 19.0341 8.3111 18.5779 8.74723C18.1218 9.18337 17.5374 9.46109 16.9112 9.5393V14.6419C17.5375 14.723 18.1214 15.0026 18.5772 15.4398C19.033 15.877 19.3368 16.4487 19.4439 17.0711ZM27.5533 7.91747C28.6421 7.93704 29.6787 8.38787 30.4354 9.17098C31.1921 9.95408 31.6072 11.0055 31.5895 12.0943C31.604 12.6335 31.5103 13.1701 31.314 13.6725C31.1176 14.1748 30.8227 14.6328 30.4464 15.0192C30.0702 15.4057 29.6203 15.7129 29.1234 15.9227C28.6265 16.1324 28.0926 16.2405 27.5533 16.2405C27.0139 16.2404 26.48 16.1324 25.9831 15.9226C25.4862 15.7129 25.0363 15.4057 24.6601 15.0192C24.2839 14.6327 23.9889 14.1748 23.7926 13.6724C23.5963 13.17 23.5026 12.6334 23.5171 12.0943C23.5007 11.0058 23.9162 9.95514 24.6726 9.17232C25.4291 8.38951 26.4649 7.9383 27.5533 7.91747ZM27.5532 9.39864C30.9282 9.50859 30.929 14.6795 27.5533 14.7901C24.1785 14.6801 24.1776 9.50912 27.5532 9.39864ZM43.8831 28.9204C41.3662 33.7609 37.7179 37.9224 33.2484 41.0511L30.6341 42.8137C29.9968 43.2585 29.2582 43.5363 28.4858 43.6217C27.7134 43.7071 26.9319 43.5973 26.2129 43.3025L19.4982 40.5122C19.1771 40.1545 18.7525 39.7013 18.4368 39.3404C17.3434 36.4644 14.559 28.2636 13.4156 25.5137C16.3261 22.6847 19.6068 22.344 22.7766 24.5879C25.1791 26.4679 30.0853 27.7524 33.0483 28.7722C36.082 29.8316 35.1667 34.9446 31.9005 34.4969C31.9005 34.4969 28.0487 33.7853 26.2808 33.4616C26.0899 33.4301 25.8943 33.4748 25.7361 33.5862C25.5779 33.6975 25.4698 33.8666 25.435 34.0569C25.4003 34.2472 25.4417 34.4435 25.5503 34.6036C25.6589 34.7637 25.826 34.8747 26.0157 34.9127C26.2971 34.9482 32.2491 36.1293 32.3078 36.0077C33.4373 35.961 34.5023 35.4688 35.2698 34.6388C36.0373 33.8089 36.4449 32.7087 36.4033 31.579C36.3896 30.6313 36.1015 29.7078 35.5738 28.9204L39.647 24.4917C40.0433 24.0232 40.6006 23.7201 41.2091 23.642C41.8177 23.5639 42.4334 23.7164 42.9352 24.0696C44.3403 25.0179 44.7486 27.3865 43.8831 28.9204ZM15.5559 43.4802L13.075 44.7169C12.7625 44.8811 12.4185 44.9762 12.0661 44.9958C11.7138 45.0154 11.3613 44.9591 11.0326 44.8305C10.7039 44.702 10.4067 44.5044 10.1611 44.2509C9.91545 43.9975 9.72717 43.6943 9.60898 43.3617L4.83226 30.0757C4.59872 29.392 4.62085 28.6469 4.89455 27.9783C5.16824 27.3098 5.67495 26.763 6.32083 26.4394L8.80177 25.2026C9.11893 25.0357 9.46847 24.9393 9.82639 24.9201C10.1843 24.9009 10.5421 24.9594 10.8753 25.0916C12.1407 25.5118 12.4299 27.097 12.8601 28.202C13.6005 30.2654 16.1085 37.2158 16.8371 39.2737C17.0325 39.6333 17.1545 40.0281 17.1958 40.4353C17.2371 40.8425 17.197 41.2538 17.0778 41.6454C16.9585 42.0369 16.7625 42.4007 16.5012 42.7158C16.24 43.0308 15.9186 43.2906 15.5559 43.4802Z" fill="url(#paint0_linear_4661_24830)"/>
<defs>
<linearGradient id="paint0_linear_4661_24830" x1="4.66651" y1="24" x2="44.3355" y2="24" gradientUnits="userSpaceOnUse">
<stop stop-color="#00C0FF"/>
<stop offset="1" stop-color="#5558FF"/>
</linearGradient>
</defs>
</svg>
