<svg width="49" height="48" viewBox="0 0 49 48" fill="none" xmlns="http://www.w3.org/2000/svg">
<path d="M13.8714 16.1133C13.1137 16.1133 12.5 16.727 12.5 17.4847V22.2847H15.2429V17.4847C15.2429 16.727 14.6291 16.1133 13.8714 16.1133Z" fill="#9B9FB1"/>
<path d="M15.242 22.6267H12.4991C12.3105 22.6267 12.1562 22.4724 12.1562 22.2838V17.4838C12.1562 16.5375 12.9243 15.7695 13.8705 15.7695C14.8168 15.7695 15.5848 16.5375 15.5848 17.4838V22.2838C15.5848 22.4724 15.4305 22.6267 15.242 22.6267ZM12.842 21.941H14.8991V17.4838C14.8991 16.9181 14.4362 16.4552 13.8705 16.4552C13.3048 16.4552 12.842 16.9181 12.842 17.4838V21.941Z" fill="#231F20"/>
<path d="M8.7269 18.5156C7.96918 18.5156 7.35547 19.1293 7.35547 19.8871V24.6871H10.0983V19.8871C10.0983 19.1293 9.48461 18.5156 8.7269 18.5156Z" fill="#9B9FB1"/>
<path d="M10.1013 25.029H7.35848C7.16991 25.029 7.01562 24.8747 7.01562 24.6862V19.8862C7.01562 18.9399 7.78363 18.1719 8.72991 18.1719C9.6762 18.1719 10.4442 18.9399 10.4442 19.8862V24.6862C10.4442 24.8747 10.2899 25.029 10.1013 25.029ZM7.70134 24.3433H9.75848V19.8862C9.75848 19.3204 9.29562 18.8576 8.72991 18.8576C8.1642 18.8576 7.70134 19.3204 7.70134 19.8862V24.3433Z" fill="#231F20"/>
<path d="M35.1292 16.1133C34.3715 16.1133 33.7578 16.727 33.7578 17.4847V22.2847H36.5007V17.4847C36.5007 16.727 35.887 16.1133 35.1292 16.1133Z" fill="#9B9FB1"/>
<path d="M36.4998 22.6267H33.7569C33.5683 22.6267 33.4141 22.4724 33.4141 22.2838V17.4838C33.4141 16.5375 34.1821 15.7695 35.1283 15.7695C36.0746 15.7695 36.8426 16.5375 36.8426 17.4838V22.2838C36.8426 22.4724 36.6883 22.6267 36.4998 22.6267ZM34.0998 21.941H36.1569V17.4838C36.1569 16.9181 35.6941 16.4552 35.1283 16.4552C34.5626 16.4552 34.0998 16.9181 34.0998 17.4838V21.941Z" fill="#231F20"/>
<path d="M40.2699 18.5156C39.5122 18.5156 38.8984 19.1293 38.8984 19.8871V24.6871H41.6413V19.8871C41.6413 19.1293 41.0276 18.5156 40.2699 18.5156Z" fill="#9B9FB1"/>
<path d="M41.6443 25.029H38.9015C38.7129 25.029 38.5586 24.8747 38.5586 24.6862V19.8862C38.5586 18.9399 39.3266 18.1719 40.2729 18.1719C41.2192 18.1719 41.9872 18.9399 41.9872 19.8862V24.6862C41.9872 24.8747 41.8329 25.029 41.6443 25.029ZM39.2443 24.3433H41.3015V19.8862C41.3015 19.3204 40.8386 18.8576 40.2729 18.8576C39.7072 18.8576 39.2443 19.3204 39.2443 19.8862V24.3433Z" fill="#231F20"/>
<path d="M24.5015 12.6875L2.55859 25.0304V28.4589L24.5015 20.9161L46.4443 28.4589V25.0304L24.5015 12.6875Z" fill="#F2F2F3"/>
<path d="M46.4443 25.0304L24.5015 12.6875L2.55859 25.0304L24.5015 14.0589L46.4443 25.0304Z" fill="white"/>
<path d="M2.55859 28.4573L24.5015 20.9144L46.4443 28.4573L24.5015 19.543L2.55859 28.4573Z" fill="#D4D4D5"/>
<path d="M46.4434 28.8C46.4057 28.8 46.368 28.7932 46.3303 28.7829L24.5006 21.2778L2.67084 28.7829C2.56456 28.8172 2.45142 28.8035 2.35884 28.7383C2.2697 28.6732 2.21484 28.5669 2.21484 28.4572V25.0286C2.21484 24.9052 2.28342 24.792 2.3897 24.7303L24.3326 12.3875C24.4354 12.3292 24.5657 12.3292 24.6686 12.3875L46.6114 24.7303C46.7177 24.792 46.7863 24.9052 46.7863 25.0286V28.4572C46.7863 28.5669 46.7314 28.6732 46.6423 28.7349C46.584 28.7795 46.5154 28.8 46.4434 28.8ZM24.5006 20.5715C24.5383 20.5715 24.576 20.5783 24.6137 20.5886L46.1006 27.9772V25.2309L24.5006 13.08L2.90056 25.2275V27.9737L24.3874 20.5886C24.4251 20.5783 24.4628 20.5715 24.5006 20.5715Z" fill="#231F20"/>
<path d="M24.5027 37.3711L13.5312 44.0808V45.9425L24.5027 41.842L35.4741 45.9425V44.0808L24.5027 37.3711Z" fill="#F2F2F3"/>
<path d="M35.4732 46.2845C35.4321 46.2845 35.3909 46.2776 35.3532 46.2639L24.5018 42.2079L13.6504 46.2639C13.5441 46.3016 13.4275 46.2879 13.3349 46.2262C13.2424 46.1576 13.1875 46.0548 13.1875 45.9416V44.0799C13.1875 43.9599 13.2492 43.8502 13.3521 43.7885L24.3235 37.0788C24.4332 37.0102 24.5704 37.0102 24.6801 37.0788L35.6515 43.7885C35.7544 43.8502 35.8161 43.9599 35.8161 44.0799V45.9416C35.8161 46.0548 35.7612 46.1576 35.6686 46.2228C35.6104 46.2639 35.5418 46.2845 35.4732 46.2845ZM24.5018 41.4982C24.5429 41.4982 24.5841 41.5051 24.6218 41.5188L35.1304 45.4479V44.2719L24.5018 37.7748L13.8732 44.2719V45.4479L24.3818 41.5222C24.4195 41.5051 24.4606 41.4982 24.5018 41.4982Z" fill="#231F20"/>
<path d="M24.5004 2.05859C20.5026 4.37288 18.1438 8.73402 18.3975 13.3455L20.3861 39.0872C20.6021 41.8917 22.1278 44.4323 24.5004 45.9443L24.5106 45.9409C27.0786 44.4426 28.7346 41.7683 28.9301 38.8026L30.6066 13.3489C30.8569 8.73402 28.4981 4.37288 24.5004 2.05859Z" fill="#68A6DF"/>
<path d="M24.4991 43.5443C24.3105 43.5443 24.1562 43.39 24.1562 43.2015V38.4015C24.1562 38.2129 24.3105 38.0586 24.4991 38.0586C24.6877 38.0586 24.842 38.2129 24.842 38.4015V43.2015C24.842 43.39 24.6877 43.5443 24.4991 43.5443Z" fill="#231F20"/>
<path d="M24.5015 2.05859C24.1655 2.25402 23.8433 2.46659 23.5312 2.68945C26.9324 5.11345 28.897 9.12145 28.6673 13.3455L26.9907 38.7992C26.8227 41.3603 25.5644 43.702 23.5724 45.2586C23.8673 45.5055 24.1758 45.7352 24.505 45.9443L24.5153 45.9409C27.0833 44.4426 28.7393 41.7683 28.9347 38.8026L30.6113 13.3489C30.8581 8.73402 28.4993 4.37288 24.5015 2.05859Z" fill="#5B91C3"/>
<path d="M24.5001 46.2846C24.435 46.2846 24.3732 46.2674 24.315 46.2297C21.8635 44.6697 20.2658 42.0091 20.043 39.1086L18.0544 13.3703C17.7938 8.5977 20.1972 4.15084 24.3287 1.76113C24.435 1.69942 24.5652 1.69942 24.6715 1.76113C28.803 4.15084 31.2064 8.5977 30.9458 13.3634L29.2692 38.824C29.067 41.9063 27.3527 44.6766 24.6818 46.2366L24.6715 46.24C24.6167 46.2708 24.5584 46.2846 24.5001 46.2846ZM24.5001 2.4537C20.7012 4.73713 18.4967 8.8857 18.7367 13.3257L20.7252 39.0606C20.9275 41.6731 22.3367 44.08 24.507 45.5406C26.8795 44.08 28.3984 41.5703 28.5835 38.7794L30.2601 13.3223C30.5035 8.8857 28.299 4.73713 24.5001 2.4537Z" fill="#231F20"/>
<path d="M24.4996 8.68855C23.711 8.68855 22.919 8.38684 22.319 7.78684C22.1853 7.65312 22.1853 7.43712 22.319 7.30341C22.4527 7.1697 22.6688 7.1697 22.8025 7.30341C23.7385 8.23941 25.2607 8.23941 26.1967 7.30341C26.3305 7.1697 26.5465 7.1697 26.6802 7.30341C26.8139 7.43712 26.8139 7.65312 26.6802 7.78684C26.0802 8.38684 25.2882 8.68855 24.4996 8.68855Z" fill="#231F20"/>
<path d="M22.0993 31.4284C21.9176 31.4284 21.7667 31.2878 21.7564 31.1061L20.9575 17.5049C20.9473 17.3164 21.0913 17.1552 21.2798 17.1415C21.465 17.1278 21.6295 17.2752 21.6433 17.4638L22.4421 31.0649C22.4524 31.2535 22.3084 31.4147 22.1198 31.4284C22.113 31.4284 22.1061 31.4284 22.0993 31.4284Z" fill="#BCD7F1"/>
</svg>
