<svg width="49" height="48" viewBox="0 0 49 48" fill="none" xmlns="http://www.w3.org/2000/svg">
<path d="M24.5 7.5C24.1022 7.5 23.7206 7.34196 23.4393 7.06066C23.158 6.77936 23 6.39782 23 6V3C23 2.60218 23.158 2.22064 23.4393 1.93934C23.7206 1.65804 24.1022 1.5 24.5 1.5C24.8978 1.5 25.2794 1.65804 25.5607 1.93934C25.842 2.22064 26 2.60218 26 3V6C26 6.39782 25.842 6.77936 25.5607 7.06066C25.2794 7.34196 24.8978 7.5 24.5 7.5Z" fill="#D6B5B0"/>
<path d="M24.5011 1.5C24.198 1.50622 23.9038 1.60414 23.6575 1.78088C23.4111 1.95761 23.2241 2.20485 23.1211 2.49C23.3243 2.37996 23.5502 2.31836 23.7811 2.31C24.1789 2.31 24.5604 2.46804 24.8418 2.74934C25.1231 3.03064 25.2811 3.41218 25.2811 3.81V6.81C25.2816 6.97424 25.251 7.13709 25.1911 7.29C25.429 7.16689 25.6296 6.98232 25.772 6.75547C25.9145 6.52861 25.9936 6.26776 26.0011 6V3C26.0011 2.60218 25.8431 2.22064 25.5618 1.93934C25.2805 1.65804 24.8989 1.5 24.5011 1.5Z" fill="#BF9E99"/>
<path d="M27.5162 4.53125H21.5012C20.6894 4.53125 20.0312 5.18939 20.0312 6.00125V12.0163C20.0312 12.8281 20.6894 13.4862 21.5012 13.4862H27.5162C28.3281 13.4862 28.9862 12.8281 28.9862 12.0163V6.00125C28.9862 5.18939 28.3281 4.53125 27.5162 4.53125Z" fill="#C9C1F5"/>
<path d="M27.4992 4.5H21.4992C21.1591 4.51085 20.8328 4.63703 20.5738 4.85781C20.3149 5.0786 20.1387 5.38087 20.0742 5.715H26.0742C26.472 5.715 26.8536 5.87304 27.1349 6.15434C27.4162 6.43564 27.5742 6.81718 27.5742 7.215V13.215C27.5602 13.3126 27.535 13.4082 27.4992 13.5C27.897 13.5 28.2786 13.342 28.5599 13.0607C28.8412 12.7794 28.9992 12.3978 28.9992 12V6C28.9992 5.60218 28.8412 5.22064 28.5599 4.93934C28.2786 4.65804 27.897 4.5 27.4992 4.5Z" fill="#AFBDD6"/>
<path d="M36.5163 10.5312H12.5013C11.6894 10.5312 11.0312 11.1894 11.0312 12.0013V45.0163C11.0312 45.8281 11.6894 46.4862 12.5013 46.4862H36.5163C37.3281 46.4862 37.9862 45.8281 37.9862 45.0163V12.0013C37.9862 11.1894 37.3281 10.5312 36.5163 10.5312Z" fill="#96D7FF"/>
<path d="M28.2812 34.8008H22.2812C21.8834 34.8008 21.5019 34.9588 21.2206 35.2401C20.9393 35.5214 20.7812 35.903 20.7812 36.3008V45.3008C20.7947 45.5443 20.8673 45.7808 20.9927 45.9899C21.1182 46.199 21.2927 46.3743 21.5012 46.5008H29.1212C29.3186 46.3675 29.4814 46.1892 29.5962 45.9805C29.711 45.7718 29.7744 45.5388 29.7812 45.3008V36.3008C29.7812 35.903 29.6232 35.5214 29.3419 35.2401C29.0606 34.9588 28.6791 34.8008 28.2812 34.8008Z" fill="#86C3EF"/>
<path d="M31.0866 17.0859H19.0716C18.2597 17.0859 17.6016 17.7441 17.6016 18.5559V24.5709C17.6016 25.3828 18.2597 26.0409 19.0716 26.0409H31.0866C31.8984 26.0409 32.5566 25.3828 32.5566 24.5709V18.5559C32.5566 17.7441 31.8984 17.0859 31.0866 17.0859Z" fill="#86C3EF"/>
<path d="M36.5 10.5H12.5C12.1022 10.5 11.7206 10.658 11.4393 10.9393C11.158 11.2206 11 11.6022 11 12V12.675H34.07C34.4678 12.675 34.8494 12.833 35.1307 13.1143C35.412 13.3956 35.57 13.7772 35.57 14.175V46.5H36.5C36.8978 46.5 37.2794 46.342 37.5607 46.0607C37.842 45.7794 38 45.3978 38 45V12C38 11.6022 37.842 11.2206 37.5607 10.9393C37.2794 10.658 36.8978 10.5 36.5 10.5Z" fill="#86C3EF"/>
<path d="M30.5162 16.5312H18.5012C17.6894 16.5312 17.0312 17.1894 17.0312 18.0012V24.0162C17.0312 24.8281 17.6894 25.4862 18.5012 25.4862H30.5162C31.3281 25.4862 31.9862 24.8281 31.9862 24.0162V18.0012C31.9862 17.1894 31.3281 16.5312 30.5162 16.5312Z" fill="#EEF5FD"/>
<path d="M30.5898 16.5C30.6305 16.6058 30.6558 16.717 30.6648 16.83V22.83C30.6648 23.2278 30.5068 23.6094 30.2255 23.8907C29.9442 24.172 29.5627 24.33 29.1648 24.33H17.0898C17.1626 24.6534 17.3404 24.9436 17.5954 25.1553C17.8505 25.367 18.1686 25.4882 18.4998 25.5H30.4998C30.8977 25.5 31.2792 25.342 31.5605 25.0607C31.8418 24.7794 31.9998 24.3978 31.9998 24V18C32.0005 17.6173 31.8549 17.2488 31.5928 16.9699C31.3307 16.6911 30.9719 16.523 30.5898 16.5Z" fill="#D7E2F2"/>
<path d="M27.5162 34.5312H21.5012C20.6894 34.5312 20.0312 35.1894 20.0312 36.0012V45.0162C20.0312 45.8281 20.6894 46.4862 21.5012 46.4862H27.5162C28.3281 46.4862 28.9862 45.8281 28.9862 45.0162V36.0012C28.9862 35.1894 28.3281 34.5312 27.5162 34.5312Z" fill="#798BC6"/>
<path d="M27.5 34.5001H21.5C21.1338 34.4969 20.779 34.6279 20.5027 34.8683C20.2264 35.1087 20.0476 35.4419 20 35.8051H26C26.3978 35.8051 26.7794 35.9631 27.0607 36.2444C27.342 36.5257 27.5 36.9072 27.5 37.3051V46.3051C27.507 46.3548 27.507 46.4053 27.5 46.4551C27.8978 46.4551 28.2794 46.297 28.5607 46.0157C28.842 45.7344 29 45.3529 29 44.9551V36.0001C29 35.6022 28.842 35.2207 28.5607 34.9394C28.2794 34.6581 27.8978 34.5001 27.5 34.5001Z" fill="#667DBA"/>
<path d="M39.5 46.5H9.5C9.10218 46.5 8.72064 46.342 8.43934 46.0607C8.15804 45.7794 8 45.3978 8 45C8 44.6022 8.15804 44.2206 8.43934 43.9393C8.72064 43.658 9.10218 43.5 9.5 43.5H39.5C39.8978 43.5 40.2794 43.658 40.5607 43.9393C40.842 44.2206 41 44.6022 41 45C41 45.3978 40.842 45.7794 40.5607 46.0607C40.2794 46.342 39.8978 46.5 39.5 46.5Z" fill="#D6B5B0"/>
<path d="M39.7853 43.5C39.9106 43.7085 39.978 43.9467 39.9803 44.19C39.9803 44.5878 39.8223 44.9694 39.541 45.2507C39.2597 45.532 38.8781 45.69 38.4803 45.69H8.45031C8.36587 45.7037 8.27976 45.7037 8.19531 45.69C8.31964 45.9301 8.50655 46.1321 8.73627 46.2747C8.96599 46.4173 9.22998 46.4951 9.50031 46.5H39.5003C39.8981 46.5 40.2797 46.342 40.561 46.0607C40.8423 45.7794 41.0003 45.3978 41.0003 45C41.0067 44.647 40.8884 44.303 40.6662 44.0286C40.4439 43.7542 40.132 43.567 39.7853 43.5Z" fill="#BF9E99"/>
</svg>
