<svg width="49" height="48" viewBox="0 0 49 48" fill="none" xmlns="http://www.w3.org/2000/svg">
<path d="M7.53516 6.28906L13.3409 26.6228C13.7075 27.6054 14.4379 28.4978 15.4766 28.4978H33.5246C34.5633 28.4978 35.293 27.6054 35.6595 26.6228L41.466 6.28906H7.53516Z" fill="#0066FF"/>
<path d="M24.4998 15.8438C26.5127 15.8437 28.5059 16.2402 30.3656 17.0105C32.2253 17.7808 33.915 18.9099 35.3384 20.3332C36.7617 21.7565 37.8907 23.4463 38.6611 25.306C39.4314 27.1656 39.8278 29.1588 39.8278 31.1717C39.8278 33.1846 39.4314 35.1778 38.6611 37.0375C37.8907 38.8972 36.7617 40.5869 35.3384 42.0102C33.915 43.4336 32.2253 44.5626 30.3656 45.3329C28.5059 46.1032 26.5127 46.4997 24.4998 46.4997C22.487 46.4997 20.4938 46.1032 18.6341 45.3329C16.7744 44.5626 15.0847 43.4336 13.6613 42.0102C12.238 40.5869 11.109 38.8972 10.3386 37.0375C9.56834 35.1778 9.17187 33.1846 9.17188 31.1717C9.17188 29.1588 9.56834 27.1656 10.3386 25.306C11.109 23.4463 12.238 21.7565 13.6613 20.3332C15.0847 18.9099 16.7744 17.7808 18.6341 17.0105C20.4938 16.2402 22.487 15.8437 24.4998 15.8438Z" fill="#00A1FF"/>
<path d="M29.5253 37.9803C28.7018 38.5814 25.5383 37.017 24.5188 37.0193C23.4992 37.0231 20.3429 38.6003 19.5166 38.0029C18.6904 37.4055 19.2007 33.9134 18.8834 32.9445C18.5662 31.9755 16.0894 29.4615 16.4023 28.4911C16.7151 27.5207 20.194 26.9269 21.0175 26.3257C21.841 25.7246 23.4666 22.5922 24.4861 22.5898C25.5057 22.586 27.1455 25.7126 27.9717 26.31C28.7979 26.9074 32.2794 27.4855 32.5966 28.4545C32.9139 29.4234 30.4485 31.9486 30.1356 32.919C29.8227 33.8894 30.3488 37.3791 29.5253 37.9803Z" fill="white"/>
<path d="M6.64527 1.5H42.3542C43.889 1.5 45.1246 2.73558 45.1246 4.27037C45.1246 5.80516 43.889 7.04074 42.3542 7.04074H6.64527C5.11047 7.04074 3.875 5.80516 3.875 4.27037C3.875 2.73558 5.11047 1.5 6.64527 1.5Z" fill="#A8D0FF"/>
</svg>
