<svg width="49" height="48" viewBox="0 0 49 48" fill="none" xmlns="http://www.w3.org/2000/svg">
<path d="M38.5 6H10.5C8.29086 6 6.5 7.79086 6.5 10V18C6.5 20.2091 8.29086 22 10.5 22H38.5C40.7091 22 42.5 20.2091 42.5 18V10C42.5 7.79086 40.7091 6 38.5 6Z" fill="#55ABFF"/>
<path d="M22.5 24H10.5C8.29086 24 6.5 25.7909 6.5 28V38C6.5 40.2091 8.29086 42 10.5 42H22.5C24.7091 42 26.5 40.2091 26.5 38V28C26.5 25.7909 24.7091 24 22.5 24Z" fill="#55ABFF"/>
<path d="M38.5 24H32.5C30.2909 24 28.5 25.7909 28.5 28V38C28.5 40.2091 30.2909 42 32.5 42H38.5C40.7091 42 42.5 40.2091 42.5 38V28C42.5 25.7909 40.7091 24 38.5 24Z" fill="#0078EE"/>
</svg>
