<svg width="48" height="48" viewBox="0 0 48 48" fill="none" xmlns="http://www.w3.org/2000/svg">
<path d="M25.6012 42.1799H19.9648V41.7799L20.0012 40.689L20.0739 38.1435L20.1467 37.0526L20.2558 34.4344L20.3285 33.3799L20.4376 30.7617L20.4739 29.7072L20.6194 27.089L20.6558 25.9981L20.8012 22.7617L24.4012 23.5981V23.6708L24.4739 24.689L24.6194 27.1254L24.6921 28.1072L24.8376 30.5435L24.9103 31.5254L25.0558 33.9617L25.1285 34.9799L25.3103 37.4163L25.3467 38.3981L25.6012 42.1799Z" fill="#64798A"/>
<path d="M23.3438 20.6196C30.0347 20.5105 38.5074 24.0742 32.5074 30.0014L32.6165 28.2196L30.7256 29.2014L31.6347 27.2014L29.8165 28.1469L30.5801 26.2196L28.6165 27.0923L29.4892 24.9833L27.3074 25.8196L28.0347 23.9651L25.9256 24.6923L26.5438 23.0923L24.7256 23.456L25.0528 22.1469L23.8528 22.3287L23.3438 20.6196Z" fill="#3EA69B"/>
<path d="M22.9102 22.1084C23.8556 14.363 29.892 3.96299 36.692 10.1448L34.4011 10.2539L35.3829 12.3266L32.9102 11.5266L33.8192 13.4903L31.4192 12.8721L32.2192 15.0539L29.6011 14.3266L30.3283 16.7993L28.0011 16.1812L28.6192 18.5448L26.5829 18.0357L26.8011 20.0721L25.1283 19.8539L25.1647 21.2357L22.9102 22.1084Z" fill="#3EA69B"/>
<path d="M35.5283 10.1833L36.692 10.1106C29.892 3.96514 23.8556 14.3651 22.9102 22.1106L23.0556 22.0379C24.292 14.9106 29.5283 6.32878 35.5283 10.1833Z" fill="#31978C"/>
<path d="M23.6013 20.8359C24.1104 12.9449 19.7467 1.78131 11.4922 7.27222L13.8558 7.63586L12.4376 9.59949L15.1649 9.05404L13.8195 10.9813L16.4376 10.654L15.2013 12.7268L18.074 12.2904L16.874 14.6904L19.4195 14.3268L18.3286 16.654L20.5104 16.3631L19.8922 18.3995L21.674 18.3631L21.3831 19.7449L23.6013 20.8359Z" fill="#3EA69B"/>
<path d="M11.4922 7.27199L12.1104 7.38108C18.874 4.43563 22.6195 13.1993 22.6922 20.3993L23.6376 20.872C24.1104 12.9447 19.7467 1.78108 11.4922 7.27199Z" fill="#31978C"/>
<path d="M23.7077 22.1812C20.5805 14.6176 11.7441 5.9994 6.98047 14.4358L9.23501 13.8176L8.87138 16.2176L11.0168 14.6176L10.6896 16.9085L12.835 15.5267L12.6896 17.9994L15.0168 16.3994L15.0532 19.1267L17.1259 17.7812L17.1987 20.3994L19.0168 19.2358L19.3805 21.3812L20.9441 20.6539L21.3077 22.0721L23.7077 22.1812Z" fill="#3EA69B"/>
<path d="M24.2897 21.2012C17.7443 18.2557 7.41699 18.0739 10.217 26.2557L11.0534 24.5103L12.3988 26.2557L12.5443 23.9648L13.8534 25.6012L14.1443 23.4557L15.6352 25.0921L15.8897 22.6921L17.6352 24.4012L17.8897 22.2921L19.5988 23.8921L19.8533 22.1103L21.417 23.2376L21.7806 21.8557L22.8715 22.5103L24.2897 21.2012Z" fill="#3EA69B"/>
<path d="M23.3438 20.6196L23.6347 21.6014C29.5983 21.8923 36.1801 24.9469 32.5074 29.856V30.0014C38.5438 24.0742 30.0347 20.5105 23.3438 20.6196Z" fill="#31978C"/>
<path d="M23.8534 21.6012L24.2897 21.2012C17.7443 18.2557 7.41699 18.0739 10.217 26.2557L10.7261 25.1648C10.2897 19.5648 17.9988 19.4921 23.8534 21.6012Z" fill="#31978C"/>
<path d="M22.6562 20.7646C28.6926 15.8192 40.2926 12.4374 41.0199 21.4192L39.2381 19.9646L38.5472 22.1101L37.2744 19.8919L36.5835 21.9283L35.2381 19.8919L34.329 22.001L32.9108 19.7101L31.7472 21.9646L30.4381 19.9646L29.2744 22.0737L28.1472 20.3646L26.9108 21.9646L25.8199 20.6919L24.8744 21.7101L22.6562 20.7646Z" fill="#3EA69B"/>
<path d="M23.5259 22.1461H23.7077C20.5805 14.5824 11.7441 5.96424 6.98047 14.4006L8.94411 13.8551C13.5259 9.45515 20.3259 15.7461 23.5259 22.1461Z" fill="#31978C"/>
<path d="M40.0381 20.6192L41.0199 21.4192C40.2926 12.4374 28.6926 15.8192 22.6562 20.7646L23.6017 21.1646C29.2017 17.3101 37.8199 15.0919 40.0381 20.6192Z" fill="#31978C"/>
<path d="M25.1285 34.981L20.0739 38.1446L20.1467 37.0537L25.0558 33.9628L25.1285 34.981ZM25.3467 38.3991L19.9648 41.781L20.0012 40.6901L25.3103 37.4173L25.3467 38.3991ZM24.9103 31.5628L20.2558 34.4355L20.3285 33.381L24.8376 30.5446L24.9103 31.5628ZM24.6921 28.1082L20.4376 30.7628L20.4739 29.7082L24.6194 27.1264L24.6921 28.1082ZM24.4739 24.6901L20.6194 27.0901L20.6558 25.9991L24.4012 23.6719L24.4739 24.6901Z" fill="#DC8744"/>
<path d="M25.5618 23.4898C26.0345 24.3989 25.7799 25.4534 24.9799 25.8534C24.1799 26.2534 23.1618 25.8534 22.7254 24.9443C22.2527 24.0352 22.5072 22.9807 23.3072 22.5807C24.0708 22.1807 25.089 22.5807 25.5618 23.4898Z" fill="#2F4859"/>
<path d="M26.583 20.3267C27.4193 21.0176 27.6011 22.1813 26.983 22.8722C26.3648 23.5994 25.2011 23.5994 24.3648 22.8722C23.5284 22.1813 23.3466 21.0176 23.9648 20.3267C24.583 19.5994 25.7466 19.5994 26.583 20.3267Z" fill="#3A556A"/>
<path d="M23.3472 23.7825C22.3654 24.837 20.8381 24.9825 19.929 24.1461C19.0199 23.3098 19.0563 21.7825 20.0381 20.728C21.0199 19.6734 22.5472 19.528 23.4563 20.3643C24.3654 21.2007 24.329 22.728 23.3472 23.7825Z" fill="#64798A"/>
</svg>
