<svg width="49" height="48" viewBox="0 0 49 48" fill="none" xmlns="http://www.w3.org/2000/svg">
<path d="M24.5008 43.2008C35.1047 43.2008 43.7008 34.6047 43.7008 24.0008C43.7008 13.3969 35.1047 4.80078 24.5008 4.80078C13.8969 4.80078 5.30078 13.3969 5.30078 24.0008C5.30078 34.6047 13.8969 43.2008 24.5008 43.2008Z" fill="#DEE4FB"/>
<path d="M24.4999 3.83984C20.5126 3.83984 16.6149 5.02221 13.2996 7.23742C9.98426 9.45263 7.4003 12.6012 5.87444 16.2849C4.34858 19.9687 3.94934 24.0222 4.72722 27.9329C5.5051 31.8435 7.42515 35.4357 10.2446 38.2551C13.064 41.0745 16.6562 42.9946 20.5668 43.7725C24.4775 44.5504 28.531 44.1511 32.2147 42.6253C35.8985 41.0994 39.0471 38.5154 41.2623 35.2001C43.4775 31.8848 44.6599 27.9871 44.6599 23.9998C44.6538 18.6549 42.5278 13.5307 38.7484 9.75128C34.969 5.97186 29.8448 3.84592 24.4999 3.83984ZM42.7398 23.9998C42.7402 28.594 40.9954 33.0168 37.8583 36.3733C36.0467 35.6199 34.1784 35.0107 32.271 34.5512C34.094 31.3334 35.0532 27.6985 35.0553 24.0001C35.0573 20.3017 34.1022 16.6657 32.2827 13.4459C34.1872 12.9864 36.0525 12.3777 37.8614 11.6253C40.9948 14.9842 42.7381 19.4063 42.7398 23.9998ZM36.3519 10.1634C34.7079 10.8055 33.0173 11.3214 31.2948 11.7064C30.0111 9.65155 28.5399 7.72 26.8999 5.93648C30.3942 6.39787 33.6785 7.8666 36.3519 10.1634ZM25.4599 7.20407C26.8605 8.72721 28.1359 10.361 29.2736 12.0895C28.0107 12.2838 26.737 12.4002 25.4599 12.4379V7.20407ZM30.3389 13.8545C34.1023 20.6369 34.096 27.3621 30.3322 34.1442C28.7229 33.8544 27.0943 33.6845 25.4599 33.6357V14.3639C27.0966 14.3152 28.7274 14.1449 30.3389 13.8545ZM23.5399 33.6357C21.9135 33.684 20.2929 33.8524 18.6914 34.1394C16.897 31.0568 15.9222 27.5661 15.8599 23.9998C15.9212 20.4338 16.8941 16.9429 18.686 13.8592C20.2893 14.1468 21.9117 14.3155 23.5399 14.3639V33.6357ZM23.5399 12.4379C22.2693 12.4002 21.0022 12.2848 19.7457 12.0922C20.8757 10.3634 22.1446 8.72958 23.5399 7.20685V12.4379ZM22.1013 5.93629C20.4637 7.72051 18.9954 9.65304 17.7153 11.709C15.9892 11.3237 14.2951 10.8069 12.6478 10.1633C15.3217 7.86624 18.6065 6.39747 22.1013 5.93629ZM11.1383 11.6253C12.9511 12.3794 14.8206 12.9891 16.7294 13.4489C14.9491 16.6842 13.9911 20.3074 13.9399 23.9998C13.9909 27.6923 14.9499 31.3155 16.7321 34.5499C14.8234 35.0095 12.9539 35.6191 11.1412 36.3731C8.00504 33.0161 6.26039 28.5937 6.25985 23.9998C6.25932 19.4058 8.00295 14.983 11.1383 11.6253ZM12.664 37.8299C14.308 37.1885 15.9985 36.6735 17.7209 36.2895C18.9993 38.3455 20.4656 40.2784 22.1012 42.0634C18.612 41.5955 15.3336 40.1249 12.664 37.8299ZM19.7515 35.9068C21.0061 35.7147 22.2712 35.5995 23.5399 35.5618V40.7928C22.1466 39.2696 20.8797 37.6355 19.7515 35.9068ZM25.4599 35.5618C26.7344 35.5995 28.0055 35.7155 29.2659 35.9091C28.1311 37.638 26.8583 39.2722 25.4599 40.7957V35.5618ZM31.2775 36.2891C33.0004 36.6732 34.6914 37.1883 36.3358 37.8298C33.6666 40.1245 30.3887 41.5951 26.9 42.0632C28.5351 40.2784 30.0005 38.3453 31.2775 36.2891Z" fill="#7BADFF"/>
<path d="M46.5786 20.1612V27.8412C46.5764 28.6044 46.2722 29.3356 45.7326 29.8752C45.193 30.4149 44.4617 30.719 43.6986 30.7212H35.0586V17.2812H43.6986C44.4617 17.2835 45.193 17.5876 45.7326 18.1273C46.2722 18.6669 46.5764 19.3981 46.5786 20.1612Z" fill="#7BADFF"/>
<path d="M35.0619 17.2812V30.7212H5.30187C4.53874 30.719 3.80749 30.4149 3.26787 29.8753C2.72825 29.3356 2.42411 28.6044 2.42188 27.8412V20.1612C2.42411 19.3981 2.72825 18.6669 3.26787 18.1272C3.80749 17.5876 4.53874 17.2835 5.30187 17.2812H35.0619Z" fill="#264CBA"/>
<path d="M40.8214 26.8811C42.412 26.8811 43.7014 25.5917 43.7014 24.0011C43.7014 22.4105 42.412 21.1211 40.8214 21.1211C39.2308 21.1211 37.9414 22.4105 37.9414 24.0011C37.9414 25.5917 39.2308 26.8811 40.8214 26.8811Z" fill="#DEE4FB"/>
<path d="M8.65875 22.5586C8.37395 22.5586 8.09554 22.643 7.85873 22.8013C7.62192 22.9595 7.43735 23.1844 7.32836 23.4475C7.21937 23.7107 7.19086 24.0002 7.24642 24.2795C7.30198 24.5589 7.43913 24.8154 7.64052 25.0168C7.8419 25.2182 8.09849 25.3554 8.37782 25.4109C8.65715 25.4665 8.94669 25.438 9.20981 25.329C9.47294 25.22 9.69784 25.0354 9.85607 24.7986C10.0143 24.5618 10.0988 24.2834 10.0988 23.9986C10.0988 23.6167 9.94704 23.2504 9.67698 22.9804C9.40693 22.7103 9.04066 22.5586 8.65875 22.5586ZM13.4588 22.5586C13.1739 22.5586 12.8955 22.643 12.6587 22.8013C12.4219 22.9595 12.2374 23.1844 12.1284 23.4475C12.0194 23.7107 11.9909 24.0002 12.0464 24.2795C12.102 24.5589 12.2391 24.8154 12.4405 25.0168C12.6419 25.2182 12.8985 25.3554 13.1778 25.4109C13.4572 25.4665 13.7467 25.438 14.0098 25.329C14.2729 25.22 14.4978 25.0354 14.6561 24.7986C14.8143 24.5618 14.8988 24.2834 14.8988 23.9986C14.8988 23.6167 14.747 23.2504 14.477 22.9804C14.2069 22.7103 13.8407 22.5586 13.4588 22.5586ZM18.2588 22.5586C17.9739 22.5586 17.6955 22.643 17.4587 22.8013C17.2219 22.9595 17.0374 23.1844 16.9284 23.4475C16.8194 23.7107 16.7909 24.0002 16.8464 24.2795C16.902 24.5589 17.0391 24.8154 17.2405 25.0168C17.4419 25.2182 17.6985 25.3554 17.9778 25.4109C18.2572 25.4665 18.5467 25.438 18.8098 25.329C19.0729 25.22 19.2978 25.0354 19.4561 24.7986C19.6143 24.5618 19.6988 24.2834 19.6988 23.9986C19.6988 23.6167 19.547 23.2504 19.277 22.9804C19.0069 22.7103 18.6407 22.5586 18.2588 22.5586Z" fill="#DEE4FB"/>
</svg>
