<svg width="43" height="43" viewBox="0 0 43 43" fill="none" xmlns="http://www.w3.org/2000/svg">
<path d="M39.3517 35.5622H3.64828C2.68097 35.5613 1.75353 35.1766 1.06954 34.4926C0.385547 33.8087 0.000889482 32.8812 0 31.9139L0 11.0858C0.000889482 10.1185 0.385547 9.19103 1.06954 8.50704C1.75353 7.82305 2.68097 7.43839 3.64828 7.4375H39.3517C40.319 7.43839 41.2465 7.82305 41.9305 8.50704C42.6145 9.19103 42.9991 10.1185 43 11.0858V31.9139C42.9991 32.8812 42.6145 33.8087 41.9305 34.4926C41.2465 35.1766 40.319 35.5613 39.3517 35.5622ZM3.64828 8.78125C3.03735 8.78214 2.4517 9.02522 2.01971 9.45721C1.58772 9.8892 1.34464 10.4749 1.34375 11.0858V31.9139C1.34464 32.5248 1.58772 33.1105 2.01971 33.5425C2.4517 33.9745 3.03735 34.2175 3.64828 34.2184H39.3517C39.9626 34.2175 40.5483 33.9745 40.9803 33.5425C41.4123 33.1105 41.6554 32.5248 41.6562 31.9139V11.0858C41.6554 10.4749 41.4123 9.8892 40.9803 9.45721C40.5483 9.02522 39.9626 8.78214 39.3517 8.78125H3.64828Z" fill="black"/>
<path d="M12.4964 23.462H7.29273C6.93635 23.462 6.59456 23.3205 6.34256 23.0685C6.09056 22.8165 5.94898 22.4747 5.94898 22.1183V18.0064C5.94898 17.65 6.09056 17.3082 6.34256 17.0562C6.59456 16.8042 6.93635 16.6627 7.29273 16.6627H12.4964C12.8528 16.6627 13.1946 16.8042 13.4466 17.0562C13.6986 17.3082 13.8402 17.65 13.8402 18.0064V22.1183C13.8402 22.4747 13.6986 22.8165 13.4466 23.0685C13.1946 23.3205 12.8528 23.462 12.4964 23.462ZM7.29273 18.0064V22.1183H12.4964V18.0064H7.29273ZM21.1031 29.6097H6.52344C6.34525 29.6097 6.17435 29.5389 6.04835 29.4129C5.92235 29.2869 5.85156 29.116 5.85156 28.9378C5.85156 28.7596 5.92235 28.5887 6.04835 28.4627C6.17435 28.3367 6.34525 28.2659 6.52344 28.2659H21.1031C21.2813 28.2659 21.4522 28.3367 21.5782 28.4627C21.7042 28.5887 21.775 28.7596 21.775 28.9378C21.775 29.116 21.7042 29.2869 21.5782 29.4129C21.4522 29.5389 21.2813 29.6097 21.1031 29.6097ZM28.3224 29.6097H24.0829C23.9047 29.6097 23.7338 29.5389 23.6078 29.4129C23.4818 29.2869 23.411 29.116 23.411 28.9378C23.411 28.7596 23.4818 28.5887 23.6078 28.4627C23.7338 28.3367 23.9047 28.2659 24.0829 28.2659H28.3224C28.5006 28.2659 28.6715 28.3367 28.7975 28.4627C28.9235 28.5887 28.9943 28.7596 28.9943 28.9378C28.9943 29.116 28.9235 29.2869 28.7975 29.4129C28.6715 29.5389 28.5006 29.6097 28.3224 29.6097ZM27.7345 22.8439C27.6111 22.844 27.4901 22.81 27.3848 22.7458C27.2794 22.6817 27.1937 22.5897 27.1372 22.48C27.0806 22.3704 27.0553 22.2473 27.0641 22.1242C27.0729 22.0011 27.1154 21.8829 27.187 21.7823C27.5381 21.2813 27.7264 20.6843 27.7264 20.0724C27.7264 19.4606 27.5381 18.8636 27.187 18.3625C27.084 18.2168 27.0432 18.0362 27.0735 17.8605C27.1037 17.6847 27.2025 17.5281 27.3482 17.4252C27.4939 17.3223 27.6745 17.2815 27.8502 17.3117C28.026 17.342 28.1826 17.4408 28.2855 17.5865C28.7962 18.3149 29.0701 19.1828 29.0701 20.0724C29.0701 20.962 28.7962 21.83 28.2855 22.5584C28.2234 22.6467 28.1408 22.7188 28.0449 22.7685C27.949 22.8183 27.8426 22.8441 27.7345 22.8439ZM30.1566 24.0734C30.0375 24.0717 29.9211 24.0368 29.8207 23.9727C29.6694 23.879 29.5614 23.7291 29.5204 23.5559C29.4795 23.3827 29.509 23.2003 29.6023 23.0488C30.1559 22.151 30.449 21.1171 30.449 20.0623C30.449 19.0076 30.1559 17.9737 29.6023 17.0759C29.5083 16.9244 29.4784 16.7418 29.519 16.5682C29.5596 16.3947 29.6676 16.2443 29.819 16.1504C29.894 16.1038 29.9775 16.0725 30.0646 16.0582C30.1517 16.0439 30.2407 16.0469 30.3267 16.067C30.5002 16.1076 30.6505 16.2156 30.7445 16.367C31.428 17.4784 31.7898 18.7576 31.7898 20.0623C31.7898 21.3671 31.428 22.6462 30.7445 23.7577C30.6825 23.8569 30.5957 23.9383 30.4926 23.9937C30.3894 24.0491 30.2736 24.0766 30.1566 24.0734Z" fill="black"/>
<path d="M32.6717 25.3702C32.5541 25.3695 32.4388 25.338 32.3372 25.2787C32.2356 25.2194 32.1514 25.1346 32.0929 25.0325C32.0344 24.9305 32.0037 24.8149 32.0039 24.6973C32.0041 24.5798 32.0351 24.4643 32.0939 24.3624C32.8572 23.0598 33.2595 21.5772 33.2595 20.0675C33.2595 18.5577 32.8572 17.0752 32.0939 15.7725C32.0208 15.62 32.0078 15.4456 32.0577 15.284C32.1075 15.1224 32.2165 14.9855 32.3628 14.9007C32.5091 14.8159 32.682 14.7893 32.847 14.8264C33.012 14.8635 33.1569 14.9614 33.2529 15.1006C34.1372 16.6095 34.6034 18.3269 34.6034 20.0759C34.6034 21.8248 34.1372 23.5422 33.2529 25.0511C33.1919 25.15 33.1063 25.2314 33.0044 25.2873C32.9026 25.3433 32.7879 25.3718 32.6717 25.3702Z" fill="black"/>
<path d="M35.2752 26.7169C35.1572 26.7167 35.0413 26.6854 34.9393 26.6262C34.785 26.5381 34.6719 26.3925 34.6247 26.2213C34.5775 26.0501 34.6 25.8671 34.6873 25.7124C35.6649 23.9897 36.1789 22.0428 36.1789 20.062C36.1789 18.0812 35.6649 16.1342 34.6873 14.4115C34.5982 14.2565 34.5744 14.0724 34.621 13.8998C34.6676 13.7272 34.7809 13.5801 34.9359 13.491C35.0909 13.4019 35.275 13.3781 35.4476 13.4247C35.6203 13.4713 35.7673 13.5846 35.8564 13.7396C36.9495 15.665 37.5241 17.8412 37.5241 20.0552C37.5241 22.2693 36.9495 24.4455 35.8564 26.3709C35.7988 26.4748 35.7146 26.5616 35.6125 26.6223C35.5104 26.6831 35.394 26.7158 35.2752 26.7169Z" fill="black"/>
</svg>
