<svg width="33" height="26" viewBox="0 0 33 26" fill="none" xmlns="http://www.w3.org/2000/svg">
<path d="M28.4449 0.473145H4.55599C3.60563 0.473145 2.6942 0.850673 2.02219 1.52268C1.35019 2.19468 0.972656 3.10612 0.972656 4.05648V18.3898C0.972656 19.3402 1.35019 20.2516 2.02219 20.9236C2.6942 21.5956 3.60563 21.9731 4.55599 21.9731H18.6624C19.4528 23.3358 20.6702 24.4 22.1262 25.0013C23.5823 25.6025 25.1958 25.7073 26.7174 25.2993C28.2389 24.8914 29.5837 23.9935 30.5437 22.7446C31.5037 21.4956 32.0254 19.9651 32.0282 18.3898V4.05648C32.0282 3.10612 31.6507 2.19468 30.9787 1.52268C30.3067 0.850673 29.3952 0.473145 28.4449 0.473145ZM4.55599 2.86203H28.4449C28.7617 2.86203 29.0655 2.98788 29.2895 3.21188C29.5135 3.43588 29.6393 3.73969 29.6393 4.05648V5.25092H3.36155V4.05648C3.36155 3.73969 3.48739 3.43588 3.71139 3.21188C3.93539 2.98788 4.2392 2.86203 4.55599 2.86203ZM4.55599 19.5843C4.2392 19.5843 3.93539 19.4584 3.71139 19.2344C3.48739 19.0104 3.36155 18.7066 3.36155 18.3898V7.63981H29.6393V13.0626C28.6091 12.1411 27.3343 11.5372 25.9687 11.3237C24.603 11.1101 23.2048 11.2961 21.9424 11.8591C20.68 12.4221 19.6074 13.3382 18.8537 14.4969C18.1001 15.6556 17.6977 17.0076 17.6949 18.3898C17.7005 18.7901 17.7365 19.1894 17.8024 19.5843H4.55599ZM28.2418 17.8523L25.8529 21.4356C25.7566 21.5843 25.6283 21.7096 25.4775 21.8026C25.3267 21.8956 25.1571 21.9538 24.981 21.9731H24.8615C24.7043 21.9741 24.5485 21.9439 24.403 21.8845C24.2575 21.825 24.1251 21.7375 24.0135 21.6268L21.6246 19.2379C21.3997 19.0129 21.2733 18.7079 21.2733 18.3898C21.2733 18.0717 21.3997 17.7667 21.6246 17.5418C21.8495 17.3168 22.1546 17.1905 22.4727 17.1905C22.7907 17.1905 23.0958 17.3168 23.3207 17.5418L24.6704 18.9034L26.259 16.5145C26.4457 16.2828 26.7122 16.129 27.0063 16.0835C27.3004 16.0379 27.6009 16.1037 27.849 16.2681C28.0971 16.4325 28.2749 16.6836 28.3476 16.9722C28.4202 17.2608 28.3825 17.5662 28.2418 17.8284V17.8523Z" fill="black"/>
</svg>
