<svg width="25" height="24" viewBox="0 0 25 24" fill="none" xmlns="http://www.w3.org/2000/svg">
<path d="M8.57438 5.40719C7.79438 4.62719 7.79438 3.35719 8.57438 2.57719C9.35437 1.79719 10.6244 1.79719 11.4044 2.57719C12.1844 3.35719 12.1844 4.62719 11.4044 5.40719C10.6144 6.19719 9.35437 6.19719 8.57438 5.40719ZM6.98438 15.9972V7.99719C6.98438 7.44719 6.53437 6.99719 5.98438 6.99719C5.43437 6.99719 4.98438 7.44719 4.98438 7.99719V15.9972C4.98438 18.7572 7.22438 20.9972 9.98438 20.9972H14.9844C15.5344 20.9972 15.9844 20.5472 15.9844 19.9972C15.9844 19.4472 15.5344 18.9972 14.9844 18.9972H9.98438C8.32438 18.9972 6.98438 17.6572 6.98438 15.9972ZM20.2644 19.3472L16.4944 15.5772C16.1244 15.2072 15.6144 14.9972 15.0844 14.9972H12.4844V11.3172C13.5744 12.2072 15.1444 13.0172 16.6844 13.3372C17.3544 13.4772 17.9844 12.9772 17.9844 12.2972C17.9844 11.7672 17.5944 11.3372 17.0644 11.2472C15.6444 11.0072 14.1844 10.2372 13.3144 9.27719L11.9144 7.72719C11.7244 7.51719 11.4844 7.34719 11.2244 7.22719C10.9344 7.08719 10.6044 6.99719 10.2644 6.99719H10.2344C8.99438 6.99719 7.98438 8.00719 7.98438 9.24719V14.9972C7.98438 16.6572 9.32438 17.9972 10.9844 17.9972H16.0544L18.8344 20.7772C19.2244 21.1672 19.8744 21.1672 20.2644 20.7772C20.6644 20.3872 20.6644 19.7472 20.2644 19.3472Z" fill="#1E61DC"/>
</svg>
