<svg width="25" height="24" viewBox="0 0 25 24" fill="none" xmlns="http://www.w3.org/2000/svg">
<path d="M12.9844 13.5C13.3986 13.5 13.7344 13.1642 13.7344 12.75C13.7344 12.3358 13.3986 12 12.9844 12C12.5702 12 12.2344 12.3358 12.2344 12.75C12.2344 13.1642 12.5702 13.5 12.9844 13.5Z" fill="#1E61DC"/>
<path d="M14.1094 3.82031V3.375C14.1094 3.07663 13.9909 2.79048 13.7799 2.5795C13.5689 2.36853 13.2827 2.25 12.9844 2.25C12.686 2.25 12.3999 2.36853 12.1889 2.5795C11.9779 2.79048 11.8594 3.07663 11.8594 3.375V3.82031C10.4387 3.99866 9.08153 4.51513 7.90172 5.32641L7.40625 4.82812C7.19491 4.61678 6.90826 4.49805 6.60938 4.49805C6.31049 4.49805 6.02385 4.61678 5.8125 4.82812C5.60116 5.03947 5.48243 5.32611 5.48243 5.625C5.48243 5.92389 5.60116 6.21053 5.8125 6.42188L6.21563 6.825C4.77572 8.46272 3.98242 10.5693 3.98438 12.75C3.98438 17.7127 8.02172 21.75 12.9844 21.75C17.947 21.75 21.9844 17.7127 21.9844 12.75C21.9844 8.16844 18.5428 4.37531 14.1094 3.82031ZM12.9844 15C12.4537 14.9998 11.9402 14.8121 11.5345 14.4701C11.1289 14.128 10.8572 13.6535 10.7674 13.1305C10.6777 12.6075 10.7757 12.0696 11.0441 11.6118C11.3125 11.1541 11.7341 10.8059 12.2344 10.6289V7.125C12.2344 6.92609 12.3134 6.73532 12.454 6.59467C12.5947 6.45402 12.7855 6.375 12.9844 6.375C13.1833 6.375 13.3741 6.45402 13.5147 6.59467C13.6554 6.73532 13.7344 6.92609 13.7344 7.125V10.6289C14.2346 10.8059 14.6562 11.1541 14.9246 11.6118C15.1931 12.0696 15.2911 12.6075 15.2013 13.1305C15.1116 13.6535 14.8399 14.128 14.4342 14.4701C14.0286 14.8121 13.515 14.9998 12.9844 15Z" fill="#1E61DC"/>
</svg>
