<svg width="25" height="24" viewBox="0 0 25 24" fill="none" xmlns="http://www.w3.org/2000/svg">
<g clip-path="url(#clip0_5104_26727)">
<path d="M18.2343 6.00025H18.2385H18.2343ZM23.4632 4.50025H19.1948L19.6129 2.82868L21.4092 2.21697C21.7912 2.08712 22.0185 1.68118 21.9084 1.29306C21.8803 1.19542 21.8328 1.1045 21.7685 1.0258C21.7043 0.947105 21.6248 0.882273 21.5348 0.83524C21.4447 0.788207 21.3461 0.759954 21.2448 0.752192C21.1435 0.744431 21.0417 0.757325 20.9456 0.790091L18.7424 1.54009C18.6238 1.58055 18.5172 1.6501 18.4323 1.74238C18.3475 1.83467 18.2872 1.94675 18.2568 2.06837L17.6488 4.50025H11.5054C11.1018 4.50025 10.7554 4.81056 10.7352 5.21415C10.7304 5.31556 10.7461 5.4169 10.7815 5.51204C10.817 5.60718 10.8714 5.69414 10.9414 5.76763C11.0114 5.84113 11.0957 5.89965 11.189 5.93963C11.2823 5.97962 11.3828 6.00024 11.4843 6.00025H11.6132L11.6601 6.40619C11.6711 6.50098 11.7166 6.58842 11.7879 6.65186C11.8592 6.7153 11.9514 6.75031 12.0468 6.75025C13.8749 6.75025 15.4996 7.26119 16.7399 8.22775C17.4298 8.7593 17.9891 9.44152 18.3749 10.2223C18.5909 10.6614 18.7503 11.1263 18.8493 11.6056C18.869 11.699 18.9243 11.781 19.0035 11.8343C19.6412 12.267 20.1116 12.9048 20.3365 13.6419C20.5615 14.3789 20.5275 15.1707 20.2401 15.8857C20.2067 15.9685 20.2042 16.0605 20.2331 16.1449C20.3991 16.6208 20.484 17.1212 20.4843 17.6252C20.4843 18.6724 20.1281 19.6704 19.4812 20.4354C19.1144 20.872 18.6531 21.2194 18.1321 21.4512C18.042 21.4909 17.9711 21.5645 17.9348 21.656C17.7401 22.1632 17.4652 22.6358 17.1206 23.0557C17.1062 23.0728 17.097 23.0935 17.0941 23.1156C17.0911 23.1377 17.0945 23.1601 17.1038 23.1804C17.1132 23.2006 17.1281 23.2177 17.1468 23.2298C17.1656 23.2418 17.1873 23.2483 17.2096 23.2484H19.5163C20.0811 23.2461 20.6246 23.0324 21.0397 22.6495C21.4548 22.2665 21.7115 21.7421 21.7593 21.1793L23.3624 6.00025H23.4843C23.5859 6.00037 23.6865 5.97984 23.7799 5.93991C23.8733 5.89998 23.9577 5.84149 24.0278 5.76797C24.098 5.69446 24.1524 5.60746 24.1879 5.51226C24.2234 5.41706 24.2392 5.31564 24.2343 5.21415C24.2146 4.81056 23.8668 4.50025 23.4632 4.50025Z" fill="#1E61DC"/>
<path d="M6.07922 15C6.22714 14.9993 6.37373 15.0279 6.51051 15.0843C6.6473 15.1406 6.77155 15.2235 6.87609 15.3281L7.60313 16.0552C7.62054 16.0726 7.64122 16.0864 7.66398 16.0959C7.68674 16.1053 7.71114 16.1101 7.73578 16.1101C7.76042 16.1101 7.78482 16.1053 7.80758 16.0959C7.83035 16.0864 7.85102 16.0726 7.86844 16.0552L8.59406 15.3281C8.69861 15.2235 8.82286 15.1406 8.95964 15.0843C9.09642 15.0279 9.24302 14.9993 9.39094 15H18.6056C18.6549 15.0005 18.7037 14.9913 18.7494 14.9729C18.7951 14.9545 18.8367 14.9273 18.8719 14.8928C18.9071 14.8583 18.9351 14.8173 18.9544 14.772C18.9737 14.7267 18.9839 14.678 18.9844 14.6287V14.625C18.9838 14.1929 18.8344 13.7742 18.5611 13.4395C18.2879 13.1048 17.9076 12.8745 17.4844 12.7875C17.4459 11.3958 16.875 10.2309 15.8198 9.4125C14.8439 8.65125 13.5398 8.25 12.0469 8.25H8.67188C5.47406 8.25 3.30797 10.0673 3.23438 12.7875C2.81115 12.8745 2.43086 13.1048 2.15762 13.4395C1.88439 13.7742 1.7349 14.1929 1.73438 14.625C1.73438 14.7245 1.77388 14.8198 1.84421 14.8902C1.91454 14.9605 2.00992 15 2.10938 15H6.07922ZM9.70031 16.5C9.65105 16.5 9.60227 16.5096 9.55674 16.5284C9.51122 16.5473 9.46985 16.5749 9.435 16.6097L8.39719 17.648C8.22138 17.8237 7.98297 17.9225 7.73438 17.9225C7.48578 17.9225 7.24737 17.8237 7.07156 17.648L6.03375 16.6097C5.9989 16.5749 5.95753 16.5473 5.91201 16.5284C5.86648 16.5096 5.8177 16.5 5.76844 16.5H2.51531C2.33914 16.4992 2.16836 16.5608 2.03317 16.6737C1.89798 16.7867 1.80709 16.9438 1.77656 17.1173C1.7484 17.2851 1.73429 17.4549 1.73438 17.625C1.73438 19.0589 2.72484 20.227 3.94969 20.25C4.06359 20.9587 4.33922 21.5991 4.75406 22.1002C5.36766 22.8413 6.25969 23.25 7.26563 23.25H13.4531C14.4591 23.25 15.3511 22.8413 15.9647 22.0992C16.3795 21.5981 16.6552 20.9578 16.7691 20.2491C17.9939 20.227 18.9844 19.0589 18.9844 17.6241C18.9845 17.454 18.9703 17.2842 18.9422 17.1164C18.9115 16.9431 18.8205 16.7861 18.6853 16.6734C18.5501 16.5606 18.3795 16.4992 18.2034 16.5H9.70031Z" fill="#1E61DC"/>
</g>
<defs>
<clipPath id="clip0_5104_26727">
<rect width="24" height="24" fill="white" transform="translate(0.984375)"/>
</clipPath>
</defs>
</svg>
