<svg width="22" height="24" viewBox="0 0 22 24" fill="none" xmlns="http://www.w3.org/2000/svg">
<g clip-path="url(#clip0_5105_26761)">
<path d="M13.9222 23.6166H8.0625C8.0625 23.6166 8.68089 22.5409 8.3746 21.4222C9.18363 21.4663 10.0681 20.6094 10.9923 20.6094C11.9165 20.6094 12.801 21.4663 13.6101 21.4222C13.3038 22.5409 13.9222 23.6166 13.9222 23.6166Z" fill="#1E61DC"/>
<path d="M16.1536 13.0134L15.991 4.51562H5.99518L5.8326 13.0134L5.07031 17.2736C5.66305 16.9243 7.35051 16.9286 8.70244 16.8783L13.4465 17.1254C14.7984 17.1757 16.4117 16.3312 17.0045 16.6806L16.1536 13.0134Z" fill="white"/>
<path d="M5.83286 13.0104L5.78448 15.5483C5.50335 15.7138 5.23915 15.9867 5.00545 16.322C4.89367 14.2506 3.62544 13.7885 2.63786 16.3631C1.97012 18.1051 0.228187 17.868 0.402864 16.1759C0.615767 14.1141 3.93609 10.5509 5.83286 13.0104ZM21.5838 16.1759C21.7585 17.868 20.0166 18.1051 19.3488 16.3631C18.3613 13.7885 17.093 14.2506 16.9813 16.322C16.7475 15.9867 16.4833 15.7138 16.2022 15.5483L16.1538 13.0104C18.0506 10.5509 21.3709 14.1141 21.5838 16.1759ZM7.75141 10.5944H14.2353C14.0495 11.5617 12.9492 12.8691 13.0551 15.0156C12.3859 14.9909 11.6804 14.9865 10.9933 14.9865C10.3063 14.9865 9.60077 14.9909 8.93157 15.0156C9.03754 12.8691 7.93722 11.5617 7.75141 10.5944ZM7.58303 4.9375H14.4037C14.1071 5.84476 14.0011 6.59863 13.989 7.2475H7.9977C7.98561 6.59863 7.87964 5.84476 7.58303 4.9375Z" fill="#1E61DC"/>
<path d="M16.1965 15.5513C16.4777 15.7168 16.7418 15.9897 16.9756 16.325C17.8151 17.5308 18.2583 19.5471 17.6622 20.3092C17.1009 21.0263 15.5772 21.3147 13.6054 21.4221C12.7964 21.4661 11.9118 21.4797 10.9877 21.4797C10.0635 21.4797 9.17894 21.4661 8.36991 21.4221C6.39814 21.3147 4.87443 21.0263 4.31314 20.3092C3.71701 19.5471 4.16023 17.5308 4.99975 16.325C5.23346 15.9897 5.49765 15.7168 5.77878 15.5513C6.37153 15.2019 7.57394 15.0689 8.92588 15.0185C9.59507 14.9939 10.3006 14.9895 10.9877 14.9895C11.6748 14.9895 12.3802 14.9939 13.0494 15.0185C14.4014 15.0689 15.6038 15.2019 16.1965 15.5513ZM13.9833 7.25046C13.9567 8.71853 14.4115 9.64901 14.2296 10.5974H7.74572C7.56378 9.64901 8.01862 8.71853 7.99201 7.25046H13.9833ZM13.0935 0.390625C14.9801 0.390625 17.3273 3.3853 15.9856 4.51514V4.51562C15.673 4.77837 15.1615 4.94046 14.398 4.94046H7.57733C6.81378 4.94046 6.30233 4.77837 5.98975 4.51562V4.51514C4.64798 3.3853 6.99523 0.390625 8.88185 0.390625H13.0935Z" fill="#4687FF"/>
<path d="M21.9659 16.1355C21.81 14.6269 20.1876 12.3973 18.4067 11.8912C17.7189 11.6957 17.072 11.785 16.5211 12.1397L16.3786 4.67294C16.6361 4.39374 16.771 4.0351 16.771 3.62042C16.771 2.87642 16.3247 1.98179 15.577 1.22734C14.8039 0.447387 13.8996 0 13.096 0H8.88468C8.08106 0 7.17676 0.447387 6.40372 1.22739C5.656 1.98184 5.20963 2.87647 5.20963 3.62047C5.20963 4.0351 5.34458 4.39374 5.60205 4.67298L5.45955 12.1398C4.90871 11.7851 4.26182 11.6958 3.574 11.8912C1.79306 12.3973 0.170595 14.6269 0.0147401 16.1355C-0.100034 17.2468 0.47674 17.7886 1.00551 17.915C1.78058 18.0499 2.45897 17.6591 2.99645 16.5013C3.44563 15.33 3.90719 14.9527 4.10901 14.9852C4.28316 15.0132 4.5415 15.4136 4.60755 16.2169C4.17453 16.8822 3.87327 17.7065 3.74142 18.4027C3.63918 18.943 3.53819 19.9395 4.01113 20.544C4.61529 21.3161 6.0054 21.6543 8.05256 21.7872C8.16245 22.6349 7.72934 23.4123 7.72498 23.42C7.65613 23.5398 7.65632 23.6872 7.72556 23.8068C7.79476 23.9264 7.9224 24 8.0606 24H13.9202C14.0583 24 14.186 23.9264 14.2552 23.8068C14.3245 23.6872 14.3246 23.5398 14.2558 23.42C14.251 23.4116 13.8156 22.6407 13.9279 21.7873C15.9752 21.6543 17.3654 21.3162 17.9696 20.544C18.4426 19.9395 18.3416 18.943 18.2394 18.4027C18.1075 17.7066 17.8062 16.8822 17.3732 16.217C17.4393 15.4137 17.6976 15.0132 17.8718 14.9852C18.0731 14.9532 18.5352 15.3301 18.9843 16.5013C19.4275 17.4444 20.0679 17.9653 20.9753 17.9151C21.5039 17.7886 22.0807 17.2468 21.9659 16.1355ZM6.9536 1.77237C7.57305 1.14735 8.29493 0.774194 8.88468 0.774194H13.096C14.4129 0.774194 15.9968 2.52237 15.9968 3.62047C15.9968 3.8924 15.8997 4.09727 15.6999 4.24684C15.4349 4.44513 14.9857 4.54994 14.4008 4.54994H7.57982C6.52077 4.54994 5.98382 4.23721 5.98382 3.62047C5.98382 3.0841 6.35543 2.37595 6.9536 1.77237ZM7.36822 10.6665C7.43703 11.0255 7.60227 11.3941 7.79355 11.8209C8.12471 12.5598 8.52947 13.4635 8.54761 14.6447C7.62327 14.6915 6.79435 14.7849 6.17989 14.9682L6.36729 5.15003C6.63342 5.24134 6.94227 5.29703 7.29221 5.31634C7.77666 6.95226 7.60193 8.01619 7.44647 8.95994C7.35013 9.54498 7.25906 10.0976 7.36822 10.6665ZM8.21045 9.08579C8.28119 8.6565 8.3589 8.18298 8.37874 7.63408H13.6019C13.6218 8.18298 13.6995 8.6565 13.7702 9.08579C13.8403 9.51145 13.8991 9.86898 13.8866 10.2066H8.09398C8.0816 9.86894 8.14029 9.51145 8.21045 9.08579ZM8.09911 5.32413H13.8816C13.728 5.89345 13.648 6.40103 13.6154 6.85989H8.36529C8.33268 6.40108 8.25269 5.89345 8.09911 5.32413ZM8.50005 11.5043C8.41605 11.3169 8.33785 11.1422 8.27364 10.9808H13.707C13.6428 11.1422 13.5646 11.3169 13.4806 11.5043C13.1394 12.2658 12.6837 13.2827 12.6591 14.616C12.1152 14.602 11.5519 14.5989 10.9903 14.5989C10.4288 14.5989 9.86543 14.602 9.32156 14.616C9.29698 13.2827 8.84132 12.2658 8.50005 11.5043ZM14.1871 11.8209C14.3784 11.3941 14.5436 11.0255 14.6124 10.6665C14.7216 10.0975 14.6305 9.54494 14.5341 8.95989C14.3786 8.0161 14.2039 6.95216 14.6884 5.31629C15.0383 5.29698 15.3472 5.24129 15.6133 5.14998L15.8007 14.9682C15.1863 14.7849 14.3573 14.6915 13.433 14.6447C13.4512 13.4636 13.856 12.5598 14.1871 11.8209ZM4.23163 14.2208C3.81327 14.1536 3.00201 14.3245 2.2735 16.224C1.99726 16.9444 1.51697 17.2412 1.18542 17.162C0.889966 17.0914 0.732708 16.7197 0.784869 16.2151C0.912805 14.977 2.35126 13.0435 3.78564 12.6359C4.44434 12.4487 4.98685 12.6153 5.44039 13.1446L5.39848 15.3387C5.35285 15.3725 5.30805 15.4086 5.26387 15.4464C5.08077 14.7409 4.71864 14.299 4.23163 14.2208ZM8.64632 23.2258C8.76772 22.8652 8.87819 22.3682 8.83455 21.8274C9.49668 21.8532 10.2159 21.8632 10.9903 21.8632C11.7647 21.8632 12.484 21.8532 13.146 21.8274C13.1024 22.3683 13.2129 22.8652 13.3343 23.2258H8.64632ZM17.4786 18.5467C17.6073 19.2263 17.5618 19.8088 17.3598 20.0669C16.5601 21.089 12.7982 21.089 10.9903 21.089C9.18245 21.089 5.4206 21.089 4.62085 20.0669C4.41889 19.8089 4.3734 19.2264 4.50206 18.5468C4.72024 17.3947 5.35484 16.2488 5.97821 15.8814C6.84076 15.3731 9.54013 15.3731 10.9903 15.3731C12.4405 15.3731 15.1399 15.3731 16.0024 15.8814C16.6258 16.2488 17.2604 17.3946 17.4786 18.5467ZM20.7953 17.162C20.464 17.2413 19.9835 16.9445 19.7072 16.224C18.9787 14.3246 18.1678 14.1535 17.749 14.2208C17.262 14.299 16.8999 14.7409 16.7168 15.4464C16.6727 15.4086 16.6279 15.3725 16.5822 15.3387L16.5403 13.1446C16.9938 12.6154 17.5363 12.4487 18.195 12.6359C19.6294 13.0435 21.0679 14.9769 21.1958 16.2151C21.248 16.7198 21.0907 17.0914 20.7953 17.162Z" fill="#1E61DC"/>
<path d="M15.4465 18.4274C15.4295 18.4303 13.7137 18.7171 10.9924 18.7171C8.27108 18.7171 6.55522 18.4303 6.53829 18.4274C6.3278 18.3917 6.12758 18.533 6.09153 18.7438C6.05553 18.9545 6.19716 19.1545 6.40788 19.1906C6.47969 19.2028 8.19922 19.4913 10.9924 19.4913C13.7855 19.4913 15.505 19.2029 15.5768 19.1906C15.7875 19.1545 15.9291 18.9547 15.8932 18.7439C15.8573 18.5333 15.6576 18.3917 15.4465 18.4274Z" fill="#1E61DC"/>
</g>
<defs>
<clipPath id="clip0_5105_26761">
<rect width="21.9807" height="24" fill="white"/>
</clipPath>
</defs>
</svg>
