<svg width="25" height="24" viewBox="0 0 25 24" fill="none" xmlns="http://www.w3.org/2000/svg">
<path d="M20.4902 22.5H5.48453C5.38609 22.4985 5.29219 22.4583 5.22311 22.3882C5.15403 22.318 5.11531 22.2235 5.11531 22.125C5.11531 22.0266 5.15403 21.9321 5.22311 21.8619C5.29219 21.7917 5.38609 21.7516 5.48453 21.75H20.4902C20.5886 21.7516 20.6825 21.7917 20.7516 21.8619C20.8207 21.9321 20.8594 22.0266 20.8594 22.125C20.8594 22.2235 20.8207 22.318 20.7516 22.3882C20.6825 22.4583 20.5886 22.4985 20.4902 22.5ZM12.9573 19.1251H8.86079V21.0001H14.2591C13.6865 20.4837 13.2409 19.8421 12.9573 19.1251ZM6.98507 16.5002H14.4016C14.6725 16.4996 14.9405 16.4442 15.1894 16.3372C15.4383 16.2302 15.6629 16.0739 15.8497 15.8777C16.9929 14.7419 16.0718 12.7132 14.4879 12.7503L8.86079 12.7503C8.76223 12.7489 8.66817 12.7088 8.59895 12.6386C8.52974 12.5685 8.49093 12.4739 8.49093 12.3753C8.49093 12.2767 8.52974 12.1821 8.59895 12.1119C8.66817 12.0418 8.76223 12.0017 8.86079 12.0003H10.8153L8.94331 5.20174C9.34307 5.09623 9.69711 4.86231 9.95096 4.53597C10.2048 4.20962 10.3444 3.80892 10.3483 3.39548C10.3522 2.98205 10.2202 2.57878 9.97258 2.2477C9.72493 1.91661 9.37538 1.67605 8.97768 1.56301C8.2526 1.30452 7.07696 1.91274 6.38859 2.10054C6.01545 2.22452 5.69094 2.46306 5.46126 2.7822C5.23158 3.10135 5.10844 3.48482 5.10938 3.87801V14.6252C5.10948 15.1226 5.30716 15.5996 5.65892 15.9512C6.01068 16.3028 6.48771 16.5003 6.98507 16.5002ZM14.1128 17.6251V17.2501H7.36023V17.6251C7.36085 17.8239 7.44011 18.0144 7.58069 18.1549C7.72127 18.2954 7.91174 18.3746 8.11051 18.3751H13.3625C13.5612 18.3746 13.7517 18.2954 13.8923 18.1549C14.0329 18.0144 14.1121 17.8239 14.1128 17.6251ZM15.9885 8.25041H17.1139C17.7106 8.25005 18.2827 8.01292 18.7048 7.59108C19.1268 7.16924 19.3641 6.59716 19.3647 6.00047V3.75053C19.3641 3.15383 19.1268 2.58176 18.7048 2.15992C18.2827 1.73807 17.7106 1.50094 17.1139 1.50059H15.9885C15.3918 1.50094 14.8196 1.73807 14.3976 2.15992C13.9756 2.58176 13.7382 3.15383 13.7376 3.75053V6.00047C13.7382 6.59716 13.9756 7.16924 14.3976 7.59108C14.8196 8.01292 15.3918 8.25005 15.9885 8.25041Z" fill="#1E61DC"/>
</svg>
