<svg width="14" height="20" viewBox="0 0 14 20" fill="none" xmlns="http://www.w3.org/2000/svg">
<path d="M13.2244 2.57104H10.2704V3.81593V4.25849C10.2704 4.70062 10.1048 5.09959 9.79163 5.41257C9.47843 5.72573 9.07925 5.89132 8.63754 5.89132H5.36189C4.92021 5.89132 4.52121 5.72573 4.20801 5.41278C3.89461 5.09959 3.72905 4.70062 3.72905 4.25849V3.81593V2.57104H0.775015C0.606413 2.57104 0.460333 2.63259 0.337237 2.75569C0.214105 2.87921 0.152344 3.02508 0.152344 3.19326V19.3775C0.152344 19.5459 0.213892 19.692 0.337237 19.815C0.460333 19.9382 0.6062 19.9999 0.775015 19.9999H4.93384C4.91869 19.9284 4.90937 19.8547 4.90937 19.7774V18.7548V16.943C4.90937 16.6604 5.01232 16.4155 5.21952 16.2081C5.42627 16.002 5.67118 15.8981 5.95446 15.8981H8.0448C8.32761 15.8981 8.57253 16.0022 8.77973 16.2081C8.98647 16.4155 9.09009 16.6604 9.09009 16.943V18.7548V19.7774C9.09009 19.8548 9.08099 19.9285 9.06562 20H13.2246C13.3931 20 13.5391 19.9382 13.6624 19.8151C13.7855 19.6918 13.8473 19.5459 13.8473 19.3776V3.19326C13.8473 3.02487 13.7855 2.879 13.6624 2.75569C13.5389 2.63259 13.3931 2.57104 13.2244 2.57104ZM12.1748 14.3275C12.1 14.4023 12.0117 14.4395 11.9093 14.4395H11.154C11.0517 14.4395 10.9631 14.4023 10.8883 14.3275C10.8135 14.2527 10.7763 14.1643 10.7763 14.062V13.3067C10.7763 13.2046 10.8135 13.116 10.8883 13.0413C10.9631 12.9667 11.0515 12.9289 11.154 12.9289H11.9093C12.0117 12.9289 12.1 12.9667 12.1748 13.0413C12.2496 13.1162 12.2871 13.2046 12.2871 13.3067V14.062C12.2871 14.1643 12.2496 14.253 12.1748 14.3275ZM12.2871 16.3279V17.0832C12.2871 17.1857 12.2496 17.2744 12.1748 17.3487C12.1 17.4237 12.0117 17.4608 11.9093 17.4608H11.154C11.0517 17.4608 10.9631 17.4237 10.8883 17.3487C10.8135 17.2742 10.7763 17.1857 10.7763 17.0832V16.3279C10.7763 16.2258 10.8135 16.1372 10.8883 16.0624C10.9631 15.9879 11.0515 15.9504 11.154 15.9504H11.9093C12.0117 15.9504 12.1 15.9879 12.1748 16.0624C12.2496 16.1374 12.2871 16.2258 12.2871 16.3279ZM12.1748 11.3061C12.1 11.3811 12.0117 11.4183 11.9093 11.4183H11.154C11.0517 11.4183 10.9631 11.3811 10.8883 11.3061C10.8135 11.2315 10.7763 11.1431 10.7763 11.0406V10.2855C10.7763 10.1832 10.8135 10.0946 10.8883 10.02C10.9631 9.94526 11.0515 9.90779 11.154 9.90779H11.9093C12.0117 9.90779 12.1 9.9453 12.1748 10.02C12.2496 10.0948 12.2871 10.1832 12.2871 10.2855V11.0406C12.2871 11.1431 12.2496 11.2317 12.1748 11.3061ZM12.1748 8.28487C12.1 8.35988 12.0117 8.39713 11.9093 8.39713H11.154C11.0517 8.39713 10.9631 8.35984 10.8883 8.28487C10.8135 8.21033 10.7763 8.1219 10.7763 8.01938V7.26408C10.7763 7.16202 10.8135 7.07335 10.8883 6.99859C10.9631 6.92405 11.0515 6.88654 11.154 6.88654H11.9093C12.0117 6.88654 12.1 6.92405 12.1748 6.99859C12.2496 7.0736 12.2871 7.16202 12.2871 7.26408V8.01938C12.2871 8.1219 12.2496 8.21054 12.1748 8.28487ZM12.1748 5.26366C12.1 5.33866 12.0117 5.37571 11.9093 5.37571H11.154C11.0517 5.37571 10.9631 5.33866 10.8883 5.26366C10.8135 5.18911 10.7763 5.10069 10.7763 4.99817V4.24284C10.7763 4.14077 10.8135 4.05213 10.8883 3.97734C10.9631 3.9028 11.0515 3.86529 11.154 3.86529H11.9093C12.0117 3.86529 12.1 3.9028 12.1748 3.97734C12.2496 4.05231 12.2871 4.14074 12.2871 4.24284V4.99817C12.2871 5.10069 12.2496 5.18933 12.1748 5.26366ZM7.75504 7.26408C7.75504 7.16202 7.79233 7.07335 7.86709 6.99859C7.94185 6.92405 8.03028 6.88654 8.13259 6.88654H8.88788C8.98998 6.88654 9.0784 6.92405 9.15337 6.99859C9.22813 7.0736 9.26542 7.16202 9.26542 7.26408V8.01938C9.26542 8.1219 9.22813 8.21054 9.15337 8.28487C9.0784 8.35988 8.98998 8.39713 8.88788 8.39713H8.13259C8.03028 8.39713 7.94185 8.35984 7.86709 8.28487C7.79233 8.21033 7.75504 8.1219 7.75504 8.01938V7.26408ZM7.75504 10.2855C7.75504 10.1832 7.79233 10.0945 7.86709 10.02C7.94185 9.94522 8.03028 9.90776 8.13259 9.90776H8.88788C8.98998 9.90776 9.0784 9.94526 9.15337 10.02C9.22813 10.0947 9.26542 10.1832 9.26542 10.2855V11.0406C9.26542 11.1431 9.22813 11.2317 9.15337 11.3061C9.0784 11.381 8.98998 11.4183 8.88788 11.4183H8.13259C8.03028 11.4183 7.94185 11.381 7.86709 11.3061C7.79233 11.2315 7.75504 11.1431 7.75504 11.0406V10.2855ZM3.11119 14.3275C3.03622 14.4023 2.9478 14.4395 2.84549 14.4395H2.09019C1.98788 14.4395 1.89925 14.4023 1.8247 14.3275C1.7497 14.2527 1.71244 14.1643 1.71244 14.062V13.3067C1.71244 13.2046 1.74973 13.116 1.8247 13.0413C1.89925 12.9667 1.98788 12.9289 2.09019 12.9289H2.84549C2.9478 12.9289 3.03622 12.9667 3.11119 13.0413C3.18574 13.1162 3.22324 13.2046 3.22324 13.3067V14.062C3.22324 14.1643 3.18574 14.253 3.11119 14.3275ZM3.22324 16.3279V17.0832C3.22324 17.1857 3.18574 17.2744 3.11119 17.3487C3.03622 17.4237 2.9478 17.4608 2.84549 17.4608H2.09019C1.98788 17.4608 1.89925 17.4237 1.8247 17.3487C1.7497 17.2742 1.71244 17.1857 1.71244 17.0832V16.3279C1.71244 16.2258 1.74973 16.1372 1.8247 16.0624C1.89925 15.9879 1.98788 15.9504 2.09019 15.9504H2.84549C2.9478 15.9504 3.03622 15.9879 3.11119 16.0624C3.18574 16.1374 3.22324 16.2258 3.22324 16.3279ZM3.11119 11.3061C3.03622 11.3811 2.9478 11.4183 2.84549 11.4183H2.09019C1.98788 11.4183 1.89925 11.3811 1.8247 11.3061C1.7497 11.2315 1.71244 11.1431 1.71244 11.0406V10.2855C1.71244 10.1832 1.74973 10.0946 1.8247 10.02C1.89925 9.94526 1.98788 9.90779 2.09019 9.90779H2.84549C2.9478 9.90779 3.03622 9.9453 3.11119 10.02C3.18574 10.0948 3.22324 10.1832 3.22324 10.2855V11.0406C3.22324 11.1431 3.18574 11.2317 3.11119 11.3061ZM3.11119 8.28487C3.03622 8.35988 2.9478 8.39713 2.84549 8.39713H2.09019C1.98788 8.39713 1.89925 8.35984 1.8247 8.28487C1.7497 8.21033 1.71244 8.1219 1.71244 8.01938V7.26408C1.71244 7.16202 1.74973 7.07335 1.8247 6.99859C1.89925 6.92405 1.98788 6.88654 2.09019 6.88654H2.84549C2.9478 6.88654 3.03622 6.92405 3.11119 6.99859C3.18574 7.0736 3.22324 7.16202 3.22324 7.26408V8.01938C3.22324 8.1219 3.18574 8.21054 3.11119 8.28487ZM3.11119 5.26366C3.03622 5.33866 2.9478 5.37571 2.84549 5.37571H2.09019C1.98788 5.37571 1.89925 5.33866 1.8247 5.26366C1.7497 5.18911 1.71244 5.10069 1.71244 4.99817V4.24284C1.71244 4.14077 1.74973 4.05213 1.8247 3.97734C1.89925 3.9028 1.98788 3.86529 2.09019 3.86529H2.84549C2.9478 3.86529 3.03622 3.9028 3.11119 3.97734C3.18574 4.05231 3.22324 4.14074 3.22324 4.24284V4.99817C3.22324 5.10069 3.18574 5.18933 3.11119 5.26366ZM6.24446 14.062C6.24446 14.1643 6.20695 14.253 6.13241 14.3275C6.0574 14.4022 5.96898 14.4395 5.8667 14.4395H5.11137C5.00906 14.4395 4.92067 14.4022 4.84588 14.3275C4.77109 14.2527 4.73383 14.1643 4.73383 14.062V13.3067C4.73383 13.2046 4.77109 13.116 4.84588 13.0412C4.92064 12.9667 5.00906 12.9289 5.11137 12.9289H5.8667C5.96876 12.9289 6.0574 12.9667 6.13241 13.0412C6.20695 13.1162 6.24446 13.2046 6.24446 13.3067V14.062ZM6.24446 11.0406C6.24446 11.1431 6.20695 11.2317 6.13241 11.3061C6.0574 11.3811 5.96898 11.4183 5.8667 11.4183H5.11137C5.00906 11.4183 4.92067 11.3811 4.84588 11.3061C4.77109 11.2315 4.73383 11.1431 4.73383 11.0406V10.2855C4.73383 10.1832 4.77109 10.0946 4.84588 10.02C4.92064 9.94526 5.00906 9.90779 5.11137 9.90779H5.8667C5.96876 9.90779 6.0574 9.9453 6.13241 10.02C6.20695 10.0948 6.24446 10.1832 6.24446 10.2855V11.0406ZM6.24446 8.01938C6.24446 8.1219 6.20695 8.21054 6.13241 8.28487C6.0574 8.35988 5.96898 8.39713 5.8667 8.39713H5.11137C5.00906 8.39713 4.92067 8.35984 4.84588 8.28487C4.77109 8.21033 4.73383 8.1219 4.73383 8.01938V7.26408C4.73383 7.16202 4.77109 7.07335 4.84588 6.99859C4.92064 6.92405 5.00906 6.88654 5.11137 6.88654H5.8667C5.96876 6.88654 6.0574 6.92405 6.13241 6.99859C6.20695 7.0736 6.24446 7.16202 6.24446 7.26408V8.01938ZM8.88809 14.4395H8.1328C8.03049 14.4395 7.94206 14.4023 7.8673 14.3275C7.79255 14.2527 7.75526 14.1643 7.75526 14.062V13.3067C7.75526 13.2046 7.79255 13.116 7.8673 13.0413C7.94206 12.9667 8.03049 12.9289 8.1328 12.9289H8.88809C8.99019 12.9289 9.07862 12.9667 9.15359 13.0413C9.22834 13.1162 9.26563 13.2046 9.26563 13.3067V14.062C9.26563 14.1643 9.22834 14.253 9.15359 14.3275C9.07862 14.4022 8.99019 14.4395 8.88809 14.4395Z" fill="url(#paint0_linear_4879_26186)"/>
<path d="M4.73456 5.00882C4.91315 5.16074 5.12099 5.24116 5.36177 5.24116H6.15131H7.84828H8.63761C8.87817 5.24116 9.08601 5.16074 9.26481 5.00882C9.28716 4.98994 9.31056 4.97415 9.33199 4.9529C9.52425 4.76068 9.62047 4.52922 9.62047 4.25852V3.81596V2.57107V0.98286C9.62047 0.712161 9.52446 0.4807 9.33199 0.288477C9.1398 0.0962179 8.9083 0 8.63764 0H5.36177C5.09107 0 4.85961 0.0962179 4.66738 0.288477C4.47516 0.4807 4.37891 0.712161 4.37891 0.98286V2.57104V3.81592V4.25848C4.37891 4.52918 4.47491 4.76064 4.66738 4.95287C4.68881 4.97415 4.71243 4.98977 4.73456 5.00882ZM5.25252 2.57107V1.0919C5.25252 1.03293 5.27419 0.981585 5.31732 0.938452C5.36046 0.895318 5.41181 0.873646 5.47077 0.873646H5.90749C5.96666 0.873646 6.0178 0.895318 6.06093 0.938452C6.10407 0.981798 6.12574 1.03293 6.12574 1.0919V2.1838H7.87278V1.0919C7.87278 1.03293 7.89446 0.981585 7.93759 0.938452C7.98072 0.895318 8.03207 0.873646 8.09104 0.873646H8.52775C8.58693 0.873646 8.63807 0.895318 8.6812 0.938452C8.72433 0.981798 8.74597 1.03293 8.74597 1.0919V2.57107V3.81596V3.86539V4.1493C8.74597 4.20848 8.72433 4.25961 8.6812 4.30275C8.63782 4.34609 8.58668 4.36755 8.52775 4.36755H8.09104C8.03186 4.36755 7.98072 4.34609 7.93759 4.30275C7.89424 4.25961 7.87278 4.20848 7.87278 4.1493V3.97224V3.81596V3.05741H6.12616V3.81596V3.97224V4.1493C6.12616 4.20848 6.10449 4.25961 6.06136 4.30275C6.01801 4.34609 5.96687 4.36755 5.90791 4.36755H5.47119C5.41202 4.36755 5.36088 4.34609 5.31775 4.30275C5.2744 4.25961 5.25294 4.20848 5.25294 4.1493V3.86539V3.81596V2.57107H5.25252Z" fill="url(#paint1_linear_4879_26186)"/>
<defs>
<linearGradient id="paint0_linear_4879_26186" x1="6.99982" y1="2.57104" x2="6.99982" y2="20" gradientUnits="userSpaceOnUse">
<stop stop-color="#233767"/>
<stop offset="1" stop-color="#1B2B51"/>
</linearGradient>
<linearGradient id="paint1_linear_4879_26186" x1="6.99969" y1="0" x2="6.99969" y2="5.24116" gradientUnits="userSpaceOnUse">
<stop stop-color="#233767"/>
<stop offset="1" stop-color="#1B2B51"/>
</linearGradient>
</defs>
</svg>
