<svg width="18" height="18" viewBox="0 0 18 18" fill="none" xmlns="http://www.w3.org/2000/svg">
<path d="M2.85773 16.0262L1.31711 17.5668C1.07273 17.8112 0.677734 17.8112 0.433359 17.5668C0.188984 17.3224 0.188984 16.9274 0.433359 16.6831L1.97398 15.1424L2.85773 16.0262ZM15.8752 12.1249H6.75898L11.5002 7.38368L15.7521 11.6356C16.0409 11.9249 16.5284 11.8624 16.7346 11.5074C18.3246 8.76931 18.0309 5.34306 15.9721 2.91181L16.9421 1.94181C17.1865 1.69743 17.1865 1.30243 16.9421 1.05806C16.6977 0.813684 16.3027 0.813684 16.0584 1.05806L15.0884 2.02806C12.659 -0.029441 9.23336 -0.326316 6.49273 1.26556C6.13773 1.47181 6.07523 1.95868 6.36461 2.24806L10.6165 6.49993L5.50898 11.6074L3.45086 9.54993C2.74336 8.84181 1.50773 8.84056 0.799609 9.54993C0.0671094 10.2818 0.0664844 11.4687 0.799609 12.2012L3.92461 15.3262C4.27836 15.6799 4.74898 15.8749 5.25023 15.8749H5.87523V16.8124C5.87523 17.3299 6.29523 17.7499 6.81273 17.7499C7.33023 17.7499 7.75023 17.3299 7.75023 16.8124V15.8749H13.3752V16.8124C13.3752 17.3299 13.7952 17.7499 14.3127 17.7499C14.8302 17.7499 15.2502 17.3299 15.2502 16.8124V15.8749H15.8752C16.909 15.8749 17.7502 15.0337 17.7502 13.9999C17.7502 12.9662 16.909 12.1249 15.8752 12.1249ZM15.7371 4.76056C16.6171 6.36868 16.7684 8.34181 16.0215 10.1374L14.6246 8.74056C15.1821 7.46493 15.554 6.13368 15.7371 4.76056ZM9.25961 3.37556L7.86273 1.97868C9.58523 1.26243 11.5615 1.34556 13.2396 2.26306C11.8665 2.44618 10.5352 2.81806 9.25961 3.37556Z" fill="#20325E"/>
</svg>
